<svg xmlns="http://www.w3.org/2000/svg" viewBox="0 0 480 300" width="480" height="300">
  <defs>
    <linearGradient id="hwg" x1="0" y1="0" x2="1" y2="1">
      <stop offset="0" stop-color="#F4C430"/>
      <stop offset="0.5" stop-color="#FF6B35"/>
      <stop offset="1" stop-color="#C41E3A"/>
    </linearGradient>
    <filter id="bw"><feGaussianBlur stdDeviation="1"/></filter>
  </defs>
  <rect width="480" height="300" fill="#1A1A1A"/>
  <g fill="none" stroke-width="2" filter="url(#bw)">
    <path d="M0 150 C 120 80, 240 220, 360 150 S 480 150, 480 150" stroke="url(#hwg)" opacity="0.95"/>
    <path d="M0 170 C 120 100, 240 240, 360 170 S 480 170, 480 170" stroke="url(#hwg)" opacity="0.75"/>
    <path d="M0 190 C 120 120, 240 260, 360 190 S 480 190, 480 190" stroke="url(#hwg)" opacity="0.55"/>
    <path d="M0 130 C 120 60, 240 200, 360 130 S 480 130, 480 130" stroke="url(#hwg)" opacity="0.75"/>
    <path d="M0 110 C 120 40, 240 180, 360 110 S 480 110, 480 110" stroke="url(#hwg)" opacity="0.55"/>
  </g>
</svg>