<svg xmlns="http://www.w3.org/2000/svg" viewBox="0 0 480 300" width="480" height="300"><rect width="480" height="300" fill="#1A1A1A"/><polygon points="60,28 79,39 79,61 60,72 41,61 41,39" fill="none" stroke="#F4C430" stroke-width="1" opacity="0.3"/><polygon points="115,28 134,39 134,61 115,72 96,61 96,39" fill="none" stroke="#FF6B35" stroke-width="1" opacity="0.44999999999999996"/><polygon points="170,28 189,39 189,61 170,72 151,61 151,39" fill="none" stroke="#C41E3A" stroke-width="1" opacity="0.6"/><polygon points="225,28 244,39 244,61 225,72 206,61 206,39" fill="none" stroke="#F4C430" stroke-width="1" opacity="0.3"/><polygon points="280,28 299,39 299,61 280,72 261,61 261,39" fill="none" stroke="#FF6B35" stroke-width="1" opacity="0.44999999999999996"/><polygon points="335,28 354,39 354,61 335,72 316,61 316,39" fill="none" stroke="#C41E3A" stroke-width="1" opacity="0.6"/><polygon points="390,28 409,39 409,61 390,72 371,61 371,39" fill="none" stroke="#F4C430" stroke-width="1" opacity="0.3"/><polygon points="445,28 464,39 464,61 445,72 426,61 426,39" fill="none" stroke="#FF6B35" stroke-width="1" opacity="0.44999999999999996"/><polygon points="87,76 106,87 106,109 87,120 68,109 68,87" fill="none" stroke="#FF6B35" stroke-width="1" opacity="0.44999999999999996"/><polygon points="142,76 161,87 161,109 142,120 123,109 123,87" fill="none" stroke="#C41E3A" stroke-width="1" opacity="0.6"/><polygon points="197,76 216,87 216,109 197,120 178,109 178,87" fill="none" stroke="#F4C430" stroke-width="1" opacity="0.3"/><polygon points="252,76 271,87 271,109 252,120 233,109 233,87" fill="none" stroke="#FF6B35" stroke-width="1" opacity="0.44999999999999996"/><polygon points="307,76 326,87 326,109 307,120 288,109 288,87" fill="none" stroke="#C41E3A" stroke-width="1" opacity="0.6"/><polygon points="362,76 381,87 381,109 362,120 343,109 343,87" fill="none" stroke="#F4C430" stroke-width="1" opacity="0.3"/><polygon points="417,76 436,87 436,109 417,120 398,109 398,87" fill="none" stroke="#FF6B35" stroke-width="1" opacity="0.44999999999999996"/><polygon points="472,76 491,87 491,109 472,120 453,109 453,87" fill="none" stroke="#C41E3A" stroke-width="1" opacity="0.6"/><polygon points="60,124 79,135 79,157 60,168 41,157 41,135" fill="none" stroke="#C41E3A" stroke-width="1" opacity="0.6"/><polygon points="115,124 134,135 134,157 115,168 96,157 96,135" fill="none" stroke="#F4C430" stroke-width="1" opacity="0.3"/><polygon points="170,124 189,135 189,157 170,168 151,157 151,135" fill="none" stroke="#FF6B35" stroke-width="1" opacity="0.44999999999999996"/><polygon points="225,124 244,135 244,157 225,168 206,157 206,135" fill="none" stroke="#C41E3A" stroke-width="1" opacity="0.6"/><polygon points="280,124 299,135 299,157 280,168 261,157 261,135" fill="none" stroke="#F4C430" stroke-width="1" opacity="0.3"/><polygon points="335,124 354,135 354,157 335,168 316,157 316,135" fill="none" stroke="#FF6B35" stroke-width="1" opacity="0.44999999999999996"/><polygon points="390,124 409,135 409,157 390,168 371,157 371,135" fill="none" stroke="#C41E3A" stroke-width="1" opacity="0.6"/><polygon points="445,124 464,135 464,157 445,168 426,157 426,135" fill="none" stroke="#F4C430" stroke-width="1" opacity="0.3"/><polygon points="87,172 106,183 106,205 87,216 68,205 68,183" fill="none" stroke="#F4C430" stroke-width="1" opacity="0.3"/><polygon points="142,172 161,183 161,205 142,216 123,205 123,183" fill="none" stroke="#FF6B35" stroke-width="1" opacity="0.44999999999999996"/><polygon points="197,172 216,183 216,205 197,216 178,205 178,183" fill="none" stroke="#C41E3A" stroke-width="1" opacity="0.6"/><polygon points="252,172 271,183 271,205 252,216 233,205 233,183" fill="none" stroke="#F4C430" stroke-width="1" opacity="0.3"/><polygon points="307,172 326,183 326,205 307,216 288,205 288,183" fill="none" stroke="#FF6B35" stroke-width="1" opacity="0.44999999999999996"/><polygon points="362,172 381,183 381,205 362,216 343,205 343,183" fill="none" stroke="#C41E3A" stroke-width="1" opacity="0.6"/><polygon points="417,172 436,183 436,205 417,216 398,205 398,183" fill="none" stroke="#F4C430" stroke-width="1" opacity="0.3"/><polygon points="472,172 491,183 491,205 472,216 453,205 453,183" fill="none" stroke="#FF6B35" stroke-width="1" opacity="0.44999999999999996"/><polygon points="60,220 79,231 79,253 60,264 41,253 41,231" fill="none" stroke="#FF6B35" stroke-width="1" opacity="0.44999999999999996"/><polygon points="115,220 134,231 134,253 115,264 96,253 96,231" fill="none" stroke="#C41E3A" stroke-width="1" opacity="0.6"/><polygon points="170,220 189,231 189,253 170,264 151,253 151,231" fill="none" stroke="#F4C430" stroke-width="1" opacity="0.3"/><polygon points="225,220 244,231 244,253 225,264 206,253 206,231" fill="none" stroke="#FF6B35" stroke-width="1" opacity="0.44999999999999996"/><polygon points="280,220 299,231 299,253 280,264 261,253 261,231" fill="none" stroke="#C41E3A" stroke-width="1" opacity="0.6"/><polygon points="335,220 354,231 354,253 335,264 316,253 316,231" fill="none" stroke="#F4C430" stroke-width="1" opacity="0.3"/><polygon points="390,220 409,231 409,253 390,264 371,253 371,231" fill="none" stroke="#FF6B35" stroke-width="1" opacity="0.44999999999999996"/><polygon points="445,220 464,231 464,253 445,264 426,253 426,231" fill="none" stroke="#C41E3A" stroke-width="1" opacity="0.6"/></svg>