<svg xmlns="http://www.w3.org/2000/svg" viewBox="0 0 480 300" width="480" height="300">
  <rect width="480" height="300" fill="#1A1A1A"/>
  <g fill="none" stroke-width="1.5">
    <path d="M0 80 Q 120 60, 240 80 T 480 80" stroke="#F4C430" opacity="0.7"/>
    <path d="M0 120 Q 120 100, 240 120 T 480 120" stroke="#FF6B35" opacity="0.6"/>
    <path d="M0 160 Q 120 140, 240 160 T 480 160" stroke="#C41E3A" opacity="0.5"/>
    <path d="M0 200 Q 120 180, 240 200 T 480 200" stroke="#FF6B35" opacity="0.4"/>
    <path d="M0 240 Q 120 220, 240 240 T 480 240" stroke="#F4C430" opacity="0.3"/>
  </g>
  <g fill="#F4C430">
    <circle cx="100" cy="73" r="3"/><circle cx="250" cy="80" r="4"/><circle cx="400" cy="74" r="3"/>
    <circle cx="80" cy="115" r="3"/><circle cx="260" cy="120" r="4"/>
    <circle cx="150" cy="158" r="3"/><circle cx="380" cy="158" r="3"/>
  </g>
</svg>