<svg xmlns="http://www.w3.org/2000/svg" viewBox="0 0 300 300" width="300" height="300">
  <defs>
    <linearGradient id="chip" x1="0" y1="0" x2="1" y2="1"><stop offset="0" stop-color="#F4C430"/><stop offset="1" stop-color="#FF6B35"/></linearGradient>
    <filter id="cg"><feGaussianBlur stdDeviation="2"/><feMerge><feMergeNode/><feMergeNode in="SourceGraphic"/></feMerge></filter>
  </defs>
  <rect width="300" height="300" fill="#1A1A1A"/>
  <rect x="80" y="80" width="140" height="140" rx="10" fill="none" stroke="url(#chip)" stroke-width="2"/>
  <rect x="105" y="105" width="90" height="90" rx="5" fill="rgba(244,196,48,0.08)" stroke="#FF6B35" stroke-width="1.5"/>
  <g stroke="#F4C430" stroke-width="1.5" filter="url(#cg)">
    <line x1="120" y1="80" x2="120" y2="60"/>
    <line x1="150" y1="80" x2="150" y2="60"/>
    <line x1="180" y1="80" x2="180" y2="60"/>
    <line x1="120" y1="220" x2="120" y2="240"/>
    <line x1="150" y1="220" x2="150" y2="240"/>
    <line x1="180" y1="220" x2="180" y2="240"/>
    <line x1="80" y1="120" x2="60" y2="120"/>
    <line x1="80" y1="150" x2="60" y2="150"/>
    <line x1="80" y1="180" x2="60" y2="180"/>
    <line x1="220" y1="120" x2="240" y2="120"/>
    <line x1="220" y1="150" x2="240" y2="150"/>
    <line x1="220" y1="180" x2="240" y2="180"/>
  </g>
  <text x="150" y="156" text-anchor="middle" font-family="JetBrains Mono,monospace" font-size="11" font-weight="700" fill="#F4C430">iLab</text>
</svg>