<svg xmlns="http://www.w3.org/2000/svg" viewBox="0 0 480 300" width="480" height="300">
  <defs>
    <linearGradient id="sky" x1="0" y1="0" x2="0" y2="1"><stop offset="0" stop-color="#1A1A1A"/><stop offset="1" stop-color="#C41E3A"/></linearGradient>
  </defs>
  <rect width="480" height="150" fill="url(#sky)"/>
  <circle cx="240" cy="150" r="55" fill="#F4C430"/>
  <rect y="150" width="480" height="150" fill="#1A1A1A"/>
  <line x1="0" y1="150" x2="480" y2="150" stroke="#F4C430" stroke-width="1" opacity="0.8"/><line x1="0" y1="175" x2="480" y2="175" stroke="#F4C430" stroke-width="1" opacity="0.73"/><line x1="0" y1="200" x2="480" y2="200" stroke="#F4C430" stroke-width="1" opacity="0.66"/><line x1="0" y1="225" x2="480" y2="225" stroke="#F4C430" stroke-width="1" opacity="0.5900000000000001"/><line x1="0" y1="250" x2="480" y2="250" stroke="#F4C430" stroke-width="1" opacity="0.52"/><line x1="0" y1="275" x2="480" y2="275" stroke="#F4C430" stroke-width="1" opacity="0.45"/><line x1="0" y1="300" x2="480" y2="300" stroke="#F4C430" stroke-width="1" opacity="0.38"/><line x1="0" y1="325" x2="480" y2="325" stroke="#F4C430" stroke-width="1" opacity="0.31"/><line x1="0" y1="350" x2="480" y2="350" stroke="#F4C430" stroke-width="1" opacity="0.24"/><line x1="0" y1="375" x2="480" y2="375" stroke="#F4C430" stroke-width="1" opacity="0.16999999999999993"/><line x1="60" y1="150" x2="-480" y2="300" stroke="#FF6B35" stroke-width="1" opacity="0.4"/><line x1="75" y1="150" x2="-420" y2="300" stroke="#FF6B35" stroke-width="1" opacity="0.4"/><line x1="90" y1="150" x2="-360" y2="300" stroke="#FF6B35" stroke-width="1" opacity="0.4"/><line x1="105" y1="150" x2="-300" y2="300" stroke="#FF6B35" stroke-width="1" opacity="0.4"/><line x1="120" y1="150" x2="-240" y2="300" stroke="#FF6B35" stroke-width="1" opacity="0.4"/><line x1="135" y1="150" x2="-180" y2="300" stroke="#FF6B35" stroke-width="1" opacity="0.4"/><line x1="150" y1="150" x2="-120" y2="300" stroke="#FF6B35" stroke-width="1" opacity="0.4"/><line x1="165" y1="150" x2="-60" y2="300" stroke="#FF6B35" stroke-width="1" opacity="0.4"/><line x1="180" y1="150" x2="0" y2="300" stroke="#FF6B35" stroke-width="1" opacity="0.4"/><line x1="195" y1="150" x2="60" y2="300" stroke="#FF6B35" stroke-width="1" opacity="0.4"/><line x1="210" y1="150" x2="120" y2="300" stroke="#FF6B35" stroke-width="1" opacity="0.4"/><line x1="225" y1="150" x2="180" y2="300" stroke="#FF6B35" stroke-width="1" opacity="0.4"/><line x1="240" y1="150" x2="240" y2="300" stroke="#FF6B35" stroke-width="1" opacity="0.4"/><line x1="255" y1="150" x2="300" y2="300" stroke="#FF6B35" stroke-width="1" opacity="0.4"/><line x1="270" y1="150" x2="360" y2="300" stroke="#FF6B35" stroke-width="1" opacity="0.4"/><line x1="285" y1="150" x2="420" y2="300" stroke="#FF6B35" stroke-width="1" opacity="0.4"/><line x1="300" y1="150" x2="480" y2="300" stroke="#FF6B35" stroke-width="1" opacity="0.4"/><line x1="315" y1="150" x2="540" y2="300" stroke="#FF6B35" stroke-width="1" opacity="0.4"/><line x1="330" y1="150" x2="600" y2="300" stroke="#FF6B35" stroke-width="1" opacity="0.4"/><line x1="345" y1="150" x2="660" y2="300" stroke="#FF6B35" stroke-width="1" opacity="0.4"/><line x1="360" y1="150" x2="720" y2="300" stroke="#FF6B35" stroke-width="1" opacity="0.4"/><line x1="375" y1="150" x2="780" y2="300" stroke="#FF6B35" stroke-width="1" opacity="0.4"/><line x1="390" y1="150" x2="840" y2="300" stroke="#FF6B35" stroke-width="1" opacity="0.4"/><line x1="405" y1="150" x2="900" y2="300" stroke="#FF6B35" stroke-width="1" opacity="0.4"/><line x1="420" y1="150" x2="960" y2="300" stroke="#FF6B35" stroke-width="1" opacity="0.4"/>
</svg>