<svg xmlns="http://www.w3.org/2000/svg" width="1em" height="1em" viewBox="0 0 24 24"><defs><linearGradient id="g13" x1="0%" y1="0%" x2="100%" y2="100%"><stop offset="0%" stop-color="#F4C430"/><stop offset="100%" stop-color="#FF6B35"/></linearGradient></defs><path fill="none" stroke="url(#g13)" stroke-linecap="round" stroke-linejoin="round" stroke-width="2" d="M12 7v14m-9-3a1 1 0 0 1-1-1V4a1 1 0 0 1 1-1h5a4 4 0 0 1 4 4a4 4 0 0 1 4-4h5a1 1 0 0 1 1 1v13a1 1 0 0 1-1 1h-6a3 3 0 0 0-3 3a3 3 0 0 0-3-3z"/></svg>