<svg xmlns="http://www.w3.org/2000/svg" width="1em" height="1em" viewBox="0 0 24 24"><defs><linearGradient id="g3" x1="0%" y1="0%" x2="100%" y2="100%"><stop offset="0%" stop-color="#F4C430"/><stop offset="100%" stop-color="#FF6B35"/></linearGradient></defs><g fill="none" stroke="url(#g3)" stroke-linecap="round" stroke-linejoin="round" stroke-width="2"><path d="M15 12h-5m5-4h-5m9 9V5a2 2 0 0 0-2-2H4"/><path d="M8 21h12a2 2 0 0 0 2-2v-1a1 1 0 0 0-1-1H11a1 1 0 0 0-1 1v1a2 2 0 1 1-4 0V5a2 2 0 1 0-4 0v2a1 1 0 0 0 1 1h3"/></g></svg>