<svg xmlns="http://www.w3.org/2000/svg" viewBox="0 0 1080 1350" width="1080" height="1350">
  <defs>
    <linearGradient id="g-ao" x1="0" y1="0" x2="1" y2="0">
      <stop offset="0" stop-color="#F4C430"/><stop offset="1" stop-color="#FF6B35"/>
    </linearGradient>
    <linearGradient id="g-aov" x1="0" y1="0" x2="0" y2="1">
      <stop offset="0" stop-color="#F4C430"/><stop offset="1" stop-color="#FF6B35"/>
    </linearGradient>
    <linearGradient id="g-or" x1="0" y1="0" x2="1" y2="0">
      <stop offset="0" stop-color="#FF6B35"/><stop offset="1" stop-color="#C41E3A"/>
    </linearGradient>
    <pattern id="dots" x="0" y="0" width="28" height="28" patternUnits="userSpaceOnUse">
      <circle cx="14" cy="14" r="1.1" fill="#F4C430" opacity="0.32"/>
    </pattern>
    <pattern id="grid-l" x="0" y="0" width="60" height="60" patternUnits="userSpaceOnUse">
      <path d="M60 0H0V60" stroke="#1A1A1A" stroke-width="1" fill="none" opacity="0.06"/>
    </pattern>
  </defs>
  <rect width="1080" height="1350" fill="#FAF3E0"/>
  <rect x="0" y="0" width="1080" height="540" fill="#1A1A1A"/>
  <polygon points="0,540 1080,540 1080,620" fill="#1A1A1A"/>
  <polygon points="0,540 1080,540 0,620" fill="#FAF3E0"/>
  <rect x="0" y="0" width="1080" height="10" fill="url(#g-ao)"/>
  <text x="80" y="140" font-family="JetBrains Mono,monospace" font-size="20" font-weight="700" letter-spacing="6" fill="#F4C430">CARD 03 · MISSÃO</text>
  <text x="80" y="260" font-family="Poppins,sans-serif" font-weight="900" font-size="80" fill="#FAF3E0" letter-spacing="-2">Por que</text>
  <text x="80" y="350" font-family="Poppins,sans-serif" font-weight="900" font-size="80" fill="url(#g-ao)" letter-spacing="-2">existimos?</text>
  <text x="80" y="450" font-family="Montserrat,sans-serif" font-size="26" fill="#FAF3E0" opacity="0.7">Pergunta &gt;</text>
  <g transform="translate(80 720)">
    <rect x="0" y="0" width="6" height="320" fill="url(#g-aov)"/>
    <text x="40" y="60" font-family="Poppins,sans-serif" font-weight="900" font-size="48" fill="#1A1A1A" letter-spacing="-1">Para criar a próxima</text>
    <text x="40" y="120" font-family="Poppins,sans-serif" font-weight="900" font-size="48" fill="#1A1A1A" letter-spacing="-1">geração de juristas:</text>
    <text x="40" y="190" font-family="Montserrat,sans-serif" font-size="26" fill="#1A1A1A" opacity="0.78">capazes de pensar como</text>
    <text x="40" y="222" font-family="Montserrat,sans-serif" font-size="26" fill="#1A1A1A" opacity="0.78">advogados, designers, cientistas</text>
    <text x="40" y="254" font-family="Montserrat,sans-serif" font-size="26" fill="#1A1A1A" opacity="0.78">e fundadores — ao mesmo tempo.</text>
  </g>
  <g transform="translate(80 1100)">
    <text x="0" y="0" font-family="JetBrains Mono,monospace" font-size="14" font-weight="700" letter-spacing="4" fill="#C41E3A">RESPOSTA →</text>
    <rect x="0" y="14" width="40" height="3" fill="#C41E3A"/>
  </g>
  <text x="80" y="1280" font-family="Poppins,sans-serif" font-weight="900" font-size="30" fill="#C41E3A">iLab<tspan fill="#1A1A1A" font-size="16" font-weight="400" dx="10">SANFRAN · FD-USP</tspan></text>
</svg>