<svg xmlns="http://www.w3.org/2000/svg" xmlns:xlink="http://www.w3.org/1999/xlink" width="1080" zoomAndPan="magnify" viewBox="0 0 810 1012.49997" height="1350" preserveAspectRatio="xMidYMid meet" version="1.0"><defs><clipPath id="63f6511dd1"><path d="M 182 136.609375 L 628 136.609375 L 628 875.746094 L 182 875.746094 Z M 182 136.609375 " clip-rule="nonzero"/></clipPath></defs><g clip-path="url(#63f6511dd1)"><path fill="#000000" d="M 627.277344 836.578125 L 627.902344 836.273438 L 502.722656 577.699219 L 483.425781 510.726562 C 483.410156 510.679688 483.390625 510.632812 483.363281 510.585938 L 465.367188 477.851562 L 467.417969 392.09375 C 467.417969 392.046875 467.417969 392.007812 467.410156 391.960938 L 462.078125 360.789062 L 460.023438 323.367188 C 460.023438 323.28125 459.996094 323.1875 459.957031 323.105469 L 434.472656 269.648438 C 434.394531 269.488281 434.257812 269.359375 434.085938 269.292969 L 409.441406 260.304688 L 404.519531 238.234375 C 404.472656 238.027344 404.332031 237.847656 404.136719 237.757812 L 381.941406 227.480469 C 381.78125 227.40625 381.59375 227.390625 381.425781 227.453125 L 361.273438 234.371094 L 348.460938 218.800781 C 348.320312 218.632812 348.121094 218.53125 347.890625 218.542969 L 320.863281 219.980469 C 320.703125 219.988281 320.554688 220.054688 320.433594 220.164062 L 309.175781 230.390625 L 303.917969 198.707031 L 298.777344 149.980469 C 298.765625 149.832031 298.699219 149.691406 298.597656 149.574219 L 286.664062 136.832031 C 286.496094 136.648438 286.242188 136.574219 286 136.628906 L 268.117188 140.742188 C 267.902344 140.789062 267.722656 140.941406 267.636719 141.144531 L 259.007812 161.089844 C 258.964844 161.191406 258.945312 161.300781 258.953125 161.40625 L 261.625 209.9375 C 261.699219 211.140625 269.253906 330.121094 271.289062 345.996094 C 272.925781 358.753906 271.128906 377.777344 270.363281 384.710938 L 257.253906 353.050781 C 257.199219 352.929688 257.121094 352.820312 257.007812 352.746094 L 249.191406 347.332031 L 243.246094 328.285156 C 243.199219 328.136719 243.105469 328.003906 242.972656 327.917969 L 201.816406 300.136719 C 201.636719 300.015625 201.40625 299.984375 201.199219 300.054688 L 184.242188 305.941406 C 183.996094 306.027344 183.820312 306.242188 183.78125 306.503906 L 182.09375 319.429688 C 182.066406 319.632812 182.136719 319.839844 182.269531 319.988281 L 202.171875 341.589844 L 207.222656 368.535156 C 207.234375 368.59375 207.253906 368.65625 207.277344 368.710938 L 222.511719 400.425781 L 238.695312 441.757812 C 238.742188 441.878906 238.820312 441.984375 238.929688 442.066406 L 333.449219 511.214844 L 383.21875 598.398438 L 460.519531 875.71875 L 461.191406 875.53125 L 461.3125 875.730469 L 474.394531 867.878906 L 490.402344 860.328125 L 507.332031 853.03125 L 521.746094 848.402344 L 535.695312 843.632812 L 552.601562 838.417969 L 570.484375 836.804688 L 591.421875 834.835938 L 608.964844 834.851562 L 626.574219 836.730469 L 626.640625 836.875 L 626.867188 836.757812 L 627.238281 836.800781 L 627.265625 836.570312 Z M 461.6875 874.703125 L 455.847656 803.300781 L 474.023438 867.554688 L 461.75 874.925781 Z M 203.523438 341.21875 L 203.621094 338.71875 L 218.5625 355.878906 L 205.523438 351.894531 L 203.523438 341.226562 Z M 272.664062 345.808594 C 272.476562 344.34375 272.242188 341.996094 271.972656 338.941406 L 288.164062 358.761719 L 273.027344 369.167969 C 273.4375 361.472656 273.550781 352.734375 272.664062 345.800781 Z M 499.996094 573.265625 L 473.003906 518.988281 L 484.769531 520.425781 Z M 500.910156 783.660156 L 513.609375 781.320312 L 521.640625 847.304688 Z M 386.703125 605.671875 L 396.855469 595.851562 L 413.375 654.992188 L 386.785156 605.960938 Z M 219.726562 356.960938 L 251.519531 380.726562 L 230.703125 388.917969 Z M 204.382812 319.863281 L 218.871094 322.03125 L 203.859375 332.789062 L 204.375 319.863281 Z M 381.613281 228.855469 L 381.753906 228.925781 L 388.800781 244.632812 L 372.058594 242.953125 Z M 407.707031 258.925781 L 395.964844 275.714844 L 389.738281 245.617188 L 389.738281 245.597656 C 389.738281 245.597656 407.640625 258.640625 407.640625 258.640625 L 407.707031 258.933594 Z M 458.828125 327.035156 L 448.527344 330.226562 L 446.910156 315.3125 L 458.816406 326.699219 L 458.835938 327.035156 Z M 500.761719 783.214844 L 478.628906 715.609375 L 513.449219 780.882812 L 500.757812 783.222656 Z M 414.925781 658.847656 L 450.140625 724.160156 L 435.199219 731.242188 Z M 310.242188 470.871094 L 361.597656 496.65625 L 348.5625 503.671875 Z M 252.191406 433.632812 L 284.839844 432.214844 L 271.222656 447.730469 Z M 332.28125 276.515625 L 346.199219 229.160156 L 352.855469 271.625 L 332.472656 276.703125 Z M 446.394531 314.882812 L 448.019531 329.863281 L 435.949219 311.664062 L 446.386719 314.882812 Z M 454.683594 452.398438 L 463.644531 475.964844 L 439.449219 446.265625 L 454.691406 452.398438 Z M 510.144531 634.375 L 532.699219 702.671875 L 495.503906 633.632812 Z M 373.121094 547.042969 L 362.578125 497.804688 L 389.914062 539.121094 Z M 395.777344 277.066406 L 398.574219 299.875 L 401.214844 315.433594 L 385.113281 301.621094 L 385.234375 301.542969 L 384.777344 300.871094 L 395.761719 277.027344 L 395.761719 277.074219 Z M 418.398438 306.164062 L 418.902344 306.726562 L 424.09375 326.128906 L 402.25 316.09375 Z M 435.199219 311.46875 L 436.609375 324.578125 L 424.683594 311.15625 L 435.199219 311.476562 Z M 436.300781 326.316406 L 425.960938 326.988281 L 424.628906 326.378906 L 419.578125 307.5 Z M 412.367188 587.042969 L 405.277344 533.761719 L 427.132812 582.261719 L 412.535156 587.324219 L 412.367188 587.035156 Z M 390.328125 538.921875 L 363.140625 497.828125 L 404.417969 532.167969 L 390.335938 538.914062 Z M 384.402344 300.316406 L 380.097656 276.984375 L 379.816406 275.832031 L 395.492188 276.503906 L 384.472656 300.417969 L 384.40625 300.316406 Z M 384.722656 301.890625 L 401.007812 315.863281 L 386.851562 317.71875 L 384.683594 301.917969 Z M 413.496094 385.121094 L 414.269531 410.320312 L 396.328125 409.878906 L 413.375 384.160156 Z M 429.0625 414.601562 L 408.75 440.648438 L 414.671875 410.847656 Z M 425.339844 441.472656 L 408.796875 441.328125 L 429.113281 415.273438 L 429.015625 416.074219 Z M 458.433594 639.484375 L 440.683594 581.097656 L 470.257812 636.726562 Z M 404.976562 531.929688 L 389.457031 490.558594 L 415.785156 527.996094 L 404.980469 531.929688 Z M 439.941406 578.621094 L 426.664062 527.117188 L 450.742188 576.058594 L 439.941406 578.613281 Z M 416.234375 527.84375 L 390.195312 490.804688 L 425.441406 524.902344 Z M 401.214844 485.691406 L 376.269531 447.058594 L 376.34375 447.042969 L 412.523438 482.160156 L 401.222656 485.691406 Z M 373.84375 410.53125 L 395.5 410.328125 L 376.027344 445.4375 Z M 400.746094 485.8125 L 388.765625 488.667969 L 376.585938 448.402344 Z M 401.007812 486.222656 L 424.980469 523.691406 L 425.085938 523.914062 L 389.066406 489.074219 Z M 401.46875 486.097656 L 412.796875 482.554688 L 424.984375 522.859375 Z M 376.886719 446.929688 L 391.054688 444.074219 L 411.957031 480.976562 L 376.886719 446.9375 Z M 390.96875 443.617188 L 376.492188 446.539062 L 376.140625 446.195312 L 395.5 411.289062 Z M 373.8125 410.066406 L 370.425781 379.988281 L 395.414062 409.863281 Z M 373.386719 410.550781 L 375.609375 446.125 L 351.015625 412.546875 L 373.386719 410.542969 Z M 375.71875 447.144531 L 387.898438 487.414062 L 362.894531 448.328125 Z M 426.046875 524.753906 L 413.691406 483.878906 L 438.058594 523.199219 Z M 391.546875 444 L 408.132812 441.808594 L 412.792969 481.496094 Z M 391.445312 443.542969 L 396.003906 410.980469 L 408.011719 441.359375 Z M 370.636719 379.519531 L 393.257812 381.011719 L 394.023438 387.695312 L 395.621094 409.394531 L 370.636719 379.511719 Z M 370.496094 379.046875 L 389.371094 346.652344 L 389.914062 351.933594 L 393.203125 380.546875 Z M 373.347656 410.09375 L 351.015625 412.089844 L 369.957031 379.96875 Z M 375.464844 446.707031 L 362.671875 447.890625 L 351.269531 413.679688 Z M 362.402344 448.394531 L 387.605469 487.804688 L 345.9375 452.960938 Z M 425.71875 525.296875 L 438.9375 576.558594 L 416.457031 528.257812 Z M 450.925781 576.496094 L 469.585938 634.472656 L 440.113281 579.054688 Z M 451.214844 575.972656 L 427.207031 527.171875 L 462.273438 574.398438 L 451.214844 575.964844 Z M 426.300781 525.183594 L 438.300781 523.636719 L 461.472656 572.566406 L 426.292969 525.191406 Z M 438.554688 523.128906 L 413.320312 482.40625 L 413.363281 482.394531 L 449.097656 521.179688 L 438.554688 523.121094 Z M 413.269531 481.617188 L 408.734375 443.011719 L 424.964844 479.023438 L 413.515625 481.882812 Z M 396.246094 410.335938 L 414.222656 410.777344 L 408.257812 440.742188 Z M 394.488281 387.65625 L 393.726562 381.0625 L 413.132812 383.691406 L 396.085938 409.402344 Z M 393.675781 380.585938 L 390.378906 351.878906 L 389.859375 346.867188 L 413.066406 383.214844 Z M 370.285156 378.492188 L 368.078125 348.882812 L 367.632812 346.148438 L 389.128906 346.148438 C 389.128906 346.148438 370.28125 378.492188 370.28125 378.492188 Z M 367.621094 348.945312 L 369.828125 378.59375 L 340.78125 346.15625 L 367.171875 346.15625 C 367.171875 346.15625 367.621094 348.945312 367.621094 348.945312 Z M 350.710938 411.691406 L 346.703125 387.238281 L 345.695312 381.011719 L 369.6875 379.511719 Z M 362.214844 447.96875 L 345.714844 452.546875 L 350.683594 413.390625 Z M 388.113281 488.835938 L 377.792969 491.664062 L 347.195312 454.628906 L 388.113281 488.84375 Z M 388.464844 489.226562 L 403.933594 530.464844 L 378.089844 492.070312 L 388.46875 489.226562 Z M 416.019531 528.402344 L 438.628906 576.988281 L 405.210938 532.335938 L 416.019531 528.40625 Z M 439.570312 579.195312 L 444.894531 641.964844 L 427.730469 582.554688 Z M 451.382812 576.414062 L 462.488281 574.84375 L 470.054688 634.441406 L 451.375 576.414062 Z M 438.777344 523.558594 L 449.378906 521.601562 L 461.917969 572.40625 Z M 413.871094 482.273438 L 425.171875 479.445312 L 448.589844 519.957031 Z M 425.421875 478.914062 L 409.472656 443.515625 L 433.789062 477.027344 L 425.429688 478.914062 Z M 390.015625 346.25 L 408.851562 349.804688 L 409.339844 351.988281 L 413.175781 382.523438 Z M 389.847656 345.753906 L 401.484375 316.804688 L 408.734375 349.3125 L 389.839844 345.753906 Z M 389.664062 344.972656 L 386.90625 318.183594 L 401.1875 316.308594 L 389.664062 344.96875 Z M 367.558594 345.691406 L 361.066406 305.476562 L 389.082031 345.691406 L 367.554688 345.691406 Z M 367.089844 345.691406 L 340.625 345.691406 C 340.625 345.691406 360.5625 305.261719 360.5625 305.261719 Z M 369.621094 379.046875 L 345.628906 380.546875 L 341.164062 352.910156 L 340.566406 346.59375 L 369.628906 379.042969 Z M 346.246094 387.3125 L 350.253906 411.757812 L 318.6875 383.738281 L 345.234375 381.050781 Z M 345.3125 452.070312 L 327.527344 416.03125 L 350.316406 412.625 Z M 377.316406 491.808594 L 362.234375 496.375 L 346.160156 454.089844 L 377.308594 491.808594 Z M 377.617188 492.195312 L 403.757812 531.019531 L 362.578125 496.75 Z M 439.390625 578.765625 L 427.578125 582.121094 L 405.910156 534.039062 Z M 427.289062 582.691406 L 444.578125 642.535156 L 412.769531 587.730469 Z M 445.527344 643.96875 L 440.1875 581.066406 L 457.984375 639.621094 L 445.527344 643.972656 Z M 470.398438 637.167969 L 477.105469 710.417969 L 458.554688 639.929688 L 470.390625 637.160156 Z M 470.800781 636.617188 L 463.1875 576.683594 L 483.746094 634.640625 L 470.792969 636.617188 Z M 484.21875 634.566406 L 463.851562 577.160156 L 494.738281 633.199219 Z M 462.863281 574.328125 L 450.382812 523.738281 L 472.722656 573.203125 L 462.859375 574.328125 Z M 425.644531 479.335938 L 434.023438 477.441406 L 448.375 518.652344 L 425.644531 479.332031 Z M 408.789062 441.789062 L 425.363281 441.9375 L 433.675781 476.085938 L 408.789062 441.78125 Z M 429.472656 416.140625 L 429.542969 415.582031 L 438.355469 445.371094 L 425.804688 441.546875 L 429.476562 416.140625 Z M 414.726562 410.382812 L 413.960938 385.082031 L 413.917969 384.78125 L 429.015625 414.109375 Z M 409.789062 351.90625 L 409.351562 349.945312 L 432.210938 357.105469 L 413.683594 382.898438 L 409.796875 351.90625 Z M 409.238281 349.429688 L 401.953125 316.765625 L 431.960938 356.542969 L 409.238281 349.421875 Z M 386.433594 318.128906 L 389.207031 345.054688 L 361.410156 305.148438 Z M 340.417969 345.089844 L 337.066406 309.730469 L 360.265625 304.832031 L 340.417969 345.082031 Z M 339.980469 345.398438 L 309.121094 320.320312 L 336.617188 309.871094 Z M 339.714844 345.773438 L 313.140625 349.980469 L 308.972656 320.789062 L 339.714844 345.765625 Z M 340.699219 352.976562 L 345.164062 380.59375 L 318.574219 383.289062 L 340.101562 346.660156 Z M 350.0625 412.203125 L 327.34375 415.59375 L 318.957031 387.238281 L 318.46875 384.160156 Z M 327.054688 416.113281 L 344.796875 452.046875 L 305.21875 420.808594 L 327.054688 416.105469 Z M 345.003906 452.808594 L 326.933594 460.992188 L 304.96875 421.730469 L 304.679688 420.984375 Z M 327.378906 461.777344 L 327.164062 461.394531 L 345.320312 453.171875 L 361.496094 495.738281 Z M 412.328125 587.890625 L 444.988281 644.167969 L 428.832031 650.550781 L 412.289062 587.898438 L 412.320312 587.882812 Z M 445.117188 644.613281 L 450.097656 722.226562 L 428.960938 650.996094 Z M 450.671875 723.921875 L 445.699219 646.558594 L 464.984375 717.558594 L 450.675781 723.921875 Z M 458.109375 640.058594 L 476.71875 710.753906 L 445.640625 644.417969 Z M 477.796875 712.882812 L 471.070312 639.425781 L 490.664062 710.109375 Z M 483.902344 635.085938 L 505.054688 704.304688 L 470.957031 637.0625 Z M 484.367188 635.019531 L 494.914062 633.640625 L 505.371094 703.753906 L 484.367188 635.023438 Z M 463.058594 574.769531 L 472.910156 573.648438 L 493.839844 630.609375 Z M 473.21875 573.171875 L 450.789062 523.523438 L 485.339844 573.128906 Z M 449.703125 521.066406 L 434.964844 478.726562 L 462.160156 518.34375 L 449.710938 521.066406 Z M 425.863281 442.046875 L 438.441406 445.875 L 434.117188 475.953125 Z M 429.800781 414.816406 L 442.980469 419.007812 L 442.78125 420.175781 L 438.628906 444.683594 L 429.800781 414.808594 Z M 432.578125 389.144531 L 432.714844 389.1875 L 446.539062 396.207031 L 429.773438 413.796875 L 432.554688 392.363281 L 432.574219 389.144531 Z M 432.097656 392.332031 L 429.324219 413.703125 L 413.972656 383.878906 L 432.117188 389.011719 L 432.089844 392.332031 Z M 413.90625 383.382812 L 432.34375 357.710938 L 432.125 388.542969 Z M 402.496094 316.71875 L 424.246094 326.714844 L 432.054688 355.898438 Z M 379.699219 275.367188 L 372.144531 244.214844 L 395.371094 276.039062 Z M 379.640625 277.082031 L 383.757812 299.371094 L 372.582031 282.964844 L 372.550781 282.8125 L 379.390625 276.046875 L 379.648438 277.085938 Z M 384.09375 302.320312 L 384.253906 302.210938 L 386.363281 317.570312 L 360.992188 304.417969 L 371.664062 284.082031 Z M 360.207031 304.375 L 337.007812 309.273438 L 332.347656 277.226562 Z M 332.863281 277.085938 L 352.929688 272.089844 L 353.136719 273.417969 L 360.273438 303.796875 Z M 309.078125 319.839844 L 319.300781 295.570312 L 336.355469 309.480469 Z M 312.691406 350.09375 L 288.980469 358.402344 L 308.535156 320.988281 Z M 339.8125 346.222656 L 318.265625 382.886719 L 314.023438 356.195312 L 313.203125 350.441406 L 339.8125 346.230469 Z M 318.507812 387.339844 L 326.894531 415.675781 L 304.75 420.445312 L 304.433594 420.199219 L 318.050781 384.445312 Z M 304.554688 421.925781 L 326.476562 461.113281 L 285.800781 431.976562 L 304.238281 421.097656 L 304.5625 421.925781 Z M 326.070312 461.386719 L 308.75 469.523438 L 286.167969 432.808594 L 326.070312 461.378906 Z M 326.5 461.695312 L 327.023438 462.070312 L 360.917969 495.8125 L 309.1875 469.832031 L 326.492188 461.695312 Z M 404.652344 532.574219 L 411.742188 585.828125 L 411.628906 585.382812 L 390.558594 539.332031 L 404.660156 532.574219 Z M 428.402344 650.726562 L 414.371094 656.5625 L 412.308594 589.765625 Z M 414.46875 657.019531 L 428.523438 651.175781 L 449.59375 722.1875 L 414.464844 657.027344 Z M 465.121094 718 L 487.207031 786.078125 L 450.796875 724.371094 Z M 465.414062 717.382812 L 446.246094 646.800781 L 477.269531 713.035156 L 465.410156 717.390625 Z M 490.792969 710.550781 L 512.675781 778.4375 L 477.9375 713.320312 Z M 491.113281 710.007812 L 471.445312 639.050781 L 505.71875 706.628906 Z M 506.25 706.558594 L 495.714844 635.90625 L 519.597656 706.40625 Z M 520.082031 706.386719 L 496.210938 635.925781 L 533.378906 704.902344 Z M 533.949219 704.886719 L 525.023438 639.628906 L 550.964844 706.660156 Z M 473.398438 573.628906 L 485.582031 573.585938 L 494.523438 631.113281 Z M 449.9375 521.488281 L 462.394531 518.761719 L 484.699219 571.402344 Z M 462.664062 518.277344 L 436.191406 479.699219 L 471.890625 518.457031 Z M 438.757812 446.902344 L 446.210938 476.140625 L 434.441406 476.925781 Z M 443.242188 420.257812 L 443.429688 419.167969 L 462.078125 426.742188 L 439.03125 445.15625 L 443.25 420.257812 Z M 443.0625 418.550781 L 429.878906 414.351562 L 446.640625 396.769531 L 446.488281 398.59375 L 443.070312 418.550781 Z M 432.882812 388.75 L 432.585938 388.664062 L 432.808594 358.257812 L 446.507812 395.664062 Z M 424.789062 326.960938 L 425.824219 327.441406 C 425.859375 327.453125 425.898438 327.460938 425.9375 327.460938 L 436.695312 326.761719 L 436.769531 326.847656 L 432.519531 355.84375 Z M 437.140625 325.175781 L 435.734375 312.167969 L 444.753906 325.773438 L 437.65625 326.238281 L 437.890625 326.027344 L 437.140625 325.183594 Z M 424.261719 310.679688 L 419.480469 305.289062 L 416.019531 289.789062 L 434.882812 311 L 424.265625 310.679688 Z M 418.164062 305.765625 L 401.757812 315.859375 L 399.03125 299.816406 L 396.253906 277.179688 L 417.960938 304.878906 Z M 372.140625 243.421875 L 389.015625 245.113281 L 389.300781 245.761719 L 395.40625 275.292969 Z M 379.265625 275.515625 L 372.429688 282.273438 L 372.125 280.9375 L 371.898438 245.121094 L 379.265625 275.507812 Z M 371.257812 283.402344 C 371.28125 283.488281 371.3125 283.570312 371.359375 283.636719 C 371.359375 283.636719 360.757812 303.859375 360.757812 303.859375 L 353.578125 273.332031 L 353.410156 272.257812 L 371.144531 282.933594 L 371.253906 283.402344 Z M 336.503906 309 L 319.75 295.332031 L 319.929688 295.304688 L 319.832031 294.714844 L 331.945312 277.652344 L 336.503906 309.003906 Z M 318.5625 295.527344 L 318.835938 295.480469 L 308.777344 319.382812 L 304.828125 291.96875 L 318.519531 295.265625 L 318.566406 295.535156 Z M 308.339844 319.648438 L 283.246094 297.328125 L 304.359375 291.949219 L 308.347656 319.648438 Z M 283.09375 296.890625 L 297.296875 242.859375 L 304.292969 291.484375 L 283.09375 296.886719 Z M 282.898438 295.816406 L 279.109375 244.371094 L 297.046875 241.976562 Z M 308.152344 320.101562 L 284.625 324.492188 L 283.03125 297.757812 Z M 308.242188 320.554688 L 288.644531 358.039062 L 284.671875 324.953125 Z M 312.753906 350.558594 L 313.566406 356.261719 L 317.816406 382.984375 L 288.960938 358.894531 Z M 304.152344 419.632812 L 292.328125 389.292969 L 317.769531 383.871094 Z M 285.464844 431.640625 L 269.195312 399.742188 L 303.894531 420.769531 Z M 285.335938 432.351562 L 307.984375 469.171875 L 273.042969 449.078125 L 271.597656 448.003906 L 285.34375 432.34375 Z M 361.933594 497 L 372.40625 545.929688 L 348.84375 504.046875 Z M 373.339844 547.441406 L 390.136719 539.527344 L 411.191406 585.539062 L 411.570312 586.957031 L 373.347656 547.445312 Z M 411.796875 588.117188 L 413.859375 655.003906 L 397.238281 595.535156 L 411.796875 588.113281 Z M 450.253906 724.617188 L 455.066406 798.957031 L 435.328125 731.6875 Z M 455.640625 800.675781 L 450.8125 726.125 L 472.164062 792.816406 Z M 472.601562 792.648438 L 451.308594 726.15625 L 487.722656 787.871094 Z M 465.550781 717.828125 L 477.402344 713.472656 L 487.472656 785.417969 L 465.542969 717.828125 Z M 491.242188 710.449219 L 505.847656 707.0625 L 513.367188 779.082031 Z M 519.765625 706.863281 L 544.375 773.179688 L 506.449219 707.011719 Z M 520.242188 706.828125 L 533.550781 705.335938 L 544.933594 773.351562 L 520.242188 706.824219 Z M 551.160156 707.144531 L 583.457031 775.671875 L 534.214844 705.371094 L 551.152344 707.144531 Z M 551.707031 707.230469 L 564.78125 709.410156 L 583.800781 775.308594 Z M 551.480469 706.722656 L 525.425781 639.386719 L 564.535156 708.890625 L 551.480469 706.714844 Z M 524.25 637.382812 L 533.175781 702.625 L 510.660156 634.460938 L 524.25 637.375 Z M 495.308594 633.164062 L 486.300781 575.167969 L 486.371094 575.335938 L 509.976562 633.902344 L 495.316406 633.164062 Z M 462.882812 518.738281 L 472.023438 518.929688 L 484.855469 570.570312 L 462.890625 518.738281 Z M 434.675781 477.371094 L 446.378906 476.582031 L 471.507812 517.355469 Z M 446.695312 476.148438 L 439.179688 446.675781 L 464 477.132812 L 463.980469 478.007812 C 463.980469 478.054688 464.003906 478.101562 464.011719 478.148438 Z M 464.03125 475.691406 L 455.269531 452.632812 L 464.496094 456.347656 L 464.03125 475.695312 Z M 439.148438 445.652344 L 462.085938 427.324219 L 454.710938 451.921875 L 439.148438 445.660156 Z M 443.503906 418.707031 L 446.941406 398.644531 L 447.089844 396.960938 L 462.039062 426.222656 Z M 432.996094 357.4375 L 449.347656 365.257812 L 446.789062 395.085938 Z M 432.835938 356.851562 L 437.253906 326.722656 L 445.050781 326.21875 L 448.125 330.859375 L 449.339844 364.753906 L 432.828125 356.859375 Z M 435.65625 311.082031 L 437.085938 290.917969 L 446.226562 314.347656 L 435.65625 311.085938 Z M 435.257812 310.078125 L 428.207031 289.097656 L 436.683594 290.078125 L 435.265625 310.078125 Z M 428.039062 288.617188 L 427.804688 287.917969 L 417.953125 266.40625 L 436.386719 289.574219 L 428.035156 288.609375 Z M 434.828125 310.246094 L 415.8125 288.863281 L 415.738281 288.527344 L 427.703125 289.050781 Z M 417.726562 303.824219 L 396.84375 277.179688 L 414.207031 288.058594 Z M 371.421875 243.625 L 371.640625 278.839844 L 364.875 248.976562 Z M 371.011719 282.308594 L 353.332031 271.660156 L 346.757812 229.683594 L 370.761719 281.207031 Z M 332.089844 275.527344 L 325.566406 233.445312 L 345.929688 228.425781 L 332.085938 275.527344 Z M 325.15625 233.789062 L 331.714844 276.125 L 312.316406 249.414062 L 312.136719 248.300781 L 325.15625 233.78125 Z M 331.804688 277.039062 L 319.722656 294.0625 L 312.484375 250.4375 Z M 318.433594 294.769531 L 304.753906 291.476562 L 297.851562 243.53125 L 318.191406 293.324219 Z M 293.65625 195.078125 L 297.039062 240.507812 L 276.082031 197.121094 L 293.664062 195.078125 Z M 276.171875 196.644531 L 291.527344 171.085938 L 293.621094 194.613281 L 276.175781 196.644531 Z M 297.011719 241.515625 L 279.078125 243.90625 L 276.035156 198.101562 L 297.007812 241.515625 Z M 278.660156 244.589844 L 282.421875 295.710938 L 265.855469 253.484375 Z M 284.175781 324.679688 L 272.160156 337.410156 L 282.625 298.640625 L 284.175781 324.671875 Z M 284.242188 325.28125 L 288.175781 358.046875 L 272 338.25 L 284.234375 325.28125 Z M 317.628906 383.429688 L 292.21875 388.84375 L 289.164062 362.359375 L 288.800781 359.359375 L 317.628906 383.421875 Z M 291.882812 389.421875 L 303.890625 420.21875 L 268.980469 399.0625 Z M 268.597656 399.578125 L 284.730469 431.222656 L 265.144531 417.195312 L 268.597656 399.585938 Z M 284.691406 431.757812 L 252.035156 433.175781 L 264.921875 417.605469 L 284.683594 431.757812 Z M 251.769531 432.78125 L 252.210938 382.113281 L 264.628906 417.25 L 251.769531 432.789062 Z M 231.121094 348.125 L 251.144531 379.867188 L 219.65625 356.328125 Z M 219.496094 355.878906 L 219.691406 322.945312 L 230.890625 347.714844 L 219.488281 355.878906 Z M 203.835938 333.371094 L 219.234375 322.339844 L 219.035156 355.714844 L 203.644531 338.039062 L 203.832031 333.371094 Z M 251.761719 381.136719 L 251.3125 432.425781 L 230.886719 389.355469 Z M 270.984375 448.132812 L 267.253906 461.039062 L 252.246094 434.253906 Z M 267.648438 461.347656 L 271.382812 448.425781 L 272.785156 449.46875 L 307.339844 469.335938 L 267.871094 461.515625 L 267.648438 461.351562 Z M 348.195312 503.964844 L 337.28125 515.097656 L 334.597656 510.390625 C 334.550781 510.300781 334.480469 510.226562 334.402344 510.175781 L 333.84375 509.765625 L 309.65625 470.96875 L 348.195312 503.960938 Z M 337.515625 515.523438 L 348.476562 504.335938 L 372.070312 546.277344 L 337.550781 515.574219 L 337.523438 515.523438 Z M 411.628906 587.6875 L 397.113281 595.09375 L 396.207031 591.855469 L 373.953125 548.742188 Z M 434.78125 731.472656 L 424 739.480469 L 424 739.464844 C 424 739.464844 414.71875 659.800781 414.71875 659.800781 Z M 424.132812 739.957031 L 434.921875 731.941406 L 454.539062 798.78125 L 424.171875 740.089844 Z M 455.761719 801.125 L 472.296875 793.265625 L 489.980469 859.742188 Z M 472.726562 793.089844 L 487.851562 788.3125 L 490.449219 859.714844 Z M 488.261719 787.6875 L 478.179688 715.710938 L 500.320312 783.34375 L 488.265625 787.695312 Z M 514.003906 780.769531 L 506.476562 708.664062 L 531.019531 777.136719 Z M 531.484375 777.0625 L 507.148438 709.171875 L 545.183594 775.53125 Z M 545.757812 775.503906 L 534.257812 706.761719 L 564.808594 773.132812 L 566.328125 776.691406 L 545.757812 775.507812 Z M 565.234375 772.9375 L 535.027344 707.320312 L 584.363281 777.757812 L 566.84375 776.710938 Z M 585.007812 777.828125 L 565.722656 711.035156 L 599.648438 781.105469 Z M 524.910156 637.523438 L 530.746094 638.78125 L 562.4375 704.25 L 524.910156 637.53125 Z M 524.640625 636.992188 L 514.46875 605.136719 L 530.496094 638.25 Z M 510.484375 633.957031 L 487.179688 576.113281 L 523.984375 636.859375 L 510.484375 633.964844 Z M 485.964844 573.15625 L 472.535156 519.082031 L 500.386719 575.09375 Z M 446.949219 476.636719 L 464.207031 478.632812 L 465.058594 480.175781 L 471.988281 517.269531 L 446.949219 476.628906 Z M 464.503906 455.851562 L 455.140625 452.089844 L 462.667969 426.988281 L 465.167969 428.003906 L 464.503906 455.859375 Z M 462.804688 426.539062 L 465.410156 417.847656 L 465.179688 427.5 L 462.804688 426.53125 Z M 465.457031 416.097656 L 462.46875 426.054688 L 447.480469 396.710938 L 465.675781 406.921875 Z M 449.785156 365.503906 L 462.785156 373.148438 L 462.804688 373.269531 L 447.230469 395.3125 L 449.789062 365.503906 Z M 462.683594 372.550781 L 449.816406 364.980469 L 448.636719 332.007812 L 462.621094 372.167969 L 462.691406 372.546875 Z M 448.65625 330.671875 L 458.863281 327.511719 L 459.621094 341.320312 L 448.695312 330.792969 L 448.65625 330.679688 Z M 446.808594 314.574219 L 437.910156 291.757812 L 457.230469 320.605469 L 458.648438 323.578125 L 458.78125 326.023438 L 446.816406 314.574219 Z M 437.683594 290.597656 L 444.976562 294.921875 L 455.847656 317.726562 Z M 437.140625 289.738281 L 434.5625 273.0625 L 444.625 294.179688 Z M 417.15625 264.65625 L 417.121094 264.585938 L 427.847656 268.496094 L 436.085938 288.449219 L 417.15625 264.652344 Z M 427.382812 288.085938 L 427.550781 288.574219 L 415.636719 288.050781 L 415.316406 286.605469 L 416.785156 264.941406 L 427.382812 288.078125 Z M 396.179688 276.21875 L 407.847656 259.539062 L 414.074219 287.425781 Z M 389.347656 244.746094 L 382.394531 229.214844 L 382.875 229.433594 L 406.699219 257.367188 L 389.351562 244.746094 Z M 371.714844 242.636719 L 368.390625 233.390625 L 380.894531 229.097656 Z M 371.199219 242.570312 L 362.058594 236.570312 L 361.84375 235.636719 L 367.949219 233.539062 Z M 371.257812 243.160156 L 364.757812 248.480469 L 362.207031 237.222656 Z M 370.28125 279.074219 L 346.898438 228.898438 L 361.550781 240.566406 L 370.285156 279.074219 Z M 345.402344 228.078125 L 325.457031 232.996094 L 321.367188 221.347656 L 323.054688 221.257812 L 345.402344 228.085938 Z M 324.402344 221.183594 L 342.34375 220.230469 L 345.84375 227.734375 L 324.402344 221.191406 Z M 325.046875 233.21875 L 312.082031 247.675781 L 321.003906 221.714844 L 325.046875 233.222656 Z M 317.855469 291.261719 L 297.804688 242.179688 L 310.773438 248.574219 L 317.847656 291.261719 Z M 294.125 195.183594 L 302.511719 198.738281 L 302.527344 198.902344 L 302.605469 199.363281 L 297.417969 239.425781 L 294.117188 195.183594 Z M 302.457031 198.207031 L 294.085938 194.660156 L 292.113281 172.472656 L 302.445312 198.066406 Z M 275.882812 196.21875 L 273.308594 173.070312 L 291.21875 170.699219 Z M 278.621094 244.054688 L 265.894531 252.886719 L 275.621094 198.828125 Z M 282.496094 297.152344 L 269.675781 309.308594 C 268.460938 292.457031 267.113281 272.546875 265.949219 254.96875 L 282.503906 297.148438 Z M 282.328125 297.945312 L 271.796875 336.964844 C 271.222656 330.214844 270.496094 320.714844 269.71875 309.90625 Z M 288.699219 362.421875 L 291.761719 388.976562 L 268.953125 398.570312 L 288.363281 359.605469 Z M 264.820312 416.414062 L 252.582031 381.78125 L 268.253906 398.949219 L 264.828125 416.414062 Z M 231.601562 348.023438 L 247.953125 347.976562 C 248 348.113281 248.089844 348.234375 248.210938 348.3125 L 248.355469 348.414062 L 251.660156 379.828125 L 231.601562 348.015625 Z M 247.804688 347.511719 L 231.335938 347.5625 L 220.121094 322.765625 L 247.605469 346.875 Z M 219.570312 321.640625 L 205.167969 304.039062 L 229.347656 320.367188 L 219.5625 321.640625 Z M 204.355469 319.390625 C 204.320312 319.214844 204.234375 319.054688 204.085938 318.949219 L 186.023438 306.769531 L 194.503906 303.824219 L 218.582031 321.519531 L 204.359375 319.390625 Z M 230.320312 389.21875 L 225.175781 403.402344 L 225.125 403.269531 L 219.75 358.464844 L 230.320312 389.226562 Z M 225.433594 404.054688 L 230.597656 389.824219 L 250.660156 432.136719 L 225.78125 404.941406 Z M 251.453125 433.761719 L 266.378906 460.414062 L 240.171875 441.238281 Z M 308.246094 469.980469 L 297.832031 483.429688 L 268.75 462.152344 Z M 308.644531 470.226562 L 332.84375 509.039062 L 298.207031 483.699219 Z M 372.589844 547.351562 L 360.730469 556.171875 L 338.269531 516.832031 Z M 395.78125 592.015625 L 396.714844 595.347656 L 386.5625 605.167969 L 386.125 603.597656 L 373.5625 548.980469 Z M 413.859375 656.851562 L 403.484375 665.867188 L 387.34375 607.957031 L 413.859375 656.847656 Z M 413.964844 657.371094 L 423.191406 736.597656 L 403.617188 666.367188 Z M 455.140625 800.964844 L 443.714844 810.214844 L 424.777344 742.28125 L 455.140625 800.972656 Z M 456.175781 802.757812 L 489.683594 860.160156 L 474.449219 867.339844 Z M 488.367188 789.894531 L 506.398438 852.929688 L 490.90625 859.601562 Z M 500.460938 783.773438 L 521.0625 847.023438 L 488.40625 788.125 Z M 514.300781 783.195312 L 535.339844 843.277344 L 522.164062 847.777344 Z M 514.601562 782.65625 L 551.769531 838.203125 L 535.773438 843.128906 L 514.59375 782.65625 Z M 514.1875 781.207031 L 531.175781 777.578125 L 552.285156 838.042969 L 552.226562 838.0625 L 514.179688 781.210938 Z M 531.644531 777.511719 L 545.363281 775.972656 L 552.976562 837.933594 L 552.757812 837.953125 L 531.652344 777.511719 Z M 546 777.402344 L 570.132812 836.375 L 553.433594 837.886719 Z M 546.429688 777.230469 L 590.351562 834.480469 L 570.617188 836.335938 Z M 546.054688 775.980469 L 566.527344 777.160156 L 590.972656 834.425781 L 590.898438 834.425781 C 590.898438 834.425781 546.054688 775.984375 546.054688 775.984375 Z M 591.453125 834.378906 L 567.046875 777.1875 L 584.617188 778.238281 L 591.488281 834.378906 Z M 585.230469 779.425781 L 608.652344 834.402344 L 591.957031 834.386719 L 585.234375 779.433594 Z M 585.371094 778.378906 L 599.910156 781.636719 L 625.089844 833.65625 L 585.363281 778.378906 Z M 513.039062 602.195312 L 523.648438 635.40625 L 486.230469 573.65625 L 500.640625 575.589844 L 500.714844 575.730469 L 501.40625 578.140625 C 501.421875 578.183594 501.433594 578.214844 501.449219 578.25 Z M 484.632812 519.941406 L 472.75 518.492188 L 472.675781 518.363281 L 465.785156 481.472656 L 482.117188 511.183594 L 484.640625 519.9375 Z M 465.683594 406.40625 L 447.257812 396.066406 L 462.910156 373.917969 L 466.027344 392.128906 Z M 462.144531 369.414062 L 449.03125 331.753906 L 459.65625 341.992188 L 460.695312 360.941406 Z M 433.863281 271.605469 L 436.402344 288.003906 L 428.4375 268.710938 L 433.339844 270.496094 L 433.863281 271.597656 Z M 416.363281 264.308594 L 414.953125 285.027344 L 409.796875 261.917969 L 416.363281 264.316406 Z M 407.386719 257.464844 L 383.882812 229.90625 L 403.234375 238.867188 L 407.386719 257.457031 Z M 360.394531 235.496094 L 361.382812 239.839844 L 346.460938 227.957031 L 342.847656 220.203125 L 347.609375 219.949219 L 360.402344 235.496094 Z M 320.394531 222.066406 L 311.886719 246.820312 L 309.429688 232.019531 Z M 310.679688 248.015625 L 297.605469 241.566406 L 302.867188 200.941406 Z M 302.269531 196.394531 L 291.992188 170.933594 L 292.144531 170.4375 C 292.257812 170.320312 292.332031 170.171875 292.351562 170.003906 L 292.386719 169.648438 L 297.632812 152.351562 L 302.277344 196.394531 Z M 297.496094 151.167969 L 292.582031 167.378906 L 294.414062 147.15625 L 297.410156 150.363281 L 297.496094 151.175781 Z M 268.777344 142.011719 L 285.925781 138.066406 L 293.152344 145.792969 L 291.015625 169.328125 L 273.558594 171.636719 L 267.878906 144.09375 Z M 266.917969 146.3125 L 272.328125 172.550781 C 272.382812 172.820312 272.597656 173.015625 272.851562 173.074219 L 275.34375 195.5 L 260.410156 162.46875 L 260.355469 161.480469 L 266.921875 146.304688 Z M 260.476562 163.746094 L 275.453125 196.871094 L 262.960938 208.9375 L 260.472656 163.746094 Z M 262.996094 209.550781 L 275.371094 197.589844 L 265.703125 251.355469 C 264.183594 228.414062 263.035156 210.308594 263.007812 209.84375 Z M 271.4375 387.515625 C 271.457031 387.371094 272.457031 379.480469 273 369.757812 L 287.902344 359.511719 L 269.03125 397.394531 L 270.851562 388.113281 C 271.160156 388.066406 271.394531 387.824219 271.4375 387.511719 Z M 270.394531 388.023438 L 268.359375 398.382812 L 252.539062 381.050781 L 267.628906 381.710938 L 270.105469 387.695312 C 270.167969 387.835938 270.269531 387.949219 270.394531 388.023438 Z M 256.050781 353.75 L 267.425781 381.230469 L 252.199219 380.566406 L 248.855469 348.757812 L 256.050781 353.742188 Z M 247.34375 346.027344 L 220.007812 322.050781 L 229.929688 320.753906 L 242.003906 328.902344 Z M 201.339844 301.453125 L 203.835938 303.140625 L 218.148438 320.628906 L 195.039062 303.644531 L 201.347656 301.453125 Z M 185.027344 307.777344 L 202.992188 319.886719 L 202.199219 339.574219 L 183.519531 319.296875 Z M 205.617188 352.398438 L 218.953125 356.46875 L 211.613281 374.515625 L 208.570312 368.183594 L 205.609375 352.398438 Z M 211.886719 375.078125 L 219.148438 357.242188 L 224.457031 401.546875 L 223.800781 399.867188 Z M 226.25 406.144531 L 251.183594 433.386719 L 239.863281 440.890625 Z M 360.960938 556.578125 L 372.804688 547.761719 L 384.191406 597.28125 L 360.953125 556.578125 Z M 443.847656 810.699219 L 455.234375 801.476562 L 461.03125 872.351562 Z M 507.175781 852.59375 L 506.828125 852.742188 L 488.84375 789.878906 L 521.128906 848.113281 Z M 609.160156 834.414062 L 586 780.050781 L 626.269531 836.085938 L 626.351562 836.25 L 609.167969 834.414062 Z M 609.160156 834.414062 " fill-opacity="1" fill-rule="nonzero"/></g></svg>