<svg xmlns="http://www.w3.org/2000/svg" xmlns:xlink="http://www.w3.org/1999/xlink" width="1080" zoomAndPan="magnify" viewBox="0 0 810 1012.49997" height="1350" preserveAspectRatio="xMidYMid meet" version="1.0"><defs><clipPath id="b3f8ba0079"><path d="M 141.097656 262 L 668.839844 262 L 668.839844 786.472656 L 141.097656 786.472656 Z M 141.097656 262 " clip-rule="nonzero"/></clipPath></defs><g clip-path="url(#b3f8ba0079)"><path fill="#c06a37" d="M 668.78125 525.355469 C 668.316406 518.035156 667.574219 510.628906 666.578125 503.339844 C 664.660156 489.273438 661.785156 475.480469 658.027344 462.339844 L 657.601562 462.460938 L 658.023438 462.332031 C 656.144531 456.21875 653.847656 449.65625 650.515625 440.386719 C 649.902344 438.542969 649.429688 437.097656 649.058594 435.941406 L 648.675781 436.066406 C 648.671875 436.0625 649.050781 435.914062 649.050781 435.914062 C 640.207031 413.539062 628.476562 392.496094 614.191406 373.386719 C 614.183594 373.375 614.105469 373.246094 614.105469 373.246094 C 614.101562 373.25 614.070312 373.210938 614.070312 373.210938 C 600.757812 355.386719 585.167969 339.179688 567.738281 325.035156 C 563.523438 321.585938 559.253906 318.316406 555.015625 315.285156 C 552.4375 313.375 549.78125 311.53125 546.507812 309.390625 C 545.59375 308.730469 544.609375 308.085938 543.59375 307.480469 C 542.019531 306.421875 540.613281 305.527344 539.328125 304.757812 C 539.171875 304.660156 539.011719 304.558594 538.851562 304.457031 C 538.738281 304.375 538.609375 304.285156 538.46875 304.214844 C 532.664062 300.597656 526.605469 297.164062 519.949219 293.707031 L 519.886719 293.667969 C 501.859375 284.347656 482.851562 276.984375 463.382812 271.785156 C 442.476562 266.171875 421.132812 263.042969 399.933594 262.488281 C 399.933594 262.488281 399.84375 262.480469 399.839844 262.480469 C 399.773438 262.472656 399.707031 262.460938 399.644531 262.460938 C 344.0625 260.964844 291.445312 276.597656 247.449219 307.730469 C 247.296875 307.820312 247.179688 307.914062 247.054688 308.003906 C 233.796875 317.429688 221.367188 328.28125 210.054688 340.257812 L 209.878906 340.125 L 208.59375 341.792969 C 201.851562 349.019531 195.417969 356.785156 189.429688 364.902344 L 189.234375 364.792969 L 188.375 366.328125 C 185.675781 369.984375 182.96875 373.871094 180.105469 378.230469 C 177.21875 382.957031 174.496094 387.746094 172.003906 392.464844 C 171.988281 392.488281 171.878906 392.527344 171.878906 392.527344 L 171.914062 392.636719 C 167.101562 401.703125 162.8125 411.042969 159.175781 420.402344 C 155.070312 430.835938 151.632812 441.652344 148.960938 452.523438 C 148.9375 452.582031 148.929688 452.601562 148.921875 452.621094 C 147.433594 458.628906 146.140625 464.8125 145.070312 471.003906 C 145.042969 471.164062 145.019531 471.351562 144.992188 471.535156 C 143.859375 478.289062 142.972656 485.160156 142.359375 492 L 142.363281 492.066406 C 141.074219 507.09375 141.109375 522.339844 142.46875 537.367188 C 142.515625 538.128906 142.589844 538.863281 142.660156 539.621094 L 142.679688 539.78125 C 142.679688 539.804688 142.679688 539.84375 142.683594 539.882812 C 142.699219 539.957031 142.703125 539.984375 142.714844 540.015625 C 144.253906 555.496094 147.207031 570.941406 151.5 585.929688 C 151.5 585.941406 151.574219 586.34375 151.574219 586.34375 L 151.617188 586.335938 C 152.835938 590.605469 154.226562 594.996094 155.765625 599.421875 L 155.707031 599.445312 C 155.882812 599.894531 156.046875 600.324219 156.210938 600.746094 C 156.214844 600.773438 156.21875 600.804688 156.226562 600.832031 C 160.039062 611.675781 164.550781 622.292969 169.640625 632.382812 L 169.792969 632.835938 L 169.855469 632.816406 C 174.675781 642.417969 180.183594 651.90625 186.238281 661.015625 C 189.484375 665.894531 192.882812 670.679688 196.3125 675.179688 C 196.363281 675.265625 196.386719 675.3125 196.410156 675.328125 C 206.746094 688.90625 218.417969 701.621094 231.109375 713.132812 L 231.597656 713.546875 C 244.46875 725.160156 258.597656 735.710938 273.582031 744.910156 C 276.875 746.957031 280.351562 748.996094 283.914062 750.964844 C 296.175781 757.863281 309.246094 764.011719 322.765625 769.238281 L 322.90625 769.339844 C 322.929688 769.355469 322.957031 769.371094 322.984375 769.382812 L 327.117188 771.207031 L 334.265625 773.398438 C 336.484375 774.160156 338.558594 774.851562 340.628906 775.503906 C 352.125 778.546875 363.566406 780.957031 374.558594 782.65625 L 374.652344 782.683594 C 374.675781 782.6875 374.695312 782.699219 374.71875 782.699219 C 384.382812 784.179688 393.859375 785.183594 402.917969 785.675781 L 403.015625 785.675781 C 408.011719 785.976562 413.0625 786.125 418.128906 786.125 C 421.808594 786.125 425.5 786.046875 429.1875 785.886719 C 438.777344 785.523438 448.375 784.589844 457.726562 783.109375 C 457.871094 783.097656 457.996094 783.074219 458.132812 783.046875 C 481.371094 779.414062 504.007812 772.378906 525.425781 762.140625 C 525.441406 762.132812 525.457031 762.125 525.472656 762.117188 L 527.382812 761.292969 L 527.34375 761.210938 C 534.894531 757.53125 542.488281 753.351562 549.941406 748.753906 C 549.972656 748.726562 550.003906 748.703125 550.035156 748.675781 C 550.625 748.316406 551.195312 747.953125 551.765625 747.566406 C 551.796875 747.546875 551.8125 747.539062 551.824219 747.53125 C 555.441406 745.28125 559.136719 742.828125 563.144531 740.015625 C 571.425781 734.1875 579.679688 727.667969 587.695312 720.617188 C 590.417969 718.003906 592.871094 715.570312 595.179688 713.183594 C 605.175781 702.976562 614.148438 692.441406 621.84375 681.871094 C 641.054688 655.621094 653.976562 627.632812 661.347656 596.300781 L 661.398438 596.070312 C 662.167969 592.902344 662.859375 589.636719 663.511719 586.132812 L 663.65625 585.480469 C 667.214844 566.734375 668.890625 547.082031 668.78125 525.355469 Z M 664.652344 574.09375 C 665.476562 565.175781 665.453125 557.738281 665 542.988281 C 666.488281 530.246094 667.136719 523.417969 667.046875 514.960938 C 667.390625 518.445312 667.675781 521.925781 667.898438 525.382812 C 667.984375 542.753906 666.90625 558.792969 664.652344 574.09375 Z M 561.925781 738.308594 L 561.3125 736.269531 L 561.082031 734.785156 C 560.800781 732.988281 560.800781 732.988281 560.621094 730.824219 L 560.453125 728.824219 C 576.628906 713.695312 581.472656 708.785156 597.289062 689.808594 L 597.28125 689.90625 C 596.773438 697.628906 596.515625 701.53125 595.347656 709.179688 C 580.742188 724.191406 576.546875 727.832031 562.417969 738.972656 Z M 420.21875 780.550781 L 417.839844 777.019531 L 415.808594 772.328125 L 414.238281 766.832031 C 436.238281 757.984375 442.929688 754.34375 462.949219 742.003906 L 463.117188 743.816406 C 464.050781 753.765625 464.53125 758.832031 467.367188 768.4375 C 448.441406 776.679688 442.800781 778.722656 422.890625 782.953125 Z M 195.042969 670.429688 L 193.363281 664.816406 C 193.214844 663.984375 193.078125 663.238281 192.953125 662.546875 C 191.988281 657.277344 191.617188 655.238281 191.121094 642.355469 L 197.734375 645.210938 L 205.492188 647.527344 L 213.714844 649.011719 L 221.925781 649.621094 C 221.984375 667.976562 222.011719 673.25 223.390625 688.179688 L 215.90625 685.226562 L 208.339844 681.117188 L 201.355469 676.167969 Z M 156.917969 600.117188 C 155.226562 595.257812 153.691406 590.417969 152.363281 585.730469 L 151.511719 580.929688 L 151.378906 578.101562 C 151.214844 574.664062 151.214844 574.664062 151.394531 571.203125 C 151.421875 570.640625 151.457031 569.96875 151.496094 569.191406 L 154.1875 573.960938 L 158.164062 579.492188 L 162.660156 584.417969 L 167.4375 588.535156 C 166.1875 603.378906 165.863281 608.320312 166.746094 619.847656 C 166.558594 619.558594 166.375 619.269531 166.199219 619 C 162.226562 612.847656 161.3125 611.429688 156.917969 600.117188 Z M 143.5625 539.730469 L 143.542969 539.535156 C 143.46875 538.796875 143.402344 538.078125 143.351562 537.328125 L 143.453125 532.921875 C 143.574219 532.074219 143.675781 531.320312 143.769531 530.628906 C 144.472656 525.488281 144.679688 523.957031 147.667969 513.371094 C 150.160156 520.628906 150.773438 521.671875 153.207031 525.800781 L 154.222656 527.53125 L 157.28125 531.605469 C 152.671875 551.21875 152.082031 555.40625 150.875 565.960938 C 147.269531 557.691406 145.832031 554.089844 143.585938 539.816406 C 143.574219 539.78125 143.570312 539.753906 143.5625 539.730469 Z M 143.980469 485.960938 L 143.789062 486.644531 C 143.867188 485.933594 143.957031 485.222656 144.039062 484.511719 C 144.019531 484.992188 144 485.464844 143.980469 485.960938 Z M 158.917969 439.089844 C 166.273438 430.335938 169.289062 427.003906 179.226562 417.507812 C 179.0625 420.769531 179.289062 423.703125 179.824219 426.296875 C 169.648438 439.640625 166.53125 444.109375 158.199219 457.414062 C 157.828125 451.503906 157.757812 448.945312 158.917969 439.089844 Z M 172.457031 393.503906 L 173.128906 393.675781 C 168.109375 403.96875 166.941406 406.886719 163.550781 416.363281 C 162.574219 417.175781 161.644531 418 160.753906 418.832031 C 164.152344 410.292969 168.082031 401.789062 172.457031 393.503906 Z M 189.191406 366.707031 C 194.132812 359.929688 199.394531 353.390625 204.878906 347.203125 L 203.417969 349.804688 C 196.625 357.5 194.398438 360.167969 188.25 368.6875 L 188.375 368.136719 L 189.121094 366.808594 C 189.144531 366.773438 189.167969 366.742188 189.191406 366.707031 Z M 330.960938 270.613281 C 339.734375 269.097656 341.542969 268.789062 349.667969 268.75 C 329.242188 273.035156 322.023438 275.226562 300.398438 284.566406 L 299.929688 284.648438 C 292.75 285.90625 289.394531 286.5 281.378906 289.496094 C 292.253906 283.703125 295.316406 282.53125 306.328125 278.316406 L 309.90625 276.949219 L 309.839844 276.777344 C 316.765625 274.40625 323.8125 272.347656 330.957031 270.59375 Z M 519.648438 294.550781 L 521.976562 295.898438 L 529.332031 301.382812 L 536.085938 307.789062 L 540.164062 312.640625 C 515.292969 295.734375 507.300781 291.792969 481.316406 280.863281 C 481.300781 280.859375 473.980469 276.316406 473.980469 276.316406 L 470.445312 274.695312 C 487.320312 279.699219 503.796875 286.339844 519.515625 294.480469 C 519.5625 294.503906 519.605469 294.527344 519.648438 294.550781 Z M 649.671875 440.65625 L 649.757812 441.023438 C 653.238281 455.695312 654.519531 461.121094 654.929688 482.46875 C 647.691406 457.355469 644.628906 449.339844 632.804688 423.597656 C 629.164062 404.292969 626.992188 397.910156 622.4375 388.199219 C 635.28125 408.289062 639.328125 416.3125 649.671875 440.652344 C 649.671875 440.652344 649.671875 440.65625 649.671875 440.65625 Z M 661.851562 589.542969 C 657.097656 607.039062 655.089844 612.78125 648.996094 627.265625 C 651.390625 615.152344 651.898438 609.503906 652.589844 592.023438 C 659.011719 572.613281 660.914062 566.058594 664.242188 547.363281 C 664.742188 565.910156 664.332031 572.023438 661.851562 589.542969 Z M 559.773438 707.074219 L 559.613281 699.414062 C 576.730469 680.121094 581.75 674.003906 597.832031 650.804688 C 598.109375 666.4375 598.136719 671.734375 597.382812 688.308594 C 581.164062 707.800781 576.355469 712.730469 560.390625 727.667969 C 560.046875 720.324219 559.972656 716.777344 559.773438 707.074219 Z M 359.980469 752.117188 C 358.195312 737.269531 357.875 731.117188 356.960938 713.289062 L 356.878906 711.691406 C 379.46875 699.929688 386.222656 695.480469 406.363281 680.707031 L 406.714844 686.226562 C 407.210938 694.085938 407.210938 694.085938 408.328125 714.707031 L 409.230469 731.378906 C 383.976562 744.699219 377.925781 746.574219 360.085938 752.085938 Z M 308.636719 727.175781 C 307.601562 712.839844 307.488281 709.972656 306.789062 692.53125 L 306.359375 681.832031 C 327.339844 672.550781 333.707031 668.847656 352.78125 656.351562 C 354.289062 677.191406 354.371094 678.800781 355.488281 701.511719 L 355.964844 711.148438 C 331.476562 722.109375 325.671875 723.398438 308.636719 727.175781 Z M 224.3125 688.507812 C 222.898438 673.3125 222.867188 668.105469 222.808594 649.640625 C 235.964844 649.328125 240.566406 649.199219 260.066406 643.789062 L 260.253906 652.011719 C 260.90625 680.449219 260.90625 680.449219 261.183594 688.230469 L 261.328125 692.324219 C 246.347656 692.953125 244.632812 692.683594 235.5625 691.246094 L 232.753906 690.808594 Z M 259.523438 312.871094 C 267.589844 311.109375 269.75 311.089844 274.652344 311.324219 C 258.632812 324.070312 253.867188 328.699219 241.03125 343.921875 C 238.515625 343.941406 235.820312 344.421875 233.019531 345.296875 C 242.335938 330.777344 246.117188 326.203125 259.523438 312.871094 Z M 300.648438 285.425781 C 309.65625 284.609375 310.652344 284.710938 316.066406 285.273438 L 317.761719 285.445312 L 321.585938 286.25 C 300.410156 294.578125 294.464844 297.753906 275.722656 310.488281 L 275.628906 310.484375 C 270.3125 310.222656 268.277344 310.125 260.933594 311.664062 C 276.726562 298.308594 282.164062 295.019531 300.648438 285.425781 Z M 480.929688 281.664062 L 487.605469 287 L 493.742188 293.234375 L 499.246094 300.308594 L 503.230469 306.8125 C 477.996094 292.949219 470.191406 289.730469 442.71875 281.59375 L 436.917969 276.449219 L 430.503906 272.03125 L 423.582031 268.417969 L 419.777344 266.976562 C 446.996094 270.574219 455.332031 272.90625 480.929688 281.664062 Z M 542.234375 315.125 L 547.585938 323.195312 L 549.082031 326.058594 C 553.570312 334.625 554.507812 336.421875 558.847656 350.914062 C 536.019531 328.585938 528.910156 323.300781 504.804688 307.6875 L 499.972656 299.804688 L 494.40625 292.652344 L 488.199219 286.34375 L 483.914062 282.917969 C 508.367188 293.257812 516.382812 297.453125 542.234375 315.125 Z M 631.984375 424.152344 C 633.925781 441.636719 634.609375 447.824219 632.464844 473.53125 C 622.179688 445.550781 618.429688 437.402344 603.78125 410.617188 C 601.855469 386.425781 600.183594 380.585938 595.554688 366.542969 C 613.097656 389.496094 617.867188 397.089844 631.949219 423.863281 Z M 654.988281 485.886719 C 653.878906 508.328125 652.832031 515.144531 648.257812 536.132812 C 643.675781 510.398438 641.660156 502.414062 633.183594 475.507812 C 635.425781 449.332031 634.914062 442.617188 633.125 426.410156 C 644.46875 451.207031 647.339844 459.132812 654.988281 485.886719 Z M 559.582031 698.117188 C 558.984375 674.773438 558.644531 669.511719 557.679688 654.398438 L 557.515625 651.824219 C 575.675781 626.722656 580.171875 619.414062 593.488281 595.519531 C 596.183594 618.203125 596.820312 625.242188 597.800781 649.296875 C 581.398438 672.988281 576.398438 679.148438 559.582031 698.117188 Z M 512.78125 701.015625 C 511.335938 672.660156 510.75 666.195312 509.359375 650.863281 L 509.023438 647.15625 C 529.027344 622.332031 534.058594 615.039062 549.316406 590.820312 L 549.703125 593.261719 C 552.667969 611.925781 554.019531 620.46875 556.605469 651.558594 C 537.507812 675.859375 531.835938 682.027344 512.78125 701.015625 Z M 410.089844 730.878906 L 409.210938 714.65625 C 408.09375 694.035156 408.09375 694.035156 407.597656 686.167969 L 407.210938 680.070312 C 429.855469 661.792969 435.878906 656.035156 455.054688 636.078125 L 455.335938 638.546875 C 457.375 656.488281 458.21875 663.945312 460.207031 695.386719 C 439.460938 712.335938 433.148438 717.039062 410.089844 730.878906 Z M 356.828125 710.71875 L 356.371094 701.46875 C 355.246094 678.570312 355.171875 677.109375 353.628906 655.785156 C 375.203125 640.101562 381.039062 635.03125 399.71875 617.320312 L 399.988281 619.265625 C 402.6875 638.761719 403.808594 646.863281 406.296875 679.660156 C 385.640625 694.816406 379.382812 698.96875 356.828125 710.71875 Z M 202.070312 369.191406 L 203.316406 372.75 C 206.351562 378.949219 207.191406 380.210938 211.238281 386.289062 C 211.671875 386.9375 212.148438 387.652344 212.660156 388.425781 L 211.253906 387.800781 C 199.375 382.507812 199.050781 382.367188 194.386719 379.613281 C 196.703125 375.964844 199.292969 372.46875 202.070312 369.191406 Z M 275.972656 311.40625 L 279.453125 311.941406 L 282.921875 312.886719 L 286.175781 314.207031 L 288.589844 315.558594 C 269.988281 327.003906 264.441406 331.191406 248.75 345.644531 C 246.828125 344.628906 244.632812 344.0625 242.171875 343.945312 C 254.8125 328.976562 259.582031 324.417969 275.972656 311.40625 Z M 344.21875 300.121094 L 347.359375 304.40625 L 350.09375 309.179688 L 352.171875 313.914062 C 328.554688 316.144531 321.867188 317.621094 299.347656 325.523438 L 297.492188 322.621094 L 295.160156 319.769531 L 292.550781 317.277344 L 290.296875 315.605469 C 311.214844 304.800781 317.609375 302.402344 340.859375 296.539062 Z M 402.550781 299.617188 C 402.941406 300.476562 403.292969 301.25 403.613281 301.960938 C 406.394531 308.066406 407.019531 309.445312 409.742188 320.699219 C 385.15625 314.5 377.984375 313.644531 353.113281 313.851562 L 350.882812 308.785156 L 348.097656 303.925781 L 344.898438 299.558594 L 341.890625 296.347656 C 367.460938 292.046875 374.761719 292.011719 399.121094 293.746094 Z M 504.324219 308.703125 C 510.257812 321.160156 512.332031 325.519531 516.015625 346.164062 C 494.164062 328.320312 487.128906 323.410156 460.242188 309.890625 C 459.5625 308.265625 459.042969 307.007812 458.628906 306.007812 C 456.957031 301.960938 456.957031 301.960938 454.691406 297.839844 C 454.191406 296.933594 453.585938 295.828125 452.800781 294.394531 L 448.097656 287.648438 L 443.855469 282.855469 C 470.605469 290.808594 478.339844 294.109375 504.144531 308.324219 Z M 603.808594 412.511719 C 618.066406 438.628906 621.710938 446.765625 632.28125 475.605469 C 628.636719 501.03125 626.820312 508.460938 619.667969 532.144531 C 612.644531 503.359375 609.992188 494.9375 599.175781 466.605469 C 603.175781 442.800781 604.015625 435.59375 603.808594 412.511719 Z M 598.632812 647.992188 C 597.664062 624.511719 596.992188 617.460938 594.222656 594.191406 C 607.839844 567.207031 610.96875 559.570312 619.507812 535.476562 C 624.058594 557.90625 625.511719 565.402344 628.253906 594.296875 C 617.304688 617.328125 613.660156 624.28125 598.632812 647.992188 Z M 557.402344 650.46875 C 554.871094 620.183594 553.511719 611.601562 550.578125 593.125 L 550.03125 589.675781 C 565.898438 562.128906 569.625 554.34375 580.296875 529.21875 C 587.03125 555.691406 588.824219 563.996094 593.308594 594.027344 C 579.707031 618.453125 575.289062 625.722656 557.402344 650.46875 Z M 508.890625 645.910156 C 505.511719 615.621094 504.136719 607.367188 498.929688 580.484375 C 516.09375 553.789062 520.222656 546.1875 532.425781 521.261719 C 541.164062 550.09375 543.265625 558.726562 549.101562 589.5 C 533.585938 614.140625 528.628906 621.398438 508.890625 645.910156 Z M 407.132812 678.996094 C 404.675781 646.675781 403.550781 638.535156 400.863281 619.144531 L 400.503906 616.5625 C 419.019531 597.511719 424.441406 591.488281 442.628906 567.878906 C 449.195312 596.125 450.738281 604.585938 454.921875 634.9375 C 435.519531 655.144531 429.535156 660.902344 407.132812 678.996094 Z M 345.441406 590.847656 C 339.863281 562.386719 337.882812 554.542969 329.757812 528.582031 C 343.511719 512.996094 347.542969 508.085938 360.824219 489.265625 C 373.320312 514.699219 376.210938 522.472656 384.878906 549.429688 C 367.441406 569.9375 362.355469 575.089844 345.441406 590.847656 Z M 248.773438 346.828125 C 248.808594 346.796875 248.835938 346.769531 248.871094 346.738281 C 250.679688 347.8125 252.21875 349.332031 253.476562 351.296875 C 236.480469 364.851562 231.835938 369.773438 218.226562 384.191406 C 218.171875 384.253906 218.109375 384.316406 218.054688 384.378906 C 218.113281 384.292969 218.175781 384.210938 218.234375 384.128906 C 229.761719 368.035156 233.644531 362.613281 248.773438 346.828125 Z M 298.953125 326.632812 C 301.328125 331.460938 302.175781 333.230469 303.695312 341.527344 C 282.996094 346.824219 276.664062 349.140625 257.890625 358.351562 C 257.21875 355.699219 256.144531 353.40625 254.6875 351.496094 C 272.632812 338.9375 278.636719 335.566406 298.953125 326.632812 Z M 352.515625 314.769531 C 355.207031 322.996094 356.140625 325.855469 357.121094 339.277344 C 334.035156 337.195312 327.378906 337.460938 304.5625 341.34375 C 303.027344 332.980469 302.171875 331.167969 299.777344 326.308594 C 322.1875 318.449219 328.824219 317.003906 352.515625 314.769531 Z M 498.65625 579.269531 C 491.542969 548.269531 489.011719 539.621094 478.675781 510.777344 C 491.9375 484.445312 494.933594 477.144531 503.394531 453.566406 C 517.589844 480.683594 521.1875 489.066406 532.042969 520.027344 C 519.65625 545.351562 515.585938 552.921875 498.65625 579.269531 Z M 443.027344 565.851562 C 434.765625 535.671875 431.910156 527.410156 420.441406 500.300781 C 433.910156 476.761719 437.066406 470.164062 446.253906 448.71875 C 461.589844 473.472656 465.542969 481.292969 477.707031 510.722656 C 464.574219 534.453125 460.320312 541.511719 443.027344 565.851562 Z M 385.542969 548.601562 C 376.949219 521.894531 374.015625 514.089844 361.398438 488.433594 C 374.105469 468.964844 377.195312 463.410156 386.449219 445.15625 C 403.082031 467.734375 407.089844 474.914062 419.441406 500.246094 C 405.058594 523.339844 400.636719 529.425781 385.542969 548.601562 Z M 329.421875 527.625 C 320.859375 503.972656 317.726562 496.457031 305.582031 473.859375 C 315.5 460.707031 318.40625 456.566406 327.6875 441.121094 C 343.929688 460.175781 347.929688 466.371094 360.367188 488.378906 C 347.007812 507.316406 342.972656 512.265625 329.421875 527.625 Z M 250.578125 525.070312 C 246.3125 501.496094 244.859375 494.777344 239.109375 471.949219 C 247.75 464.847656 250.171875 462.527344 257.5625 454.851562 C 267.398438 474.460938 269.988281 480.535156 278.09375 502.890625 C 266.761719 513.222656 263.207031 516.210938 250.578125 525.070312 Z M 222.542969 540.011719 C 221.738281 519.597656 221.46875 513.054688 219.539062 484.734375 C 228.066406 480.066406 230.753906 478.246094 238.347656 472.539062 C 244.042969 495.171875 245.484375 501.871094 249.78125 525.613281 C 235.859375 534.390625 232.371094 535.882812 222.542969 540.011719 Z M 253.980469 352.023438 C 255.410156 353.910156 256.449219 356.183594 257.085938 358.816406 L 257.054688 358.761719 C 238.734375 369.277344 233.628906 373.300781 218.484375 385.25 L 218.335938 385.367188 C 218.511719 385.179688 218.699219 384.980469 218.871094 384.800781 C 232.433594 370.425781 237.074219 365.511719 253.980469 352.023438 Z M 304.6875 342.21875 C 327.46875 338.339844 334.066406 338.085938 357.160156 340.171875 C 357.195312 350.695312 357.203125 354.324219 354.492188 370.203125 C 333.03125 363.414062 326.703125 362.308594 304.65625 361.472656 C 305.59375 351.191406 305.363281 348.84375 304.6875 342.21875 Z M 358.042969 340.296875 C 381.847656 344.660156 388.558594 346.867188 411.457031 357.816406 C 409.425781 375.917969 408.269531 381.253906 403.539062 398.816406 C 384.40625 384.082031 378.355469 380.191406 355.335938 370.503906 C 358.078125 354.484375 358.078125 350.8125 358.042969 340.296875 Z M 478.234375 509.6875 C 466.191406 480.570312 462.199219 472.753906 446.671875 447.714844 C 454.894531 426.101562 457.0625 419.605469 462.355469 396.996094 C 482.503906 419.550781 487.445312 426.808594 502.832031 452.515625 C 494.257812 476.433594 491.3125 483.695312 478.234375 509.6875 Z M 446.0625 446.832031 C 430.363281 424.816406 424.804688 418.074219 404.292969 399.425781 C 409.015625 381.890625 410.277344 376.171875 412.292969 358.277344 C 436.019531 372.269531 442.121094 377.359375 461.628906 396.210938 C 456.300781 419.03125 454.152344 425.542969 446.0625 446.832031 Z M 419.980469 499.328125 C 407.738281 474.234375 403.671875 467.023438 386.886719 444.261719 C 395.378906 425.769531 397.695312 420.160156 404.007812 400.363281 C 424.484375 418.992188 429.59375 425.246094 445.675781 447.816406 C 436.390625 469.507812 433.277344 476.066406 419.980469 499.328125 Z M 360.917969 487.550781 C 348.753906 466.046875 344.410156 459.363281 328.160156 440.3125 C 336.847656 424.578125 338.894531 420.144531 344.820312 405.835938 C 364.730469 420.425781 369.796875 425.566406 385.847656 444.378906 C 376.535156 462.765625 373.464844 468.316406 360.917969 487.550781 Z M 305.09375 473.035156 C 293.125 453.476562 289.355469 448.34375 275.453125 432.601562 C 282.320312 422.328125 284.0625 419.300781 289.175781 409.601562 C 307.367188 421.117188 312.082031 425.253906 327.070312 440.433594 C 317.769531 455.914062 314.863281 460.082031 305.09375 473.035156 Z M 219.46875 483.761719 C 218.234375 467.648438 217.550781 458.757812 217.140625 453.425781 C 216.523438 445.410156 216.523438 445.410156 216.199219 440.859375 L 215.824219 435.570312 C 219.164062 433.714844 222.398438 431.441406 225.492188 428.855469 C 232.625 451.578125 233.9375 456.378906 237.363281 468.898438 L 238.105469 471.613281 C 230.332031 477.460938 227.8125 479.183594 219.46875 483.761719 Z M 386.265625 443.5 C 370.3125 424.816406 365.1875 419.65625 345.15625 404.984375 C 350.414062 390.679688 351.8125 386.324219 355.160156 371.390625 C 378.0625 381.035156 384.042969 384.910156 403.277344 399.734375 C 396.945312 419.628906 394.636719 425.253906 386.265625 443.5 Z M 327.523438 439.632812 C 312.597656 424.523438 307.828125 420.363281 289.578125 408.808594 C 294.75 398.046875 295.960938 394.960938 299.277344 385.351562 C 320.398438 391.554688 326.011719 394.347656 344.074219 405.324219 C 338.144531 419.652344 336.101562 424.085938 327.523438 439.632812 Z M 215.761719 434.585938 C 214.457031 412.984375 214.429688 408.34375 214.347656 394.886719 L 214.332031 392.625 L 215.261719 395.816406 C 217.738281 404.347656 217.738281 404.347656 223.230469 421.710938 L 225.175781 427.851562 C 222.082031 430.511719 218.921875 432.785156 215.761719 434.585938 Z M 250.785156 393.136719 C 236.082031 390.066406 232.230469 389.882812 218.234375 389.214844 L 216.695312 389.140625 L 218.722656 388.59375 C 233.46875 384.585938 238.550781 383.207031 255.230469 381.515625 C 254.074219 385.367188 252.566406 389.269531 250.785156 393.136719 Z M 255.492188 380.601562 C 238.453125 382.3125 233.390625 383.6875 218.488281 387.738281 L 217.488281 388.007812 L 219.144531 387.121094 C 234.449219 378.898438 239.679688 376.089844 257.632812 369.792969 C 257.46875 371.472656 257.210938 373.222656 256.851562 375.042969 C 256.488281 376.875 256.027344 378.730469 255.492188 380.601562 Z M 225.902344 427.21875 L 224.074219 421.445312 C 218.585938 404.089844 218.585938 404.089844 216.109375 395.570312 L 214.941406 391.546875 L 218.410156 396.007812 C 228.292969 408.714844 228.292969 408.714844 234.382812 417.175781 L 234.9375 417.945312 C 232.054688 421.34375 229.015625 424.46875 225.902344 427.21875 Z M 235.527344 417.25 L 235.101562 416.65625 C 229 408.183594 229 408.183594 219.109375 395.464844 L 215.410156 390.707031 L 217.109375 391.550781 C 229.191406 397.554688 232.171875 399.035156 243.507812 406.355469 C 241.046875 410.175781 238.367188 413.84375 235.527344 417.25 Z M 243.988281 405.613281 C 232.613281 398.265625 229.621094 396.78125 217.5 390.757812 L 215.957031 389.992188 L 218.195312 390.101562 C 232.066406 390.761719 235.933594 390.945312 250.398438 393.960938 C 248.527344 397.921875 246.371094 401.839844 243.988281 405.613281 Z M 256.164062 381.453125 C 276.886719 380.867188 282.542969 381.957031 298.414062 385.144531 C 295.136719 394.644531 293.921875 397.722656 288.808594 408.367188 C 273.667969 400.390625 268.542969 398.121094 251.664062 393.355469 C 253.503906 389.3125 255.019531 385.300781 256.164062 381.453125 Z M 344.398438 404.488281 C 326.367188 393.53125 320.699219 390.71875 299.550781 384.511719 C 302.320312 375.222656 303.105469 372.054688 304.550781 362.351562 C 326.589844 363.1875 332.855469 364.285156 354.320312 371.078125 C 350.984375 385.984375 349.589844 390.347656 344.398438 404.488281 Z M 298.691406 384.296875 C 282.746094 381.09375 277.058594 379.992188 256.417969 380.558594 C 256.9375 378.734375 257.378906 376.945312 257.71875 375.214844 C 258.113281 373.234375 258.390625 371.332031 258.554688 369.511719 C 278.40625 364.066406 284.699219 363.292969 303.65625 362.363281 C 302.222656 371.957031 301.480469 374.9375 298.691406 384.296875 Z M 257.714844 368.859375 C 239.382812 375.238281 234.179688 378.039062 218.726562 386.34375 L 218.109375 386.671875 L 219.03125 385.945312 C 234.078125 374.078125 239.191406 370.042969 257.269531 359.65625 C 257.828125 362.382812 257.976562 365.464844 257.714844 368.859375 Z M 213.457031 393.773438 L 213.460938 394.890625 C 213.542969 408.460938 213.574219 413.074219 214.902344 435.085938 C 211.816406 437.039062 208.78125 438.5 205.855469 439.488281 C 208.835938 416.808594 209.941406 411.300781 213.171875 395.1875 Z M 238.859375 471.011719 L 238.214844 468.664062 C 234.867188 456.417969 233.460938 451.285156 226.222656 428.230469 C 229.507812 425.410156 232.632812 422.238281 235.546875 418.824219 C 246.871094 435.425781 249.632812 440.421875 256.828125 453.464844 L 257.132812 454.019531 C 249.707031 461.738281 247.277344 464.078125 238.859375 471.011719 Z M 257.761719 453.332031 L 257.601562 453.039062 C 250.359375 439.914062 247.605469 434.917969 236.132812 418.117188 C 239.09375 414.578125 241.835938 410.804688 244.3125 406.910156 C 259.699219 418.023438 264.023438 422.359375 273.378906 431.742188 L 274.316406 432.683594 C 267.175781 442.589844 264.941406 445.292969 257.761719 453.332031 Z M 274.003906 431.117188 C 264.605469 421.691406 260.265625 417.339844 244.78125 406.15625 C 247.238281 402.226562 249.421875 398.1875 251.292969 394.171875 C 268.203125 398.9375 273.285156 401.191406 288.410156 409.15625 C 283.335938 418.785156 281.582031 421.835938 274.828125 431.945312 Z M 303.820312 342.40625 C 304.480469 348.90625 304.699219 351.261719 303.765625 361.472656 C 284.703125 362.40625 278.371094 363.167969 258.621094 368.578125 C 258.859375 365.136719 258.679688 362.011719 258.085938 359.238281 C 276.910156 350 283.203125 347.6875 303.820312 342.40625 Z M 212.363281 394.71875 L 212.304688 395.011719 C 209.046875 411.25 207.949219 416.726562 204.921875 439.800781 C 202.085938 440.664062 199.375 441.046875 196.84375 440.972656 C 203.496094 418.316406 205.667969 412.535156 212.042969 395.578125 Z M 214.972656 436.078125 L 215.316406 440.921875 C 215.640625 445.476562 215.640625 445.476562 216.257812 453.496094 C 216.671875 458.867188 217.363281 467.851562 218.613281 484.210938 C 209.421875 488.582031 207.15625 489.183594 200.964844 490.746094 L 200.980469 490.539062 C 202.878906 467.625 203.402344 461.3125 205.738281 440.464844 C 208.726562 439.496094 211.828125 438.03125 214.972656 436.078125 Z M 278.792969 502.21875 C 270.738281 480.019531 268.125 473.929688 258.207031 454.164062 C 265.546875 445.945312 267.785156 443.253906 274.929688 433.347656 C 288.742188 448.992188 292.480469 454.113281 304.515625 473.785156 C 293.210938 487.707031 289.832031 491.316406 278.792969 502.21875 Z M 532.570312 518.851562 C 521.84375 488.296875 518.191406 479.902344 503.792969 452.425781 C 510.976562 429.203125 512.957031 421.628906 516.664062 397.679688 C 534.878906 422.09375 539.636719 429.832031 554.460938 458.902344 C 546.476562 486.277344 543.5 493.964844 532.570312 518.851562 Z M 503.1875 451.390625 C 487.980469 426 482.964844 418.714844 462.589844 395.933594 C 466.957031 371.761719 467.050781 365.980469 467.148438 349.984375 C 490.878906 368.207031 496.886719 374.390625 515.921875 396.703125 C 512.15625 421.144531 510.347656 428.214844 503.1875 451.390625 Z M 461.828125 395.171875 C 442.492188 376.5 436.3125 371.402344 412.386719 357.304688 C 413.382812 338.269531 412.757812 333.960938 410.894531 321.964844 C 436.972656 331.007812 443.894531 334.789062 466.269531 349.332031 C 466.167969 365.628906 466.128906 371.269531 461.828125 395.171875 Z M 409.953125 321.664062 C 411.847656 333.851562 412.496094 338.050781 411.523438 356.867188 C 388.730469 345.980469 381.957031 343.777344 358.015625 339.394531 C 357.035156 325.839844 356.105469 322.890625 353.433594 314.730469 C 378.089844 314.539062 385.210938 315.414062 409.953125 321.664062 Z M 211.238281 395.199219 L 211.214844 395.265625 C 204.808594 412.300781 202.644531 418.066406 195.933594 440.921875 C 193.554688 440.738281 191.355469 440.128906 189.390625 439.074219 C 199.035156 417.558594 202.09375 411.957031 211.078125 395.496094 Z M 195.695312 441.804688 L 195.589844 442.191406 C 191.472656 457.515625 189.75 463.917969 183.746094 491.386719 L 180.617188 490.667969 L 177.273438 489.472656 L 174.164062 487.910156 L 171.539062 486.136719 C 178.867188 464.90625 181.246094 458.617188 189.042969 439.886719 C 191.050781 440.953125 193.285156 441.597656 195.695312 441.804688 Z M 196.445312 442.421875 L 196.597656 441.847656 C 196.886719 441.859375 197.167969 441.882812 197.457031 441.882812 C 199.785156 441.882812 202.257812 441.484375 204.816406 440.738281 C 202.515625 461.300781 201.984375 467.679688 200.097656 490.46875 L 200.058594 490.945312 C 191.835938 492.324219 189.863281 492.136719 184.621094 491.535156 C 190.613281 464.121094 192.332031 457.726562 196.445312 442.421875 Z M 200.886719 491.675781 L 200.957031 491.660156 C 207.148438 490.097656 209.542969 489.492188 218.679688 485.160156 C 220.597656 513.308594 220.859375 519.792969 221.667969 540.351562 C 208.503906 544.890625 205.429688 545.222656 196.675781 546.105469 Z M 222.613281 540.9375 C 232.625 536.734375 236.09375 535.277344 249.933594 526.5625 C 253.777344 551.164062 254.675781 558.53125 257.078125 584.847656 C 239.484375 593.160156 235.390625 594.175781 223.382812 597.144531 L 223.300781 597.164062 C 223.324219 571.851562 223.230469 564.777344 222.574219 540.957031 Z M 257.925781 584.402344 C 255.535156 558.21875 254.628906 550.863281 250.746094 526.03125 C 263.503906 517.089844 267.328125 513.898438 278.398438 503.808594 C 286.363281 528.777344 288.15625 536.164062 293.421875 561.324219 C 278.574219 572.511719 274.015625 575.632812 257.925781 584.402344 Z M 294.195312 560.699219 C 288.96875 535.730469 287.148438 528.316406 279.117188 503.140625 C 290.355469 492.050781 293.71875 488.472656 304.980469 474.613281 C 317.03125 497.042969 320.125 504.527344 328.753906 528.367188 C 314.691406 543.132812 310.308594 547.398438 294.195312 560.699219 Z M 419.871094 501.230469 C 431.207031 528.039062 434.027344 536.289062 442.363281 566.773438 C 424.011719 590.613281 418.585938 596.679688 400.328125 615.472656 C 395.320312 585.585938 393.492188 577.292969 385.863281 549.625 C 401.175781 530.179688 405.597656 524.128906 419.871094 501.230469 Z M 455.695312 634.078125 C 451.550781 604.046875 449.984375 595.578125 443.324219 566.960938 C 460.84375 542.324219 465.136719 535.25 478.109375 511.820312 C 488.300781 540.289062 490.796875 548.925781 497.984375 580.300781 C 479.773438 606.363281 474.292969 613.085938 455.695312 634.078125 Z M 532.996094 520.082031 C 544.132812 494.75 547.144531 487.082031 555.023438 460.136719 C 567.609375 488.300781 570.75 496.878906 579.929688 527.8125 C 569.050781 553.457031 565.398438 561.191406 549.78125 588.332031 C 544.019531 558.023438 541.878906 549.367188 532.996094 520.082031 Z M 628.980469 592.59375 C 626.277344 564.394531 624.785156 557.011719 620.078125 533.84375 C 627.433594 509.535156 629.339844 502.085938 632.898438 477.542969 C 641.109375 503.695312 643.019531 511.609375 647.761719 538.386719 C 641.003906 563.253906 638.390625 570.378906 628.980469 592.59375 Z M 598.832031 468.183594 C 609.402344 495.917969 611.988281 504.324219 619.160156 533.796875 C 610.390625 558.597656 607.359375 566.148438 594 592.667969 C 589.582031 563.183594 587.75 554.898438 580.863281 527.863281 C 590.394531 502.410156 592.925781 494.671875 598.832031 468.183594 Z M 580.449219 526.445312 C 571.40625 496.035156 568.210938 487.441406 555.402344 458.8125 C 561.15625 434.863281 562.648438 427.042969 564.480469 402.921875 C 581.007812 428.882812 585.285156 437 598.257812 466.695312 C 592.242188 493.789062 589.769531 501.519531 580.449219 526.445312 Z M 554.785156 457.589844 C 540.15625 428.941406 535.335938 421.203125 516.847656 396.441406 C 519.339844 370.683594 518.824219 364.785156 517.21875 348.394531 C 539.050781 368.972656 544.925781 375.746094 563.6875 401.691406 C 561.832031 426.476562 560.5 433.761719 554.785156 457.589844 Z M 516.046875 395.488281 C 497.257812 373.476562 491.15625 367.28125 467.140625 348.863281 C 465.851562 328.054688 464.515625 323.558594 460.628906 311.078125 C 487.109375 324.417969 494.042969 329.339844 516.238281 347.488281 L 516.273438 347.835938 C 517.90625 364.464844 518.46875 370.230469 516.046875 395.488281 Z M 459.648438 310.894531 C 463.574219 323.5 464.933594 327.878906 466.214844 348.242188 C 444.058594 333.851562 437.066406 330.089844 410.71875 320.96875 C 407.878906 309.191406 407.269531 307.847656 404.417969 301.59375 C 404.097656 300.886719 403.746094 300.113281 403.335938 299.214844 L 400.234375 293.902344 C 426.339844 297.914062 433.84375 300.039062 459.539062 310.542969 Z M 291.980469 317.953125 L 294.507812 320.371094 L 296.773438 323.136719 L 298.511719 325.859375 C 278.199219 334.792969 272.164062 338.183594 254.1875 350.769531 C 252.917969 348.785156 251.371094 347.230469 249.558594 346.105469 C 265.144531 331.757812 270.671875 327.609375 289.4375 316.074219 Z M 241.207031 345.085938 C 241.289062 344.992188 241.367188 344.898438 241.445312 344.804688 C 243.925781 344.835938 246.132812 345.335938 248.058594 346.296875 C 232.949219 362.0625 229.046875 367.507812 217.511719 383.613281 C 217.433594 383.722656 217.351562 383.839844 217.269531 383.953125 C 226.046875 367.28125 229.023438 361.640625 241.207031 345.085938 Z M 210.300781 395.0625 C 201.316406 411.53125 198.25 417.148438 188.625 438.621094 C 187.894531 438.171875 187.191406 437.675781 186.539062 437.097656 C 185.597656 436.265625 184.722656 435.269531 183.9375 434.125 C 195.714844 414.921875 199.410156 409.890625 210.300781 395.0625 Z M 185.953125 437.761719 C 186.675781 438.402344 187.453125 438.960938 188.265625 439.453125 C 180.464844 458.1875 178.074219 464.503906 170.808594 485.546875 L 168.695312 483.699219 L 166.355469 481.070312 L 164.28125 478.109375 L 162.585938 474.984375 C 171.207031 456.824219 173.871094 451.707031 183.449219 434.964844 C 184.214844 436.035156 185.054688 436.96875 185.953125 437.761719 Z M 171.25 487.007812 L 173.714844 488.671875 L 176.925781 490.285156 L 180.367188 491.515625 L 183.5625 492.25 C 178.984375 514.410156 177.761719 520.820312 173.929688 542.753906 L 169.816406 540.835938 L 165.535156 538.140625 L 161.625 534.933594 L 158.234375 531.367188 C 163.234375 512.109375 165.101562 505.964844 171.25 487.007812 Z M 184.433594 492.402344 C 189.789062 493.019531 191.769531 493.222656 199.988281 491.855469 L 195.785156 546.160156 C 194.738281 546.171875 193.917969 546.179688 193.25 546.1875 C 190.359375 546.226562 190.359375 546.226562 187.257812 545.929688 L 184.71875 545.695312 L 179.425781 544.621094 L 174.765625 543.097656 C 178.625 521.011719 179.84375 514.632812 184.433594 492.402344 Z M 196.609375 547.003906 C 205.507812 546.101562 208.582031 545.792969 221.699219 541.28125 C 222.351562 564.910156 222.441406 572 222.414062 597.355469 C 206.6875 599.941406 203.050781 599.546875 192.773438 598.335938 Z M 223.296875 598.078125 L 223.59375 598.003906 C 235.601562 595.035156 239.734375 594.011719 257.152344 585.789062 L 257.316406 588.058594 C 258.554688 605.234375 259.074219 612.386719 260.042969 642.875 C 240.488281 648.308594 235.910156 648.445312 222.8125 648.757812 Z M 260.917969 642.589844 C 259.953125 612.304688 259.4375 605.132812 258.199219 587.996094 L 258.007812 585.367188 C 274.304688 576.492188 278.882812 573.382812 293.601562 562.296875 C 297.765625 585.796875 298.910156 592.890625 301.976562 623.433594 C 281.035156 635.398438 275.789062 637.300781 260.917969 642.589844 Z M 302.8125 622.914062 C 299.757812 592.511719 298.605469 585.464844 294.394531 561.683594 C 310.722656 548.214844 315.121094 543.957031 329.0625 529.324219 C 337.101562 555.027344 339.0625 562.867188 344.675781 591.542969 C 327.621094 606.140625 321.925781 610.613281 302.8125 622.914062 Z M 385.171875 550.449219 C 392.707031 577.804688 394.511719 586.089844 399.5625 616.25 C 380.679688 634.160156 374.886719 639.222656 353.539062 654.753906 C 350.609375 622.347656 349.429688 615.078125 345.636719 591.875 C 362.789062 575.902344 367.867188 570.789062 385.171875 550.449219 Z M 461.046875 694.652344 C 459.089844 663.765625 458.238281 656.269531 456.214844 638.445312 L 455.851562 635.234375 C 474.722656 613.945312 480.207031 607.265625 498.226562 581.503906 C 503.34375 607.9375 504.695312 616.222656 508.105469 646.871094 C 487.320312 670.660156 481.269531 676.574219 461.046875 694.652344 Z M 598.691406 649.550781 C 614.003906 625.421875 617.761719 618.390625 628.371094 596.113281 C 629.476562 614.304688 629.792969 620.507812 628.910156 641.582031 C 616.066406 663.355469 611.984375 669.21875 598.324219 687.089844 C 599.035156 671.054688 598.988281 665.757812 598.691406 649.550781 Z M 629.15625 594.449219 C 638.847656 571.609375 641.546875 564.480469 648.066406 540.632812 C 650.925781 562.070312 651.570312 569.496094 651.707031 591.863281 C 643.921875 612.25 641.214844 618.570312 629.867188 639.796875 C 630.679688 619.539062 630.308594 613.382812 629.15625 594.449219 Z M 598.527344 465.109375 C 585.789062 435.996094 581.441406 427.878906 564.585938 401.4375 C 564.898438 375.851562 563.792969 369.753906 560.527344 353.945312 C 580.6875 376.464844 586.101562 383.785156 602.90625 410.875 C 603.160156 434.742188 602.410156 441.902344 598.527344 465.109375 Z M 563.710938 400.21875 C 545.25 374.71875 539.300781 367.964844 517.070312 347.039062 C 513.339844 325.902344 511.292969 321.285156 505.554688 309.226562 C 529.003906 324.441406 536.078125 329.824219 559.355469 352.652344 L 559.375 352.742188 C 562.792969 369.265625 563.984375 375.035156 563.710938 400.21875 Z M 447.402344 288.195312 L 452.046875 294.859375 C 452.808594 296.253906 453.414062 297.359375 453.914062 298.265625 C 456.15625 302.34375 456.15625 302.34375 457.8125 306.34375 C 458.152344 307.167969 458.566406 308.171875 459.078125 309.402344 C 433.707031 299.046875 426.144531 296.972656 399.628906 292.914062 L 395.605469 287.535156 L 390.964844 282.664062 L 385.839844 278.460938 L 381.59375 275.78125 C 407.574219 275.679688 415.417969 276.558594 442.265625 282.394531 Z M 379.964844 275.796875 L 385.324219 279.179688 L 390.363281 283.3125 L 394.929688 288.105469 L 398.449219 292.8125 C 374.402344 291.113281 367.027344 291.203125 341.132812 295.578125 L 337.296875 292.382812 L 332.933594 289.601562 L 328.234375 287.367188 L 324.570312 286.140625 C 347.480469 279.105469 354.621094 277.800781 379.964844 275.796875 Z M 327.90625 288.1875 L 332.503906 290.375 L 336.773438 293.097656 L 340.054688 295.832031 C 317.050781 301.644531 310.621094 304.101562 289.46875 315.039062 L 286.558594 313.410156 L 283.207031 312.050781 L 279.636719 311.078125 L 277.027344 310.671875 C 295.417969 298.203125 301.34375 295.132812 323.132812 286.59375 Z M 240.296875 344.832031 C 228.226562 361.246094 225.234375 366.929688 216.457031 383.59375 C 216.351562 383.800781 216.238281 384.011719 216.128906 384.21875 C 216.144531 384.175781 216.15625 384.132812 216.171875 384.089844 C 221.636719 368.085938 223.480469 362.691406 232.1875 346.601562 C 232.199219 346.578125 232.214844 346.554688 232.230469 346.53125 C 235.0625 345.535156 237.777344 344.949219 240.296875 344.832031 Z M 215.335938 383.804688 C 215.191406 384.226562 215.042969 384.65625 214.894531 385.097656 C 214.917969 384.90625 214.945312 384.714844 214.96875 384.53125 C 216.824219 370.414062 217.460938 365.601562 222.25 351.441406 C 225.203125 349.605469 228.132812 348.105469 230.96875 346.996094 C 222.609375 362.515625 220.726562 368.023438 215.335938 383.804688 Z M 214.089844 384.414062 C 214.007812 385.035156 213.925781 385.675781 213.839844 386.332031 C 213.773438 385.917969 213.710938 385.5 213.648438 385.105469 C 211.964844 374.265625 211.328125 370.140625 212.246094 358.871094 C 215.144531 356.355469 218.105469 354.117188 221.058594 352.195312 C 216.5625 365.648438 215.910156 370.585938 214.089844 384.414062 Z M 212.773438 385.242188 C 212.886719 385.96875 213.007812 386.738281 213.128906 387.53125 C 212.71875 386.914062 212.332031 386.335938 211.976562 385.796875 C 207.957031 379.761719 207.121094 378.507812 204.132812 372.410156 L 202.734375 368.421875 C 205.449219 365.285156 208.332031 362.363281 211.292969 359.714844 C 210.476562 370.398438 211.125 374.628906 212.773438 385.242188 Z M 193.652344 379.121094 C 189.542969 376.039062 188.460938 374.980469 187.804688 370.824219 C 194.335938 361.726562 196.589844 358.910156 202.625 352.039062 C 200.5 358.382812 200.429688 361.089844 201.753906 368.152344 C 198.835938 371.574219 196.105469 375.253906 193.652344 379.121094 Z M 193.90625 380.355469 C 198.640625 383.152344 198.914062 383.273438 210.894531 388.605469 L 212.089844 389.140625 L 210.078125 389.292969 C 201.976562 389.898438 199.402344 390.09375 187.699219 391.53125 C 190.011719 386.367188 190.296875 385.832031 193.90625 380.355469 Z M 187.269531 392.476562 C 199.410156 390.980469 201.722656 390.804688 210.144531 390.175781 L 211.226562 390.09375 C 204.128906 393.15625 193.117188 398.03125 182.789062 403.679688 C 183.898438 400.191406 185.371094 396.457031 187.269531 392.476562 Z M 182.410156 404.894531 C 192.371094 399.382812 203.121094 394.570312 210.402344 391.414062 L 209.570312 392.019531 C 196.882812 401.257812 192.941406 404.128906 180.269531 415.332031 C 180.59375 412.152344 181.285156 408.671875 182.410156 404.894531 Z M 180.152344 416.625 C 180.230469 416.550781 180.296875 416.484375 180.375 416.414062 C 193.339844 404.941406 197.238281 402.09375 209.90625 392.867188 L 209.277344 393.511719 C 197.328125 405.710938 193.214844 409.917969 180.539062 425.398438 C 180.074219 422.808594 179.917969 419.882812 180.152344 416.625 Z M 180.820312 426.449219 C 193.757812 410.628906 197.835938 406.460938 209.820312 394.222656 L 209.585938 394.539062 C 198.75 409.292969 195.023438 414.367188 183.40625 433.296875 C 182.261719 431.414062 181.347656 429.15625 180.761719 426.527344 C 180.78125 426.5 180.800781 426.476562 180.820312 426.449219 Z M 182.894531 434.152344 C 173.25 451 170.550781 456.15625 162.113281 473.910156 C 160.167969 469.226562 159.433594 467.175781 158.304688 458.914062 C 166.980469 445.035156 170.027344 440.613281 180.078125 427.421875 C 180.730469 430.03125 181.699219 432.277344 182.894531 434.152344 Z M 162.128906 476 L 163.53125 478.574219 L 165.660156 481.617188 L 168.074219 484.324219 L 170.5 486.453125 C 164.339844 505.4375 162.453125 511.628906 157.550781 530.492188 L 154.957031 527.042969 L 153.96875 525.351562 C 151.445312 521.070312 150.910156 520.152344 148.09375 511.878906 L 148.265625 511.363281 C 152.136719 499.695312 153.625 495.214844 162.128906 476 Z M 158 532.40625 L 161.023438 535.582031 L 165.019531 538.855469 L 169.394531 541.609375 L 173.773438 543.65625 C 170.0625 566.261719 169.324219 571.757812 167.550781 587.46875 L 163.273438 583.785156 L 158.847656 578.933594 L 154.933594 573.484375 L 151.585938 567.550781 C 152.898438 556.015625 153.328125 552.324219 158 532.40625 Z M 174.617188 543.980469 L 179.199219 545.476562 L 184.589844 546.570312 L 187.175781 546.8125 C 189.503906 547.03125 190.109375 547.089844 191.453125 547.089844 C 191.929688 547.089844 192.496094 547.082031 193.261719 547.074219 C 193.910156 547.066406 194.714844 547.054688 195.71875 547.046875 L 191.898438 598.179688 L 185.703125 596.75 L 179.425781 594.511719 L 173.578125 591.59375 L 168.367188 588.128906 C 170.179688 572.046875 170.894531 566.675781 174.617188 543.980469 Z M 192.710938 599.21875 C 203.019531 600.433594 206.703125 600.832031 222.410156 598.253906 L 221.925781 648.734375 L 213.828125 648.136719 L 205.699219 646.667969 L 198.039062 644.378906 L 191.097656 641.378906 C 191.148438 624.363281 191.484375 618.839844 192.710938 599.21875 Z M 262.214844 692.253906 L 262.070312 688.199219 C 261.792969 680.425781 261.792969 680.425781 261.140625 651.988281 L 260.945312 643.519531 C 275.996094 638.167969 281.21875 636.300781 302.0625 624.40625 L 302.324219 627.710938 C 303.550781 642.96875 304.113281 649.960938 305.449219 681.246094 C 282.910156 689.539062 277.617188 690.242188 262.214844 692.253906 Z M 303.207031 627.640625 L 302.90625 623.902344 C 322.226562 611.484375 327.953125 607.015625 344.851562 592.558594 C 348.59375 615.4375 349.765625 622.78125 352.703125 655.347656 C 333.464844 667.953125 327.128906 671.664062 306.320312 680.878906 C 304.992188 649.867188 304.429688 642.855469 303.207031 627.640625 Z M 460.265625 696.480469 L 460.722656 704.925781 C 462.09375 730.171875 462.09375 730.171875 462.605469 737.410156 L 462.859375 741.015625 C 442.324219 753.6875 436.152344 757.0625 414.039062 765.960938 C 411.621094 753.230469 411.191406 747.027344 410.351562 734.859375 L 410.148438 731.875 C 433.398438 717.929688 439.753906 713.230469 460.265625 696.480469 Z M 461.609375 704.878906 L 461.113281 695.777344 C 481.613281 677.460938 487.664062 671.59375 508.21875 648.085938 L 508.480469 650.945312 C 509.882812 666.40625 510.464844 672.832031 511.9375 701.84375 C 492.179688 719.910156 486.125 724.988281 463.707031 740.449219 L 463.488281 737.347656 C 462.976562 730.117188 462.976562 730.117188 461.609375 704.878906 Z M 511.992188 702.992188 L 512.398438 711.464844 C 513.105469 726.417969 513.21875 728.816406 514.089844 739.789062 C 495.277344 753.386719 489.066406 757.433594 468.175781 768.050781 C 465.402344 758.613281 464.921875 753.574219 464 743.734375 L 463.785156 741.46875 C 486.398438 725.886719 492.5 720.808594 511.992188 702.992188 Z M 514.925781 739.136719 C 514.097656 728.671875 513.976562 726.097656 513.28125 711.425781 L 512.84375 702.207031 C 532.183594 682.941406 537.863281 676.816406 556.695312 652.878906 L 556.796875 654.453125 C 557.777344 669.757812 558.105469 674.941406 558.71875 699.078125 C 541.011719 717.449219 535.527344 722.691406 514.925781 739.136719 Z M 598.164062 689.964844 L 598.25 688.640625 C 612.230469 670.371094 616.367188 664.53125 628.753906 643.585938 C 627.816406 655.3125 627.367188 660.167969 624.546875 672.226562 C 612.378906 689.683594 608.597656 694.339844 596.417969 708.003906 C 597.425781 701.15625 597.683594 697.261719 598.164062 689.964844 Z M 629.738281 642.363281 L 629.78125 641.835938 C 641.402344 620.152344 644.3125 613.632812 651.597656 594.621094 C 650.886719 611.785156 650.253906 616.84375 647.277344 631.3125 C 639.304688 648.042969 636.527344 653.367188 625.964844 670.007812 C 628.398438 659.199219 628.792969 654.234375 629.738281 642.363281 Z M 664.109375 542.9375 C 660.460938 564.058594 658.757812 570.472656 652.574219 589.25 C 652.394531 568.15625 651.648438 560.644531 648.664062 538.425781 C 653.339844 517.074219 654.617188 509.695312 655.714844 489 C 661.042969 512.046875 662.222656 519.882812 664.109375 542.929688 C 664.109375 542.9375 664.109375 542.9375 664.109375 542.9375 Z M 618.589844 382.226562 L 618.738281 382.53125 C 625.089844 395.652344 627.417969 400.46875 631.386719 420.898438 C 617.90625 395.371094 612.972656 387.804688 594.695312 363.964844 C 593.804688 361.921875 593.128906 360.367188 592.597656 359.128906 C 590.515625 354.308594 590.515625 354.308594 587.667969 349.285156 C 587.050781 348.195312 586.300781 346.867188 585.339844 345.167969 L 579.644531 337.15625 C 596.300781 352.984375 602.558594 360.453125 618.589844 382.226562 Z M 594.070312 364.871094 C 599.050781 379.941406 600.8125 385.273438 602.757812 408.960938 C 586.347656 382.558594 580.835938 375.265625 560.15625 352.207031 C 555.390625 336.199219 554.433594 334.371094 549.867188 325.648438 L 548.347656 322.746094 L 544.449219 316.859375 C 567.207031 334.816406 573.734375 341.164062 593.917969 364.414062 Z M 465.710938 273.488281 L 473.5625 277.09375 L 477.574219 279.585938 C 453.628906 271.457031 445.058594 269.332031 416.140625 265.609375 C 416.074219 265.605469 408.890625 263.769531 408.890625 263.769531 C 427.046875 264.863281 445.25 267.832031 463.132812 272.632812 C 463.300781 272.6875 465.703125 273.488281 465.710938 273.488281 Z M 415.960938 266.488281 C 415.988281 266.484375 423.21875 269.222656 423.21875 269.222656 L 430.046875 272.789062 L 436.371094 277.144531 L 440.941406 281.203125 C 414.757812 275.542969 406.890625 274.765625 380.171875 274.902344 L 374.253906 272.121094 L 367.851562 270 L 361.082031 268.578125 L 357.734375 268.238281 C 381.441406 265.046875 389.554688 264.871094 415.933594 266.480469 Z M 360.945312 269.449219 L 367.621094 270.851562 L 373.925781 272.941406 L 378.378906 275.035156 C 353.753906 277.015625 346.578125 278.429688 323.101562 285.667969 L 317.898438 284.570312 L 316.15625 284.394531 C 311.257812 283.886719 309.933594 283.746094 303.226562 284.3125 C 324.222656 275.324219 331.246094 273.449219 354.003906 268.75 Z M 274.609375 292.136719 L 273.074219 292.859375 C 274.972656 291.835938 276.882812 290.84375 278.800781 289.871094 C 277.511719 290.5625 276.121094 291.316406 274.609375 292.136719 Z M 274.964844 292.949219 C 287.015625 288.089844 290.589844 287.210938 297.769531 285.925781 C 280.710938 294.832031 275.191406 298.386719 259.085938 312.066406 L 258.84375 312.140625 C 252.945312 313.890625 250.613281 314.582031 243.082031 318.351562 C 254.816406 306.21875 259.488281 302.820312 274.964844 292.949219 Z M 257.746094 313.390625 C 244.9375 326.175781 241.203125 330.855469 231.683594 345.742188 C 228.828125 346.753906 225.875 348.15625 222.898438 349.910156 C 228.699219 336.800781 231.1875 332.851562 241.242188 320.277344 C 249.851562 315.878906 252.351562 315 257.746094 313.390625 Z M 221.578125 350.710938 C 218.546875 352.601562 215.5 354.84375 212.511719 357.375 L 213.507812 352.363281 L 215.574219 345.941406 L 218.515625 339.46875 L 222.378906 333.050781 C 229.429688 327.566406 232.128906 325.609375 239.140625 321.496094 C 230.007812 333.007812 227.433594 337.386719 221.578125 350.710938 Z M 217.734375 339.054688 L 214.75 345.625 L 212.652344 352.140625 L 211.425781 358.3125 C 208.34375 361.019531 205.335938 364.027344 202.496094 367.289062 C 201.203125 360.195312 201.480469 357.832031 204.164062 350.300781 C 211.511719 342.539062 214.066406 340.113281 220.277344 334.828125 Z M 187.09375 371.878906 C 187.832031 375.632812 189.183594 376.875 193.167969 379.863281 C 189.402344 385.578125 189.226562 385.957031 186.671875 391.660156 L 186.332031 391.703125 C 177.796875 392.816406 177.125 392.902344 174.507812 392.929688 C 179.214844 384.089844 180.96875 381.0625 187.09375 371.878906 Z M 174.042969 393.820312 C 177.109375 393.792969 177.367188 393.761719 186.234375 392.609375 C 184.277344 396.765625 182.773438 400.664062 181.667969 404.296875 C 174.972656 408.046875 169.339844 411.738281 164.875 415.292969 C 167.910156 406.851562 169.199219 403.742188 174.042969 393.820312 Z M 164.308594 416.882812 C 168.726562 413.226562 174.449219 409.402344 181.316406 405.515625 C 180.21875 409.390625 179.574219 412.953125 179.3125 416.203125 C 169.238281 425.8125 166.066406 429.230469 159.207031 437.371094 C 160.703125 428.761719 161.519531 425.792969 164.308594 416.882812 Z M 157.585938 460.152344 C 158.699219 467.996094 159.488281 469.910156 161.605469 474.992188 C 153.023438 494.359375 151.417969 499.046875 147.6875 510.292969 C 145.851562 502.796875 145.144531 499.507812 144.867188 486.121094 L 145.03125 485.699219 C 148.117188 477.664062 149.324219 474.523438 157.585938 460.152344 Z M 150.457031 567.210938 L 150.679688 567.726562 C 150.613281 569.167969 150.554688 570.277344 150.511719 571.15625 C 150.328125 574.660156 150.328125 574.660156 150.496094 578.140625 L 150.535156 578.972656 C 148.355469 570.507812 146.609375 561.925781 145.292969 553.289062 C 146.605469 558.394531 148.082031 561.777344 150.457031 567.210938 Z M 168.273438 589.132812 L 173.132812 592.359375 L 179.078125 595.324219 L 185.457031 597.597656 L 191.835938 599.074219 C 190.613281 618.609375 190.269531 624.203125 190.214844 640.902344 L 184.242188 637.414062 L 178.15625 632.777344 L 172.636719 627.40625 L 167.757812 621.394531 C 166.734375 608.890625 167.011719 604.171875 168.273438 589.132812 Z M 232.570312 691.671875 L 235.425781 692.121094 C 244.566406 693.566406 246.289062 693.839844 261.359375 693.207031 L 261.382812 693.628906 C 262.203125 708.9375 262.492188 714.269531 265.078125 727.4375 L 256.390625 725.238281 L 247.582031 721.945312 L 239.382812 717.730469 L 232.164062 712.863281 L 231.765625 712.53125 L 229.257812 708.3125 L 227.128906 702.824219 L 226.394531 699.894531 C 225.480469 696.261719 225.480469 696.261719 224.917969 692.605469 C 224.792969 691.777344 224.632812 690.742188 224.429688 689.457031 Z M 238.933594 718.488281 L 247.226562 722.753906 L 256.128906 726.082031 L 265.300781 728.40625 L 267.15625 734.453125 L 269.554688 739.71875 L 271.535156 742.574219 C 259.5 735.015625 248.035156 726.59375 237.359375 717.429688 Z M 266.023438 727.644531 C 263.378906 714.261719 263.09375 708.988281 262.265625 693.582031 L 262.242188 693.144531 C 277.722656 691.121094 283.046875 690.421875 305.488281 682.171875 L 305.90625 692.566406 C 306.605469 710.0625 306.71875 712.898438 307.761719 727.339844 C 285.660156 730.394531 280.761719 729.710938 266.414062 727.699219 Z M 308.800781 728.042969 C 325.851562 724.265625 331.683594 722.972656 356.011719 712.097656 L 356.078125 713.332031 C 356.996094 731.238281 357.3125 737.378906 359.121094 752.355469 C 335.644531 757.773438 330.382812 757.640625 314.964844 757.25 L 314.410156 757.234375 C 310.636719 746.234375 310.058594 740.808594 308.929688 730.113281 L 308.714844 728.0625 Z M 313.808594 758.09375 L 316.265625 762.734375 L 319.261719 766.496094 C 319.285156 766.523438 319.308594 766.550781 319.335938 766.570312 L 320.269531 767.296875 C 309.6875 763.085938 299.394531 758.316406 289.574219 753.054688 L 293.972656 754.589844 C 295.734375 754.996094 297.148438 755.324219 298.3125 755.597656 C 303.84375 756.894531 303.84375 756.894531 308.832031 757.488281 C 310.105469 757.640625 311.707031 757.832031 313.808594 758.09375 Z M 334.4375 772.519531 L 334.28125 772.457031 C 330.609375 771.21875 326.886719 769.875 323.214844 768.464844 L 319.921875 765.90625 L 317.003906 762.25 L 314.828125 758.132812 L 314.941406 758.136719 C 330.433594 758.527344 335.714844 758.664062 359.25 753.234375 C 359.496094 754.613281 359.683594 755.695312 359.835938 756.570312 C 360.488281 760.324219 360.488281 760.324219 361.445312 763.949219 L 362.234375 766.949219 L 364.355469 772.398438 L 366.496094 776.042969 C 351.039062 776.058594 349.175781 775.6875 339.6875 773.800781 L 336.628906 773.199219 L 334.613281 772.578125 C 334.550781 772.558594 334.496094 772.539062 334.4375 772.519531 Z M 367.066406 776.925781 L 369.957031 780.019531 C 369.980469 780.046875 370.011719 780.070312 370.042969 780.09375 L 372.039062 781.351562 C 363.199219 779.902344 354.144531 778.019531 345.035156 775.726562 C 350.601562 776.707031 354.625 776.941406 367.066406 776.925781 Z M 367.503906 776.007812 L 365.148438 772.015625 L 363.074219 766.675781 L 362.300781 763.726562 C 361.351562 760.136719 361.351562 760.136719 360.707031 756.417969 C 360.550781 755.53125 360.359375 754.414062 360.109375 753.003906 L 360.347656 752.929688 C 378.164062 747.425781 384.253906 745.542969 409.292969 732.34375 L 409.46875 734.921875 C 410.3125 747.171875 410.746094 753.390625 413.199219 766.273438 C 389.492188 774.03125 383.898438 774.535156 367.503906 776.007812 Z M 514.195312 740.804688 L 514.378906 742.410156 C 515.011719 747.96875 515.222656 749.839844 517.011719 756.320312 L 518.25 759.027344 C 501.132812 768.636719 495.992188 771.152344 477.425781 777.59375 L 474.695312 776.882812 L 472.253906 775.183594 L 470.128906 772.421875 L 468.480469 768.886719 C 489.351562 758.285156 495.625 754.21875 514.195312 740.804688 Z M 480.746094 777.394531 L 480.667969 777.398438 C 496.882812 771.683594 502.707031 768.769531 518.722656 759.777344 L 520.167969 761.46875 C 520.207031 761.515625 520.257812 761.554688 520.316406 761.582031 L 522.273438 762.484375 C 522.339844 762.515625 522.410156 762.527344 522.480469 762.527344 C 509.011719 768.792969 495.039062 773.789062 480.75 777.46875 Z M 517.84375 756.019531 C 516.09375 749.671875 515.882812 747.816406 515.261719 742.308594 L 515.019531 740.195312 C 535.804688 723.617188 541.355469 718.359375 558.746094 700.324219 L 558.886719 707.089844 C 559.09375 717.128906 559.167969 720.578125 559.542969 728.449219 C 542.917969 742.667969 537.839844 746.632812 519.011719 758.570312 Z M 596.175781 709.605469 C 608.546875 695.746094 612.441406 691.0625 623.6875 675.003906 C 623.027344 677.132812 622.96875 677.261719 622.144531 679.136719 C 621.917969 679.648438 621.632812 680.292969 621.300781 681.082031 L 621.125 681.355469 C 613.785156 691.433594 605.269531 701.480469 595.820312 711.246094 Z M 624.691406 674.753906 L 625.363281 672.605469 C 636.015625 655.894531 639.191406 650.195312 645.925781 636.191406 C 645.21875 638.722656 645.082031 639.09375 643.898438 642.238281 L 642.800781 645.167969 L 643.023438 645.25 C 637.546875 656.441406 631.117188 667.238281 623.699219 677.753906 C 623.984375 677.03125 624.179688 676.398438 624.691406 674.753906 Z M 647.09375 635.285156 C 647.351562 634.34375 647.679688 633.164062 648.113281 631.613281 C 652.472656 621.359375 654.941406 615.332031 657.269531 608.328125 C 654.246094 618.734375 650.550781 628.769531 646.175781 638.507812 C 646.417969 637.722656 646.667969 636.828125 647.09375 635.285156 Z M 657.175781 462.582031 C 660.921875 475.675781 663.789062 489.421875 665.699219 503.441406 C 666.554688 517.503906 666.269531 523.917969 664.625 538.472656 C 662.847656 517.742188 661.441406 509.644531 655.867188 485.746094 C 655.582031 465.664062 654.683594 458.636719 652.300781 448.015625 C 654.289062 453.648438 655.839844 458.234375 657.175781 462.582031 Z M 538.371094 305.199219 C 538.398438 305.222656 538.421875 305.234375 538.453125 305.257812 C 538.539062 305.308594 538.628906 305.363281 538.710938 305.414062 C 540.285156 306.410156 541.75 307.347656 543.109375 308.222656 C 543.875 308.710938 544.59375 309.1875 545.296875 309.652344 L 546.019531 310.128906 C 549.582031 312.484375 552.011719 314.164062 554.171875 315.765625 C 554.292969 315.851562 554.414062 315.941406 554.53125 316.027344 C 554.746094 316.183594 554.960938 316.34375 555.175781 316.503906 C 558.957031 319.300781 562.449219 322.171875 567.28125 326.148438 C 568.824219 327.417969 570.519531 328.808594 572.417969 330.363281 L 578.84375 337.554688 L 584.59375 345.640625 C 585.53125 347.304688 586.28125 348.628906 586.898438 349.71875 C 589.722656 354.703125 589.722656 354.703125 591.785156 359.480469 C 592.066406 360.132812 592.386719 360.875 592.757812 361.726562 C 573.347656 339.449219 566.695312 333.222656 542.878906 314.5 L 536.730469 307.183594 L 529.902344 300.707031 L 526.75 298.359375 C 530.644531 300.515625 534.363281 302.699219 537.996094 304.960938 C 538.121094 305.042969 538.246094 305.121094 538.371094 305.199219 Z M 399.621094 263.347656 C 399.625 263.347656 399.675781 263.351562 399.699219 263.355469 C 399.769531 263.363281 399.851562 263.371094 399.886719 263.371094 C 401.132812 263.472656 402.355469 263.652344 405.300781 264.082031 L 408.191406 264.5 L 411.429688 265.328125 C 387.292969 263.949219 379.113281 264.390625 353.953125 267.863281 C 348.34375 267.847656 345.15625 267.875 342.328125 268.078125 C 360.890625 264.425781 380.070312 262.820312 399.621094 263.347656 Z M 254.710938 303.84375 C 262.554688 299.128906 265.144531 297.652344 268.792969 295.871094 C 256.917969 303.609375 252.125 307.621094 240.679688 319.574219 C 233.152344 323.933594 230.289062 325.84375 224.527344 330.269531 C 232.019531 320.738281 235.851562 317.480469 247.671875 308.648438 C 247.71875 308.613281 247.769531 308.578125 247.816406 308.542969 C 247.90625 308.503906 247.953125 308.453125 247.953125 308.449219 C 250.183594 306.871094 252.441406 305.34375 254.710938 303.84375 Z M 229.671875 322.757812 C 227.277344 325.367188 224.832031 328.386719 221.71875 332.445312 C 214.738281 338.34375 212.1875 340.621094 205.898438 347.195312 L 206.832031 345.527344 L 209.261719 342.375 C 215.703125 335.441406 222.535156 328.894531 229.671875 322.757812 Z M 180.851562 378.703125 C 183.019531 375.40625 185.101562 372.371094 187.160156 369.5 L 186.925781 370.535156 C 180.214844 380.570312 178.558594 383.433594 173.539062 392.867188 L 172.882812 392.699219 C 175.339844 388.054688 178.019531 383.339844 180.851562 378.703125 Z M 159.964844 420.816406 C 160.917969 419.863281 161.960938 418.917969 163.039062 417.980469 C 160.425781 426.375 159.671875 429.371094 158.074219 438.746094 C 153.203125 445.121094 152.105469 446.742188 150.707031 449.25 C 153.226562 439.605469 156.332031 430.058594 159.964844 420.816406 Z M 149.773438 452.875 C 149.777344 452.867188 150.65625 451.1875 150.65625 451.1875 C 152.472656 447.835938 152.992188 446.886719 157.871094 440.472656 C 156.824219 449.695312 156.972656 452.085938 157.382812 458.472656 L 157.394531 458.710938 C 149.328125 472.703125 147.636719 476.496094 144.976562 483.371094 C 145.1875 478.90625 145.460938 475.285156 145.867188 471.664062 C 145.890625 471.484375 145.917969 471.304688 145.945312 471.152344 C 147.007812 464.984375 148.296875 458.820312 149.773438 452.875 Z M 143.246094 492.113281 L 143.359375 491.378906 L 144.050781 488.945312 C 144.386719 500.550781 145.167969 503.734375 147.027344 511.308594 L 147.167969 511.886719 C 143.828125 523.660156 143.628906 525.125 142.894531 530.511719 C 142.878906 530.605469 142.867188 530.703125 142.851562 530.800781 C 142.019531 517.933594 142.144531 504.960938 143.246094 492.113281 Z M 165.457031 619.480469 C 165.898438 620.167969 166.378906 620.910156 166.90625 621.734375 L 167.847656 626.699219 C 166.015625 622.851562 164.269531 618.941406 162.617188 614.976562 C 163.414062 616.316406 164.308594 617.703125 165.457031 619.480469 Z M 170.507812 632.144531 C 170.488281 632.109375 170.472656 632.070312 170.453125 632.035156 L 168.898438 627.527344 L 168.085938 623.203125 L 171.984375 628.003906 L 177.578125 633.445312 L 183.753906 638.148438 L 190.222656 641.929688 C 190.726562 655.292969 191.097656 657.328125 192.082031 662.707031 C 192.207031 663.394531 192.34375 664.140625 192.503906 665.019531 L 193.648438 668.851562 L 189.277344 663.859375 L 186.972656 660.519531 C 180.878906 651.355469 175.339844 641.808594 170.507812 632.144531 Z M 194 670.597656 L 194.292969 670.933594 L 194.390625 671.136719 C 194.261719 670.960938 194.132812 670.777344 194 670.597656 Z M 197.113281 674.792969 C 197.101562 674.777344 196.03125 672.519531 196.03125 672.519531 L 200.800781 676.855469 L 207.871094 681.867188 L 215.53125 686.027344 L 223.488281 689.167969 C 223.726562 690.664062 223.902344 691.816406 224.042969 692.738281 C 224.613281 696.4375 224.613281 696.4375 225.535156 700.109375 L 226.285156 703.089844 L 228.464844 708.695312 L 229.488281 710.425781 C 217.707031 699.5 206.816406 687.535156 197.113281 674.792969 Z M 274.078125 744.175781 L 273.140625 743.335938 L 270.320312 739.285156 L 267.980469 734.140625 L 266.277344 728.574219 C 280.722656 730.601562 285.648438 731.289062 307.839844 728.222656 L 308.050781 730.207031 C 309.175781 740.851562 309.75 746.300781 313.445312 757.15625 C 311.570312 756.925781 310.113281 756.75 308.9375 756.609375 C 303.996094 756.019531 303.996094 756.019531 298.511719 754.738281 C 297.347656 754.464844 295.933594 754.132812 294.21875 753.738281 L 285.070312 750.554688 L 284.339844 750.1875 C 280.800781 748.230469 277.351562 746.207031 274.078125 744.175781 Z M 374.933594 781.839844 C 374.890625 781.820312 374.847656 781.808594 374.800781 781.800781 C 374.78125 781.796875 373.996094 781.542969 373.996094 781.542969 L 370.5625 779.375 L 368.191406 776.835938 C 384.175781 775.398438 389.953125 774.808594 413.40625 767.136719 L 414.976562 772.625 L 417.066406 777.441406 L 419.515625 781.089844 C 419.535156 781.121094 419.558594 781.148438 419.585938 781.175781 L 421.75 783.117188 L 419.605469 783.402344 C 412.34375 784.371094 409.050781 784.8125 403.027344 784.792969 L 402.929688 784.792969 C 393.929688 784.300781 384.480469 783.300781 374.933594 781.839844 Z M 412.75 785.164062 C 414.746094 784.941406 416.945312 784.652344 419.722656 784.28125 L 422.683594 783.886719 L 425.316406 785.117188 C 421.128906 785.238281 416.9375 785.25 412.75 785.164062 Z M 429.140625 785 L 426.222656 784.566406 L 424.136719 783.589844 C 443.144531 779.519531 449.339844 777.253906 467.679688 769.265625 L 469.347656 772.839844 C 469.359375 772.871094 469.378906 772.898438 469.398438 772.921875 L 471.59375 775.777344 C 471.621094 775.8125 471.65625 775.84375 471.691406 775.871094 L 474.253906 777.65625 C 474.296875 777.683594 474.34375 777.707031 474.394531 777.722656 L 475.726562 778.066406 C 474.390625 778.429688 473.292969 778.734375 472.371094 778.988281 C 467.441406 780.347656 467.441406 780.347656 462.0625 781.382812 C 460.960938 781.597656 459.621094 781.855469 457.984375 782.175781 C 448.558594 783.683594 438.871094 784.632812 429.140625 785 Z M 549.53125 747.945312 C 549.503906 747.964844 549.472656 747.992188 549.445312 748.019531 C 541.410156 752.972656 533.21875 757.445312 525.09375 761.316406 L 524.59375 761.535156 L 522.546875 761.636719 L 520.777344 760.820312 L 519.488281 759.316406 C 538.179688 747.464844 543.351562 743.457031 559.625 729.542969 L 559.738281 730.898438 C 559.921875 733.09375 559.921875 733.09375 560.207031 734.925781 L 560.453125 736.464844 L 561.101562 738.632812 C 561.117188 738.683594 561.140625 738.730469 561.167969 738.769531 L 561.707031 739.503906 L 560.070312 740.671875 C 556.328125 743.355469 553.851562 745.125 551.363281 746.777344 C 551.339844 746.789062 551.3125 746.800781 551.289062 746.816406 C 550.714844 747.210938 550.136719 747.578125 549.53125 747.945312 Z M 587.097656 719.964844 C 582.457031 724.046875 577.730469 727.945312 572.964844 731.644531 C 580.074219 725.75 585.117188 720.941406 595.015625 710.789062 L 594.820312 711.6875 L 594.480469 712.632812 C 592.195312 714.992188 589.773438 717.398438 587.097656 719.964844 Z M 587.097656 719.964844 " fill-opacity="1" fill-rule="nonzero"/></g></svg>