<svg xmlns="http://www.w3.org/2000/svg" xmlns:xlink="http://www.w3.org/1999/xlink" width="1080" zoomAndPan="magnify" viewBox="0 0 810 1012.49997" height="1350" preserveAspectRatio="xMidYMid meet" version="1.0"><defs><clipPath id="4ecd0da0f0"><path d="M 81.160156 490 L 108 490 L 108 542 L 81.160156 542 Z M 81.160156 490 " clip-rule="nonzero"/></clipPath><clipPath id="c7e91cfa74"><path d="M 702 574 L 723.59375 574 L 723.59375 607 L 702 607 Z M 702 574 " clip-rule="nonzero"/></clipPath><clipPath id="1afb072bb7"><path d="M 701 556 L 723.59375 556 L 723.59375 587 L 701 587 Z M 701 556 " clip-rule="nonzero"/></clipPath><clipPath id="eddec54daa"><path d="M 81.160156 512 L 107 512 L 107 567 L 81.160156 567 Z M 81.160156 512 " clip-rule="nonzero"/></clipPath></defs><path stroke-linecap="round" transform="matrix(8.430876, 0, 0, 8.430133, -20.853673, 123.254389)" fill-opacity="1" fill="#fcfcfc" fill-rule="nonzero" stroke-linejoin="round" d="M 56.333828 81.61982 L 54.910025 82.351014 L 59.102205 80.512835 L 61.273817 79.663019 Z M 56.333828 81.61982 " stroke="#303845" stroke-width="0.343" stroke-opacity="1" stroke-miterlimit="4"/><path stroke-linecap="round" transform="matrix(8.430876, 0, 0, 8.430133, -20.853673, 123.254389)" fill-opacity="1" fill="#fcfcfc" fill-rule="nonzero" stroke-linejoin="round" d="M 70.937886 37.649946 L 74.962805 39.763829 L 71.978054 37.869119 L 69.156858 36.03511 Z M 70.937886 37.649946 " stroke="#303845" stroke-width="0.343" stroke-opacity="1" stroke-miterlimit="4"/><path stroke-linecap="round" transform="matrix(8.430876, 0, 0, 8.430133, -20.853673, 123.254389)" fill-opacity="1" fill="#fcfcfc" fill-rule="nonzero" stroke-linejoin="round" d="M 59.102205 80.512835 L 64.349843 76.666884 L 66.475123 75.52283 L 61.273817 79.663019 Z M 59.102205 80.512835 " stroke="#303845" stroke-width="0.343" stroke-opacity="1" stroke-miterlimit="4"/><path stroke-linecap="round" transform="matrix(8.430876, 0, 0, 8.430133, -20.853673, 123.254389)" fill-opacity="1" fill="#fcfcfc" fill-rule="nonzero" stroke-linejoin="round" d="M 70.595024 71.573085 L 72.559992 70.244146 L 66.475123 75.52283 L 64.349843 76.666884 Z M 70.595024 71.573085 " stroke="#303845" stroke-width="0.343" stroke-opacity="1" stroke-miterlimit="4"/><path stroke-linecap="round" transform="matrix(8.430876, 0, 0, 8.430133, -20.853673, 123.254389)" fill-opacity="1" fill="#fcfcfc" fill-rule="nonzero" stroke-linejoin="round" d="M 74.676005 39.312046 L 71.978054 37.869119 L 74.962805 39.763829 L 78.29922 41.943047 Z M 74.676005 39.312046 " stroke="#303845" stroke-width="0.343" stroke-opacity="1" stroke-miterlimit="4"/><path stroke-linecap="round" transform="matrix(8.430876, 0, 0, 8.430133, -20.853673, 123.254389)" fill-opacity="1" fill="#fcfcfc" fill-rule="nonzero" stroke-linejoin="round" d="M 55.571192 81.832969 L 59.102205 80.512835 L 54.910025 82.351014 L 52.00682 83.375983 Z M 55.571192 81.832969 " stroke="#303845" stroke-width="0.343" stroke-opacity="1" stroke-miterlimit="4"/><path stroke-linecap="round" transform="matrix(8.430876, 0, 0, 8.430133, -20.853673, 123.254389)" fill-opacity="1" fill="#fcfcfc" fill-rule="nonzero" stroke-linejoin="round" d="M 78.656908 64.950172 L 72.559992 70.244146 L 70.595024 71.573085 L 76.894877 66.395879 Z M 78.656908 64.950172 " stroke="#303845" stroke-width="0.343" stroke-opacity="1" stroke-miterlimit="4"/><path stroke-linecap="round" transform="matrix(8.430876, 0, 0, 8.430133, -20.853673, 123.254389)" fill-opacity="1" fill="#fcfcfc" fill-rule="nonzero" stroke-linejoin="round" d="M 86.659951 49.729938 L 85.178232 47.500214 L 86.027973 49.249889 L 88.036031 51.575995 Z M 86.659951 49.729938 " stroke="#303845" stroke-width="0.343" stroke-opacity="1" stroke-miterlimit="4"/><path stroke-linecap="round" transform="matrix(8.430876, 0, 0, 8.430133, -20.853673, 123.254389)" fill-opacity="1" fill="#fcfcfc" fill-rule="nonzero" stroke-linejoin="round" d="M 59.102205 80.512835 L 55.571192 81.832969 L 60.732188 77.950875 L 64.349843 76.666884 Z M 59.102205 80.512835 " stroke="#303845" stroke-width="0.343" stroke-opacity="1" stroke-miterlimit="4"/><path stroke-linecap="round" transform="matrix(8.430876, 0, 0, 8.430133, -20.853673, 123.254389)" fill-opacity="1" fill="#fcfcfc" fill-rule="nonzero" stroke-linejoin="round" d="M 86.659951 49.729938 L 83.594118 46.501193 L 82.652175 45.429887 L 85.178232 47.500214 Z M 86.659951 49.729938 " stroke="#303845" stroke-width="0.343" stroke-opacity="1" stroke-miterlimit="4"/><path stroke-linecap="round" transform="matrix(8.430876, 0, 0, 8.430133, -20.853673, 123.254389)" fill-opacity="1" fill="#fcfcfc" fill-rule="nonzero" stroke-linejoin="round" d="M 80.079785 43.283106 L 82.652175 45.429887 L 83.594118 46.501193 L 81.334937 44.583778 Z M 80.079785 43.283106 " stroke="#303845" stroke-width="0.343" stroke-opacity="1" stroke-miterlimit="4"/><path stroke-linecap="round" transform="matrix(8.430876, 0, 0, 8.430133, -20.853673, 123.254389)" fill-opacity="1" fill="#fcfcfc" fill-rule="nonzero" stroke-linejoin="round" d="M 80.079785 43.283106 L 77.18214 41.039017 L 74.676005 39.312046 L 78.29922 41.943047 Z M 80.079785 43.283106 " stroke="#303845" stroke-width="0.343" stroke-opacity="1" stroke-miterlimit="4"/><path stroke-linecap="round" transform="matrix(8.430876, 0, 0, 8.430133, -20.853673, 123.254389)" fill-opacity="1" fill="#fcfcfc" fill-rule="nonzero" stroke-linejoin="round" d="M 16.061007 56.229132 L 14.612185 56.993225 L 12.39702 53.823791 L 12.915946 52.455003 Z M 16.061007 56.229132 " stroke="#303845" stroke-width="0.343" stroke-opacity="1" stroke-miterlimit="4"/><path stroke-linecap="round" transform="matrix(8.430876, 0, 0, 8.430133, -20.853673, 123.254389)" fill-opacity="1" fill="#fcfcfc" fill-rule="nonzero" stroke-linejoin="round" d="M 25.121824 66.183193 L 22.942799 65.114204 L 18.771005 60.902193 L 21.567182 61.392899 Z M 25.121824 66.183193 " stroke="#303845" stroke-width="0.343" stroke-opacity="1" stroke-miterlimit="4"/><path stroke-linecap="round" transform="matrix(8.430876, 0, 0, 8.430133, -20.853673, 123.254389)" fill-opacity="1" fill="#fcfcfc" fill-rule="nonzero" stroke-linejoin="round" d="M 18.771005 60.902193 L 14.612185 56.993225 L 16.061007 56.229132 L 21.567182 61.392899 Z M 18.771005 60.902193 " stroke="#303845" stroke-width="0.343" stroke-opacity="1" stroke-miterlimit="4"/><path stroke-linecap="round" transform="matrix(8.430876, 0, 0, 8.430133, -20.853673, 123.254389)" fill-opacity="1" fill="#fcfcfc" fill-rule="nonzero" stroke-linejoin="round" d="M 81.933092 62.265884 L 83.177124 61.075956 L 78.656908 64.950172 L 76.894877 66.395879 Z M 81.933092 62.265884 " stroke="#303845" stroke-width="0.343" stroke-opacity="1" stroke-miterlimit="4"/><path stroke-linecap="round" transform="matrix(8.430876, 0, 0, 8.430133, -20.853673, 123.254389)" fill-opacity="1" fill="#fcfcfc" fill-rule="nonzero" stroke-linejoin="round" d="M 60.732188 77.950875 L 67.060768 72.788961 L 70.595024 71.573085 L 64.349843 76.666884 Z M 60.732188 77.950875 " stroke="#303845" stroke-width="0.343" stroke-opacity="1" stroke-miterlimit="4"/><path stroke-linecap="round" transform="matrix(8.430876, 0, 0, 8.430133, -20.853673, 123.254389)" fill-opacity="1" fill="#fcfcfc" fill-rule="nonzero" stroke-linejoin="round" d="M 79.23097 43.735816 L 77.18214 41.039017 L 80.079785 43.283106 L 81.334937 44.583778 Z M 79.23097 43.735816 " stroke="#303845" stroke-width="0.343" stroke-opacity="1" stroke-miterlimit="4"/><path stroke-linecap="round" transform="matrix(8.430876, 0, 0, 8.430133, -20.853673, 123.254389)" fill-opacity="1" fill="#fcfcfc" fill-rule="nonzero" stroke-linejoin="round" d="M 83.177124 61.075956 L 81.933092 62.265884 L 84.694982 59.291991 L 86.153998 58.42086 Z M 83.177124 61.075956 " stroke="#303845" stroke-width="0.343" stroke-opacity="1" stroke-miterlimit="4"/><path stroke-linecap="round" transform="matrix(8.430876, 0, 0, 8.430133, -20.853673, 123.254389)" fill-opacity="1" fill="#fcfcfc" fill-rule="nonzero" stroke-linejoin="round" d="M 77.18214 41.039017 L 73.887887 38.053076 L 71.599053 35.8961 L 74.676005 39.312046 Z M 77.18214 41.039017 " stroke="#303845" stroke-width="0.343" stroke-opacity="1" stroke-miterlimit="4"/><path stroke-linecap="round" transform="matrix(8.430876, 0, 0, 8.430133, -20.853673, 123.254389)" fill-opacity="1" fill="#fcfcfc" fill-rule="nonzero" stroke-linejoin="round" d="M 83.594118 46.501193 L 81.810773 46.518801 L 79.23097 43.735816 L 81.334937 44.583778 Z M 83.594118 46.501193 " stroke="#303845" stroke-width="0.343" stroke-opacity="1" stroke-miterlimit="4"/><path stroke-linecap="round" transform="matrix(8.430876, 0, 0, 8.430133, -20.853673, 123.254389)" fill-opacity="1" fill="#fcfcfc" fill-rule="nonzero" stroke-linejoin="round" d="M 87.587994 55.994204 L 86.153998 58.42086 L 84.694982 59.291991 L 86.03585 57.11787 Z M 87.587994 55.994204 " stroke="#303845" stroke-width="0.343" stroke-opacity="1" stroke-miterlimit="4"/><path fill="#fcfcfc" d="M 105.683594 491.675781 L 101.066406 513.8125 L 82.390625 540.058594 L 84.792969 515.304688 Z M 105.683594 491.675781 " fill-opacity="1" fill-rule="nonzero"/><g clip-path="url(#4ecd0da0f0)"><path stroke-linecap="round" transform="matrix(8.430876, 0, 0, 8.430133, -20.853673, 123.254389)" fill="none" stroke-linejoin="round" d="M 15.008792 43.702917 L 14.46114 46.32882 L 12.245975 49.442187 L 12.530921 46.505827 Z M 15.008792 43.702917 " stroke="#303845" stroke-width="0.343" stroke-opacity="1" stroke-miterlimit="4"/></g><path stroke-linecap="round" transform="matrix(8.430876, 0, 0, 8.430133, -20.853673, 123.254389)" fill-opacity="1" fill="#fcfcfc" fill-rule="nonzero" stroke-linejoin="round" d="M 48.080126 84.817983 L 51.599092 83.361155 L 55.571192 81.832969 L 52.00682 83.375983 Z M 48.080126 84.817983 " stroke="#303845" stroke-width="0.343" stroke-opacity="1" stroke-miterlimit="4"/><path fill="#fcfcfc" d="M 703.484375 584.898438 L 721.890625 575.792969 L 717.589844 595.292969 L 704.503906 604.765625 Z M 703.484375 584.898438 " fill-opacity="1" fill-rule="nonzero"/><g clip-path="url(#c7e91cfa74)"><path stroke-linecap="round" transform="matrix(8.430876, 0, 0, 8.430133, -20.853673, 123.254389)" fill="none" stroke-linejoin="round" d="M 85.914921 54.761183 L 88.098117 53.681073 L 87.587994 55.994204 L 86.03585 57.11787 Z M 85.914921 54.761183 " stroke="#303845" stroke-width="0.343" stroke-opacity="1" stroke-miterlimit="4"/></g><path stroke-linecap="round" transform="matrix(8.430876, 0, 0, 8.430133, -20.853673, 123.254389)" fill-opacity="1" fill="#fcfcfc" fill-rule="nonzero" stroke-linejoin="round" d="M 81.810773 46.518801 L 83.594118 46.501193 L 86.659951 49.729938 L 84.715832 50.037151 Z M 81.810773 46.518801 " stroke="#303845" stroke-width="0.343" stroke-opacity="1" stroke-miterlimit="4"/><path fill="#fcfcfc" d="M 721.890625 575.792969 L 703.484375 584.898438 L 702.777344 563.230469 L 721.367188 558.046875 Z M 721.890625 575.792969 " fill-opacity="1" fill-rule="nonzero"/><g clip-path="url(#1afb072bb7)"><path stroke-linecap="round" transform="matrix(8.430876, 0, 0, 8.430133, -20.853673, 123.254389)" fill="none" stroke-linejoin="round" d="M 88.098117 53.681073 L 85.914921 54.761183 L 85.831059 52.190883 L 88.036031 51.575995 Z M 88.098117 53.681073 " stroke="#303845" stroke-width="0.343" stroke-opacity="1" stroke-miterlimit="4"/></g><path stroke-linecap="round" transform="matrix(8.430876, 0, 0, 8.430133, -20.853673, 123.254389)" fill-opacity="1" fill="#fcfcfc" fill-rule="nonzero" stroke-linejoin="round" d="M 86.659951 49.729938 L 88.036031 51.575995 L 85.831059 52.190883 L 84.715832 50.037151 Z M 86.659951 49.729938 " stroke="#303845" stroke-width="0.343" stroke-opacity="1" stroke-miterlimit="4"/><path fill="#fcfcfc" d="M 88.039062 565.457031 L 82.390625 540.058594 L 101.066406 513.8125 L 104.816406 539.667969 Z M 88.039062 565.457031 " fill-opacity="1" fill-rule="nonzero"/><g clip-path="url(#eddec54daa)"><path stroke-linecap="round" transform="matrix(8.430876, 0, 0, 8.430133, -20.853673, 123.254389)" fill="none" stroke-linejoin="round" d="M 12.915946 52.455003 L 12.245975 49.442187 L 14.46114 46.32882 L 14.905934 49.39585 Z M 12.915946 52.455003 " stroke="#303845" stroke-width="0.343" stroke-opacity="1" stroke-miterlimit="4"/></g><path stroke-linecap="round" transform="matrix(8.430876, 0, 0, 8.430133, -20.853673, 123.254389)" fill-opacity="1" fill="#fcfcfc" fill-rule="nonzero" stroke-linejoin="round" d="M 17.013144 53.298795 L 16.061007 56.229132 L 12.915946 52.455003 L 14.905934 49.39585 Z M 17.013144 53.298795 " stroke="#303845" stroke-width="0.343" stroke-opacity="1" stroke-miterlimit="4"/><path stroke-linecap="round" transform="matrix(8.430876, 0, 0, 8.430133, -20.853673, 123.254389)" fill-opacity="1" fill="#fcfcfc" fill-rule="nonzero" stroke-linejoin="round" d="M 26.83706 66.160025 L 29.554008 69.404988 L 25.121824 66.183193 L 21.567182 61.392899 Z M 26.83706 66.160025 " stroke="#303845" stroke-width="0.343" stroke-opacity="1" stroke-miterlimit="4"/><path stroke-linecap="round" transform="matrix(8.430876, 0, 0, 8.430133, -20.853673, 123.254389)" fill-opacity="1" fill="#fcfcfc" fill-rule="nonzero" stroke-linejoin="round" d="M 76.894877 66.395879 L 70.595024 71.573085 L 67.060768 72.788961 L 73.487109 67.481086 Z M 76.894877 66.395879 " stroke="#303845" stroke-width="0.343" stroke-opacity="1" stroke-miterlimit="4"/><path stroke-linecap="round" transform="matrix(8.430876, 0, 0, 8.430133, -20.853673, 123.254389)" fill-opacity="1" fill="#fcfcfc" fill-rule="nonzero" stroke-linejoin="round" d="M 73.887887 38.053076 L 77.18214 41.039017 L 79.23097 43.735816 L 76.628927 41.134007 Z M 73.887887 38.053076 " stroke="#303845" stroke-width="0.343" stroke-opacity="1" stroke-miterlimit="4"/><path stroke-linecap="round" transform="matrix(8.430876, 0, 0, 8.430133, -20.853673, 123.254389)" fill-opacity="1" fill="#fcfcfc" fill-rule="nonzero" stroke-linejoin="round" d="M 55.571192 81.832969 L 51.599092 83.361155 L 56.529815 79.504084 L 60.732188 77.950875 Z M 55.571192 81.832969 " stroke="#303845" stroke-width="0.343" stroke-opacity="1" stroke-miterlimit="4"/><path stroke-linecap="round" transform="matrix(8.430876, 0, 0, 8.430133, -20.853673, 123.254389)" fill-opacity="1" fill="#fcfcfc" fill-rule="nonzero" stroke-linejoin="round" d="M 16.061007 56.229132 L 17.013144 53.298795 L 21.796992 57.284219 L 21.567182 61.392899 Z M 16.061007 56.229132 " stroke="#303845" stroke-width="0.343" stroke-opacity="1" stroke-miterlimit="4"/><path stroke-linecap="round" transform="matrix(8.430876, 0, 0, 8.430133, -20.853673, 123.254389)" fill-opacity="1" fill="#fcfcfc" fill-rule="nonzero" stroke-linejoin="round" d="M 78.516984 63.296877 L 81.933092 62.265884 L 76.894877 66.395879 L 73.487109 67.481086 Z M 78.516984 63.296877 " stroke="#303845" stroke-width="0.343" stroke-opacity="1" stroke-miterlimit="4"/><path stroke-linecap="round" transform="matrix(8.430876, 0, 0, 8.430133, -20.853673, 123.254389)" fill-opacity="1" fill="#fcfcfc" fill-rule="nonzero" stroke-linejoin="round" d="M 59.558118 14.00013 L 56.870823 14.701205 L 53.874026 14.760979 L 56.351898 14.026078 Z M 59.558118 14.00013 " stroke="#303845" stroke-width="0.343" stroke-opacity="1" stroke-miterlimit="4"/><path stroke-linecap="round" transform="matrix(8.430876, 0, 0, 8.430133, -20.853673, 123.254389)" fill-opacity="1" fill="#fcfcfc" fill-rule="nonzero" stroke-linejoin="round" d="M 79.23097 43.735816 L 81.810773 46.518801 L 79.068806 44.599996 L 76.628927 41.134007 Z M 79.23097 43.735816 " stroke="#303845" stroke-width="0.343" stroke-opacity="1" stroke-miterlimit="4"/><path stroke-linecap="round" transform="matrix(8.430876, 0, 0, 8.430133, -20.853673, 123.254389)" fill-opacity="1" fill="#fcfcfc" fill-rule="nonzero" stroke-linejoin="round" d="M 73.887887 38.053076 L 76.628927 41.134007 L 73.967116 37.605926 L 71.762144 34.563918 Z M 73.887887 38.053076 " stroke="#303845" stroke-width="0.343" stroke-opacity="1" stroke-miterlimit="4"/><path stroke-linecap="round" transform="matrix(8.430876, 0, 0, 8.430133, -20.853673, 123.254389)" fill-opacity="1" fill="#fcfcfc" fill-rule="nonzero" stroke-linejoin="round" d="M 69.788835 28.667103 L 68.030974 23.272115 L 66.565935 20.421941 L 68.106959 26.296051 Z M 69.788835 28.667103 " stroke="#303845" stroke-width="0.343" stroke-opacity="1" stroke-miterlimit="4"/><path stroke-linecap="round" transform="matrix(8.430876, 0, 0, 8.430133, -20.853673, 123.254389)" fill-opacity="1" fill="#fcfcfc" fill-rule="nonzero" stroke-linejoin="round" d="M 21.796992 57.284219 L 25.467929 62.035127 L 26.83706 66.160025 L 21.567182 61.392899 Z M 21.796992 57.284219 " stroke="#303845" stroke-width="0.343" stroke-opacity="1" stroke-miterlimit="4"/><path stroke-linecap="round" transform="matrix(8.430876, 0, 0, 8.430133, -20.853673, 123.254389)" fill-opacity="1" fill="#fcfcfc" fill-rule="nonzero" stroke-linejoin="round" d="M 56.529815 79.504084 L 63.009902 74.207792 L 67.060768 72.788961 L 60.732188 77.950875 Z M 56.529815 79.504084 " stroke="#303845" stroke-width="0.343" stroke-opacity="1" stroke-miterlimit="4"/><path stroke-linecap="round" transform="matrix(8.430876, 0, 0, 8.430133, -20.853673, 123.254389)" fill-opacity="1" fill="#fcfcfc" fill-rule="nonzero" stroke-linejoin="round" d="M 81.174162 60.024112 L 84.694982 59.291991 L 81.933092 62.265884 L 78.516984 63.296877 Z M 81.174162 60.024112 " stroke="#303845" stroke-width="0.343" stroke-opacity="1" stroke-miterlimit="4"/><path stroke-linecap="round" transform="matrix(8.430876, 0, 0, 8.430133, -20.853673, 123.254389)" fill-opacity="1" fill="#fcfcfc" fill-rule="nonzero" stroke-linejoin="round" d="M 81.810773 46.518801 L 84.715832 50.037151 L 80.820181 48.382929 L 79.068806 44.599996 Z M 81.810773 46.518801 " stroke="#303845" stroke-width="0.343" stroke-opacity="1" stroke-miterlimit="4"/><path stroke-linecap="round" transform="matrix(8.430876, 0, 0, 8.430133, -20.853673, 123.254389)" fill-opacity="1" fill="#fcfcfc" fill-rule="nonzero" stroke-linejoin="round" d="M 68.030974 23.272115 L 67.412896 20.971958 L 65.218117 17.208023 L 66.565935 20.421941 Z M 68.030974 23.272115 " stroke="#303845" stroke-width="0.343" stroke-opacity="1" stroke-miterlimit="4"/><path stroke-linecap="round" transform="matrix(8.430876, 0, 0, 8.430133, -20.853673, 123.254389)" fill-opacity="1" fill="#fcfcfc" fill-rule="nonzero" stroke-linejoin="round" d="M 50.306874 16.690905 L 53.874026 14.760979 L 56.870823 14.701205 L 53.339811 16.291019 Z M 50.306874 16.690905 " stroke="#303845" stroke-width="0.343" stroke-opacity="1" stroke-miterlimit="4"/><path stroke-linecap="round" transform="matrix(8.430876, 0, 0, 8.430133, -20.853673, 123.254389)" fill-opacity="1" fill="#fcfcfc" fill-rule="nonzero" stroke-linejoin="round" d="M 18.729769 39.851869 L 18.127908 42.513915 L 14.46114 46.32882 L 15.008792 43.702917 Z M 18.729769 39.851869 " stroke="#303845" stroke-width="0.343" stroke-opacity="1" stroke-miterlimit="4"/><path stroke-linecap="round" transform="matrix(8.430876, 0, 0, 8.430133, -20.853673, 123.254389)" fill-opacity="1" fill="#fcfcfc" fill-rule="nonzero" stroke-linejoin="round" d="M 48.01109 84.742917 L 51.599092 83.361155 L 48.080126 84.817983 L 44.29799 86.213182 Z M 48.01109 84.742917 " stroke="#303845" stroke-width="0.343" stroke-opacity="1" stroke-miterlimit="4"/><path stroke-linecap="round" transform="matrix(8.430876, 0, 0, 8.430133, -20.853673, 123.254389)" fill-opacity="1" fill="#fcfcfc" fill-rule="nonzero" stroke-linejoin="round" d="M 84.694982 59.291991 L 81.174162 60.024112 L 82.408001 57.576141 L 86.03585 57.11787 Z M 84.694982 59.291991 " stroke="#303845" stroke-width="0.343" stroke-opacity="1" stroke-miterlimit="4"/><path stroke-linecap="round" transform="matrix(8.430876, 0, 0, 8.430133, -20.853673, 123.254389)" fill-opacity="1" fill="#fcfcfc" fill-rule="nonzero" stroke-linejoin="round" d="M 85.831059 52.190883 L 82.016027 51.590822 L 80.820181 48.382929 L 84.715832 50.037151 Z M 85.831059 52.190883 " stroke="#303845" stroke-width="0.343" stroke-opacity="1" stroke-miterlimit="4"/><path stroke-linecap="round" transform="matrix(8.430876, 0, 0, 8.430133, -20.853673, 123.254389)" fill-opacity="1" fill="#fcfcfc" fill-rule="nonzero" stroke-linejoin="round" d="M 85.914921 54.761183 L 86.03585 57.11787 L 82.408001 57.576141 L 82.542829 54.814007 Z M 85.914921 54.761183 " stroke="#303845" stroke-width="0.343" stroke-opacity="1" stroke-miterlimit="4"/><path stroke-linecap="round" transform="matrix(8.430876, 0, 0, 8.430133, -20.853673, 123.254389)" fill-opacity="1" fill="#fcfcfc" fill-rule="nonzero" stroke-linejoin="round" d="M 82.016027 51.590822 L 85.831059 52.190883 L 85.914921 54.761183 L 82.542829 54.814007 Z M 82.016027 51.590822 " stroke="#303845" stroke-width="0.343" stroke-opacity="1" stroke-miterlimit="4"/><path stroke-linecap="round" transform="matrix(8.430876, 0, 0, 8.430133, -20.853673, 123.254389)" fill-opacity="1" fill="#fcfcfc" fill-rule="nonzero" stroke-linejoin="round" d="M 14.905934 49.39585 L 14.46114 46.32882 L 18.127908 42.513915 L 17.812845 45.605967 Z M 14.905934 49.39585 " stroke="#303845" stroke-width="0.343" stroke-opacity="1" stroke-miterlimit="4"/><path stroke-linecap="round" transform="matrix(8.430876, 0, 0, 8.430133, -20.853673, 123.254389)" fill-opacity="1" fill="#fcfcfc" fill-rule="nonzero" stroke-linejoin="round" d="M 63.827211 15.055218 L 65.218117 17.208023 L 67.412896 20.971958 L 66.279135 19.41319 Z M 63.827211 15.055218 " stroke="#303845" stroke-width="0.343" stroke-opacity="1" stroke-miterlimit="4"/><path stroke-linecap="round" transform="matrix(8.430876, 0, 0, 8.430133, -20.853673, 123.254389)" fill-opacity="1" fill="#fcfcfc" fill-rule="nonzero" stroke-linejoin="round" d="M 19.169929 49.606219 L 17.013144 53.298795 L 14.905934 49.39585 L 17.812845 45.605967 Z M 19.169929 49.606219 " stroke="#303845" stroke-width="0.343" stroke-opacity="1" stroke-miterlimit="4"/><path stroke-linecap="round" transform="matrix(8.430876, 0, 0, 8.430133, -20.853673, 123.254389)" fill-opacity="1" fill="#fcfcfc" fill-rule="nonzero" stroke-linejoin="round" d="M 79.068806 44.599996 L 75.72822 41.8981 L 73.967116 37.605926 L 76.628927 41.134007 Z M 79.068806 44.599996 " stroke="#303845" stroke-width="0.343" stroke-opacity="1" stroke-miterlimit="4"/><path stroke-linecap="round" transform="matrix(8.430876, 0, 0, 8.430133, -20.853673, 123.254389)" fill-opacity="1" fill="#fcfcfc" fill-rule="nonzero" stroke-linejoin="round" d="M 63.827211 15.055218 L 66.279135 19.41319 L 64.916955 18.239943 L 61.829809 14.060831 Z M 63.827211 15.055218 " stroke="#303845" stroke-width="0.343" stroke-opacity="1" stroke-miterlimit="4"/><path stroke-linecap="round" transform="matrix(8.430876, 0, 0, 8.430133, -20.853673, 123.254389)" fill-opacity="1" fill="#fcfcfc" fill-rule="nonzero" stroke-linejoin="round" d="M 22.304798 53.434098 L 21.796992 57.284219 L 17.013144 53.298795 L 19.169929 49.606219 Z M 22.304798 53.434098 " stroke="#303845" stroke-width="0.343" stroke-opacity="1" stroke-miterlimit="4"/><path stroke-linecap="round" transform="matrix(8.430876, 0, 0, 8.430133, -20.853673, 123.254389)" fill-opacity="1" fill="#fcfcfc" fill-rule="nonzero" stroke-linejoin="round" d="M 51.599092 83.361155 L 48.01109 84.742917 L 53.036795 80.71996 L 56.529815 79.504084 Z M 51.599092 83.361155 " stroke="#303845" stroke-width="0.343" stroke-opacity="1" stroke-miterlimit="4"/><path stroke-linecap="round" transform="matrix(8.430876, 0, 0, 8.430133, -20.853673, 123.254389)" fill-opacity="1" fill="#fcfcfc" fill-rule="nonzero" stroke-linejoin="round" d="M 67.060768 72.788961 L 63.009902 74.207792 L 69.541882 68.827168 L 73.487109 67.481086 Z M 67.060768 72.788961 " stroke="#303845" stroke-width="0.343" stroke-opacity="1" stroke-miterlimit="4"/><path stroke-linecap="round" transform="matrix(8.430876, 0, 0, 8.430133, -20.853673, 123.254389)" fill-opacity="1" fill="#fcfcfc" fill-rule="nonzero" stroke-linejoin="round" d="M 64.916955 18.239943 L 63.115077 17.825229 L 59.558118 14.00013 L 61.829809 14.060831 Z M 64.916955 18.239943 " stroke="#303845" stroke-width="0.343" stroke-opacity="1" stroke-miterlimit="4"/><path stroke-linecap="round" transform="matrix(8.430876, 0, 0, 8.430133, -20.853673, 123.254389)" fill-opacity="1" fill="#fcfcfc" fill-rule="nonzero" stroke-linejoin="round" d="M 50.306874 16.690905 L 53.339811 16.291019 L 48.117192 18.822859 L 45.042093 19.580002 Z M 50.306874 16.690905 " stroke="#303845" stroke-width="0.343" stroke-opacity="1" stroke-miterlimit="4"/><path stroke-linecap="round" transform="matrix(8.430876, 0, 0, 8.430133, -20.853673, 123.254389)" fill-opacity="1" fill="#fcfcfc" fill-rule="nonzero" stroke-linejoin="round" d="M 26.83706 66.160025 L 25.467929 62.035127 L 29.100874 67.185921 L 30.703984 71.820986 Z M 26.83706 66.160025 " stroke="#303845" stroke-width="0.343" stroke-opacity="1" stroke-miterlimit="4"/><path stroke-linecap="round" transform="matrix(8.430876, 0, 0, 8.430133, -20.853673, 123.254389)" fill-opacity="1" fill="#fcfcfc" fill-rule="nonzero" stroke-linejoin="round" d="M 72.157825 32.464863 L 70.511162 28.640228 L 68.030974 23.272115 L 69.788835 28.667103 Z M 72.157825 32.464863 " stroke="#303845" stroke-width="0.343" stroke-opacity="1" stroke-miterlimit="4"/><path stroke-linecap="round" transform="matrix(8.430876, 0, 0, 8.430133, -20.853673, 123.254389)" fill-opacity="1" fill="#fcfcfc" fill-rule="nonzero" stroke-linejoin="round" d="M 56.870823 14.701205 L 59.558118 14.00013 L 63.115077 17.825229 L 60.58207 17.967019 Z M 56.870823 14.701205 " stroke="#303845" stroke-width="0.343" stroke-opacity="1" stroke-miterlimit="4"/><path stroke-linecap="round" transform="matrix(8.430876, 0, 0, 8.430133, -20.853673, 123.254389)" fill-opacity="1" fill="#fcfcfc" fill-rule="nonzero" stroke-linejoin="round" d="M 21.796992 57.284219 L 22.304798 53.434098 L 24.593168 57.816165 L 25.467929 62.035127 Z M 21.796992 57.284219 " stroke="#303845" stroke-width="0.343" stroke-opacity="1" stroke-miterlimit="4"/><path stroke-linecap="round" transform="matrix(8.430876, 0, 0, 8.430133, -20.853673, 123.254389)" fill-opacity="1" fill="#fcfcfc" fill-rule="nonzero" stroke-linejoin="round" d="M 56.870823 14.701205 L 60.58207 17.967019 L 56.753138 18.783936 L 53.339811 16.291019 Z M 56.870823 14.701205 " stroke="#303845" stroke-width="0.343" stroke-opacity="1" stroke-miterlimit="4"/><path stroke-linecap="round" transform="matrix(8.430876, 0, 0, 8.430133, -20.853673, 123.254389)" fill-opacity="1" fill="#fcfcfc" fill-rule="nonzero" stroke-linejoin="round" d="M 48.01109 84.742917 L 44.29799 86.213182 L 42.059195 86.344779 L 45.744959 84.438021 Z M 48.01109 84.742917 " stroke="#303845" stroke-width="0.343" stroke-opacity="1" stroke-miterlimit="4"/><path stroke-linecap="round" transform="matrix(8.430876, 0, 0, 8.430133, -20.853673, 123.254389)" fill-opacity="1" fill="#fcfcfc" fill-rule="nonzero" stroke-linejoin="round" d="M 80.820181 48.382929 L 77.555118 46.13884 L 75.72822 41.8981 L 79.068806 44.599996 Z M 80.820181 48.382929 " stroke="#303845" stroke-width="0.343" stroke-opacity="1" stroke-miterlimit="4"/><path stroke-linecap="round" transform="matrix(8.430876, 0, 0, 8.430133, -20.853673, 123.254389)" fill-opacity="1" fill="#fcfcfc" fill-rule="nonzero" stroke-linejoin="round" d="M 67.412896 20.971958 L 68.030974 23.272115 L 70.511162 28.640228 L 69.609991 26.929011 Z M 67.412896 20.971958 " stroke="#303845" stroke-width="0.343" stroke-opacity="1" stroke-miterlimit="4"/><path stroke-linecap="round" transform="matrix(8.430876, 0, 0, 8.430133, -20.853673, 123.254389)" fill-opacity="1" fill="#fcfcfc" fill-rule="nonzero" stroke-linejoin="round" d="M 75.72822 41.8981 L 73.714139 37.645776 L 72.157825 32.464863 L 73.967116 37.605926 Z M 75.72822 41.8981 " stroke="#303845" stroke-width="0.343" stroke-opacity="1" stroke-miterlimit="4"/><path stroke-linecap="round" transform="matrix(8.430876, 0, 0, 8.430133, -20.853673, 123.254389)" fill-opacity="1" fill="#fcfcfc" fill-rule="nonzero" stroke-linejoin="round" d="M 78.516984 63.296877 L 73.487109 67.481086 L 69.541882 68.827168 L 74.83678 64.452052 Z M 78.516984 63.296877 " stroke="#303845" stroke-width="0.343" stroke-opacity="1" stroke-miterlimit="4"/><path stroke-linecap="round" transform="matrix(8.430876, 0, 0, 8.430133, -20.853673, 123.254389)" fill-opacity="1" fill="#fcfcfc" fill-rule="nonzero" stroke-linejoin="round" d="M 53.036795 80.71996 L 59.477963 75.444984 L 63.009902 74.207792 L 56.529815 79.504084 Z M 53.036795 80.71996 " stroke="#303845" stroke-width="0.343" stroke-opacity="1" stroke-miterlimit="4"/><path stroke-linecap="round" transform="matrix(8.430876, 0, 0, 8.430133, -20.853673, 123.254389)" fill-opacity="1" fill="#fcfcfc" fill-rule="nonzero" stroke-linejoin="round" d="M 67.412896 20.971958 L 69.609991 26.929011 L 68.542023 26.016177 L 66.279135 19.41319 Z M 67.412896 20.971958 " stroke="#303845" stroke-width="0.343" stroke-opacity="1" stroke-miterlimit="4"/><path stroke-linecap="round" transform="matrix(8.430876, 0, 0, 8.430133, -20.853673, 123.254389)" fill-opacity="1" fill="#fcfcfc" fill-rule="nonzero" stroke-linejoin="round" d="M 48.117192 18.822859 L 53.339811 16.291019 L 56.753138 18.783936 L 51.165882 20.292198 Z M 48.117192 18.822859 " stroke="#303845" stroke-width="0.343" stroke-opacity="1" stroke-miterlimit="4"/><path stroke-linecap="round" transform="matrix(8.430876, 0, 0, 8.430133, -20.853673, 123.254389)" fill-opacity="1" fill="#fcfcfc" fill-rule="nonzero" stroke-linejoin="round" d="M 38.581002 23.064989 L 45.042093 19.580002 L 48.117192 18.822859 L 41.535173 21.89823 Z M 38.581002 23.064989 " stroke="#303845" stroke-width="0.343" stroke-opacity="1" stroke-miterlimit="4"/><path stroke-linecap="round" transform="matrix(8.430876, 0, 0, 8.430133, -20.853673, 123.254389)" fill-opacity="1" fill="#fcfcfc" fill-rule="nonzero" stroke-linejoin="round" d="M 21.808112 39.006223 L 18.127908 42.513915 L 18.729769 39.851869 L 22.505882 35.941047 Z M 21.808112 39.006223 " stroke="#303845" stroke-width="0.343" stroke-opacity="1" stroke-miterlimit="4"/><path stroke-linecap="round" transform="matrix(8.430876, 0, 0, 8.430133, -20.853673, 123.254389)" fill-opacity="1" fill="#fcfcfc" fill-rule="nonzero" stroke-linejoin="round" d="M 50.489888 80.921988 L 53.036795 80.71996 L 48.01109 84.742917 L 45.744959 84.438021 Z M 50.489888 80.921988 " stroke="#303845" stroke-width="0.343" stroke-opacity="1" stroke-miterlimit="4"/><path stroke-linecap="round" transform="matrix(8.430876, 0, 0, 8.430133, -20.853673, 123.254389)" fill-opacity="1" fill="#fcfcfc" fill-rule="nonzero" stroke-linejoin="round" d="M 77.493032 60.873928 L 81.174162 60.024112 L 78.516984 63.296877 L 74.83678 64.452052 Z M 77.493032 60.873928 " stroke="#303845" stroke-width="0.343" stroke-opacity="1" stroke-miterlimit="4"/><path stroke-linecap="round" transform="matrix(8.430876, 0, 0, 8.430133, -20.853673, 123.254389)" fill-opacity="1" fill="#fcfcfc" fill-rule="nonzero" stroke-linejoin="round" d="M 68.542023 26.016177 L 67.038991 25.288227 L 64.916955 18.239943 L 66.279135 19.41319 Z M 68.542023 26.016177 " stroke="#303845" stroke-width="0.343" stroke-opacity="1" stroke-miterlimit="4"/><path stroke-linecap="round" transform="matrix(8.430876, 0, 0, 8.430133, -20.853673, 123.254389)" fill-opacity="1" fill="#fcfcfc" fill-rule="nonzero" stroke-linejoin="round" d="M 77.555118 46.13884 L 80.820181 48.382929 L 82.016027 51.590822 L 78.694901 50.311928 Z M 77.555118 46.13884 " stroke="#303845" stroke-width="0.343" stroke-opacity="1" stroke-miterlimit="4"/><path stroke-linecap="round" transform="matrix(8.430876, 0, 0, 8.430133, -20.853673, 123.254389)" fill-opacity="1" fill="#fcfcfc" fill-rule="nonzero" stroke-linejoin="round" d="M 38.45683 85.733133 L 37.665005 84.184096 L 40.859179 84.46119 L 42.059195 86.344779 Z M 38.45683 85.733133 " stroke="#303845" stroke-width="0.343" stroke-opacity="1" stroke-miterlimit="4"/><path stroke-linecap="round" transform="matrix(8.430876, 0, 0, 8.430133, -20.853673, 123.254389)" fill-opacity="1" fill="#fcfcfc" fill-rule="nonzero" stroke-linejoin="round" d="M 25.467929 62.035127 L 24.593168 57.816165 L 27.479231 61.878045 L 29.100874 67.185921 Z M 25.467929 62.035127 " stroke="#303845" stroke-width="0.343" stroke-opacity="1" stroke-miterlimit="4"/><path stroke-linecap="round" transform="matrix(8.430876, 0, 0, 8.430133, -20.853673, 123.254389)" fill-opacity="1" fill="#fcfcfc" fill-rule="nonzero" stroke-linejoin="round" d="M 21.133045 41.809133 L 21.638997 45.902986 L 19.169929 49.606219 L 17.812845 45.605967 Z M 21.133045 41.809133 " stroke="#303845" stroke-width="0.343" stroke-opacity="1" stroke-miterlimit="4"/><path stroke-linecap="round" transform="matrix(8.430876, 0, 0, 8.430133, -20.853673, 123.254389)" fill-opacity="1" fill="#fcfcfc" fill-rule="nonzero" stroke-linejoin="round" d="M 21.133045 41.809133 L 17.812845 45.605967 L 18.127908 42.513915 L 21.808112 39.006223 Z M 21.133045 41.809133 " stroke="#303845" stroke-width="0.343" stroke-opacity="1" stroke-miterlimit="4"/><path stroke-linecap="round" transform="matrix(8.430876, 0, 0, 8.430133, -20.853673, 123.254389)" fill-opacity="1" fill="#fcfcfc" fill-rule="nonzero" stroke-linejoin="round" d="M 21.638997 45.902986 L 22.422946 50.348997 L 22.304798 53.434098 L 19.169929 49.606219 Z M 21.638997 45.902986 " stroke="#303845" stroke-width="0.343" stroke-opacity="1" stroke-miterlimit="4"/><path stroke-linecap="round" transform="matrix(8.430876, 0, 0, 8.430133, -20.853673, 123.254389)" fill-opacity="1" fill="#fcfcfc" fill-rule="nonzero" stroke-linejoin="round" d="M 24.593168 57.816165 L 22.304798 53.434098 L 22.422946 50.348997 L 23.848139 54.231091 Z M 24.593168 57.816165 " stroke="#303845" stroke-width="0.343" stroke-opacity="1" stroke-miterlimit="4"/><path stroke-linecap="round" transform="matrix(8.430876, 0, 0, 8.430133, -20.853673, 123.254389)" fill-opacity="1" fill="#fcfcfc" fill-rule="nonzero" stroke-linejoin="round" d="M 70.511162 28.640228 L 72.157825 32.464863 L 73.714139 37.645776 L 72.541923 35.030993 Z M 70.511162 28.640228 " stroke="#303845" stroke-width="0.343" stroke-opacity="1" stroke-miterlimit="4"/><path stroke-linecap="round" transform="matrix(8.430876, 0, 0, 8.430133, -20.853673, 123.254389)" fill-opacity="1" fill="#fcfcfc" fill-rule="nonzero" stroke-linejoin="round" d="M 63.115077 17.825229 L 64.916955 18.239943 L 67.038991 25.288227 L 65.373795 24.679825 Z M 63.115077 17.825229 " stroke="#303845" stroke-width="0.343" stroke-opacity="1" stroke-miterlimit="4"/><path stroke-linecap="round" transform="matrix(8.430876, 0, 0, 8.430133, -20.853673, 123.254389)" fill-opacity="1" fill="#fcfcfc" fill-rule="nonzero" stroke-linejoin="round" d="M 63.115077 17.825229 L 65.373795 24.679825 L 63.269829 24.666851 L 60.58207 17.967019 Z M 63.115077 17.825229 " stroke="#303845" stroke-width="0.343" stroke-opacity="1" stroke-miterlimit="4"/><path stroke-linecap="round" transform="matrix(8.430876, 0, 0, 8.430133, -20.853673, 123.254389)" fill-opacity="1" fill="#fcfcfc" fill-rule="nonzero" stroke-linejoin="round" d="M 78.542003 57.662791 L 82.408001 57.576141 L 81.174162 60.024112 L 77.493032 60.873928 Z M 78.542003 57.662791 " stroke="#303845" stroke-width="0.343" stroke-opacity="1" stroke-miterlimit="4"/><path stroke-linecap="round" transform="matrix(8.430876, 0, 0, 8.430133, -20.853673, 123.254389)" fill-opacity="1" fill="#fcfcfc" fill-rule="nonzero" stroke-linejoin="round" d="M 42.059195 86.344779 L 40.859179 84.46119 L 44.247951 83.090085 L 45.744959 84.438021 Z M 42.059195 86.344779 " stroke="#303845" stroke-width="0.343" stroke-opacity="1" stroke-miterlimit="4"/><path stroke-linecap="round" transform="matrix(8.430876, 0, 0, 8.430133, -20.853673, 123.254389)" fill-opacity="1" fill="#fcfcfc" fill-rule="nonzero" stroke-linejoin="round" d="M 82.408001 57.576141 L 78.542003 57.662791 L 79.103092 54.359907 L 82.542829 54.814007 Z M 82.408001 57.576141 " stroke="#303845" stroke-width="0.343" stroke-opacity="1" stroke-miterlimit="4"/><path stroke-linecap="round" transform="matrix(8.430876, 0, 0, 8.430133, -20.853673, 123.254389)" fill-opacity="1" fill="#fcfcfc" fill-rule="nonzero" stroke-linejoin="round" d="M 82.016027 51.590822 L 82.542829 54.814007 L 79.103092 54.359907 L 78.694901 50.311928 Z M 82.016027 51.590822 " stroke="#303845" stroke-width="0.343" stroke-opacity="1" stroke-miterlimit="4"/><path stroke-linecap="round" transform="matrix(8.430876, 0, 0, 8.430133, -20.853673, 123.254389)" fill-opacity="1" fill="#fcfcfc" fill-rule="nonzero" stroke-linejoin="round" d="M 34.416158 80.269103 L 37.665005 84.184096 L 38.45683 85.733133 L 33.801787 81.001224 Z M 34.416158 80.269103 " stroke="#303845" stroke-width="0.343" stroke-opacity="1" stroke-miterlimit="4"/><path stroke-linecap="round" transform="matrix(8.430876, 0, 0, 8.430133, -20.853673, 123.254389)" fill-opacity="1" fill="#fcfcfc" fill-rule="nonzero" stroke-linejoin="round" d="M 56.753138 18.783936 L 60.58207 17.967019 L 63.269829 24.666851 L 59.498812 24.311911 Z M 56.753138 18.783936 " stroke="#303845" stroke-width="0.343" stroke-opacity="1" stroke-miterlimit="4"/><path stroke-linecap="round" transform="matrix(8.430876, 0, 0, 8.430133, -20.853673, 123.254389)" fill-opacity="1" fill="#fcfcfc" fill-rule="nonzero" stroke-linejoin="round" d="M 66.023842 70.043045 L 69.541882 68.827168 L 63.009902 74.207792 L 59.477963 75.444984 Z M 66.023842 70.043045 " stroke="#303845" stroke-width="0.343" stroke-opacity="1" stroke-miterlimit="4"/><path stroke-linecap="round" transform="matrix(8.430876, 0, 0, 8.430133, -20.853673, 123.254389)" fill-opacity="1" fill="#fcfcfc" fill-rule="nonzero" stroke-linejoin="round" d="M 73.714139 37.645776 L 75.72822 41.8981 L 77.555118 46.13884 L 74.732068 43.494865 Z M 73.714139 37.645776 " stroke="#303845" stroke-width="0.343" stroke-opacity="1" stroke-miterlimit="4"/><path stroke-linecap="round" transform="matrix(8.430876, 0, 0, 8.430133, -20.853673, 123.254389)" fill-opacity="1" fill="#fcfcfc" fill-rule="nonzero" stroke-linejoin="round" d="M 44.387875 23.125227 L 41.535173 21.89823 L 48.117192 18.822859 L 51.165882 20.292198 Z M 44.387875 23.125227 " stroke="#303845" stroke-width="0.343" stroke-opacity="1" stroke-miterlimit="4"/><path stroke-linecap="round" transform="matrix(8.430876, 0, 0, 8.430133, -20.853673, 123.254389)" fill-opacity="1" fill="#fcfcfc" fill-rule="nonzero" stroke-linejoin="round" d="M 70.511162 28.640228 L 72.541923 35.030993 L 71.262214 33.555167 L 69.609991 26.929011 Z M 70.511162 28.640228 " stroke="#303845" stroke-width="0.343" stroke-opacity="1" stroke-miterlimit="4"/><path stroke-linecap="round" transform="matrix(8.430876, 0, 0, 8.430133, -20.853673, 123.254389)" fill-opacity="1" fill="#fcfcfc" fill-rule="nonzero" stroke-linejoin="round" d="M 53.771168 24.403195 L 51.165882 20.292198 L 56.753138 18.783936 L 59.498812 24.311911 Z M 53.771168 24.403195 " stroke="#303845" stroke-width="0.343" stroke-opacity="1" stroke-miterlimit="4"/><path stroke-linecap="round" transform="matrix(8.430876, 0, 0, 8.430133, -20.853673, 123.254389)" fill-opacity="1" fill="#fcfcfc" fill-rule="nonzero" stroke-linejoin="round" d="M 50.489888 80.921988 L 45.744959 84.438021 L 44.247951 83.090085 L 48.665771 80.339999 Z M 50.489888 80.921988 " stroke="#303845" stroke-width="0.343" stroke-opacity="1" stroke-miterlimit="4"/><path stroke-linecap="round" transform="matrix(8.430876, 0, 0, 8.430133, -20.853673, 123.254389)" fill-opacity="1" fill="#fcfcfc" fill-rule="nonzero" stroke-linejoin="round" d="M 39.41499 82.382059 L 40.859179 84.46119 L 37.665005 84.184096 L 37.160905 82.292166 Z M 39.41499 82.382059 " stroke="#303845" stroke-width="0.343" stroke-opacity="1" stroke-miterlimit="4"/><path stroke-linecap="round" transform="matrix(8.430876, 0, 0, 8.430133, -20.853673, 123.254389)" fill-opacity="1" fill="#fcfcfc" fill-rule="nonzero" stroke-linejoin="round" d="M 53.036795 80.71996 L 50.489888 80.921988 L 56.792058 75.872209 L 59.477963 75.444984 Z M 53.036795 80.71996 " stroke="#303845" stroke-width="0.343" stroke-opacity="1" stroke-miterlimit="4"/><path stroke-linecap="round" transform="matrix(8.430876, 0, 0, 8.430133, -20.853673, 123.254389)" fill-opacity="1" fill="#fcfcfc" fill-rule="nonzero" stroke-linejoin="round" d="M 25.094951 55.079053 L 27.479231 61.878045 L 24.593168 57.816165 L 23.848139 54.231091 Z M 25.094951 55.079053 " stroke="#303845" stroke-width="0.343" stroke-opacity="1" stroke-miterlimit="4"/><path stroke-linecap="round" transform="matrix(8.430876, 0, 0, 8.430133, -20.853673, 123.254389)" fill-opacity="1" fill="#fcfcfc" fill-rule="nonzero" stroke-linejoin="round" d="M 40.859179 84.46119 L 39.41499 82.382059 L 42.434027 81.009101 L 44.247951 83.090085 Z M 40.859179 84.46119 " stroke="#303845" stroke-width="0.343" stroke-opacity="1" stroke-miterlimit="4"/><path stroke-linecap="round" transform="matrix(8.430876, 0, 0, 8.430133, -20.853673, 123.254389)" fill-opacity="1" fill="#fcfcfc" fill-rule="nonzero" stroke-linejoin="round" d="M 71.262214 33.555167 L 69.837021 32.670135 L 68.542023 26.016177 L 69.609991 26.929011 Z M 71.262214 33.555167 " stroke="#303845" stroke-width="0.343" stroke-opacity="1" stroke-miterlimit="4"/><path stroke-linecap="round" transform="matrix(8.430876, 0, 0, 8.430133, -20.853673, 123.254389)" fill-opacity="1" fill="#fcfcfc" fill-rule="nonzero" stroke-linejoin="round" d="M 37.665005 84.184096 L 34.416158 80.269103 L 35.278872 79.023108 L 37.160905 82.292166 Z M 37.665005 84.184096 " stroke="#303845" stroke-width="0.343" stroke-opacity="1" stroke-miterlimit="4"/><path stroke-linecap="round" transform="matrix(8.430876, 0, 0, 8.430133, -20.853673, 123.254389)" fill-opacity="1" fill="#fcfcfc" fill-rule="nonzero" stroke-linejoin="round" d="M 53.771168 24.403195 L 46.894936 26.567121 L 44.387875 23.125227 L 51.165882 20.292198 Z M 53.771168 24.403195 " stroke="#303845" stroke-width="0.343" stroke-opacity="1" stroke-miterlimit="4"/><path stroke-linecap="round" transform="matrix(8.430876, 0, 0, 8.430133, -20.853673, 123.254389)" fill-opacity="1" fill="#fcfcfc" fill-rule="nonzero" stroke-linejoin="round" d="M 31.967013 72.903876 L 34.416158 80.269103 L 33.801787 81.001224 L 31.121905 72.474798 Z M 31.967013 72.903876 " stroke="#303845" stroke-width="0.343" stroke-opacity="1" stroke-miterlimit="4"/><path stroke-linecap="round" transform="matrix(8.430876, 0, 0, 8.430133, -20.853673, 123.254389)" fill-opacity="1" fill="#fcfcfc" fill-rule="nonzero" stroke-linejoin="round" d="M 67.038991 25.288227 L 68.542023 26.016177 L 69.837021 32.670135 L 68.178775 32.094169 Z M 67.038991 25.288227 " stroke="#303845" stroke-width="0.343" stroke-opacity="1" stroke-miterlimit="4"/><path stroke-linecap="round" transform="matrix(8.430876, 0, 0, 8.430133, -20.853673, 123.254389)" fill-opacity="1" fill="#fcfcfc" fill-rule="nonzero" stroke-linejoin="round" d="M 73.714139 37.645776 L 74.732068 43.494865 L 73.63213 41.198878 L 72.541923 35.030993 Z M 73.714139 37.645776 " stroke="#303845" stroke-width="0.343" stroke-opacity="1" stroke-miterlimit="4"/><path stroke-linecap="round" transform="matrix(8.430876, 0, 0, 8.430133, -20.853673, 123.254389)" fill-opacity="1" fill="#fcfcfc" fill-rule="nonzero" stroke-linejoin="round" d="M 69.541882 68.827168 L 66.023842 70.043045 L 71.548087 65.470997 L 74.83678 64.452052 Z M 69.541882 68.827168 " stroke="#303845" stroke-width="0.343" stroke-opacity="1" stroke-miterlimit="4"/><path stroke-linecap="round" transform="matrix(8.430876, 0, 0, 8.430133, -20.853673, 123.254389)" fill-opacity="1" fill="#fcfcfc" fill-rule="nonzero" stroke-linejoin="round" d="M 25.801988 32.550123 L 24.715023 35.869225 L 21.808112 39.006223 L 22.505882 35.941047 Z M 25.801988 32.550123 " stroke="#303845" stroke-width="0.343" stroke-opacity="1" stroke-miterlimit="4"/><path stroke-linecap="round" transform="matrix(8.430876, 0, 0, 8.430133, -20.853673, 123.254389)" fill-opacity="1" fill="#fcfcfc" fill-rule="nonzero" stroke-linejoin="round" d="M 44.247951 83.090085 L 42.434027 81.009101 L 46.635936 78.46892 L 48.665771 80.339999 Z M 44.247951 83.090085 " stroke="#303845" stroke-width="0.343" stroke-opacity="1" stroke-miterlimit="4"/><path stroke-linecap="round" transform="matrix(8.430876, 0, 0, 8.430133, -20.853673, 123.254389)" fill-opacity="1" fill="#fcfcfc" fill-rule="nonzero" stroke-linejoin="round" d="M 35.278872 79.023108 L 37.626085 78.308132 L 39.41499 82.382059 L 37.160905 82.292166 Z M 35.278872 79.023108 " stroke="#303845" stroke-width="0.343" stroke-opacity="1" stroke-miterlimit="4"/><path stroke-linecap="round" transform="matrix(8.430876, 0, 0, 8.430133, -20.853673, 123.254389)" fill-opacity="1" fill="#fcfcfc" fill-rule="nonzero" stroke-linejoin="round" d="M 44.387875 23.125227 L 37.728944 25.536128 L 35.237173 25.271082 L 41.535173 21.89823 Z M 44.387875 23.125227 " stroke="#303845" stroke-width="0.343" stroke-opacity="1" stroke-miterlimit="4"/><path stroke-linecap="round" transform="matrix(8.430876, 0, 0, 8.430133, -20.853673, 123.254389)" fill-opacity="1" fill="#fcfcfc" fill-rule="nonzero" stroke-linejoin="round" d="M 66.287012 31.862949 L 65.373795 24.679825 L 67.038991 25.288227 L 68.178775 32.094169 Z M 66.287012 31.862949 " stroke="#303845" stroke-width="0.343" stroke-opacity="1" stroke-miterlimit="4"/><path stroke-linecap="round" transform="matrix(8.430876, 0, 0, 8.430133, -20.853673, 123.254389)" fill-opacity="1" fill="#fcfcfc" fill-rule="nonzero" stroke-linejoin="round" d="M 22.422946 50.348997 L 24.22019 48.249016 L 25.094951 55.079053 L 23.848139 54.231091 Z M 22.422946 50.348997 " stroke="#303845" stroke-width="0.343" stroke-opacity="1" stroke-miterlimit="4"/><path stroke-linecap="round" transform="matrix(8.430876, 0, 0, 8.430133, -20.853673, 123.254389)" fill-opacity="1" fill="#fcfcfc" fill-rule="nonzero" stroke-linejoin="round" d="M 54.937824 75.628941 L 56.792058 75.872209 L 50.489888 80.921988 L 48.665771 80.339999 Z M 54.937824 75.628941 " stroke="#303845" stroke-width="0.343" stroke-opacity="1" stroke-miterlimit="4"/><path stroke-linecap="round" transform="matrix(8.430876, 0, 0, 8.430133, -20.853673, 123.254389)" fill-opacity="1" fill="#fcfcfc" fill-rule="nonzero" stroke-linejoin="round" d="M 64.049144 31.842097 L 63.269829 24.666851 L 65.373795 24.679825 L 66.287012 31.862949 Z M 64.049144 31.842097 " stroke="#303845" stroke-width="0.343" stroke-opacity="1" stroke-miterlimit="4"/><path stroke-linecap="round" transform="matrix(8.430876, 0, 0, 8.430133, -20.853673, 123.254389)" fill-opacity="1" fill="#fcfcfc" fill-rule="nonzero" stroke-linejoin="round" d="M 28.979946 64.305165 L 31.121905 72.474798 L 29.61007 70.361842 L 28.017153 63.815848 Z M 28.979946 64.305165 " stroke="#303845" stroke-width="0.343" stroke-opacity="1" stroke-miterlimit="4"/><path stroke-linecap="round" transform="matrix(8.430876, 0, 0, 8.430133, -20.853673, 123.254389)" fill-opacity="1" fill="#fcfcfc" fill-rule="nonzero" stroke-linejoin="round" d="M 39.41499 82.382059 L 37.626085 78.308132 L 40.304114 77.87303 L 42.434027 81.009101 Z M 39.41499 82.382059 " stroke="#303845" stroke-width="0.343" stroke-opacity="1" stroke-miterlimit="4"/><path stroke-linecap="round" transform="matrix(8.430876, 0, 0, 8.430133, -20.853673, 123.254389)" fill-opacity="1" fill="#fcfcfc" fill-rule="nonzero" stroke-linejoin="round" d="M 61.004161 31.820782 L 54.75898 31.501059 L 53.771168 24.403195 L 59.498812 24.311911 Z M 61.004161 31.820782 " stroke="#303845" stroke-width="0.343" stroke-opacity="1" stroke-miterlimit="4"/><path stroke-linecap="round" transform="matrix(8.430876, 0, 0, 8.430133, -20.853673, 123.254389)" fill-opacity="1" fill="#fcfcfc" fill-rule="nonzero" stroke-linejoin="round" d="M 61.004161 31.820782 L 59.498812 24.311911 L 63.269829 24.666851 L 64.049144 31.842097 Z M 61.004161 31.820782 " stroke="#303845" stroke-width="0.343" stroke-opacity="1" stroke-miterlimit="4"/><path stroke-linecap="round" transform="matrix(8.430876, 0, 0, 8.430133, -20.853673, 123.254389)" fill-opacity="1" fill="#fcfcfc" fill-rule="nonzero" stroke-linejoin="round" d="M 24.715023 35.869225 L 23.824973 38.7801 L 21.133045 41.809133 L 21.808112 39.006223 Z M 24.715023 35.869225 " stroke="#303845" stroke-width="0.343" stroke-opacity="1" stroke-miterlimit="4"/><path stroke-linecap="round" transform="matrix(8.430876, 0, 0, 8.430133, -20.853673, 123.254389)" fill-opacity="1" fill="#fcfcfc" fill-rule="nonzero" stroke-linejoin="round" d="M 24.22019 48.249016 L 22.422946 50.348997 L 21.638997 45.902986 L 23.811073 42.569056 Z M 24.22019 48.249016 " stroke="#303845" stroke-width="0.343" stroke-opacity="1" stroke-miterlimit="4"/><path stroke-linecap="round" transform="matrix(8.430876, 0, 0, 8.430133, -20.853673, 123.254389)" fill-opacity="1" fill="#fcfcfc" fill-rule="nonzero" stroke-linejoin="round" d="M 21.638997 45.902986 L 21.133045 41.809133 L 23.824973 38.7801 L 23.811073 42.569056 Z M 21.638997 45.902986 " stroke="#303845" stroke-width="0.343" stroke-opacity="1" stroke-miterlimit="4"/><path stroke-linecap="round" transform="matrix(8.430876, 0, 0, 8.430133, -20.853673, 123.254389)" fill-opacity="1" fill="#fcfcfc" fill-rule="nonzero" stroke-linejoin="round" d="M 35.278872 79.023108 L 34.416158 80.269103 L 31.967013 72.903876 L 33.583097 72.491016 Z M 35.278872 79.023108 " stroke="#303845" stroke-width="0.343" stroke-opacity="1" stroke-miterlimit="4"/><path stroke-linecap="round" transform="matrix(8.430876, 0, 0, 8.430133, -20.853673, 123.254389)" fill-opacity="1" fill="#fcfcfc" fill-rule="nonzero" stroke-linejoin="round" d="M 77.493032 60.873928 L 74.83678 64.452052 L 71.548087 65.470997 L 74.282178 61.71216 Z M 77.493032 60.873928 " stroke="#303845" stroke-width="0.343" stroke-opacity="1" stroke-miterlimit="4"/><path stroke-linecap="round" transform="matrix(8.430876, 0, 0, 8.430133, -20.853673, 123.254389)" fill-opacity="1" fill="#fcfcfc" fill-rule="nonzero" stroke-linejoin="round" d="M 77.555118 46.13884 L 78.694901 50.311928 L 75.98722 48.558082 L 74.732068 43.494865 Z M 77.555118 46.13884 " stroke="#303845" stroke-width="0.343" stroke-opacity="1" stroke-miterlimit="4"/><path stroke-linecap="round" transform="matrix(8.430876, 0, 0, 8.430133, -20.853673, 123.254389)" fill-opacity="1" fill="#fcfcfc" fill-rule="nonzero" stroke-linejoin="round" d="M 56.792058 75.872209 L 63.438943 70.687126 L 66.023842 70.043045 L 59.477963 75.444984 Z M 56.792058 75.872209 " stroke="#303845" stroke-width="0.343" stroke-opacity="1" stroke-miterlimit="4"/><path stroke-linecap="round" transform="matrix(8.430876, 0, 0, 8.430133, -20.853673, 123.254389)" fill-opacity="1" fill="#fcfcfc" fill-rule="nonzero" stroke-linejoin="round" d="M 73.63213 41.198878 L 72.523853 40.1892 L 71.262214 33.555167 L 72.541923 35.030993 Z M 73.63213 41.198878 " stroke="#303845" stroke-width="0.343" stroke-opacity="1" stroke-miterlimit="4"/><path stroke-linecap="round" transform="matrix(8.430876, 0, 0, 8.430133, -20.853673, 123.254389)" fill-opacity="1" fill="#fcfcfc" fill-rule="nonzero" stroke-linejoin="round" d="M 46.894936 26.567121 L 53.771168 24.403195 L 54.75898 31.501059 L 48.680134 31.389851 Z M 46.894936 26.567121 " stroke="#303845" stroke-width="0.343" stroke-opacity="1" stroke-miterlimit="4"/><path stroke-linecap="round" transform="matrix(8.430876, 0, 0, 8.430133, -20.853673, 123.254389)" fill-opacity="1" fill="#fcfcfc" fill-rule="nonzero" stroke-linejoin="round" d="M 27.479231 61.878045 L 25.094951 55.079053 L 26.894049 55.756033 L 28.017153 63.815848 Z M 27.479231 61.878045 " stroke="#303845" stroke-width="0.343" stroke-opacity="1" stroke-miterlimit="4"/><path stroke-linecap="round" transform="matrix(8.430876, 0, 0, 8.430133, -20.853673, 123.254389)" fill-opacity="1" fill="#fcfcfc" fill-rule="nonzero" stroke-linejoin="round" d="M 37.728944 25.536128 L 44.387875 23.125227 L 46.894936 26.567121 L 40.718791 27.782071 Z M 37.728944 25.536128 " stroke="#303845" stroke-width="0.343" stroke-opacity="1" stroke-miterlimit="4"/><path stroke-linecap="round" transform="matrix(8.430876, 0, 0, 8.430133, -20.853673, 123.254389)" fill-opacity="1" fill="#fcfcfc" fill-rule="nonzero" stroke-linejoin="round" d="M 46.635936 78.46892 L 42.434027 81.009101 L 40.304114 77.87303 L 44.587106 75.817068 Z M 46.635936 78.46892 " stroke="#303845" stroke-width="0.343" stroke-opacity="1" stroke-miterlimit="4"/><path stroke-linecap="round" transform="matrix(8.430876, 0, 0, 8.430133, -20.853673, 123.254389)" fill-opacity="1" fill="#fcfcfc" fill-rule="nonzero" stroke-linejoin="round" d="M 75.459954 57.582165 L 78.542003 57.662791 L 77.493032 60.873928 L 74.282178 61.71216 Z M 75.459954 57.582165 " stroke="#303845" stroke-width="0.343" stroke-opacity="1" stroke-miterlimit="4"/><path stroke-linecap="round" transform="matrix(8.430876, 0, 0, 8.430133, -20.853673, 123.254389)" fill-opacity="1" fill="#fcfcfc" fill-rule="nonzero" stroke-linejoin="round" d="M 35.745906 72.521135 L 37.626085 78.308132 L 35.278872 79.023108 L 33.583097 72.491016 Z M 35.745906 72.521135 " stroke="#303845" stroke-width="0.343" stroke-opacity="1" stroke-miterlimit="4"/><path stroke-linecap="round" transform="matrix(8.430876, 0, 0, 8.430133, -20.853673, 123.254389)" fill-opacity="1" fill="#fcfcfc" fill-rule="nonzero" stroke-linejoin="round" d="M 54.937824 75.628941 L 48.665771 80.339999 L 46.635936 78.46892 L 52.953859 74.160992 Z M 54.937824 75.628941 " stroke="#303845" stroke-width="0.343" stroke-opacity="1" stroke-miterlimit="4"/><path stroke-linecap="round" transform="matrix(8.430876, 0, 0, 8.430133, -20.853673, 123.254389)" fill-opacity="1" fill="#fcfcfc" fill-rule="nonzero" stroke-linejoin="round" d="M 28.979946 64.305165 L 30.56823 64.478927 L 31.967013 72.903876 L 31.121905 72.474798 Z M 28.979946 64.305165 " stroke="#303845" stroke-width="0.343" stroke-opacity="1" stroke-miterlimit="4"/><path stroke-linecap="round" transform="matrix(8.430876, 0, 0, 8.430133, -20.853673, 123.254389)" fill-opacity="1" fill="#fcfcfc" fill-rule="nonzero" stroke-linejoin="round" d="M 76.110002 53.144957 L 79.103092 54.359907 L 78.542003 57.662791 L 75.459954 57.582165 Z M 76.110002 53.144957 " stroke="#303845" stroke-width="0.343" stroke-opacity="1" stroke-miterlimit="4"/><path stroke-linecap="round" transform="matrix(8.430876, 0, 0, 8.430133, -20.853673, 123.254389)" fill-opacity="1" fill="#fcfcfc" fill-rule="nonzero" stroke-linejoin="round" d="M 79.103092 54.359907 L 76.110002 53.144957 L 75.98722 48.558082 L 78.694901 50.311928 Z M 79.103092 54.359907 " stroke="#303845" stroke-width="0.343" stroke-opacity="1" stroke-miterlimit="4"/><path stroke-linecap="round" transform="matrix(8.430876, 0, 0, 8.430133, -20.853673, 123.254389)" fill-opacity="1" fill="#fcfcfc" fill-rule="nonzero" stroke-linejoin="round" d="M 30.533944 27.989196 L 35.237173 25.271082 L 37.728944 25.536128 L 32.743085 27.964174 Z M 30.533944 27.989196 " stroke="#303845" stroke-width="0.343" stroke-opacity="1" stroke-miterlimit="4"/><path stroke-linecap="round" transform="matrix(8.430876, 0, 0, 8.430133, -20.853673, 123.254389)" fill-opacity="1" fill="#fcfcfc" fill-rule="nonzero" stroke-linejoin="round" d="M 69.837021 32.670135 L 71.262214 33.555167 L 72.523853 40.1892 L 70.848 39.718882 Z M 69.837021 32.670135 " stroke="#303845" stroke-width="0.343" stroke-opacity="1" stroke-miterlimit="4"/><path stroke-linecap="round" transform="matrix(8.430876, 0, 0, 8.430133, -20.853673, 123.254389)" fill-opacity="1" fill="#fcfcfc" fill-rule="nonzero" stroke-linejoin="round" d="M 26.342227 34.531019 L 24.715023 35.869225 L 25.801988 32.550123 L 27.726184 31.128975 Z M 26.342227 34.531019 " stroke="#303845" stroke-width="0.343" stroke-opacity="1" stroke-miterlimit="4"/><path stroke-linecap="round" transform="matrix(8.430876, 0, 0, 8.430133, -20.853673, 123.254389)" fill-opacity="1" fill="#fcfcfc" fill-rule="nonzero" stroke-linejoin="round" d="M 40.304114 77.87303 L 37.626085 78.308132 L 35.745906 72.521135 L 38.522159 71.838131 Z M 40.304114 77.87303 " stroke="#303845" stroke-width="0.343" stroke-opacity="1" stroke-miterlimit="4"/><path stroke-linecap="round" transform="matrix(8.430876, 0, 0, 8.430133, -20.853673, 123.254389)" fill-opacity="1" fill="#fcfcfc" fill-rule="nonzero" stroke-linejoin="round" d="M 54.75898 31.501059 L 55.25891 38.559073 L 49.9149 37.263034 L 48.680134 31.389851 Z M 54.75898 31.501059 " stroke="#303845" stroke-width="0.343" stroke-opacity="1" stroke-miterlimit="4"/><path stroke-linecap="round" transform="matrix(8.430876, 0, 0, 8.430133, -20.853673, 123.254389)" fill-opacity="1" fill="#fcfcfc" fill-rule="nonzero" stroke-linejoin="round" d="M 46.894936 26.567121 L 48.680134 31.389851 L 42.610091 31.342124 L 40.718791 27.782071 Z M 46.894936 26.567121 " stroke="#303845" stroke-width="0.343" stroke-opacity="1" stroke-miterlimit="4"/><path stroke-linecap="round" transform="matrix(8.430876, 0, 0, 8.430133, -20.853673, 123.254389)" fill-opacity="1" fill="#fcfcfc" fill-rule="nonzero" stroke-linejoin="round" d="M 26.894049 55.756033 L 25.094951 55.079053 L 24.22019 48.249016 L 25.752875 48.344006 Z M 26.894049 55.756033 " stroke="#303845" stroke-width="0.343" stroke-opacity="1" stroke-miterlimit="4"/><path stroke-linecap="round" transform="matrix(8.430876, 0, 0, 8.430133, -20.853673, 123.254389)" fill-opacity="1" fill="#fcfcfc" fill-rule="nonzero" stroke-linejoin="round" d="M 49.9149 37.263034 L 43.565934 35.547184 L 42.610091 31.342124 L 48.680134 31.389851 Z M 49.9149 37.263034 " stroke="#303845" stroke-width="0.343" stroke-opacity="1" stroke-miterlimit="4"/><path stroke-linecap="round" transform="matrix(8.430876, 0, 0, 8.430133, -20.853673, 123.254389)" fill-opacity="1" fill="#fcfcfc" fill-rule="nonzero" stroke-linejoin="round" d="M 42.642987 71.531845 L 44.587106 75.817068 L 40.304114 77.87303 L 38.522159 71.838131 Z M 42.642987 71.531845 " stroke="#303845" stroke-width="0.343" stroke-opacity="1" stroke-miterlimit="4"/><path stroke-linecap="round" transform="matrix(8.430876, 0, 0, 8.430133, -20.853673, 123.254389)" fill-opacity="1" fill="#fcfcfc" fill-rule="nonzero" stroke-linejoin="round" d="M 54.75898 31.501059 L 61.004161 31.820782 L 60.537128 39.470981 L 55.25891 38.559073 Z M 54.75898 31.501059 " stroke="#303845" stroke-width="0.343" stroke-opacity="1" stroke-miterlimit="4"/><path stroke-linecap="round" transform="matrix(8.430876, 0, 0, 8.430133, -20.853673, 123.254389)" fill-opacity="1" fill="#fcfcfc" fill-rule="nonzero" stroke-linejoin="round" d="M 26.894049 55.756033 L 27.935144 56.097072 L 28.979946 64.305165 L 28.017153 63.815848 Z M 26.894049 55.756033 " stroke="#303845" stroke-width="0.343" stroke-opacity="1" stroke-miterlimit="4"/><path stroke-linecap="round" transform="matrix(8.430876, 0, 0, 8.430133, -20.853673, 123.254389)" fill-opacity="1" fill="#fcfcfc" fill-rule="nonzero" stroke-linejoin="round" d="M 23.824973 38.7801 L 24.715023 35.869225 L 26.342227 34.531019 L 25.434106 37.933991 Z M 23.824973 38.7801 " stroke="#303845" stroke-width="0.343" stroke-opacity="1" stroke-miterlimit="4"/><path stroke-linecap="round" transform="matrix(8.430876, 0, 0, 8.430133, -20.853673, 123.254389)" fill-opacity="1" fill="#fcfcfc" fill-rule="nonzero" stroke-linejoin="round" d="M 23.824973 38.7801 L 25.434106 37.933991 L 25.250166 42.099201 L 23.811073 42.569056 Z M 23.824973 38.7801 " stroke="#303845" stroke-width="0.343" stroke-opacity="1" stroke-miterlimit="4"/><path stroke-linecap="round" transform="matrix(8.430876, 0, 0, 8.430133, -20.853673, 123.254389)" fill-opacity="1" fill="#fcfcfc" fill-rule="nonzero" stroke-linejoin="round" d="M 24.22019 48.249016 L 23.811073 42.569056 L 25.250166 42.099201 L 25.752875 48.344006 Z M 24.22019 48.249016 " stroke="#303845" stroke-width="0.343" stroke-opacity="1" stroke-miterlimit="4"/><path stroke-linecap="round" transform="matrix(8.430876, 0, 0, 8.430133, -20.853673, 123.254389)" fill-opacity="1" fill="#fcfcfc" fill-rule="nonzero" stroke-linejoin="round" d="M 32.184777 64.535922 L 33.583097 72.491016 L 31.967013 72.903876 L 30.56823 64.478927 Z M 32.184777 64.535922 " stroke="#303845" stroke-width="0.343" stroke-opacity="1" stroke-miterlimit="4"/><path stroke-linecap="round" transform="matrix(8.430876, 0, 0, 8.430133, -20.853673, 123.254389)" fill-opacity="1" fill="#fcfcfc" fill-rule="nonzero" stroke-linejoin="round" d="M 68.979867 39.175816 L 68.178775 32.094169 L 69.837021 32.670135 L 70.848 39.718882 Z M 68.979867 39.175816 " stroke="#303845" stroke-width="0.343" stroke-opacity="1" stroke-miterlimit="4"/><path stroke-linecap="round" transform="matrix(8.430876, 0, 0, 8.430133, -20.853673, 123.254389)" fill-opacity="1" fill="#fcfcfc" fill-rule="nonzero" stroke-linejoin="round" d="M 75.98722 48.558082 L 74.351213 47.477045 L 73.63213 41.198878 L 74.732068 43.494865 Z M 75.98722 48.558082 " stroke="#303845" stroke-width="0.343" stroke-opacity="1" stroke-miterlimit="4"/><path stroke-linecap="round" transform="matrix(8.430876, 0, 0, 8.430133, -20.853673, 123.254389)" fill-opacity="1" fill="#fcfcfc" fill-rule="nonzero" stroke-linejoin="round" d="M 56.792058 75.872209 L 54.937824 75.628941 L 61.52077 70.448028 L 63.438943 70.687126 Z M 56.792058 75.872209 " stroke="#303845" stroke-width="0.343" stroke-opacity="1" stroke-miterlimit="4"/><path stroke-linecap="round" transform="matrix(8.430876, 0, 0, 8.430133, -20.853673, 123.254389)" fill-opacity="1" fill="#fcfcfc" fill-rule="nonzero" stroke-linejoin="round" d="M 50.943022 72.446996 L 52.953859 74.160992 L 46.635936 78.46892 L 44.587106 75.817068 Z M 50.943022 72.446996 " stroke="#303845" stroke-width="0.343" stroke-opacity="1" stroke-miterlimit="4"/><path stroke-linecap="round" transform="matrix(8.430876, 0, 0, 8.430133, -20.853673, 123.254389)" fill-opacity="1" fill="#fcfcfc" fill-rule="nonzero" stroke-linejoin="round" d="M 30.533944 27.989196 L 32.743085 27.964174 L 29.675862 31.037228 L 27.726184 31.128975 Z M 30.533944 27.989196 " stroke="#303845" stroke-width="0.343" stroke-opacity="1" stroke-miterlimit="4"/><path stroke-linecap="round" transform="matrix(8.430876, 0, 0, 8.430133, -20.853673, 123.254389)" fill-opacity="1" fill="#fcfcfc" fill-rule="nonzero" stroke-linejoin="round" d="M 64.504131 39.063217 L 60.537128 39.470981 L 61.004161 31.820782 L 64.049144 31.842097 Z M 64.504131 39.063217 " stroke="#303845" stroke-width="0.343" stroke-opacity="1" stroke-miterlimit="4"/><path stroke-linecap="round" transform="matrix(8.430876, 0, 0, 8.430133, -20.853673, 123.254389)" fill-opacity="1" fill="#fcfcfc" fill-rule="nonzero" stroke-linejoin="round" d="M 32.184777 64.535922 L 34.382798 64.189786 L 35.745906 72.521135 L 33.583097 72.491016 Z M 32.184777 64.535922 " stroke="#303845" stroke-width="0.343" stroke-opacity="1" stroke-miterlimit="4"/><path stroke-linecap="round" transform="matrix(8.430876, 0, 0, 8.430133, -20.853673, 123.254389)" fill-opacity="1" fill="#fcfcfc" fill-rule="nonzero" stroke-linejoin="round" d="M 69.112842 66.168829 L 71.548087 65.470997 L 66.023842 70.043045 L 63.438943 70.687126 Z M 69.112842 66.168829 " stroke="#303845" stroke-width="0.343" stroke-opacity="1" stroke-miterlimit="4"/><path stroke-linecap="round" transform="matrix(8.430876, 0, 0, 8.430133, -20.853673, 123.254389)" fill-opacity="1" fill="#fcfcfc" fill-rule="nonzero" stroke-linejoin="round" d="M 66.982002 38.86814 L 64.504131 39.063217 L 64.049144 31.842097 L 66.287012 31.862949 Z M 66.982002 38.86814 " stroke="#303845" stroke-width="0.343" stroke-opacity="1" stroke-miterlimit="4"/><path stroke-linecap="round" transform="matrix(8.430876, 0, 0, 8.430133, -20.853673, 123.254389)" fill-opacity="1" fill="#fcfcfc" fill-rule="nonzero" stroke-linejoin="round" d="M 68.979867 39.175816 L 66.982002 38.86814 L 66.287012 31.862949 L 68.178775 32.094169 Z M 68.979867 39.175816 " stroke="#303845" stroke-width="0.343" stroke-opacity="1" stroke-miterlimit="4"/><path stroke-linecap="round" transform="matrix(8.430876, 0, 0, 8.430133, -20.853673, 123.254389)" fill-opacity="1" fill="#fcfcfc" fill-rule="nonzero" stroke-linejoin="round" d="M 37.728944 25.536128 L 40.718791 27.782071 L 35.145898 29.200902 L 32.743085 27.964174 Z M 37.728944 25.536128 " stroke="#303845" stroke-width="0.343" stroke-opacity="1" stroke-miterlimit="4"/><path stroke-linecap="round" transform="matrix(8.430876, 0, 0, 8.430133, -20.853673, 123.254389)" fill-opacity="1" fill="#fcfcfc" fill-rule="nonzero" stroke-linejoin="round" d="M 28.979946 64.305165 L 27.935144 56.097072 L 29.768991 56.086878 L 30.56823 64.478927 Z M 28.979946 64.305165 " stroke="#303845" stroke-width="0.343" stroke-opacity="1" stroke-miterlimit="4"/><path stroke-linecap="round" transform="matrix(8.430876, 0, 0, 8.430133, -20.853673, 123.254389)" fill-opacity="1" fill="#fcfcfc" fill-rule="nonzero" stroke-linejoin="round" d="M 53.931942 45.46186 L 49.135121 44.371093 L 49.9149 37.263034 L 55.25891 38.559073 Z M 53.931942 45.46186 " stroke="#303845" stroke-width="0.343" stroke-opacity="1" stroke-miterlimit="4"/><path stroke-linecap="round" transform="matrix(8.430876, 0, 0, 8.430133, -20.853673, 123.254389)" fill-opacity="1" fill="#fcfcfc" fill-rule="nonzero" stroke-linejoin="round" d="M 43.15589 42.272038 L 43.565934 35.547184 L 49.9149 37.263034 L 49.135121 44.371093 Z M 43.15589 42.272038 " stroke="#303845" stroke-width="0.343" stroke-opacity="1" stroke-miterlimit="4"/><path stroke-linecap="round" transform="matrix(8.430876, 0, 0, 8.430133, -20.853673, 123.254389)" fill-opacity="1" fill="#fcfcfc" fill-rule="nonzero" stroke-linejoin="round" d="M 37.551026 63.950225 L 42.056879 64.121208 L 42.642987 71.531845 L 38.522159 71.838131 Z M 37.551026 63.950225 " stroke="#303845" stroke-width="0.343" stroke-opacity="1" stroke-miterlimit="4"/><path stroke-linecap="round" transform="matrix(8.430876, 0, 0, 8.430133, -20.853673, 123.254389)" fill-opacity="1" fill="#fcfcfc" fill-rule="nonzero" stroke-linejoin="round" d="M 37.551026 63.950225 L 38.522159 71.838131 L 35.745906 72.521135 L 34.382798 64.189786 Z M 37.551026 63.950225 " stroke="#303845" stroke-width="0.343" stroke-opacity="1" stroke-miterlimit="4"/><path stroke-linecap="round" transform="matrix(8.430876, 0, 0, 8.430133, -20.853673, 123.254389)" fill-opacity="1" fill="#fcfcfc" fill-rule="nonzero" stroke-linejoin="round" d="M 42.642987 71.531845 L 49.061915 69.506929 L 50.943022 72.446996 L 44.587106 75.817068 Z M 42.642987 71.531845 " stroke="#303845" stroke-width="0.343" stroke-opacity="1" stroke-miterlimit="4"/><path stroke-linecap="round" transform="matrix(8.430876, 0, 0, 8.430133, -20.853673, 123.254389)" fill-opacity="1" fill="#fcfcfc" fill-rule="nonzero" stroke-linejoin="round" d="M 42.610091 31.342124 L 37.054804 31.664164 L 35.145898 29.200902 L 40.718791 27.782071 Z M 42.610091 31.342124 " stroke="#303845" stroke-width="0.343" stroke-opacity="1" stroke-miterlimit="4"/><path stroke-linecap="round" transform="matrix(8.430876, 0, 0, 8.430133, -20.853673, 123.254389)" fill-opacity="1" fill="#fcfcfc" fill-rule="nonzero" stroke-linejoin="round" d="M 27.935144 56.097072 L 26.894049 55.756033 L 25.752875 48.344006 L 27.353206 48.495064 Z M 27.935144 56.097072 " stroke="#303845" stroke-width="0.343" stroke-opacity="1" stroke-miterlimit="4"/><path stroke-linecap="round" transform="matrix(8.430876, 0, 0, 8.430133, -20.853673, 123.254389)" fill-opacity="1" fill="#fcfcfc" fill-rule="nonzero" stroke-linejoin="round" d="M 72.523853 40.1892 L 73.63213 41.198878 L 74.351213 47.477045 L 73.016832 46.714806 Z M 72.523853 40.1892 " stroke="#303845" stroke-width="0.343" stroke-opacity="1" stroke-miterlimit="4"/><path stroke-linecap="round" transform="matrix(8.430876, 0, 0, 8.430133, -20.853673, 123.254389)" fill-opacity="1" fill="#fcfcfc" fill-rule="nonzero" stroke-linejoin="round" d="M 26.342227 34.531019 L 27.726184 31.128975 L 29.675862 31.037228 L 27.808193 34.215929 Z M 26.342227 34.531019 " stroke="#303845" stroke-width="0.343" stroke-opacity="1" stroke-miterlimit="4"/><path stroke-linecap="round" transform="matrix(8.430876, 0, 0, 8.430133, -20.853673, 123.254389)" fill-opacity="1" fill="#fcfcfc" fill-rule="nonzero" stroke-linejoin="round" d="M 49.061915 69.506929 L 42.642987 71.531845 L 42.056879 64.121208 L 47.637186 64.711074 Z M 49.061915 69.506929 " stroke="#303845" stroke-width="0.343" stroke-opacity="1" stroke-miterlimit="4"/><path stroke-linecap="round" transform="matrix(8.430876, 0, 0, 8.430133, -20.853673, 123.254389)" fill-opacity="1" fill="#fcfcfc" fill-rule="nonzero" stroke-linejoin="round" d="M 38.43598 36.56613 L 37.054804 31.664164 L 42.610091 31.342124 L 43.565934 35.547184 Z M 38.43598 36.56613 " stroke="#303845" stroke-width="0.343" stroke-opacity="1" stroke-miterlimit="4"/><path stroke-linecap="round" transform="matrix(8.430876, 0, 0, 8.430133, -20.853673, 123.254389)" fill-opacity="1" fill="#fcfcfc" fill-rule="nonzero" stroke-linejoin="round" d="M 59.776809 69.650109 L 61.52077 70.448028 L 54.937824 75.628941 L 52.953859 74.160992 Z M 59.776809 69.650109 " stroke="#303845" stroke-width="0.343" stroke-opacity="1" stroke-miterlimit="4"/><path stroke-linecap="round" transform="matrix(8.430876, 0, 0, 8.430133, -20.853673, 123.254389)" fill-opacity="1" fill="#fcfcfc" fill-rule="nonzero" stroke-linejoin="round" d="M 43.15589 42.272038 L 38.189027 42.143221 L 38.43598 36.56613 L 43.565934 35.547184 Z M 43.15589 42.272038 " stroke="#303845" stroke-width="0.343" stroke-opacity="1" stroke-miterlimit="4"/><path stroke-linecap="round" transform="matrix(8.430876, 0, 0, 8.430133, -20.853673, 123.254389)" fill-opacity="1" fill="#fcfcfc" fill-rule="nonzero" stroke-linejoin="round" d="M 71.548087 65.470997 L 69.112842 66.168829 L 72.245857 62.181088 L 74.282178 61.71216 Z M 71.548087 65.470997 " stroke="#303845" stroke-width="0.343" stroke-opacity="1" stroke-miterlimit="4"/><path stroke-linecap="round" transform="matrix(8.430876, 0, 0, 8.430133, -20.853673, 123.254389)" fill-opacity="1" fill="#fcfcfc" fill-rule="nonzero" stroke-linejoin="round" d="M 47.909158 51.204837 L 42.744919 49.480183 L 43.15589 42.272038 L 49.135121 44.371093 Z M 47.909158 51.204837 " stroke="#303845" stroke-width="0.343" stroke-opacity="1" stroke-miterlimit="4"/><path stroke-linecap="round" transform="matrix(8.430876, 0, 0, 8.430133, -20.853673, 123.254389)" fill-opacity="1" fill="#fcfcfc" fill-rule="nonzero" stroke-linejoin="round" d="M 32.184777 64.535922 L 31.590792 56.217084 L 33.824953 56.008105 L 34.382798 64.189786 Z M 32.184777 64.535922 " stroke="#303845" stroke-width="0.343" stroke-opacity="1" stroke-miterlimit="4"/><path stroke-linecap="round" transform="matrix(8.430876, 0, 0, 8.430133, -20.853673, 123.254389)" fill-opacity="1" fill="#fcfcfc" fill-rule="nonzero" stroke-linejoin="round" d="M 29.768991 56.086878 L 31.590792 56.217084 L 32.184777 64.535922 L 30.56823 64.478927 Z M 29.768991 56.086878 " stroke="#303845" stroke-width="0.343" stroke-opacity="1" stroke-miterlimit="4"/><path stroke-linecap="round" transform="matrix(8.430876, 0, 0, 8.430133, -20.853673, 123.254389)" fill-opacity="1" fill="#fcfcfc" fill-rule="nonzero" stroke-linejoin="round" d="M 26.342227 34.531019 L 27.808193 34.215929 L 27.031194 37.794054 L 25.434106 37.933991 Z M 26.342227 34.531019 " stroke="#303845" stroke-width="0.343" stroke-opacity="1" stroke-miterlimit="4"/><path stroke-linecap="round" transform="matrix(8.430876, 0, 0, 8.430133, -20.853673, 123.254389)" fill-opacity="1" fill="#fcfcfc" fill-rule="nonzero" stroke-linejoin="round" d="M 42.744919 49.480183 L 47.909158 51.204837 L 47.410155 57.994099 L 42.308002 56.694816 Z M 42.744919 49.480183 " stroke="#303845" stroke-width="0.343" stroke-opacity="1" stroke-miterlimit="4"/><path stroke-linecap="round" transform="matrix(8.430876, 0, 0, 8.430133, -20.853673, 123.254389)" fill-opacity="1" fill="#fcfcfc" fill-rule="nonzero" stroke-linejoin="round" d="M 42.056879 64.121208 L 42.308002 56.694816 L 47.410155 57.994099 L 47.637186 64.711074 Z M 42.056879 64.121208 " stroke="#303845" stroke-width="0.343" stroke-opacity="1" stroke-miterlimit="4"/><path stroke-linecap="round" transform="matrix(8.430876, 0, 0, 8.430133, -20.853673, 123.254389)" fill-opacity="1" fill="#fcfcfc" fill-rule="nonzero" stroke-linejoin="round" d="M 27.031194 37.794054 L 26.648949 42.007918 L 25.250166 42.099201 L 25.434106 37.933991 Z M 27.031194 37.794054 " stroke="#303845" stroke-width="0.343" stroke-opacity="1" stroke-miterlimit="4"/><path stroke-linecap="round" transform="matrix(8.430876, 0, 0, 8.430133, -20.853673, 123.254389)" fill-opacity="1" fill="#fcfcfc" fill-rule="nonzero" stroke-linejoin="round" d="M 25.752875 48.344006 L 25.250166 42.099201 L 26.648949 42.007918 L 27.353206 48.495064 Z M 25.752875 48.344006 " stroke="#303845" stroke-width="0.343" stroke-opacity="1" stroke-miterlimit="4"/><path stroke-linecap="round" transform="matrix(8.430876, 0, 0, 8.430133, -20.853673, 123.254389)" fill-opacity="1" fill="#fcfcfc" fill-rule="nonzero" stroke-linejoin="round" d="M 42.056879 64.121208 L 37.551026 63.950225 L 37.063143 56.021079 L 42.308002 56.694816 Z M 42.056879 64.121208 " stroke="#303845" stroke-width="0.343" stroke-opacity="1" stroke-miterlimit="4"/><path stroke-linecap="round" transform="matrix(8.430876, 0, 0, 8.430133, -20.853673, 123.254389)" fill-opacity="1" fill="#fcfcfc" fill-rule="nonzero" stroke-linejoin="round" d="M 33.824953 56.008105 L 37.063143 56.021079 L 37.551026 63.950225 L 34.382798 64.189786 Z M 33.824953 56.008105 " stroke="#303845" stroke-width="0.343" stroke-opacity="1" stroke-miterlimit="4"/><path stroke-linecap="round" transform="matrix(8.430876, 0, 0, 8.430133, -20.853673, 123.254389)" fill-opacity="1" fill="#fcfcfc" fill-rule="nonzero" stroke-linejoin="round" d="M 47.909158 51.204837 L 49.135121 44.371093 L 53.931942 45.46186 L 53.433866 52.037045 Z M 47.909158 51.204837 " stroke="#303845" stroke-width="0.343" stroke-opacity="1" stroke-miterlimit="4"/><path stroke-linecap="round" transform="matrix(8.430876, 0, 0, 8.430133, -20.853673, 123.254389)" fill-opacity="1" fill="#fcfcfc" fill-rule="nonzero" stroke-linejoin="round" d="M 71.260824 46.082772 L 70.848 39.718882 L 72.523853 40.1892 L 73.016832 46.714806 Z M 71.260824 46.082772 " stroke="#303845" stroke-width="0.343" stroke-opacity="1" stroke-miterlimit="4"/><path stroke-linecap="round" transform="matrix(8.430876, 0, 0, 8.430133, -20.853673, 123.254389)" fill-opacity="1" fill="#fcfcfc" fill-rule="nonzero" stroke-linejoin="round" d="M 60.537128 39.470981 L 59.844918 45.900205 L 53.931942 45.46186 L 55.25891 38.559073 Z M 60.537128 39.470981 " stroke="#303845" stroke-width="0.343" stroke-opacity="1" stroke-miterlimit="4"/><path stroke-linecap="round" transform="matrix(8.430876, 0, 0, 8.430133, -20.853673, 123.254389)" fill-opacity="1" fill="#fcfcfc" fill-rule="nonzero" stroke-linejoin="round" d="M 75.459954 57.582165 L 74.282178 61.71216 L 72.245857 62.181088 L 73.652053 57.814775 Z M 75.459954 57.582165 " stroke="#303845" stroke-width="0.343" stroke-opacity="1" stroke-miterlimit="4"/><path stroke-linecap="round" transform="matrix(8.430876, 0, 0, 8.430133, -20.853673, 123.254389)" fill-opacity="1" fill="#fcfcfc" fill-rule="nonzero" stroke-linejoin="round" d="M 35.145898 29.200902 L 31.625078 31.715135 L 29.675862 31.037228 L 32.743085 27.964174 Z M 35.145898 29.200902 " stroke="#303845" stroke-width="0.343" stroke-opacity="1" stroke-miterlimit="4"/><path stroke-linecap="round" transform="matrix(8.430876, 0, 0, 8.430133, -20.853673, 123.254389)" fill-opacity="1" fill="#fcfcfc" fill-rule="nonzero" stroke-linejoin="round" d="M 29.768991 56.086878 L 27.935144 56.097072 L 27.353206 48.495064 L 29.36219 48.516842 Z M 29.768991 56.086878 " stroke="#303845" stroke-width="0.343" stroke-opacity="1" stroke-miterlimit="4"/><path stroke-linecap="round" transform="matrix(8.430876, 0, 0, 8.430133, -20.853673, 123.254389)" fill-opacity="1" fill="#fcfcfc" fill-rule="nonzero" stroke-linejoin="round" d="M 74.351213 47.477045 L 75.98722 48.558082 L 76.110002 53.144957 L 73.854064 53.163028 Z M 74.351213 47.477045 " stroke="#303845" stroke-width="0.343" stroke-opacity="1" stroke-miterlimit="4"/><path stroke-linecap="round" transform="matrix(8.430876, 0, 0, 8.430133, -20.853673, 123.254389)" fill-opacity="1" fill="#fcfcfc" fill-rule="nonzero" stroke-linejoin="round" d="M 73.854064 53.163028 L 76.110002 53.144957 L 75.459954 57.582165 L 73.652053 57.814775 Z M 73.854064 53.163028 " stroke="#303845" stroke-width="0.343" stroke-opacity="1" stroke-miterlimit="4"/><path stroke-linecap="round" transform="matrix(8.430876, 0, 0, 8.430133, -20.853673, 123.254389)" fill-opacity="1" fill="#fcfcfc" fill-rule="nonzero" stroke-linejoin="round" d="M 38.189027 42.143221 L 43.15589 42.272038 L 42.744919 49.480183 L 37.397202 48.103982 Z M 38.189027 42.143221 " stroke="#303845" stroke-width="0.343" stroke-opacity="1" stroke-miterlimit="4"/><path stroke-linecap="round" transform="matrix(8.430876, 0, 0, 8.430133, -20.853673, 123.254389)" fill-opacity="1" fill="#fcfcfc" fill-rule="nonzero" stroke-linejoin="round" d="M 37.063143 56.021079 L 37.397202 48.103982 L 42.744919 49.480183 L 42.308002 56.694816 Z M 37.063143 56.021079 " stroke="#303845" stroke-width="0.343" stroke-opacity="1" stroke-miterlimit="4"/><path stroke-linecap="round" transform="matrix(8.430876, 0, 0, 8.430133, -20.853673, 123.254389)" fill-opacity="1" fill="#fcfcfc" fill-rule="nonzero" stroke-linejoin="round" d="M 50.943022 72.446996 L 58.169991 68.242862 L 59.776809 69.650109 L 52.953859 74.160992 Z M 50.943022 72.446996 " stroke="#303845" stroke-width="0.343" stroke-opacity="1" stroke-miterlimit="4"/><path stroke-linecap="round" transform="matrix(8.430876, 0, 0, 8.430133, -20.853673, 123.254389)" fill-opacity="1" fill="#fcfcfc" fill-rule="nonzero" stroke-linejoin="round" d="M 33.885186 34.04819 L 31.625078 31.715135 L 35.145898 29.200902 L 37.054804 31.664164 Z M 33.885186 34.04819 " stroke="#303845" stroke-width="0.343" stroke-opacity="1" stroke-miterlimit="4"/><path stroke-linecap="round" transform="matrix(8.430876, 0, 0, 8.430133, -20.853673, 123.254389)" fill-opacity="1" fill="#fcfcfc" fill-rule="nonzero" stroke-linejoin="round" d="M 29.675862 31.037228 L 31.625078 31.715135 L 30.032161 34.853986 L 27.808193 34.215929 Z M 29.675862 31.037228 " stroke="#303845" stroke-width="0.343" stroke-opacity="1" stroke-miterlimit="4"/><path stroke-linecap="round" transform="matrix(8.430876, 0, 0, 8.430133, -20.853673, 123.254389)" fill-opacity="1" fill="#fcfcfc" fill-rule="nonzero" stroke-linejoin="round" d="M 71.260824 46.082772 L 69.140178 45.667132 L 68.979867 39.175816 L 70.848 39.718882 Z M 71.260824 46.082772 " stroke="#303845" stroke-width="0.343" stroke-opacity="1" stroke-miterlimit="4"/><path stroke-linecap="round" transform="matrix(8.430876, 0, 0, 8.430133, -20.853673, 123.254389)" fill-opacity="1" fill="#fcfcfc" fill-rule="nonzero" stroke-linejoin="round" d="M 27.353206 48.495064 L 26.648949 42.007918 L 28.958169 42.134881 L 29.36219 48.516842 Z M 27.353206 48.495064 " stroke="#303845" stroke-width="0.343" stroke-opacity="1" stroke-miterlimit="4"/><path stroke-linecap="round" transform="matrix(8.430876, 0, 0, 8.430133, -20.853673, 123.254389)" fill-opacity="1" fill="#fcfcfc" fill-rule="nonzero" stroke-linejoin="round" d="M 29.232922 37.959939 L 28.958169 42.134881 L 26.648949 42.007918 L 27.031194 37.794054 Z M 29.232922 37.959939 " stroke="#303845" stroke-width="0.343" stroke-opacity="1" stroke-miterlimit="4"/><path stroke-linecap="round" transform="matrix(8.430876, 0, 0, 8.430133, -20.853673, 123.254389)" fill-opacity="1" fill="#fcfcfc" fill-rule="nonzero" stroke-linejoin="round" d="M 30.032161 34.853986 L 29.232922 37.959939 L 27.031194 37.794054 L 27.808193 34.215929 Z M 30.032161 34.853986 " stroke="#303845" stroke-width="0.343" stroke-opacity="1" stroke-miterlimit="4"/><path stroke-linecap="round" transform="matrix(8.430876, 0, 0, 8.430133, -20.853673, 123.254389)" fill-opacity="1" fill="#fcfcfc" fill-rule="nonzero" stroke-linejoin="round" d="M 61.52077 70.448028 L 67.217835 65.955216 L 69.112842 66.168829 L 63.438943 70.687126 Z M 61.52077 70.448028 " stroke="#303845" stroke-width="0.343" stroke-opacity="1" stroke-miterlimit="4"/><path stroke-linecap="round" transform="matrix(8.430876, 0, 0, 8.430133, -20.853673, 123.254389)" fill-opacity="1" fill="#fcfcfc" fill-rule="nonzero" stroke-linejoin="round" d="M 53.966228 58.223002 L 47.410155 57.994099 L 47.909158 51.204837 L 53.433866 52.037045 Z M 53.966228 58.223002 " stroke="#303845" stroke-width="0.343" stroke-opacity="1" stroke-miterlimit="4"/><path stroke-linecap="round" transform="matrix(8.430876, 0, 0, 8.430133, -20.853673, 123.254389)" fill-opacity="1" fill="#fcfcfc" fill-rule="nonzero" stroke-linejoin="round" d="M 37.063143 56.021079 L 33.824953 56.008105 L 34.160865 48.160049 L 37.397202 48.103982 Z M 37.063143 56.021079 " stroke="#303845" stroke-width="0.343" stroke-opacity="1" stroke-miterlimit="4"/><path stroke-linecap="round" transform="matrix(8.430876, 0, 0, 8.430133, -20.853673, 123.254389)" fill-opacity="1" fill="#fcfcfc" fill-rule="nonzero" stroke-linejoin="round" d="M 31.590792 56.217084 L 29.768991 56.086878 L 29.36219 48.516842 L 31.602838 48.386172 Z M 31.590792 56.217084 " stroke="#303845" stroke-width="0.343" stroke-opacity="1" stroke-miterlimit="4"/><path stroke-linecap="round" transform="matrix(8.430876, 0, 0, 8.430133, -20.853673, 123.254389)" fill-opacity="1" fill="#fcfcfc" fill-rule="nonzero" stroke-linejoin="round" d="M 33.824953 56.008105 L 31.590792 56.217084 L 31.602838 48.386172 L 34.160865 48.160049 Z M 33.824953 56.008105 " stroke="#303845" stroke-width="0.343" stroke-opacity="1" stroke-miterlimit="4"/><path stroke-linecap="round" transform="matrix(8.430876, 0, 0, 8.430133, -20.853673, 123.254389)" fill-opacity="1" fill="#fcfcfc" fill-rule="nonzero" stroke-linejoin="round" d="M 60.537128 39.470981 L 64.504131 39.063217 L 64.506911 45.701884 L 59.844918 45.900205 Z M 60.537128 39.470981 " stroke="#303845" stroke-width="0.343" stroke-opacity="1" stroke-miterlimit="4"/><path stroke-linecap="round" transform="matrix(8.430876, 0, 0, 8.430133, -20.853673, 123.254389)" fill-opacity="1" fill="#fcfcfc" fill-rule="nonzero" stroke-linejoin="round" d="M 34.795159 37.629095 L 33.885186 34.04819 L 37.054804 31.664164 L 38.43598 36.56613 Z M 34.795159 37.629095 " stroke="#303845" stroke-width="0.343" stroke-opacity="1" stroke-miterlimit="4"/><path stroke-linecap="round" transform="matrix(8.430876, 0, 0, 8.430133, -20.853673, 123.254389)" fill-opacity="1" fill="#fcfcfc" fill-rule="nonzero" stroke-linejoin="round" d="M 38.189027 42.143221 L 34.702031 42.339226 L 34.795159 37.629095 L 38.43598 36.56613 Z M 38.189027 42.143221 " stroke="#303845" stroke-width="0.343" stroke-opacity="1" stroke-miterlimit="4"/><path stroke-linecap="round" transform="matrix(8.430876, 0, 0, 8.430133, -20.853673, 123.254389)" fill-opacity="1" fill="#fcfcfc" fill-rule="nonzero" stroke-linejoin="round" d="M 34.160865 48.160049 L 34.702031 42.339226 L 38.189027 42.143221 L 37.397202 48.103982 Z M 34.160865 48.160049 " stroke="#303845" stroke-width="0.343" stroke-opacity="1" stroke-miterlimit="4"/><path stroke-linecap="round" transform="matrix(8.430876, 0, 0, 8.430133, -20.853673, 123.254389)" fill-opacity="1" fill="#fcfcfc" fill-rule="nonzero" stroke-linejoin="round" d="M 58.169991 68.242862 L 50.943022 72.446996 L 49.061915 69.506929 L 56.862947 66.388002 Z M 58.169991 68.242862 " stroke="#303845" stroke-width="0.343" stroke-opacity="1" stroke-miterlimit="4"/><path stroke-linecap="round" transform="matrix(8.430876, 0, 0, 8.430133, -20.853673, 123.254389)" fill-opacity="1" fill="#fcfcfc" fill-rule="nonzero" stroke-linejoin="round" d="M 64.506911 45.701884 L 64.504131 39.063217 L 66.982002 38.86814 L 67.177989 45.546193 Z M 64.506911 45.701884 " stroke="#303845" stroke-width="0.343" stroke-opacity="1" stroke-miterlimit="4"/><path stroke-linecap="round" transform="matrix(8.430876, 0, 0, 8.430133, -20.853673, 123.254389)" fill-opacity="1" fill="#fcfcfc" fill-rule="nonzero" stroke-linejoin="round" d="M 66.982002 38.86814 L 68.979867 39.175816 L 69.140178 45.667132 L 67.177989 45.546193 Z M 66.982002 38.86814 " stroke="#303845" stroke-width="0.343" stroke-opacity="1" stroke-miterlimit="4"/><path stroke-linecap="round" transform="matrix(8.430876, 0, 0, 8.430133, -20.853673, 123.254389)" fill-opacity="1" fill="#fcfcfc" fill-rule="nonzero" stroke-linejoin="round" d="M 30.032161 34.853986 L 31.625078 31.715135 L 33.885186 34.04819 L 31.953113 35.696852 Z M 30.032161 34.853986 " stroke="#303845" stroke-width="0.343" stroke-opacity="1" stroke-miterlimit="4"/><path stroke-linecap="round" transform="matrix(8.430876, 0, 0, 8.430133, -20.853673, 123.254389)" fill-opacity="1" fill="#fcfcfc" fill-rule="nonzero" stroke-linejoin="round" d="M 47.410155 57.994099 L 53.966228 58.223002 L 55.300146 63.322825 L 47.637186 64.711074 Z M 47.410155 57.994099 " stroke="#303845" stroke-width="0.343" stroke-opacity="1" stroke-miterlimit="4"/><path stroke-linecap="round" transform="matrix(8.430876, 0, 0, 8.430133, -20.853673, 123.254389)" fill-opacity="1" fill="#fcfcfc" fill-rule="nonzero" stroke-linejoin="round" d="M 49.061915 69.506929 L 47.637186 64.711074 L 55.300146 63.322825 L 56.862947 66.388002 Z M 49.061915 69.506929 " stroke="#303845" stroke-width="0.343" stroke-opacity="1" stroke-miterlimit="4"/><path stroke-linecap="round" transform="matrix(8.430876, 0, 0, 8.430133, -20.853673, 123.254389)" fill-opacity="1" fill="#fcfcfc" fill-rule="nonzero" stroke-linejoin="round" d="M 29.36219 48.516842 L 28.958169 42.134881 L 31.476813 42.091788 L 31.602838 48.386172 Z M 29.36219 48.516842 " stroke="#303845" stroke-width="0.343" stroke-opacity="1" stroke-miterlimit="4"/><path stroke-linecap="round" transform="matrix(8.430876, 0, 0, 8.430133, -20.853673, 123.254389)" fill-opacity="1" fill="#fcfcfc" fill-rule="nonzero" stroke-linejoin="round" d="M 31.602838 48.386172 L 31.476813 42.091788 L 34.702031 42.339226 L 34.160865 48.160049 Z M 31.602838 48.386172 " stroke="#303845" stroke-width="0.343" stroke-opacity="1" stroke-miterlimit="4"/><path stroke-linecap="round" transform="matrix(8.430876, 0, 0, 8.430133, -20.853673, 123.254389)" fill-opacity="1" fill="#fcfcfc" fill-rule="nonzero" stroke-linejoin="round" d="M 31.960063 38.289857 L 34.795159 37.629095 L 34.702031 42.339226 L 31.476813 42.091788 Z M 31.960063 38.289857 " stroke="#303845" stroke-width="0.343" stroke-opacity="1" stroke-miterlimit="4"/><path stroke-linecap="round" transform="matrix(8.430876, 0, 0, 8.430133, -20.853673, 123.254389)" fill-opacity="1" fill="#fcfcfc" fill-rule="nonzero" stroke-linejoin="round" d="M 29.232922 37.959939 L 31.960063 38.289857 L 31.476813 42.091788 L 28.958169 42.134881 Z M 29.232922 37.959939 " stroke="#303845" stroke-width="0.343" stroke-opacity="1" stroke-miterlimit="4"/><path stroke-linecap="round" transform="matrix(8.430876, 0, 0, 8.430133, -20.853673, 123.254389)" fill-opacity="1" fill="#fcfcfc" fill-rule="nonzero" stroke-linejoin="round" d="M 31.960063 38.289857 L 29.232922 37.959939 L 30.032161 34.853986 L 31.953113 35.696852 Z M 31.960063 38.289857 " stroke="#303845" stroke-width="0.343" stroke-opacity="1" stroke-miterlimit="4"/><path stroke-linecap="round" transform="matrix(8.430876, 0, 0, 8.430133, -20.853673, 123.254389)" fill-opacity="1" fill="#fcfcfc" fill-rule="nonzero" stroke-linejoin="round" d="M 33.885186 34.04819 L 34.795159 37.629095 L 31.960063 38.289857 L 31.953113 35.696852 Z M 33.885186 34.04819 " stroke="#303845" stroke-width="0.343" stroke-opacity="1" stroke-miterlimit="4"/><path stroke-linecap="round" transform="matrix(8.430876, 0, 0, 8.430133, -20.853673, 123.254389)" fill-opacity="1" fill="#fcfcfc" fill-rule="nonzero" stroke-linejoin="round" d="M 59.885227 51.624185 L 53.433866 52.037045 L 53.931942 45.46186 L 59.844918 45.900205 Z M 59.885227 51.624185 " stroke="#303845" stroke-width="0.343" stroke-opacity="1" stroke-miterlimit="4"/><path stroke-linecap="round" transform="matrix(8.430876, 0, 0, 8.430133, -20.853673, 123.254389)" fill-opacity="1" fill="#fcfcfc" fill-rule="nonzero" stroke-linejoin="round" d="M 73.016832 46.714806 L 74.351213 47.477045 L 73.854064 53.163028 L 72.605862 52.51107 Z M 73.016832 46.714806 " stroke="#303845" stroke-width="0.343" stroke-opacity="1" stroke-miterlimit="4"/><path stroke-linecap="round" transform="matrix(8.430876, 0, 0, 8.430133, -20.853673, 123.254389)" fill-opacity="1" fill="#fcfcfc" fill-rule="nonzero" stroke-linejoin="round" d="M 70.708075 61.903067 L 72.245857 62.181088 L 69.112842 66.168829 L 67.217835 65.955216 Z M 70.708075 61.903067 " stroke="#303845" stroke-width="0.343" stroke-opacity="1" stroke-miterlimit="4"/><path stroke-linecap="round" transform="matrix(8.430876, 0, 0, 8.430133, -20.853673, 123.254389)" fill-opacity="1" fill="#fcfcfc" fill-rule="nonzero" stroke-linejoin="round" d="M 61.52077 70.448028 L 59.776809 69.650109 L 65.743066 65.153127 L 67.217835 65.955216 Z M 61.52077 70.448028 " stroke="#303845" stroke-width="0.343" stroke-opacity="1" stroke-miterlimit="4"/><path stroke-linecap="round" transform="matrix(8.430876, 0, 0, 8.430133, -20.853673, 123.254389)" fill-opacity="1" fill="#fcfcfc" fill-rule="nonzero" stroke-linejoin="round" d="M 72.245857 62.181088 L 70.708075 61.903067 L 72.225934 57.398208 L 73.652053 57.814775 Z M 72.245857 62.181088 " stroke="#303845" stroke-width="0.343" stroke-opacity="1" stroke-miterlimit="4"/><path stroke-linecap="round" transform="matrix(8.430876, 0, 0, 8.430133, -20.853673, 123.254389)" fill-opacity="1" fill="#fcfcfc" fill-rule="nonzero" stroke-linejoin="round" d="M 73.854064 53.163028 L 73.652053 57.814775 L 72.225934 57.398208 L 72.605862 52.51107 Z M 73.854064 53.163028 " stroke="#303845" stroke-width="0.343" stroke-opacity="1" stroke-miterlimit="4"/><path stroke-linecap="round" transform="matrix(8.430876, 0, 0, 8.430133, -20.853673, 123.254389)" fill-opacity="1" fill="#fcfcfc" fill-rule="nonzero" stroke-linejoin="round" d="M 59.909783 55.985864 L 53.966228 58.223002 L 53.433866 52.037045 L 59.885227 51.624185 Z M 59.909783 55.985864 " stroke="#303845" stroke-width="0.343" stroke-opacity="1" stroke-miterlimit="4"/><path stroke-linecap="round" transform="matrix(8.430876, 0, 0, 8.430133, -20.853673, 123.254389)" fill-opacity="1" fill="#fcfcfc" fill-rule="nonzero" stroke-linejoin="round" d="M 64.506911 45.701884 L 64.897032 51.083898 L 59.885227 51.624185 L 59.844918 45.900205 Z M 64.506911 45.701884 " stroke="#303845" stroke-width="0.343" stroke-opacity="1" stroke-miterlimit="4"/><path stroke-linecap="round" transform="matrix(8.430876, 0, 0, 8.430133, -20.853673, 123.254389)" fill-opacity="1" fill="#fcfcfc" fill-rule="nonzero" stroke-linejoin="round" d="M 71.035184 51.734003 L 71.260824 46.082772 L 73.016832 46.714806 L 72.605862 52.51107 Z M 71.035184 51.734003 " stroke="#303845" stroke-width="0.343" stroke-opacity="1" stroke-miterlimit="4"/><path stroke-linecap="round" transform="matrix(8.430876, 0, 0, 8.430133, -20.853673, 123.254389)" fill-opacity="1" fill="#fcfcfc" fill-rule="nonzero" stroke-linejoin="round" d="M 59.909783 55.985864 L 60.589947 59.643224 L 55.300146 63.322825 L 53.966228 58.223002 Z M 59.909783 55.985864 " stroke="#303845" stroke-width="0.343" stroke-opacity="1" stroke-miterlimit="4"/><path stroke-linecap="round" transform="matrix(8.430876, 0, 0, 8.430133, -20.853673, 123.254389)" fill-opacity="1" fill="#fcfcfc" fill-rule="nonzero" stroke-linejoin="round" d="M 64.506911 45.701884 L 67.177989 45.546193 L 67.017215 50.382823 L 64.897032 51.083898 Z M 64.506911 45.701884 " stroke="#303845" stroke-width="0.343" stroke-opacity="1" stroke-miterlimit="4"/><path stroke-linecap="round" transform="matrix(8.430876, 0, 0, 8.430133, -20.853673, 123.254389)" fill-opacity="1" fill="#fcfcfc" fill-rule="nonzero" stroke-linejoin="round" d="M 69.140178 45.667132 L 71.260824 46.082772 L 71.035184 51.734003 L 69.190217 50.60802 Z M 69.140178 45.667132 " stroke="#303845" stroke-width="0.343" stroke-opacity="1" stroke-miterlimit="4"/><path stroke-linecap="round" transform="matrix(8.430876, 0, 0, 8.430133, -20.853673, 123.254389)" fill-opacity="1" fill="#fcfcfc" fill-rule="nonzero" stroke-linejoin="round" d="M 69.140178 45.667132 L 69.190217 50.60802 L 67.017215 50.382823 L 67.177989 45.546193 Z M 69.140178 45.667132 " stroke="#303845" stroke-width="0.343" stroke-opacity="1" stroke-miterlimit="4"/><path stroke-linecap="round" transform="matrix(8.430876, 0, 0, 8.430133, -20.853673, 123.254389)" fill-opacity="1" fill="#fcfcfc" fill-rule="nonzero" stroke-linejoin="round" d="M 59.776809 69.650109 L 58.169991 68.242862 L 64.168219 63.725955 L 65.743066 65.153127 Z M 59.776809 69.650109 " stroke="#303845" stroke-width="0.343" stroke-opacity="1" stroke-miterlimit="4"/><path stroke-linecap="round" transform="matrix(8.430876, 0, 0, 8.430133, -20.853673, 123.254389)" fill-opacity="1" fill="#fcfcfc" fill-rule="nonzero" stroke-linejoin="round" d="M 55.300146 63.322825 L 60.589947 59.643224 L 62.232903 62.042077 L 56.862947 66.388002 Z M 55.300146 63.322825 " stroke="#303845" stroke-width="0.343" stroke-opacity="1" stroke-miterlimit="4"/><path stroke-linecap="round" transform="matrix(8.430876, 0, 0, 8.430133, -20.853673, 123.254389)" fill-opacity="1" fill="#fcfcfc" fill-rule="nonzero" stroke-linejoin="round" d="M 58.169991 68.242862 L 56.862947 66.388002 L 62.232903 62.042077 L 64.168219 63.725955 Z M 58.169991 68.242862 " stroke="#303845" stroke-width="0.343" stroke-opacity="1" stroke-miterlimit="4"/><path stroke-linecap="round" transform="matrix(8.430876, 0, 0, 8.430133, -20.853673, 123.254389)" fill-opacity="1" fill="#fcfcfc" fill-rule="nonzero" stroke-linejoin="round" d="M 65.743066 65.153127 L 69.035003 60.967065 L 70.708075 61.903067 L 67.217835 65.955216 Z M 65.743066 65.153127 " stroke="#303845" stroke-width="0.343" stroke-opacity="1" stroke-miterlimit="4"/><path stroke-linecap="round" transform="matrix(8.430876, 0, 0, 8.430133, -20.853673, 123.254389)" fill-opacity="1" fill="#fcfcfc" fill-rule="nonzero" stroke-linejoin="round" d="M 72.225934 57.398208 L 70.708075 61.903067 L 69.035003 60.967065 L 70.747922 56.583144 Z M 72.225934 57.398208 " stroke="#303845" stroke-width="0.343" stroke-opacity="1" stroke-miterlimit="4"/><path stroke-linecap="round" transform="matrix(8.430876, 0, 0, 8.430133, -20.853673, 123.254389)" fill-opacity="1" fill="#fcfcfc" fill-rule="nonzero" stroke-linejoin="round" d="M 71.035184 51.734003 L 72.605862 52.51107 L 72.225934 57.398208 L 70.747922 56.583144 Z M 71.035184 51.734003 " stroke="#303845" stroke-width="0.343" stroke-opacity="1" stroke-miterlimit="4"/><path stroke-linecap="round" transform="matrix(8.430876, 0, 0, 8.430133, -20.853673, 123.254389)" fill-opacity="1" fill="#fcfcfc" fill-rule="nonzero" stroke-linejoin="round" d="M 64.031074 54.515135 L 59.909783 55.985864 L 59.885227 51.624185 L 64.897032 51.083898 Z M 64.031074 54.515135 " stroke="#303845" stroke-width="0.343" stroke-opacity="1" stroke-miterlimit="4"/><path stroke-linecap="round" transform="matrix(8.430876, 0, 0, 8.430133, -20.853673, 123.254389)" fill-opacity="1" fill="#fcfcfc" fill-rule="nonzero" stroke-linejoin="round" d="M 60.589947 59.643224 L 59.909783 55.985864 L 64.031074 54.515135 L 63.779951 57.38616 Z M 60.589947 59.643224 " stroke="#303845" stroke-width="0.343" stroke-opacity="1" stroke-miterlimit="4"/><path stroke-linecap="round" transform="matrix(8.430876, 0, 0, 8.430133, -20.853673, 123.254389)" fill-opacity="1" fill="#fcfcfc" fill-rule="nonzero" stroke-linejoin="round" d="M 67.017215 50.382823 L 66.578908 54.598078 L 64.031074 54.515135 L 64.897032 51.083898 Z M 67.017215 50.382823 " stroke="#303845" stroke-width="0.343" stroke-opacity="1" stroke-miterlimit="4"/><path stroke-linecap="round" transform="matrix(8.430876, 0, 0, 8.430133, -20.853673, 123.254389)" fill-opacity="1" fill="#fcfcfc" fill-rule="nonzero" stroke-linejoin="round" d="M 71.035184 51.734003 L 70.747922 56.583144 L 68.786196 55.407117 L 69.190217 50.60802 Z M 71.035184 51.734003 " stroke="#303845" stroke-width="0.343" stroke-opacity="1" stroke-miterlimit="4"/><path stroke-linecap="round" transform="matrix(8.430876, 0, 0, 8.430133, -20.853673, 123.254389)" fill-opacity="1" fill="#fcfcfc" fill-rule="nonzero" stroke-linejoin="round" d="M 68.786196 55.407117 L 66.578908 54.598078 L 67.017215 50.382823 L 69.190217 50.60802 Z M 68.786196 55.407117 " stroke="#303845" stroke-width="0.343" stroke-opacity="1" stroke-miterlimit="4"/><path stroke-linecap="round" transform="matrix(8.430876, 0, 0, 8.430133, -20.853673, 123.254389)" fill-opacity="1" fill="#fcfcfc" fill-rule="nonzero" stroke-linejoin="round" d="M 65.236187 58.393058 L 62.232903 62.042077 L 60.589947 59.643224 L 63.779951 57.38616 Z M 65.236187 58.393058 " stroke="#303845" stroke-width="0.343" stroke-opacity="1" stroke-miterlimit="4"/><path stroke-linecap="round" transform="matrix(8.430876, 0, 0, 8.430133, -20.853673, 123.254389)" fill-opacity="1" fill="#fcfcfc" fill-rule="nonzero" stroke-linejoin="round" d="M 64.031074 54.515135 L 66.578908 54.598078 L 65.236187 58.393058 L 63.779951 57.38616 Z M 64.031074 54.515135 " stroke="#303845" stroke-width="0.343" stroke-opacity="1" stroke-miterlimit="4"/><path stroke-linecap="round" transform="matrix(8.430876, 0, 0, 8.430133, -20.853673, 123.254389)" fill-opacity="1" fill="#fcfcfc" fill-rule="nonzero" stroke-linejoin="round" d="M 67.166869 60.006967 L 65.236187 58.393058 L 66.578908 54.598078 L 68.786196 55.407117 Z M 67.166869 60.006967 " stroke="#303845" stroke-width="0.343" stroke-opacity="1" stroke-miterlimit="4"/><path stroke-linecap="round" transform="matrix(8.430876, 0, 0, 8.430133, -20.853673, 123.254389)" fill-opacity="1" fill="#fcfcfc" fill-rule="nonzero" stroke-linejoin="round" d="M 69.035003 60.967065 L 67.166869 60.006967 L 68.786196 55.407117 L 70.747922 56.583144 Z M 69.035003 60.967065 " stroke="#303845" stroke-width="0.343" stroke-opacity="1" stroke-miterlimit="4"/><path stroke-linecap="round" transform="matrix(8.430876, 0, 0, 8.430133, -20.853673, 123.254389)" fill-opacity="1" fill="#fcfcfc" fill-rule="nonzero" stroke-linejoin="round" d="M 62.232903 62.042077 L 65.236187 58.393058 L 67.166869 60.006967 L 64.168219 63.725955 Z M 62.232903 62.042077 " stroke="#303845" stroke-width="0.343" stroke-opacity="1" stroke-miterlimit="4"/><path stroke-linecap="round" transform="matrix(8.430876, 0, 0, 8.430133, -20.853673, 123.254389)" fill-opacity="1" fill="#fcfcfc" fill-rule="nonzero" stroke-linejoin="round" d="M 64.168219 63.725955 L 67.166869 60.006967 L 69.035003 60.967065 L 65.743066 65.153127 Z M 64.168219 63.725955 " stroke="#303845" stroke-width="0.343" stroke-opacity="1" stroke-miterlimit="4"/></svg>