<svg xmlns="http://www.w3.org/2000/svg" xmlns:xlink="http://www.w3.org/1999/xlink" width="1080" zoomAndPan="magnify" viewBox="0 0 810 1012.49997" height="1350" preserveAspectRatio="xMidYMid meet" version="1.0"><defs><clipPath id="f643fbb8f3"><path d="M 61 172.039062 L 728.839844 172.039062 L 728.839844 839.960938 L 61 839.960938 Z M 61 172.039062 " clip-rule="nonzero"/></clipPath></defs><path stroke-linecap="round" transform="matrix(0.140677, 0, 0, 0.140677, 183.85752, 294.977612)" fill="none" stroke-linejoin="round" d="M 465.008055 464.987412 L 2534.993282 464.987412 L 2534.993282 2535.000406 L 465.008055 2535.000406 Z M 465.008055 464.987412 " stroke="#000000" stroke-width="4.17" stroke-opacity="1" stroke-miterlimit="1.5"/><path stroke-linecap="round" transform="matrix(0.135884, 0.0364099, -0.0364099, 0.135884, 245.662577, 247.553076)" fill="none" stroke-linejoin="round" d="M 464.998178 464.989192 L 2534.992469 465.01026 L 2534.998222 2534.997363 L 465.011119 2535.003117 Z M 464.998178 464.989192 " stroke="#000000" stroke-width="4.17" stroke-opacity="1" stroke-miterlimit="1.5"/><path stroke-linecap="round" transform="matrix(0.12183, 0.0703385, -0.0703385, 0.12183, 317.635876, 217.740593)" fill="none" stroke-linejoin="round" d="M 464.988204 464.996999 L 2534.990037 465.003443 L 2535.007641 2534.991392 L 465.005808 2534.984948 Z M 464.988204 464.996999 " stroke="#000000" stroke-width="4.17" stroke-opacity="1" stroke-miterlimit="1.5"/><path stroke-linecap="round" transform="matrix(0.0994736, 0.0994736, -0.0994736, 0.0994736, 394.872924, 207.572276)" fill="none" stroke-linejoin="round" d="M 464.987149 465.005549 L 2535.004072 464.985915 L 2534.984438 2535.002838 L 464.987149 2535.002838 Z M 464.987149 465.005549 " stroke="#000000" stroke-width="4.17" stroke-opacity="1" stroke-miterlimit="1.5"/><path stroke-linecap="round" transform="matrix(0.0703385, 0.12183, -0.12183, 0.0703385, 472.110317, 217.740521)" fill="none" stroke-linejoin="round" d="M 464.997087 464.989075 L 2534.985036 465.006678 L 2534.99148 2535.008511 L 465.003531 2534.990908 Z M 464.997087 464.989075 " stroke="#000000" stroke-width="4.17" stroke-opacity="1" stroke-miterlimit="1.5"/><path stroke-linecap="round" transform="matrix(0.0364099, 0.135884, -0.135884, 0.0364099, 544.083362, 247.552987)" fill="none" stroke-linejoin="round" d="M 464.990085 464.997281 L 2535.00401 465.010222 L 2534.998257 2534.997325 L 465.011153 2534.991571 Z M 464.990085 464.997281 " stroke="#000000" stroke-width="4.17" stroke-opacity="1" stroke-miterlimit="1.5"/><path stroke-linecap="round" transform="matrix(0.171855, 0, 0, 0.171855, 137.089336, 248.209442)" fill="none" stroke-linejoin="round" d="M 464.98837 464.994118 L 2534.999695 464.994118 L 2534.999695 2535.005443 L 464.98837 2535.005443 Z M 464.98837 464.994118 " stroke="#000000" stroke-width="3.41" stroke-opacity="1" stroke-miterlimit="1.5"/><path stroke-linecap="round" transform="matrix(0.165999, 0.0444794, -0.0444794, 0.165999, 212.592249, 190.274101)" fill="none" stroke-linejoin="round" d="M 464.994839 465.011698 L 2535.005307 464.996594 L 2534.992572 2534.99099 L 465.004059 2535.000211 Z M 464.994839 465.011698 " stroke="#000000" stroke-width="3.41" stroke-opacity="1" stroke-miterlimit="1.5"/><path stroke-linecap="round" transform="matrix(0.148831, 0.0859276, -0.0859276, 0.148831, 300.516969, 153.854319)" fill="none" stroke-linejoin="round" d="M 464.988749 464.996926 L 2535.001322 464.996189 L 2535.002059 2535.008761 L 465.009171 2534.998133 Z M 464.988749 464.996926 " stroke="#000000" stroke-width="3.41" stroke-opacity="1" stroke-miterlimit="1.5"/><path stroke-linecap="round" transform="matrix(0.12152, 0.12152, -0.12152, 0.12152, 394.872075, 141.432457)" fill="none" stroke-linejoin="round" d="M 464.993028 465.001102 L 2534.997512 465.001102 L 2534.997512 2535.005586 L 464.993028 2535.005586 Z M 464.993028 465.001102 " stroke="#000000" stroke-width="3.41" stroke-opacity="1" stroke-miterlimit="1.5"/><path stroke-linecap="round" transform="matrix(0.0859276, 0.148831, -0.148831, 0.0859276, 489.227567, 153.854187)" fill="none" stroke-linejoin="round" d="M 464.990758 465.000968 L 2535.00333 465.001705 L 2535.013958 2534.994593 L 465.001386 2534.993856 Z M 464.990758 465.000968 " stroke="#000000" stroke-width="3.41" stroke-opacity="1" stroke-miterlimit="1.5"/><path stroke-linecap="round" transform="matrix(0.0444794, 0.165999, -0.165999, 0.0444794, 577.15199, 190.274158)" fill="none" stroke-linejoin="round" d="M 465.008285 465.00628 L 2535.002681 464.993545 L 2534.987578 2535.004013 L 464.999065 2534.994793 Z M 465.008285 465.00628 " stroke="#000000" stroke-width="3.41" stroke-opacity="1" stroke-miterlimit="1.5"/><path stroke-linecap="round" transform="matrix(0.197602, 0, 0, 0.197602, 98.470687, 209.5908)" fill="none" stroke-linejoin="round" d="M 464.999534 465.004496 L 2534.995821 465.004496 L 2534.995821 2535.000784 L 464.999534 2535.000784 Z M 464.999534 465.004496 " stroke="#000000" stroke-width="2.97" stroke-opacity="1" stroke-miterlimit="1.5"/><path stroke-linecap="round" transform="matrix(0.190869, 0.0511431, -0.0511431, 0.190869, 185.285199, 142.975831)" fill="none" stroke-linejoin="round" d="M 465.001401 465.001479 L 2534.999182 465.006814 L 2534.993847 2535.004595 L 464.996066 2534.99926 Z M 465.001401 465.001479 " stroke="#000000" stroke-width="2.97" stroke-opacity="1" stroke-miterlimit="1.5"/><path stroke-linecap="round" transform="matrix(0.171128, 0.0988009, -0.0988009, 0.171128, 286.382377, 101.099769)" fill="none" stroke-linejoin="round" d="M 465.005427 464.998846 L 2534.994591 464.991531 L 2534.994671 2535.007699 L 464.995622 2534.997895 Z M 465.005427 464.998846 " stroke="#000000" stroke-width="2.97" stroke-opacity="1" stroke-miterlimit="1.5"/><path stroke-linecap="round" transform="matrix(0.139726, 0.139726, -0.139726, 0.139726, 394.873598, 86.816899)" fill="none" stroke-linejoin="round" d="M 465.004941 464.994909 L 2534.993516 464.994909 L 2535.007495 2534.997462 L 464.990963 2534.997462 Z M 465.004941 464.994909 " stroke="#000000" stroke-width="2.97" stroke-opacity="1" stroke-miterlimit="1.5"/><path stroke-linecap="round" transform="matrix(0.0988009, 0.171128, -0.171128, 0.0988009, 503.364985, 101.099747)" fill="none" stroke-linejoin="round" d="M 465.005616 464.993919 L 2534.994781 465.001234 L 2535.004585 2535.000283 L 464.988417 2535.000204 Z M 465.005616 464.993919 " stroke="#000000" stroke-width="2.97" stroke-opacity="1" stroke-miterlimit="1.5"/><path stroke-linecap="round" transform="matrix(0.0511431, 0.190869, -0.190869, 0.0511431, 604.461997, 142.975888)" fill="none" stroke-linejoin="round" d="M 464.999753 465.006715 L 2534.997534 465.00138 L 2535.00287 2534.999161 L 465.005089 2535.004496 Z M 464.999753 465.006715 " stroke="#000000" stroke-width="2.97" stroke-opacity="1" stroke-miterlimit="1.5"/><path stroke-linecap="round" transform="matrix(0.227876, 0, 0, 0.227876, 53.058896, 164.179004)" fill="none" stroke-linejoin="round" d="M 464.993382 464.997706 L 2534.996365 464.997706 L 2534.996365 2535.000689 L 464.993382 2535.000689 Z M 464.993382 464.997706 " stroke="#000000" stroke-width="2.57" stroke-opacity="1" stroke-miterlimit="1.5"/><path stroke-linecap="round" transform="matrix(0.220111, 0.0589785, -0.0589785, 0.220111, 153.1739, 87.358192)" fill="none" stroke-linejoin="round" d="M 465.00248 464.990375 L 2535.000053 464.992636 L 2535.00223 2535.006767 L 465.004656 2535.004507 Z M 465.00248 464.990375 " stroke="#000000" stroke-width="2.57" stroke-opacity="1" stroke-miterlimit="1.5"/><path stroke-linecap="round" transform="matrix(0.197346, 0.113938, -0.113938, 0.197346, 269.759746, 39.066677)" fill="none" stroke-linejoin="round" d="M 464.991311 464.999141 L 2534.997752 464.997145 L 2534.999748 2535.003585 L 464.993307 2535.005581 Z M 464.991311 464.999141 " stroke="#000000" stroke-width="2.57" stroke-opacity="1" stroke-miterlimit="1.5"/><g clip-path="url(#f643fbb8f3)"><path stroke-linecap="round" transform="matrix(0.161132, 0.161132, -0.161132, 0.161132, 394.872368, 22.595525)" fill="none" stroke-linejoin="round" d="M 464.997893 465.005798 L 2535.003642 464.993677 L 2534.991521 2534.999426 L 464.997893 2534.999426 Z M 464.997893 465.005798 " stroke="#000000" stroke-width="2.57" stroke-opacity="1" stroke-miterlimit="1.5"/></g><path stroke-linecap="round" transform="matrix(0.113938, 0.197346, -0.197346, 0.113938, 519.984984, 39.06653)" fill="none" stroke-linejoin="round" d="M 464.994117 465.001296 L 2535.000558 465.003292 L 2535.007133 2534.994887 L 465.000693 2534.992891 Z M 464.994117 465.001296 " stroke="#000000" stroke-width="2.57" stroke-opacity="1" stroke-miterlimit="1.5"/><path stroke-linecap="round" transform="matrix(0.0589785, 0.220111, -0.220111, 0.0589785, 636.570691, 87.358455)" fill="none" stroke-linejoin="round" d="M 465.007521 465.000247 L 2535.005095 464.997987 L 2535.007355 2534.995561 L 464.993224 2534.993384 Z M 465.007521 465.000247 " stroke="#000000" stroke-width="2.57" stroke-opacity="1" stroke-miterlimit="1.5"/><path stroke-linecap="round" transform="matrix(0.12183, 0, 0, 0.12183, 212.128241, 323.248347)" fill="none" stroke-linejoin="round" d="M 464.983063 464.991171 L 2535.002315 464.991171 L 2535.002315 2535.010423 L 464.983063 2535.010423 Z M 464.983063 464.991171 " stroke="#000000" stroke-width="4.81" stroke-opacity="1" stroke-miterlimit="1.5"/><path stroke-linecap="round" transform="matrix(0.117679, 0.031532, -0.031532, 0.117679, 265.653416, 282.17739)" fill="none" stroke-linejoin="round" d="M 464.988574 464.985912 L 2535.006838 464.998934 L 2534.985518 2534.986227 L 465.006523 2534.995877 Z M 464.988574 464.985912 " stroke="#000000" stroke-width="4.81" stroke-opacity="1" stroke-miterlimit="1.5"/><path stroke-linecap="round" transform="matrix(0.105508, 0.0609145, -0.0609145, 0.105508, 327.983725, 256.359117)" fill="none" stroke-linejoin="round" d="M 464.996841 465.007797 L 2535.009275 465.006988 L 2534.994052 2534.991654 L 464.981618 2534.992462 Z M 464.996841 465.007797 " stroke="#000000" stroke-width="4.81" stroke-opacity="1" stroke-miterlimit="1.5"/><path stroke-linecap="round" transform="matrix(0.0861471, 0.0861471, -0.0861471, 0.0861471, 394.87398, 247.55284)" fill="none" stroke-linejoin="round" d="M 464.995935 464.984089 L 2534.991512 464.984089 L 2535.014184 2535.002338 L 464.995935 2534.979666 Z M 464.995935 464.984089 " stroke="#000000" stroke-width="4.81" stroke-opacity="1" stroke-miterlimit="1.5"/><path stroke-linecap="round" transform="matrix(0.0609145, 0.105507, -0.105507, 0.0609145, 461.760845, 256.35938)" fill="none" stroke-linejoin="round" d="M 464.997063 465.016118 L 2534.9914 465.006479 L 2535.001039 2535.000816 L 465.006702 2535.010456 Z M 464.997063 465.016118 " stroke="#000000" stroke-width="4.81" stroke-opacity="1" stroke-miterlimit="1.5"/><path stroke-linecap="round" transform="matrix(0.031532, 0.117679, -0.117679, 0.031532, 524.094826, 282.17739)" fill="none" stroke-linejoin="round" d="M 464.981348 465.005608 L 2534.999612 464.992586 L 2534.981663 2535.002552 L 465.002668 2534.992902 Z M 464.981348 465.005608 " stroke="#000000" stroke-width="4.81" stroke-opacity="1" stroke-miterlimit="1.5"/><path stroke-linecap="round" transform="matrix(0.0994727, 0, 0, 0.0994727, 245.662532, 356.782652)" fill="none" stroke-linejoin="round" d="M 465.006427 465.016213 L 2534.984264 465.016213 L 2534.984264 2534.99405 L 465.006427 2534.99405 Z M 465.006427 465.016213 " stroke="#000000" stroke-width="5.89" stroke-opacity="1" stroke-miterlimit="1.5"/><path stroke-linecap="round" transform="matrix(0.0960832, 0.0257454, -0.0257454, 0.0960832, 289.364263, 323.248112)" fill="none" stroke-linejoin="round" d="M 464.990001 465.002701 L 2535.011667 464.996312 L 2535.007893 2534.980047 L 464.986226 2534.986436 Z M 464.990001 465.002701 " stroke="#000000" stroke-width="5.89" stroke-opacity="1" stroke-miterlimit="1.5"/><path stroke-linecap="round" transform="matrix(0.0861459, 0.0497363, -0.0497363, 0.0861459, 340.256658, 302.167792)" fill="none" stroke-linejoin="round" d="M 464.996261 464.985244 L 2534.996114 465.017878 L 2534.99749 2534.998096 L 465.017271 2534.999472 Z M 464.996261 464.985244 " stroke="#000000" stroke-width="5.89" stroke-opacity="1" stroke-miterlimit="1.5"/><path stroke-linecap="round" transform="matrix(0.0703385, 0.0703385, -0.0703385, 0.0703385, 394.872953, 294.977612)" fill="none" stroke-linejoin="round" d="M 464.974196 465.000627 L 2534.987191 465.000627 L 2534.987191 2535.013621 L 465.001964 2534.985854 Z M 464.974196 465.000627 " stroke="#000000" stroke-width="5.89" stroke-opacity="1" stroke-miterlimit="1.5"/><path stroke-linecap="round" transform="matrix(0.0497363, 0.0861459, -0.0861459, 0.0497363, 449.485508, 302.167792)" fill="none" stroke-linejoin="round" d="M 464.985353 464.996073 L 2534.99958 465.017083 L 2534.998205 2534.997302 L 465.017986 2534.995927 Z M 464.985353 464.996073 " stroke="#000000" stroke-width="5.89" stroke-opacity="1" stroke-miterlimit="1.5"/><path stroke-linecap="round" transform="matrix(0.0257454, 0.0960832, -0.0960832, 0.0257454, 500.377596, 323.248023)" fill="none" stroke-linejoin="round" d="M 465.004418 464.987041 L 2534.988153 464.983266 L 2534.981764 2535.004933 L 464.998028 2535.008708 Z M 465.004418 464.987041 " stroke="#000000" stroke-width="5.89" stroke-opacity="1" stroke-miterlimit="1.5"/><path stroke-linecap="round" transform="matrix(0.0861463, 0, 0, 0.0861463, 265.652888, 376.772994)" fill="none" stroke-linejoin="round" d="M 465.000009 465.011476 L 2535.015011 465.011476 L 2535.015011 2534.981133 L 465.000009 2534.981133 Z M 465.000009 465.011476 " stroke="#000000" stroke-width="6.8" stroke-opacity="1" stroke-miterlimit="1.5"/><path stroke-linecap="round" transform="matrix(0.0832104, 0.0222973, -0.0222973, 0.0832104, 303.500464, 347.731488)" fill="none" stroke-linejoin="round" d="M 464.991626 465.006899 L 2534.999826 465.014812 L 2534.991914 2535.023012 L 464.983713 2535.0151 Z M 464.991626 465.006899 " stroke="#000000" stroke-width="6.8" stroke-opacity="1" stroke-miterlimit="1.5"/><path stroke-linecap="round" transform="matrix(0.0746049, 0.0430732, -0.0430732, 0.0746049, 347.574565, 329.476041)" fill="none" stroke-linejoin="round" d="M 465.008528 464.981109 L 2534.998446 465.021804 L 2534.99702 2534.98905 L 464.990505 2535.010296 Z M 465.008528 464.981109 " stroke="#000000" stroke-width="6.8" stroke-opacity="1" stroke-miterlimit="1.5"/><path stroke-linecap="round" transform="matrix(0.0609147, 0.0609147, -0.0609147, 0.0609147, 394.872368, 323.249197)" fill="none" stroke-linejoin="round" d="M 464.978057 464.998969 L 2534.984444 464.998969 L 2534.984444 2535.005355 L 464.978057 2535.005355 Z M 464.978057 464.998969 " stroke="#000000" stroke-width="6.8" stroke-opacity="1" stroke-miterlimit="1.5"/><path stroke-linecap="round" transform="matrix(0.0430732, 0.0746049, -0.0746049, 0.0430732, 442.170297, 329.475984)" fill="none" stroke-linejoin="round" d="M 464.988836 464.996482 L 2534.995351 465.017728 L 2534.996777 2534.984974 L 465.006859 2535.025669 Z M 464.988836 464.996482 " stroke="#000000" stroke-width="6.8" stroke-opacity="1" stroke-miterlimit="1.5"/><path stroke-linecap="round" transform="matrix(0.0222963, 0.083211, -0.083211, 0.0222963, 486.244593, 347.731927)" fill="none" stroke-linejoin="round" d="M 464.997772 465.015085 L 2534.999348 464.980895 L 2534.978002 2535.014535 L 464.988163 2535.004925 Z M 464.997772 465.015085 " stroke="#000000" stroke-width="6.8" stroke-opacity="1" stroke-miterlimit="1.5"/><path stroke-linecap="round" transform="matrix(0.0703385, 0, 0, 0.0703385, 289.365258, 400.485364)" fill="none" stroke-linejoin="round" d="M 465.0223 464.980809 L 2534.979759 464.980809 L 2534.979759 2534.993803 L 465.0223 2534.993803 Z M 465.0223 464.980809 " stroke="#000000" stroke-width="8.33" stroke-opacity="1" stroke-miterlimit="1.5"/><path stroke-linecap="round" transform="matrix(0.0679418, 0.0182049, -0.0182049, 0.0679418, 320.267722, 376.77314)" fill="none" stroke-linejoin="round" d="M 464.99133 465.012293 L 2535.005289 464.999344 L 2535.018239 2535.013303 L 465.00428 2535.026252 Z M 464.99133 465.012293 " stroke="#000000" stroke-width="8.33" stroke-opacity="1" stroke-miterlimit="1.5"/><path stroke-linecap="round" transform="matrix(0.0609149, 0.0351692, -0.0351692, 0.0609149, 356.254489, 361.866694)" fill="none" stroke-linejoin="round" d="M 465.011628 465.01056 L 2535.013488 465.01698 L 2535.007067 2535.01884 L 465.005207 2535.01242 Z M 465.011628 465.01056 " stroke="#000000" stroke-width="8.33" stroke-opacity="1" stroke-miterlimit="1.5"/><path stroke-linecap="round" transform="matrix(0.0497368, 0.0497368, -0.0497368, 0.0497368, 394.872924, 356.782712)" fill="none" stroke-linejoin="round" d="M 464.992769 465.029569 L 2534.990108 464.9903 L 2534.990108 2535.026908 L 464.992769 2534.987639 Z M 464.992769 465.029569 " stroke="#000000" stroke-width="8.33" stroke-opacity="1" stroke-miterlimit="1.5"/><path stroke-linecap="round" transform="matrix(0.0351692, 0.0609149, -0.0609149, 0.0351692, 433.491647, 361.866783)" fill="none" stroke-linejoin="round" d="M 465.009167 465.011517 L 2535.011027 465.005097 L 2535.017447 2535.006957 L 465.015587 2535.013377 Z M 465.009167 465.011517 " stroke="#000000" stroke-width="8.33" stroke-opacity="1" stroke-miterlimit="1.5"/><path stroke-linecap="round" transform="matrix(0.0182049, 0.0679418, -0.0679418, 0.0182049, 469.478217, 376.77314)" fill="none" stroke-linejoin="round" d="M 465.012861 464.989209 L 2535.02682 465.002159 L 2535.013871 2535.016118 L 464.999912 2535.003168 Z M 465.012861 464.989209 " stroke="#000000" stroke-width="8.33" stroke-opacity="1" stroke-miterlimit="1.5"/><path stroke-linecap="round" transform="matrix(0.0609145, 0, 0, 0.0609145, 303.500582, 414.620699)" fill="none" stroke-linejoin="round" d="M 464.973415 464.989434 L 2534.984448 464.989434 L 2534.984448 2535.000467 L 464.973415 2535.000467 Z M 464.973415 464.989434 " stroke="#000000" stroke-width="9.62" stroke-opacity="1" stroke-miterlimit="1.5"/><path stroke-linecap="round" transform="matrix(0.0588389, 0.0157658, -0.0157658, 0.0588389, 330.261985, 394.084581)" fill="none" stroke-linejoin="round" d="M 464.976389 465.032647 L 2534.970799 464.992022 L 2535.011423 2534.986432 L 465.017014 2535.027056 Z M 464.976389 465.032647 " stroke="#000000" stroke-width="9.62" stroke-opacity="1" stroke-miterlimit="1.5"/><path stroke-linecap="round" transform="matrix(0.0527539, 0.0304566, -0.0304566, 0.0527539, 361.428426, 381.176015)" fill="none" stroke-linejoin="round" d="M 464.989188 464.974535 L 2534.985847 465.01045 L 2535.005467 2534.975047 L 464.985335 2535.02673 Z M 464.989188 464.974535 " stroke="#000000" stroke-width="9.62" stroke-opacity="1" stroke-miterlimit="1.5"/><path stroke-linecap="round" transform="matrix(0.0430731, 0.0430731, -0.0430731, 0.0430731, 394.871518, 376.772466)" fill="none" stroke-linejoin="round" d="M 465.01367 465.023528 L 2534.987766 465.023528 L 2534.987766 2534.997624 L 465.01367 2534.997624 Z M 465.01367 465.023528 " stroke="#000000" stroke-width="9.62" stroke-opacity="1" stroke-miterlimit="1.5"/><path stroke-linecap="round" transform="matrix(0.0304566, 0.0527539, -0.0527539, 0.0304566, 428.317763, 381.176015)" fill="none" stroke-linejoin="round" d="M 464.973755 464.990539 L 2535.02595 464.986686 L 2534.974267 2535.006818 L 465.00967 2534.987198 Z M 464.973755 464.990539 " stroke="#000000" stroke-width="9.62" stroke-opacity="1" stroke-miterlimit="1.5"/><path stroke-linecap="round" transform="matrix(0.0157658, 0.0588389, -0.0588389, 0.0157658, 459.481107, 394.084521)" fill="none" stroke-linejoin="round" d="M 465.029755 464.990985 L 2534.962223 465.015013 L 2534.98354 2535.026019 L 464.98913 2534.985395 Z M 465.029755 464.990985 " stroke="#000000" stroke-width="9.62" stroke-opacity="1" stroke-miterlimit="1.5"/><path stroke-linecap="round" transform="matrix(0.0497363, 0, 0, 0.0497363, 320.267751, 431.387866)" fill="none" stroke-linejoin="round" d="M 464.987569 465.007237 L 2534.965405 465.007237 L 2534.965405 2534.985074 L 464.987569 2534.985074 Z M 464.987569 465.007237 " stroke="#000000" stroke-width="11.79" stroke-opacity="1" stroke-miterlimit="1.5"/><path stroke-linecap="round" transform="matrix(0.0480412, 0.0128719, -0.0128719, 0.0480412, 342.119077, 414.620699)" fill="none" stroke-linejoin="round" d="M 464.997825 465.000836 L 2534.997235 464.992903 L 2535.005168 2534.992313 L 465.005758 2535.000246 Z M 464.997825 465.000836 " stroke="#000000" stroke-width="11.79" stroke-opacity="1" stroke-miterlimit="1.5"/><path stroke-linecap="round" transform="matrix(0.0430729, 0.0248682, -0.0248682, 0.0430729, 367.564001, 404.079538)" fill="none" stroke-linejoin="round" d="M 464.964624 465.013999 L 2535.012855 464.973346 L 2535.014239 2534.953559 L 464.966008 2534.994213 Z M 464.964624 465.013999 " stroke="#000000" stroke-width="11.79" stroke-opacity="1" stroke-miterlimit="1.5"/><path stroke-linecap="round" transform="matrix(0.0351692, 0.0351692, -0.0351692, 0.0351692, 394.872953, 400.485364)" fill="none" stroke-linejoin="round" d="M 464.954375 465.007236 L 2534.967355 465.007236 L 2534.967355 2535.020217 L 465.00991 2534.964682 Z M 464.954375 465.007236 " stroke="#000000" stroke-width="11.79" stroke-opacity="1" stroke-miterlimit="1.5"/><path stroke-linecap="round" transform="matrix(0.0248682, 0.0430729, -0.0430729, 0.0248682, 422.178451, 404.079658)" fill="none" stroke-linejoin="round" d="M 465.009257 464.968014 L 2534.989471 464.969398 L 2534.988087 2534.949611 L 464.968604 2535.016245 Z M 465.009257 464.968014 " stroke="#000000" stroke-width="11.79" stroke-opacity="1" stroke-miterlimit="1.5"/><path stroke-linecap="round" transform="matrix(0.0128727, 0.0480416, -0.0480416, 0.0128727, 447.624435, 414.619716)" fill="none" stroke-linejoin="round" d="M 465.001351 465.028747 L 2534.99525 464.987041 L 2535.036956 2534.98094 L 464.967194 2535.002318 Z M 465.001351 465.028747 " stroke="#000000" stroke-width="11.79" stroke-opacity="1" stroke-miterlimit="1.5"/><path stroke-linecap="round" transform="matrix(0.0430739, 0, 0, 0.0430739, 330.262834, 441.382938)" fill="none" stroke-linejoin="round" d="M 465.01815 465.041139 L 2534.953859 465.041139 L 2534.953859 2534.976847 L 465.01815 2534.976847 Z M 465.01815 465.041139 " stroke="#000000" stroke-width="13.61" stroke-opacity="1" stroke-miterlimit="1.5"/><path stroke-linecap="round" transform="matrix(0.0416062, 0.0111483, -0.0111483, 0.0416062, 349.188848, 426.863989)" fill="none" stroke-linejoin="round" d="M 464.994191 464.994219 L 2535.005607 465.016654 L 2534.983172 2535.028069 L 464.971757 2535.005635 Z M 464.994191 464.994219 " stroke="#000000" stroke-width="13.61" stroke-opacity="1" stroke-miterlimit="1.5"/><path stroke-linecap="round" transform="matrix(0.0373031, 0.0215369, -0.0215369, 0.0373031, 371.226411, 417.735657)" fill="none" stroke-linejoin="round" d="M 465.034881 465.01722 L 2534.945504 464.979318 L 2535.02875 2534.968478 L 464.994246 2534.973186 Z M 465.034881 465.01722 " stroke="#000000" stroke-width="13.61" stroke-opacity="1" stroke-miterlimit="1.5"/><path stroke-linecap="round" transform="matrix(0.0304578, 0.0304578, -0.0304578, 0.0304578, 394.875532, 414.622163)" fill="none" stroke-linejoin="round" d="M 465.012129 465.029582 L 2534.984507 465.029582 L 2534.984507 2535.00196 L 465.012129 2535.00196 Z M 465.012129 465.029582 " stroke="#000000" stroke-width="13.61" stroke-opacity="1" stroke-miterlimit="1.5"/><path stroke-linecap="round" transform="matrix(0.0215369, 0.0373031, -0.0373031, 0.0215369, 418.524983, 417.735777)" fill="none" stroke-linejoin="round" d="M 465.043968 464.982983 L 2534.954591 465.020885 L 2534.995226 2534.976851 L 465.03926 2535.017487 Z M 465.043968 464.982983 " stroke="#000000" stroke-width="13.61" stroke-opacity="1" stroke-miterlimit="1.5"/><path stroke-linecap="round" transform="matrix(0.0111483, 0.0416062, -0.0416062, 0.0111483, 440.562275, 426.863893)" fill="none" stroke-linejoin="round" d="M 464.989622 465.019954 L 2535.001038 464.99752 L 2535.023472 2535.008935 L 465.012057 2535.031369 Z M 464.989622 465.019954 " stroke="#000000" stroke-width="13.61" stroke-opacity="1" stroke-miterlimit="1.5"/><path stroke-linecap="round" transform="matrix(0.0351692, 0, 0, 0.0351692, 342.119077, 453.239178)" fill="none" stroke-linejoin="round" d="M 464.996684 465.024908 L 2535.009665 465.024908 L 2535.009665 2535.037889 L 464.996684 2535.037889 Z M 464.996684 465.024908 " stroke="#000000" stroke-width="16.67" stroke-opacity="1" stroke-miterlimit="1.5"/><path stroke-linecap="round" transform="matrix(0.0339709, 0.00910247, -0.00910247, 0.0339709, 357.570294, 441.383202)" fill="none" stroke-linejoin="round" d="M 464.977396 465.057689 L 2534.976954 464.991104 L 2535.043539 2534.990663 L 465.015233 2534.949962 Z M 464.977396 465.057689 " stroke="#000000" stroke-width="16.67" stroke-opacity="1" stroke-miterlimit="1.5"/><path stroke-linecap="round" transform="matrix(0.0304575, 0.0175846, -0.0175846, 0.0304575, 375.563778, 433.929771)" fill="none" stroke-linejoin="round" d="M 465.030717 464.988699 L 2535.004801 464.947038 L 2534.950272 2534.976657 L 464.976189 2535.018318 Z M 465.030717 464.988699 " stroke="#000000" stroke-width="16.67" stroke-opacity="1" stroke-miterlimit="1.5"/><path stroke-linecap="round" transform="matrix(0.0248684, 0.0248684, -0.0248684, 0.0248684, 394.872924, 431.387914)" fill="none" stroke-linejoin="round" d="M 464.965022 465.038623 L 2535.00159 464.960084 L 2534.923052 2534.996652 L 464.965022 2534.996652 Z M 464.965022 465.038623 " stroke="#000000" stroke-width="16.67" stroke-opacity="1" stroke-miterlimit="1.5"/><path stroke-linecap="round" transform="matrix(0.0175846, 0.0304575, -0.0304575, 0.0175846, 414.182432, 433.929987)" fill="none" stroke-linejoin="round" d="M 464.981725 465.030519 L 2535.011344 464.975991 L 2534.969682 2534.950075 L 464.940064 2535.004603 Z M 464.981725 465.030519 " stroke="#000000" stroke-width="16.67" stroke-opacity="1" stroke-miterlimit="1.5"/><path stroke-linecap="round" transform="matrix(0.00910247, 0.0339709, -0.0339709, 0.00910247, 432.175561, 441.382962)" fill="none" stroke-linejoin="round" d="M 464.958747 464.943866 L 2534.958305 465.010451 L 2534.999005 2535.038756 L 464.999447 2534.972171 Z M 464.958747 464.943866 " stroke="#000000" stroke-width="16.67" stroke-opacity="1" stroke-miterlimit="1.5"/><path stroke-linecap="round" transform="matrix(0.0304566, 0, 0, 0.0304566, 349.186708, 460.306807)" fill="none" stroke-linejoin="round" d="M 464.955569 464.988239 L 2535.014437 464.988239 L 2535.014437 2535.047107 L 464.955569 2535.047107 Z M 464.955569 464.988239 " stroke="#000000" stroke-width="19.25" stroke-opacity="1" stroke-miterlimit="1.5"/><path stroke-linecap="round" transform="matrix(0.0294188, 0.00788274, -0.00788274, 0.0294188, 362.562915, 450.03484)" fill="none" stroke-linejoin="round" d="M 465.020464 464.955755 L 2534.972002 465.072217 L 2534.979426 2534.99056 L 465.061083 2534.997983 Z M 465.020464 464.955755 " stroke="#000000" stroke-width="19.25" stroke-opacity="1" stroke-miterlimit="1.5"/><path stroke-linecap="round" transform="matrix(0.0263762, 0.0152283, -0.0152283, 0.0263762, 378.14517, 443.580372)" fill="none" stroke-linejoin="round" d="M 464.966351 464.994656 L 2534.953108 465.036289 L 2535.022548 2534.958918 L 464.924717 2534.981412 Z M 464.966351 464.994656 " stroke="#000000" stroke-width="19.25" stroke-opacity="1" stroke-miterlimit="1.5"/><path stroke-linecap="round" transform="matrix(0.021536, 0.021536, -0.021536, 0.021536, 394.866891, 441.378932)" fill="none" stroke-linejoin="round" d="M 464.97901 464.965245 L 2535.000902 465.055936 L 2535.000902 2534.987137 L 465.069701 2534.987137 Z M 464.97901 464.965245 " stroke="#000000" stroke-width="19.25" stroke-opacity="1" stroke-miterlimit="1.5"/><path stroke-linecap="round" transform="matrix(0.0152283, 0.0263762, -0.0263762, 0.0152283, 411.588977, 443.580516)" fill="none" stroke-linejoin="round" d="M 464.994311 464.957497 L 2534.981067 464.915864 L 2534.958573 2535.013694 L 464.971816 2535.055327 Z M 464.994311 464.957497 " stroke="#000000" stroke-width="19.25" stroke-opacity="1" stroke-miterlimit="1.5"/><path stroke-linecap="round" transform="matrix(0.00788274, 0.0294188, -0.0294188, 0.00788274, 427.170985, 450.034769)" fill="none" stroke-linejoin="round" d="M 464.962077 465.006 L 2535.004305 465.046619 L 2534.996881 2534.964961 L 464.954653 2534.924342 Z M 464.962077 465.006 " stroke="#000000" stroke-width="19.25" stroke-opacity="1" stroke-miterlimit="1.5"/><path stroke-linecap="round" transform="matrix(0.0257453, 0, 0, 0.0257453, 356.254311, 467.374412)" fill="none" stroke-linejoin="round" d="M 465.026813 465.065369 L 2535.035128 465.065369 L 2535.035128 2535.073683 L 465.026813 2535.073683 Z M 465.026813 465.065369 " stroke="#000000" stroke-width="22.77" stroke-opacity="1" stroke-miterlimit="1.5"/><path stroke-linecap="round" transform="matrix(0.024868, 0.00666337, -0.00666337, 0.024868, 367.562449, 458.692429)" fill="none" stroke-linejoin="round" d="M 464.998993 465.03778 L 2534.986184 465.032748 L 2534.991216 2535.019939 L 465.004025 2535.024971 Z M 464.998993 465.03778 " stroke="#000000" stroke-width="22.77" stroke-opacity="1" stroke-miterlimit="1.5"/><path stroke-linecap="round" transform="matrix(0.0222961, 0.0128726, -0.0128726, 0.0222961, 380.734322, 453.236467)" fill="none" stroke-linejoin="round" d="M 465.031115 464.978473 L 2534.97728 464.926756 L 2534.973462 2535.080184 L 464.951433 2535.000502 Z M 465.031115 464.978473 " stroke="#000000" stroke-width="22.77" stroke-opacity="1" stroke-miterlimit="1.5"/><path stroke-linecap="round" transform="matrix(0.018205, 0.018205, -0.018205, 0.018205, 394.872953, 451.378057)" fill="none" stroke-linejoin="round" d="M 464.945656 465.047776 L 2535.010634 464.940491 L 2534.903349 2535.00547 L 464.945656 2535.00547 Z M 464.945656 465.047776 " stroke="#000000" stroke-width="22.77" stroke-opacity="1" stroke-miterlimit="1.5"/><path stroke-linecap="round" transform="matrix(0.0128726, 0.0222961, -0.0222961, 0.0128726, 409.004733, 453.236587)" fill="none" stroke-linejoin="round" d="M 464.959418 465.054803 L 2534.981446 464.975121 L 2535.061128 2534.99715 L 465.039099 2535.076832 Z M 464.959418 465.054803 " stroke="#000000" stroke-width="22.77" stroke-opacity="1" stroke-miterlimit="1.5"/><path stroke-linecap="round" transform="matrix(0.00666337, 0.024868, -0.024868, 0.00666337, 422.176364, 458.692429)" fill="none" stroke-linejoin="round" d="M 465.03244 465.018922 L 2535.019631 465.023954 L 2535.014599 2535.011145 L 465.027408 2535.006113 Z M 465.03244 465.018922 " stroke="#000000" stroke-width="22.77" stroke-opacity="1" stroke-miterlimit="1.5"/></svg>