<svg xmlns="http://www.w3.org/2000/svg" xmlns:xlink="http://www.w3.org/1999/xlink" width="1080" zoomAndPan="magnify" viewBox="0 0 810 1012.49997" height="1350" preserveAspectRatio="xMidYMid meet" version="1.0"><defs><clipPath id="2fb6c4e928"><path d="M 121.640625 258.707031 L 688.359375 258.707031 L 688.359375 827 L 121.640625 827 Z M 121.640625 258.707031 " clip-rule="nonzero"/></clipPath></defs><g clip-path="url(#2fb6c4e928)"><path fill="#949494" d="M 478.828125 805.734375 L 450.816406 770.570312 L 459.460938 755.261719 C 488.273438 785.71875 488.117188 785.664062 488.417969 785.683594 C 488.667969 785.699219 488.863281 785.480469 488.792969 785.550781 C 489.007812 785.347656 488.921875 785.546875 490.890625 758.707031 L 502.742188 728.730469 C 501.285156 750.488281 501.050781 750.203125 501.34375 750.492188 C 502.351562 751.492188 502.253906 750.785156 503.933594 725.722656 L 516.230469 694.628906 C 516.25 711.078125 515.992188 711.082031 516.742188 711.078125 C 517.507812 711.078125 517.234375 711.085938 517.207031 692.160156 L 530.113281 659.515625 C 529.980469 674.34375 529.742188 674.332031 530.476562 674.339844 C 531.238281 674.347656 530.96875 674.347656 531.121094 656.964844 L 544.214844 623.859375 C 545.335938 634.453125 545.132812 634.558594 545.832031 634.484375 C 546.539062 634.410156 546.320312 634.40625 544.992188 621.886719 L 558.691406 587.253906 C 559.699219 596.515625 559.507812 596.660156 560.203125 596.585938 C 560.960938 596.503906 560.664062 596.28125 559.460938 585.304688 L 573.457031 549.914062 C 574.480469 557.90625 574.292969 557.796875 574.949219 557.710938 C 575.65625 557.625 575.433594 557.609375 574.199219 548.03125 L 588.597656 511.628906 C 589.84375 516.910156 589.726562 517.261719 590.394531 517.101562 C 591.074219 516.941406 590.792969 516.644531 589.226562 510.03125 L 620.15625 431.816406 C 621.167969 434.128906 621.242188 434.65625 621.828125 434.402344 C 622.4375 434.132812 622.085938 433.761719 620.667969 430.527344 L 636.667969 390.011719 C 637.277344 391.242188 637.460938 391.96875 638.042969 391.675781 C 638.582031 391.40625 638.304688 391.09375 637.152344 388.785156 L 653.535156 347.511719 C 653.816406 347.972656 654.042969 348.53125 654.546875 348.226562 C 655.050781 347.917969 654.695312 347.519531 653.988281 346.367188 L 670.804688 303.792969 C 671.15625 304.125 672.089844 303.769531 671.207031 302.78125 C 688.355469 259.34375 688.320312 259.480469 688.335938 259.335938 C 688.335938 259.335938 688.339844 259.332031 688.339844 259.332031 C 688.339844 259.332031 688.339844 259.328125 688.339844 259.328125 C 688.339844 259.320312 688.335938 259.304688 688.339844 259.300781 C 688.339844 259.296875 688.339844 259.296875 688.339844 259.292969 C 688.332031 259.230469 688.339844 259.265625 688.328125 259.195312 C 688.328125 259.191406 688.328125 259.191406 688.324219 259.191406 C 688.324219 259.1875 688.320312 259.160156 688.316406 259.152344 C 688.308594 259.136719 688.316406 259.152344 688.304688 259.125 C 688.304688 259.121094 688.304688 259.121094 688.304688 259.121094 C 688.304688 259.121094 688.300781 259.113281 688.300781 259.109375 C 688.300781 259.109375 688.296875 259.105469 688.296875 259.101562 C 688.273438 259.042969 688.253906 259.023438 688.214844 258.972656 C 688.207031 258.964844 688.175781 258.9375 688.171875 258.933594 C 688.15625 258.921875 688.136719 258.898438 688.117188 258.890625 C 688.113281 258.886719 688.109375 258.886719 688.109375 258.886719 C 688.023438 258.828125 688.070312 258.867188 687.96875 258.824219 C 687.496094 258.84375 687.941406 258.753906 641.90625 273.867188 C 641.714844 273.804688 641.496094 273.84375 641.351562 274.050781 L 596.359375 288.824219 C 596.109375 288.710938 595.253906 288.363281 595.328125 289.160156 L 552.429688 303.246094 L 551.597656 303.015625 C 551.1875 302.898438 550.832031 303.320312 551.027344 303.707031 L 509.316406 317.40625 L 507.265625 317.324219 C 506.804688 317.304688 506.566406 317.875 506.933594 318.1875 L 427.949219 344.121094 L 425.441406 343.847656 C 424.945312 343.792969 424.371094 344.722656 425.6875 344.867188 L 388.609375 357.039062 C 387.074219 356.472656 386.484375 356.082031 386.257812 356.695312 C 386.15625 356.96875 386.164062 357.1875 387.105469 357.535156 L 351.273438 369.300781 L 348.808594 368.707031 C 348.175781 368.554688 347.941406 369.507812 348.578125 369.667969 L 349.480469 369.886719 L 314.5 381.375 C 309.707031 381.429688 309.378906 381.257812 309.386719 381.925781 C 309.390625 382.550781 310.007812 382.414062 311.390625 382.398438 L 278.640625 393.148438 L 275.234375 392.53125 C 274.59375 392.414062 274.417969 393.386719 275.058594 393.5 L 276.675781 393.796875 L 243.675781 404.632812 C 237.046875 404.652344 236.96875 404.480469 236.972656 405.144531 C 236.96875 405.808594 237.5 405.636719 240.652344 405.625 L 209.785156 415.757812 L 202.34375 416.210938 C 201.695312 416.25 201.753906 417.238281 202.402344 417.195312 L 206.105469 416.96875 C 170.535156 428.648438 182.234375 425.40625 154.230469 431.6875 C 153.8125 431.890625 154 432.402344 153.960938 432.230469 C 153.960938 432.234375 153.988281 432.304688 154.011719 432.355469 L 180.300781 460.175781 L 167.945312 471.121094 C 137.425781 443.972656 137.597656 443.761719 137.085938 444.332031 C 136.578125 444.90625 136.753906 444.695312 167.34375 471.902344 L 159.761719 487.996094 C 126.105469 463.242188 126.25 463.007812 125.796875 463.625 C 125.339844 464.246094 125.5 464.019531 159.441406 488.988281 L 157.859375 511.648438 C 122.253906 490.988281 122.398438 490.753906 122.011719 491.417969 C 121.628906 492.082031 121.824219 491.878906 157.851562 512.785156 L 162.792969 541.128906 C 126.914062 526.40625 126.945312 526.03125 126.621094 526.820312 C 126.296875 527.609375 126.484375 527.296875 163.035156 542.292969 L 174.992188 574.597656 C 141 567.40625 141.023438 567.089844 140.855469 567.882812 C 140.691406 568.664062 140.757812 568.363281 175.429688 575.699219 L 193.59375 611.472656 C 163.652344 613.066406 163.621094 612.792969 163.664062 613.558594 C 163.707031 614.324219 163.71875 614.050781 194.121094 612.429688 L 219.925781 649.730469 C 195.085938 661.078125 194.925781 660.851562 195.242188 661.550781 C 195.574219 662.257812 195.675781 661.894531 220.527344 650.539062 L 250.695312 686.363281 C 233.476562 707.191406 233.296875 707.019531 233.792969 707.511719 C 234.351562 708.0625 233.179688 709.097656 251.371094 687.089844 L 285.0625 720.210938 C 276.785156 749.105469 276.699219 748.898438 277.019531 749.214844 C 277.886719 750.070312 277.445312 750.378906 285.890625 720.902344 L 320.605469 747.644531 L 321.300781 782.929688 C 321.304688 783.0625 321.359375 783.183594 321.449219 783.269531 C 322.722656 784.53125 322.300781 783.589844 321.601562 748.28125 L 355.1875 768.238281 C 364.328125 808.101562 364.242188 807.933594 364.402344 808.089844 C 366.179688 809.851562 365.0625 806.898438 356.304688 768.726562 L 386.445312 780.589844 L 402.859375 822.453125 C 405.3125 824.878906 401.128906 815.433594 387.601562 780.832031 L 413.632812 784.960938 L 435.746094 826.355469 C 439.296875 829.871094 430.285156 814.074219 414.714844 784.890625 L 435.316406 781.632812 L 460.941406 820.171875 C 461.359375 820.589844 462.023438 820.039062 461.695312 819.550781 L 436.226562 781.222656 L 450.132812 771.289062 L 478.097656 806.394531 C 478.535156 806.824219 479.210938 806.214844 478.828125 805.734375 Z M 450.15625 769.738281 L 423.621094 736.429688 L 431.109375 725.296875 L 458.75 754.511719 Z M 155.394531 432.417969 L 176.410156 427.722656 L 198.183594 455.050781 L 181.164062 459.652344 Z M 459.882812 754.273438 L 462.800781 734.699219 L 489.894531 758.800781 L 488.042969 784.042969 Z M 431.578125 724.355469 L 434.503906 709.53125 L 461.921875 733.917969 L 459.019531 753.363281 Z M 177.691406 427.75 L 201.332031 429.535156 L 218.640625 455.585938 L 199.277344 454.847656 Z M 462.921875 733.488281 L 460.445312 710.394531 L 486.128906 729.285156 L 489.746094 757.347656 Z M 434.667969 708.359375 L 433.660156 690.691406 L 459.371094 709.605469 L 461.824219 732.511719 Z M 234.808594 516.359375 L 243.671875 512.152344 L 263.433594 536.9375 L 257.191406 540.019531 Z M 202.757812 429.90625 L 228.0625 437.164062 L 240.921875 461.269531 L 219.890625 455.6875 Z M 364.144531 401.78125 L 336.660156 413.925781 L 316.078125 403.417969 L 345.699219 391.976562 Z M 460.273438 709.042969 L 453.9375 684.597656 L 476.410156 697.636719 L 485.691406 727.738281 Z M 433.554688 689.390625 L 428.6875 669.945312 L 452.746094 683.90625 L 459.019531 708.121094 Z M 244.820312 512.011719 L 255.988281 511.78125 L 271.945312 535.796875 L 264.40625 536.597656 Z M 229.5 437.769531 L 257.132812 449.796875 L 265.675781 471.652344 L 242.246094 461.660156 Z M 453.5625 683.238281 L 442.179688 656.835938 L 462.21875 665.058594 L 475.773438 696.128906 Z M 428.328125 668.59375 L 419.785156 647.644531 L 440.878906 656.300781 L 452.136719 682.410156 Z M 333.222656 632.160156 L 326.027344 618.632812 L 327.085938 618.773438 L 335.953125 632.113281 Z M 324.15625 628.589844 L 321.566406 617.203125 L 322.832031 617.859375 L 327.664062 630.21875 Z M 257.300781 511.980469 L 269.101562 514.085938 L 281.640625 537.578125 L 273.101562 535.757812 Z M 258.5 450.582031 L 286.09375 466.882812 L 290.386719 485.613281 L 266.960938 472.230469 Z M 441.601562 655.53125 L 427.175781 628.953125 L 443.984375 632.507812 L 461.472656 663.6875 Z M 419.242188 646.355469 L 408.042969 624.90625 L 425.910156 628.683594 L 440.160156 654.941406 Z M 321.277344 615.945312 L 320.109375 610.894531 L 322.289062 616.46875 Z M 270.496094 514.601562 L 284.6875 520.289062 L 292.996094 541.535156 L 282.921875 537.890625 Z M 287.300781 467.738281 L 315.476562 488.148438 L 315.78125 503.640625 L 291.558594 486.308594 Z M 427.355469 450.675781 L 405.925781 466.46875 L 383.589844 446.90625 L 406.800781 432.550781 Z M 426.53125 627.808594 L 408.789062 601.003906 L 422.792969 600.257812 L 443.238281 631.339844 Z M 407.429688 623.765625 L 393.09375 601.839844 L 407.648438 601.066406 L 425.160156 627.515625 Z M 286.027344 521 L 300.300781 528.855469 L 304.597656 547.585938 L 294.246094 542.027344 Z M 493.191406 433.019531 L 508.964844 449.96875 L 488.980469 471.347656 L 471.378906 452.414062 Z M 493.925781 432.367188 L 516.5625 412.144531 L 530.734375 426.675781 L 509.636719 449.246094 Z M 517.296875 411.488281 L 567.640625 366.761719 L 577.320312 376.835938 L 531.40625 425.957031 Z M 568.378906 366.105469 L 595.328125 342.164062 L 602.695312 349.6875 L 577.992188 376.113281 Z M 596.066406 341.507812 L 624.574219 316.179688 L 629.460938 321.046875 L 603.367188 348.964844 Z M 625.3125 315.523438 L 655.402344 288.785156 L 657.582031 290.957031 L 630.132812 320.328125 Z M 656.140625 288.128906 L 680.230469 266.726562 L 658.257812 290.238281 Z M 655.441406 287.433594 L 653.359375 285.355469 L 679.40625 266.140625 Z M 654.703125 288.089844 L 624.609375 314.828125 L 619.808594 310.109375 L 652.558594 285.949219 Z M 623.871094 315.484375 L 595.367188 340.808594 L 588.023438 333.558594 L 619.007812 310.703125 Z M 587.222656 334.152344 L 594.628906 341.464844 L 567.683594 365.40625 L 557.839844 355.828125 Z M 557.035156 356.421875 L 566.941406 366.0625 L 516.605469 410.785156 L 502.496094 396.660156 Z M 501.691406 397.25 L 515.867188 411.445312 L 493.238281 431.65625 L 476.75 415.496094 Z M 475.945312 416.089844 L 492.5 432.316406 L 470.691406 451.707031 L 452.121094 433.648438 Z M 470.640625 453.070312 L 488.304688 472.070312 L 469.445312 492.25 L 449.976562 471.441406 Z M 301.492188 529.640625 L 316.496094 539.765625 L 316.8125 555.871094 L 305.757812 548.246094 Z M 348.664062 567.835938 L 333.886719 553.222656 L 337.535156 540.503906 L 356.015625 558.941406 Z M 322.730469 600.75 L 323.992188 602.179688 L 320.0625 603.976562 Z M 319.625 602.957031 L 320.785156 598.875 L 322.042969 600.035156 Z M 324.652344 602.960938 L 325.796875 604.433594 L 320.855469 604.699219 Z M 324.929688 601.75 L 323.367188 599.980469 L 327.226562 595.3125 L 330.691406 599.117188 Z M 322.671875 599.273438 L 321.089844 597.8125 L 322.992188 591.179688 L 326.535156 594.597656 Z M 319.96875 598.148438 L 318.722656 602.5625 L 318.613281 597.058594 Z M 326.503906 605.382812 L 327.453125 606.847656 L 321.730469 605.636719 Z M 326.996094 604.371094 L 325.574219 602.542969 L 331.34375 599.902344 L 334.285156 603.984375 Z M 331.628906 598.691406 L 327.859375 594.546875 L 333.765625 587.402344 L 340.160156 594.792969 Z M 327.167969 593.835938 L 323.300781 590.109375 L 326.09375 580.378906 L 333.078125 586.6875 Z M 322.214844 590.464844 L 320.265625 597.121094 L 318.589844 595.777344 L 318.421875 587.398438 Z M 317.695312 600.46875 L 316.5625 595.566406 L 317.613281 596.277344 Z M 328.144531 608.003906 L 328.625 609.175781 L 323.242188 606.964844 Z M 328.800781 607.132812 L 327.636719 605.324219 L 334.957031 604.933594 L 337.589844 608.992188 Z M 335.457031 603.921875 L 332.257812 599.488281 L 340.808594 595.582031 L 346.605469 603.328125 Z M 341.09375 594.363281 L 334.398438 586.636719 L 340.949219 578.714844 L 350.734375 589.867188 Z M 333.574219 554.300781 L 348.035156 568.597656 L 340.898438 577.226562 L 330.023438 566.683594 Z M 340.269531 577.988281 L 333.703125 585.929688 L 326.394531 579.324219 L 329.714844 567.757812 Z M 322.511719 589.4375 L 318.398438 586.113281 L 318.152344 573.726562 L 325.304688 579.683594 Z M 317.589844 595.078125 L 316.238281 594.167969 L 314.015625 584.277344 L 317.421875 586.609375 Z M 315.371094 594.796875 L 316.09375 597.910156 L 314.765625 594.515625 Z M 329.144531 610.453125 L 329.441406 611.210938 L 325.683594 609.035156 Z M 329.90625 609.699219 L 329.304688 608.25 L 338.285156 610.148438 L 339.796875 613.757812 Z M 338.941406 609.277344 L 336.089844 604.875 L 347.285156 604.277344 L 351.996094 612.039062 Z M 347.789062 603.265625 L 341.71875 595.15625 L 351.382812 590.652344 L 360.417969 602.589844 Z M 351.667969 589.4375 L 341.585938 577.945312 L 348.71875 569.316406 L 362.546875 584.558594 Z M 329.226562 565.996094 L 317.8125 556.585938 L 317.496094 540.585938 L 332.789062 553.554688 Z M 328.929688 567.027344 L 325.601562 578.648438 L 318.128906 572.429688 L 317.839844 557.882812 Z M 317.398438 585.402344 L 313.699219 582.871094 L 310.429688 568.613281 L 317.152344 572.925781 Z M 312.828125 583.488281 L 315.097656 593.585938 L 314.246094 593.1875 L 309.828125 581.890625 Z M 315.125 598.140625 L 312.738281 593.65625 L 313.480469 593.933594 Z M 329.953125 612.652344 L 330.0625 613.269531 L 326.421875 610.601562 Z M 330.792969 612 L 330.398438 610.96875 L 340.328125 615.042969 L 341.636719 618.289062 Z M 341.085938 614.289062 L 339.449219 610.394531 L 352.664062 613.191406 L 356.058594 620.429688 Z M 353.316406 612.320312 L 348.398438 604.21875 L 361.105469 603.542969 L 368.753906 615.585938 Z M 361.605469 602.527344 L 352.300781 590.234375 L 363.207031 585.34375 L 375.453125 601.792969 Z M 363.492188 584.132812 L 349.351562 568.550781 L 356.707031 559.65625 L 374.726562 579 Z M 375.667969 578.570312 L 357.339844 558.890625 L 365.105469 549.496094 L 386.632812 573.558594 Z M 387.570312 573.128906 L 365.742188 548.730469 L 372.875 540.101562 L 398.015625 568.359375 Z M 372.191406 539.378906 L 365.050781 548.011719 L 341.878906 525.371094 L 345.390625 513.128906 Z M 364.421875 548.773438 L 356.648438 558.179688 L 337.84375 539.425781 L 341.570312 526.445312 Z M 333.085938 552.515625 L 317.472656 539.277344 L 317.15625 523.269531 L 336.742188 539.746094 Z M 316.839844 557.082031 L 317.128906 571.746094 L 310.113281 567.242188 L 306.085938 549.664062 Z M 312.539062 582.222656 L 309.28125 580.484375 L 302.992188 564.398438 L 309.246094 567.871094 Z M 312.996094 592.703125 L 312.039062 592.34375 L 305.476562 580.148438 L 308.503906 581.207031 Z M 311.371094 593.191406 L 311.78125 593.960938 L 311.257812 593.171875 Z M 330.164062 614.566406 L 329.910156 615.175781 L 324.972656 610.761719 Z M 331.21875 614.113281 L 331.066406 613.296875 L 342.183594 619.75 L 342.839844 622.664062 Z M 343.011719 619.089844 L 341.601562 615.566406 L 356.648438 621.738281 L 359.023438 628.378906 Z M 357.402344 620.984375 L 353.867188 613.445312 L 369.457031 616.742188 L 374.984375 628.199219 Z M 370.097656 615.871094 L 362.234375 603.480469 L 376.140625 602.742188 L 387.363281 619.523438 Z M 376.632812 601.730469 L 364.125 584.925781 L 375.394531 579.777344 L 391.265625 600.949219 Z M 392.449219 600.886719 L 376.308594 579.359375 L 387.292969 574.339844 L 406.949219 600.113281 Z M 408.136719 600.050781 L 388.210938 573.921875 L 398.675781 569.140625 L 422.085938 599.308594 Z M 373.554688 539.386719 L 390.613281 524.21875 L 414.621094 550.910156 L 398.835938 567.796875 Z M 391.347656 523.566406 L 409.316406 507.589844 L 431.855469 532.46875 L 415.292969 550.1875 Z M 410.050781 506.9375 L 428.777344 490.289062 L 449.929688 513.128906 L 432.53125 531.746094 Z M 429.511719 489.636719 L 449.238281 472.097656 L 468.769531 492.972656 L 450.605469 512.410156 Z M 428.828125 488.925781 L 406.660156 467.15625 L 428.09375 451.355469 L 448.550781 471.390625 Z M 405.855469 467.746094 L 428.089844 489.582031 L 409.367188 506.226562 L 385.21875 482.957031 Z M 384.417969 483.550781 L 408.628906 506.882812 L 390.664062 522.855469 L 365.046875 498.117188 Z M 364.246094 498.714844 L 389.925781 523.511719 L 372.875 538.671875 L 345.902344 512.25 Z M 344.585938 512.367188 L 341.0625 524.660156 L 316.78125 504.378906 L 316.476562 488.964844 Z M 340.765625 525.695312 L 337.039062 538.710938 L 317.128906 521.964844 L 316.808594 505.683594 Z M 316.472656 538.566406 L 301.171875 528.234375 L 296.777344 509.074219 L 316.152344 522.453125 Z M 304.886719 548.855469 L 308.953125 566.582031 L 302.429688 562.964844 L 294.796875 543.4375 Z M 308.035156 580.003906 L 304.785156 578.863281 L 295.382812 561.246094 L 301.652344 563.679688 Z M 304.125 579.722656 L 310.792969 592.109375 L 310.527344 592.070312 L 302.15625 579.476562 Z M 312.929688 597.464844 L 309.40625 593.042969 L 309.96875 593.015625 Z M 329.488281 616.125 L 329.386719 616.332031 L 327.535156 614.375 Z M 330.6875 615.871094 L 330.980469 615.164062 L 343.050781 624.042969 L 342.476562 626.359375 Z M 344.050781 623.554688 L 343.339844 620.421875 L 359.496094 629.792969 L 360.675781 635.78125 Z M 360.339844 629.144531 L 357.871094 622.242188 L 375.59375 629.511719 L 379.410156 640.207031 Z M 376.347656 628.757812 L 370.667969 617 L 388.113281 620.6875 L 396.429688 636.996094 Z M 388.742188 619.8125 L 377.285156 602.679688 L 391.957031 601.898438 L 406.0625 623.476562 Z M 399.472656 568.558594 L 415.257812 551.671875 L 437.738281 580.0625 L 423.050781 598.949219 Z M 415.9375 550.945312 L 432.5 533.226562 L 453.742188 559.484375 L 438.359375 579.261719 Z M 433.175781 532.5 L 450.574219 513.882812 L 470.214844 538.308594 L 454.363281 558.6875 Z M 451.253906 513.15625 L 469.421875 493.71875 L 487.652344 515.886719 L 470.835938 537.507812 Z M 470.101562 492.996094 L 488.960938 472.816406 L 505.726562 492.652344 L 488.273438 515.089844 Z M 489.636719 472.089844 L 509.625 450.707031 L 524.734375 468.214844 L 506.34375 491.855469 Z M 510.300781 449.984375 L 531.398438 427.410156 L 544.527344 442.765625 L 525.351562 467.421875 Z M 532.074219 426.683594 L 577.996094 377.554688 L 587.382812 387.664062 L 545.144531 441.972656 Z M 578.671875 376.832031 L 603.378906 350.394531 L 610.550781 357.875 L 587.996094 386.875 Z M 604.054688 349.671875 L 630.152344 321.75 L 634.859375 326.625 L 611.164062 357.089844 Z M 630.828125 321.03125 L 658.285156 291.652344 L 660.425781 293.757812 L 635.472656 325.839844 Z M 658.957031 290.929688 L 680.78125 267.582031 L 661.042969 292.960938 Z M 652.65625 284.652344 L 650.699219 282.703125 L 678.191406 265.8125 Z M 649.835938 283.234375 L 651.851562 285.242188 L 619.097656 309.410156 L 614.535156 304.921875 Z M 613.671875 305.453125 L 618.292969 310 L 587.308594 332.863281 L 580.175781 326.03125 Z M 579.304688 326.566406 L 586.503906 333.457031 L 557.121094 355.132812 L 547.628906 346.027344 Z M 546.761719 346.558594 L 556.316406 355.726562 L 501.773438 395.964844 L 487.4375 383.007812 Z M 486.5625 383.546875 L 500.964844 396.5625 L 476.019531 414.808594 L 459.496094 400.175781 Z M 458.617188 400.714844 L 475.210938 415.40625 L 451.390625 432.960938 L 432.855469 416.542969 Z M 451.316406 434.242188 L 469.953125 452.363281 L 449.289062 470.734375 L 428.898438 450.765625 Z M 382.710938 447.445312 L 405.113281 467.066406 L 384.484375 482.273438 L 360.332031 461.203125 Z M 359.453125 461.742188 L 383.675781 482.875 L 364.3125 497.4375 L 338.21875 474.792969 Z M 337.339844 475.335938 L 363.5 498.039062 L 345.164062 511.570312 L 316.804688 487.957031 Z M 315.804688 504.867188 L 316.128906 521.242188 L 296.453125 507.652344 L 291.890625 487.757812 Z M 300.007812 527.570312 L 285.46875 519.574219 L 276.765625 497.308594 L 295.582031 508.265625 Z M 293.46875 542.75 L 301.167969 562.4375 L 294.671875 559.910156 L 283.613281 539.183594 Z M 303.558594 578.65625 L 301.4375 578.394531 L 289.3125 560.152344 L 294.007812 560.761719 Z M 309.339844 592.066406 L 308.648438 592.097656 L 298.738281 579.667969 L 300.910156 579.386719 Z M 312.402344 598.382812 L 307.835938 593.554688 L 308.316406 593.25 Z M 310.613281 597.921875 L 307.113281 594.792969 L 307.261719 594.378906 Z M 309.253906 598.03125 L 306.878906 596.292969 L 306.917969 595.941406 Z M 310.878906 600.441406 L 307.121094 598.261719 L 307.023438 597.617188 Z M 312.707031 602.644531 L 307.824219 600.640625 L 307.507812 599.628906 Z M 312.8125 603.75 L 308.816406 602.90625 L 308.375 601.929688 Z M 314.195312 605.050781 L 310.136719 605.269531 L 309.4375 604.046875 Z M 315.722656 605.957031 L 311.917969 607.695312 L 310.804688 606.21875 Z M 316.566406 606.65625 L 313.867188 609.921875 L 312.574219 608.480469 Z M 317.425781 607.167969 L 316.03125 612.109375 L 314.546875 610.644531 Z M 317.867188 609.144531 L 317.960938 613.824219 L 316.8125 612.855469 Z M 318.867188 609.894531 L 320.117188 615.289062 L 318.960938 614.625 Z M 322.261719 613.691406 L 324.148438 617.246094 L 323.589844 617.09375 Z M 322.136719 611.324219 L 326.363281 617.6875 L 325.460938 617.570312 Z M 326.375 615.921875 L 327.804688 617.714844 L 327.597656 617.761719 Z M 327.574219 615.851562 L 328.828125 617.179688 L 328.71875 617.289062 Z M 330.109375 617.097656 L 330.253906 616.804688 L 342.15625 627.394531 L 341.417969 629.089844 Z M 343.304688 627.09375 L 343.910156 624.675781 L 360.890625 637.164062 L 360.5 642.386719 Z M 361.851562 636.648438 L 360.625 630.449219 L 379.890625 641.628906 L 382.257812 651.660156 Z M 380.722656 640.972656 L 376.816406 630.015625 L 397.078125 638.328125 L 402.574219 653.648438 Z M 397.824219 637.570312 L 389.347656 620.949219 L 406.796875 624.640625 L 417.828125 645.777344 Z M 423.652344 599.777344 L 438.335938 580.898438 L 458.175781 609.941406 L 444.304688 631.171875 Z M 438.972656 580.082031 L 454.347656 560.3125 L 473.082031 587.125 L 458.757812 609.046875 Z M 454.984375 559.496094 L 470.828125 539.125 L 488.429688 563.632812 L 473.664062 586.234375 Z M 471.457031 538.316406 L 488.269531 516.699219 L 504.523438 538.996094 L 489.007812 562.75 Z M 488.898438 515.890625 L 506.351562 493.449219 L 521.269531 513.363281 L 505.101562 538.113281 Z M 506.980469 492.644531 L 525.371094 469 L 538.925781 486.34375 L 521.84375 512.488281 Z M 525.996094 468.195312 L 545.171875 443.539062 L 557.285156 458.242188 L 539.496094 485.46875 Z M 545.792969 442.742188 L 588.050781 388.410156 L 596.542969 398.148438 L 557.847656 457.378906 Z M 588.667969 387.617188 L 611.226562 358.613281 L 617.664062 365.820312 L 597.105469 397.292969 Z M 611.84375 357.820312 L 635.546875 327.347656 L 639.824219 331.90625 L 618.222656 364.96875 Z M 636.160156 326.558594 L 661.136719 294.445312 L 663.078125 296.3125 L 640.378906 331.058594 Z M 661.75 293.65625 L 680.890625 269.046875 L 663.621094 295.480469 Z M 649.980469 281.988281 L 648.265625 280.296875 L 676.273438 265.832031 Z M 647.34375 280.773438 L 649.113281 282.519531 L 613.804688 304.214844 L 609.582031 300.277344 Z M 612.929688 304.75 L 579.429688 325.332031 L 572.8125 319.265625 L 608.652344 300.757812 Z M 571.878906 319.75 L 578.558594 325.867188 L 546.882812 345.328125 L 537.890625 337.304688 Z M 536.953125 337.789062 L 546.007812 345.867188 L 486.660156 382.328125 L 472.832031 370.90625 Z M 471.878906 371.398438 L 485.773438 382.875 L 458.710938 399.5 L 442.761719 386.433594 Z M 441.808594 386.925781 L 457.824219 400.046875 L 432.066406 415.871094 L 413.941406 401.320312 Z M 431.976562 417.082031 L 450.578125 433.558594 L 428.164062 450.078125 L 407.679688 432.011719 Z M 382.792969 446.238281 L 360.179688 429.085938 L 385.371094 416.074219 L 405.988281 431.894531 Z M 359.210938 429.585938 L 381.890625 446.792969 L 359.53125 460.535156 L 334.925781 442.128906 Z M 333.953125 442.632812 L 358.628906 461.089844 L 337.414062 474.128906 L 310.84375 454.566406 Z M 309.867188 455.070312 L 336.511719 474.6875 L 315.984375 487.304688 L 287.464844 466.640625 Z M 290.6875 486.917969 L 295.28125 506.949219 L 276.191406 495.835938 L 267.53125 473.6875 Z M 284.199219 519.03125 L 269.777344 513.25 L 256.820312 488.96875 L 275.40625 496.539062 Z M 282.242188 538.710938 L 293.4375 559.695312 L 288.589844 559.0625 L 273.882812 536.933594 Z M 300.304688 578.46875 L 298.019531 578.765625 L 283.398438 560.429688 L 288.054688 560.039062 Z M 297.710938 579.9375 L 307.699219 592.476562 L 307.144531 592.824219 L 295.96875 581.011719 Z M 306.5 593.578125 L 306.316406 594.085938 L 294.253906 583.398438 L 295.28125 581.714844 Z M 306.019531 595.136719 L 305.964844 595.613281 L 293.917969 586.679688 L 294.046875 584.535156 Z M 305.902344 596.796875 L 306.03125 597.628906 L 294.316406 590.832031 L 294.011719 587.976562 Z M 306.257812 598.902344 L 306.644531 600.15625 L 295.851562 595.726562 L 294.648438 592.164062 Z M 307.050781 601.390625 L 307.625 602.652344 L 297.65625 600.546875 L 296.316406 596.984375 Z M 308.148438 603.773438 L 309.039062 605.328125 L 300.738281 605.769531 L 298.285156 601.6875 Z M 309.625 606.28125 L 311.003906 608.113281 L 304.371094 611.144531 L 301.367188 606.722656 Z M 311.636719 608.910156 L 313.230469 610.6875 L 308.734375 616.128906 L 305.003906 611.941406 Z M 313.917969 611.40625 L 315.722656 613.191406 L 313.539062 620.820312 L 309.417969 616.851562 Z M 314.335938 621.558594 L 316.515625 613.890625 L 317.984375 615.125 L 318.175781 624.742188 Z M 318.984375 615.769531 L 320.417969 616.597656 L 323.011719 627.90625 L 319.175781 625.535156 Z M 324.039062 618.234375 L 324.78125 618.433594 L 331.910156 631.792969 L 328.945312 630.792969 Z M 328.183594 618.644531 L 328.492188 618.578125 L 338.808594 631.53125 L 337.074219 632.019531 Z M 329.335938 618.066406 L 329.503906 617.894531 L 340.875 629.953125 L 339.699219 631.074219 Z M 342.152344 629.867188 L 342.929688 628.078125 L 360.324219 643.550781 L 358.710938 647.351562 Z M 361.425781 643.210938 L 361.828125 637.855469 L 382.539062 653.089844 L 382.066406 661.570312 Z M 383.484375 652.558594 L 381.0625 642.308594 L 403.058594 655.070312 L 406.488281 669.480469 Z M 403.890625 654.414062 L 398.300781 638.832031 L 418.507812 647.121094 L 426.9375 667.789062 Z M 444.882812 632.089844 L 458.738281 610.882812 L 475.523438 640.390625 L 462.589844 663.667969 Z M 459.34375 609.953125 L 473.65625 588.046875 L 489.65625 614.960938 L 476.082031 639.382812 Z M 474.257812 587.128906 L 489.015625 564.539062 L 504.128906 588.910156 L 490.207031 613.964844 Z M 489.609375 563.628906 L 505.121094 539.886719 L 519.265625 561.671875 L 504.679688 587.921875 Z M 505.710938 538.984375 L 521.882812 514.234375 L 534.964844 533.417969 L 519.804688 560.699219 Z M 522.464844 513.339844 L 539.550781 487.191406 L 551.421875 503.796875 L 535.5 532.457031 Z M 540.128906 486.304688 L 557.921875 459.066406 L 568.449219 473.160156 L 551.953125 502.84375 Z M 558.496094 458.191406 L 597.210938 398.929688 L 604.75 407.832031 L 568.972656 472.214844 Z M 597.773438 398.070312 L 618.339844 366.59375 L 624.003906 373.175781 L 605.261719 406.910156 Z M 618.898438 365.734375 L 640.511719 332.652344 L 644.261719 336.726562 L 624.515625 372.257812 Z M 641.070312 331.800781 L 663.800781 297.003906 L 665.453125 298.589844 L 644.765625 335.820312 Z M 664.34375 296.179688 L 680.722656 271.105469 L 665.941406 297.707031 Z M 647.535156 279.566406 L 646.191406 278.175781 L 673.515625 266.148438 Z M 646.621094 280.039062 L 608.816406 299.5625 L 605.21875 296.210938 L 645.230469 278.597656 Z M 604.238281 296.644531 L 607.886719 300.042969 L 572.027344 318.5625 L 566.042969 313.496094 Z M 565.039062 313.941406 L 571.078125 319.054688 L 537.085938 336.609375 L 528.796875 329.90625 Z M 527.78125 330.355469 L 536.132812 337.101562 L 471.996094 370.226562 L 459.433594 360.460938 Z M 458.410156 360.914062 L 471.03125 370.726562 L 441.910156 385.765625 L 426.582031 374.933594 Z M 425.535156 375.398438 L 440.925781 386.273438 L 413.078125 400.65625 L 395.730469 388.894531 Z M 412.984375 401.8125 L 431.175781 416.417969 L 406.882812 431.34375 L 386.335938 415.578125 Z M 359.289062 428.4375 L 337.679688 414.554688 L 365.214844 402.386719 L 384.460938 415.4375 Z M 336.601562 415.03125 L 358.277344 428.957031 L 334.023438 441.484375 L 310.300781 426.648438 Z M 309.214844 427.128906 L 333.007812 442.011719 L 309.929688 453.929688 L 283.800781 438.355469 Z M 282.699219 438.84375 L 308.902344 454.460938 L 286.542969 466.007812 L 258.589844 449.496094 Z M 266.175781 472.933594 L 274.914062 495.28125 L 256.097656 487.617188 L 242.984375 463.039062 Z M 268.511719 512.976562 L 256.554688 510.855469 L 239.257812 484.832031 L 255.410156 488.421875 Z M 272.558594 536.722656 L 287.433594 559.101562 L 282.660156 559.503906 L 265.136719 537.511719 Z M 297.09375 579.160156 L 295.277344 580.28125 L 278.980469 563.054688 L 282.359375 560.675781 Z M 294.578125 580.976562 L 293.503906 582.734375 L 275.816406 567.066406 L 278.277344 563.746094 Z M 293.113281 583.707031 L 292.976562 585.984375 L 274.667969 572.515625 L 275.480469 568.082031 Z M 292.941406 587.183594 L 293.261719 590.21875 L 275.402344 579.855469 L 274.738281 573.792969 Z M 293.390625 591.433594 C 293.410156 591.628906 293.234375 591.054688 294.644531 595.230469 L 277.835938 588.335938 L 275.75 581.199219 Z M 295.070312 596.472656 L 296.519531 600.304688 L 281.621094 597.152344 L 278.355469 589.613281 Z M 296.976562 601.410156 L 299.625 605.828125 L 286.542969 606.523438 L 282.195312 598.285156 Z M 300.21875 606.785156 L 303.464844 611.558594 L 293.527344 616.101562 L 287.1875 607.476562 Z M 304.070312 612.367188 L 308.097656 616.898438 L 301.292969 625.132812 L 294.167969 616.890625 Z M 301.972656 625.851562 L 308.789062 617.613281 L 313.230469 621.890625 L 309.976562 633.257812 Z M 314.042969 622.59375 L 318.203125 626.035156 L 318.484375 640.441406 L 310.78125 633.984375 Z M 319.199219 626.703125 L 323.320312 629.25 L 327.210938 646.222656 L 319.488281 641.246094 Z M 324.433594 629.800781 L 328.179688 631.542969 L 335.476562 650.199219 L 328.367188 646.941406 Z M 329.414062 631.988281 L 332.585938 633.0625 L 343.074219 652.714844 L 336.753906 650.761719 Z M 333.742188 633.136719 L 336.601562 633.085938 L 349.6875 652.78125 L 344.359375 653.035156 Z M 337.648438 632.882812 L 339.476562 632.371094 L 354.660156 651.429688 L 350.785156 652.648438 Z M 340.316406 631.847656 L 341.550781 630.667969 L 358.191406 648.214844 L 355.523438 650.9375 Z M 359.449219 648.132812 L 361.101562 644.242188 L 381.941406 662.777344 L 379.921875 669.75 Z M 383.003906 662.40625 L 383.488281 653.785156 L 406.792969 670.929688 L 406.980469 683.730469 Z M 407.71875 670.386719 L 404.230469 655.753906 L 427.507812 669.257812 L 432.320312 688.480469 Z M 463.140625 664.707031 L 476.050781 641.472656 L 489.378906 670.113281 L 476.847656 696.125 Z M 476.640625 640.410156 L 490.195312 616.015625 L 502.949219 641.945312 L 489.929688 668.96875 Z M 490.777344 614.96875 L 504.683594 589.941406 L 516.707031 613.386719 L 503.492188 640.820312 Z M 505.257812 588.90625 L 519.832031 562.679688 L 531.105469 583.503906 L 517.242188 612.273438 Z M 520.398438 561.660156 L 535.554688 534.386719 L 546.140625 552.292969 L 531.632812 582.410156 Z M 536.109375 533.386719 L 552.023438 504.746094 L 561.527344 520.359375 L 546.652344 551.230469 Z M 552.574219 503.757812 L 569.066406 474.078125 L 577.535156 487.128906 L 562.035156 519.300781 Z M 569.609375 473.101562 L 605.402344 408.683594 L 611.414062 416.808594 L 578.035156 486.089844 Z M 605.929688 407.738281 L 624.683594 373.988281 L 629.324219 379.636719 L 611.898438 415.804688 Z M 625.195312 373.0625 L 644.960938 337.492188 L 648.023438 340.820312 L 629.796875 378.65625 Z M 645.46875 336.582031 L 666.1875 299.292969 L 667.449219 300.503906 L 648.484375 339.867188 Z M 666.679688 298.410156 L 680.058594 274.332031 L 667.894531 299.578125 Z M 668.378906 267.332031 L 645.464844 277.417969 L 644.582031 276.503906 Z M 643.832031 275.722656 L 643.425781 275.304688 L 659.113281 269.839844 Z M 644.503906 277.839844 L 604.425781 295.484375 L 601.640625 293.050781 L 643.582031 276.886719 Z M 603.425781 295.925781 L 565.199219 312.792969 L 560.410156 308.917969 L 600.578125 293.460938 Z M 564.1875 313.238281 L 527.921875 329.214844 L 520.988281 324.085938 L 559.351562 309.324219 Z M 519.898438 324.503906 L 526.882812 329.671875 L 458.523438 359.785156 L 447.089844 352.542969 Z M 445.945312 352.980469 L 457.441406 360.265625 L 425.632812 374.277344 L 412.417969 365.894531 Z M 411.28125 366.332031 L 424.554688 374.761719 L 394.757812 388.253906 L 378.957031 378.777344 Z M 394.675781 389.371094 L 412.082031 401.171875 L 385.457031 414.921875 L 366.277344 401.917969 Z M 314.851562 403.890625 L 335.5 414.4375 L 309.261719 426.03125 L 286.425781 414.871094 Z M 285.179688 415.351562 L 308.085938 426.550781 L 282.738281 437.75 L 257.507812 426.039062 Z M 256.234375 426.53125 L 281.539062 438.277344 L 257.515625 448.890625 L 229.691406 436.78125 Z M 241.554688 462.453125 L 254.804688 487.285156 L 238.472656 483.644531 L 220.714844 456.925781 Z M 255.347656 510.816406 L 244.046875 511.039062 L 222.792969 484.363281 L 237.90625 484.574219 Z M 264.0625 537.726562 L 281.742188 559.90625 L 278.296875 562.328125 L 257.902344 540.769531 Z M 277.589844 563.015625 L 275.078125 566.410156 L 253.089844 546.855469 L 257.128906 541.390625 Z M 274.617188 567.320312 L 273.785156 571.867188 L 250.824219 554.980469 L 252.699219 547.824219 Z M 273.660156 573 L 274.351562 579.246094 L 251.332031 565.886719 L 250.808594 556.195312 Z M 274.523438 580.488281 L 276.671875 587.859375 L 254.601562 578.800781 L 251.613281 567.191406 Z M 277.054688 589.078125 L 280.441406 596.902344 L 260.96875 592.785156 L 255.144531 580.089844 Z M 280.945312 598.019531 L 285.464844 606.582031 L 268.949219 607.460938 L 261.570312 593.921875 Z M 286.015625 607.539062 L 292.609375 616.511719 L 279.5 622.367188 L 269.582031 608.414062 Z M 293.234375 617.3125 L 300.65625 625.902344 L 291.894531 636.625 L 280.136719 623.160156 Z M 292.574219 637.355469 L 301.351562 626.613281 L 309.671875 634.320312 L 305.234375 649.804688 Z M 310.484375 635.019531 L 318.511719 641.742188 L 318.886719 660.613281 L 306.035156 650.546875 Z M 319.511719 642.429688 L 327.527344 647.59375 L 332.664062 670.011719 L 319.886719 661.378906 Z M 328.644531 648.148438 L 335.988281 651.515625 L 345.46875 675.765625 L 333.832031 670.765625 Z M 337.210938 651.929688 L 343.730469 653.953125 L 357.105469 679.015625 L 346.726562 676.277344 Z M 344.875 653.996094 L 350.324219 653.738281 L 367.015625 678.855469 L 358.359375 679.273438 Z M 351.351562 653.503906 L 355.320312 652.257812 L 374.371094 676.175781 L 368.09375 678.699219 Z M 356.140625 651.714844 L 358.871094 648.933594 L 379.488281 670.726562 L 375.179688 675.617188 Z M 380.707031 670.578125 L 382.757812 663.503906 L 406.9375 685.011719 L 404.175781 695.386719 Z M 407.980469 684.621094 L 407.789062 671.660156 L 432.640625 689.941406 L 433.628906 707.433594 Z M 477.351562 697.347656 L 489.835938 671.4375 L 498.886719 699.070312 L 486.667969 727.585938 Z M 490.449219 670.160156 L 503.425781 643.226562 L 512.191406 668.015625 L 499.46875 697.707031 Z M 504.027344 641.976562 L 517.203125 614.628906 L 525.59375 636.742188 L 512.761719 666.691406 Z M 517.792969 613.40625 L 531.628906 584.6875 L 539.730469 603.746094 L 526.148438 635.441406 Z M 532.195312 583.507812 L 546.679688 553.441406 L 554.152344 570.078125 L 540.265625 602.5 Z M 547.238281 552.285156 L 562.09375 521.449219 L 569.046875 535.316406 L 554.679688 568.855469 Z M 562.632812 520.328125 L 578.121094 488.1875 L 584.269531 499.792969 L 569.554688 534.136719 Z M 578.652344 487.085938 L 612.046875 417.765625 L 616.457031 424.671875 L 584.765625 498.632812 Z M 612.550781 416.722656 L 630.003906 380.511719 L 633.433594 385.042969 L 616.925781 423.578125 Z M 630.484375 379.515625 L 648.746094 341.628906 L 650.957031 344.148438 L 633.882812 384 Z M 649.210938 340.664062 L 668.191406 301.21875 L 669.011719 302.003906 L 651.386719 343.144531 Z M 668.640625 300.289062 L 678.636719 279.542969 L 669.425781 301.042969 Z M 642.402344 275.664062 L 642.832031 276.109375 L 600.777344 292.300781 L 599.054688 290.835938 Z M 597.976562 291.210938 L 599.710938 292.710938 L 559.511719 308.191406 L 556.445312 305.710938 Z M 555.355469 306.089844 L 558.457031 308.601562 L 520.027344 323.398438 L 514.953125 320.195312 Z M 513.769531 320.609375 L 518.882812 323.839844 L 446.023438 351.894531 L 436.902344 347.441406 Z M 435.597656 347.898438 L 444.773438 352.378906 L 411.347656 365.25 L 400.105469 360.289062 Z M 398.75 360.761719 L 410.050781 365.746094 L 377.847656 378.148438 L 364.429688 372.742188 Z M 377.800781 379.226562 L 393.660156 388.742188 L 365.285156 401.277344 L 346.898438 391.503906 Z M 314.871094 402.828125 L 296.871094 396.328125 L 328.625 385.242188 L 344.378906 391.429688 Z M 295.40625 396.839844 L 313.476562 403.367188 L 285.1875 414.292969 L 264.699219 407.558594 Z M 263.183594 408.089844 L 283.742188 414.847656 L 256.234375 425.472656 L 233.425781 418.476562 Z M 231.867188 419.019531 L 254.75 426.046875 L 228.378906 436.234375 L 203.234375 429.015625 Z M 219.3125 456.597656 L 237.242188 483.578125 L 221.996094 483.363281 L 200.089844 455.867188 Z M 243.042969 511.359375 L 234.097656 515.609375 L 209.148438 489.234375 L 221.597656 484.445312 Z M 256.441406 540.664062 L 252.351562 546.195312 L 227.417969 524.019531 L 233.988281 516.929688 Z M 251.875 547.089844 L 249.96875 554.351562 L 223.722656 535.046875 L 226.953125 524.921875 Z M 249.78125 555.4375 L 250.324219 565.300781 L 223.914062 549.976562 L 223.65625 536.222656 Z M 250.429688 566.503906 L 253.472656 578.339844 L 228.070312 567.914062 L 224.167969 551.265625 Z M 253.820312 579.546875 L 259.769531 592.53125 L 236.417969 587.589844 L 228.566406 569.183594 Z M 260.300781 593.652344 L 267.863281 607.519531 L 247.90625 608.582031 L 237.007812 588.726562 Z M 268.421875 608.476562 L 278.589844 622.78125 L 262.667969 630.195312 L 248.523438 609.535156 Z M 279.203125 623.585938 L 291.261719 637.394531 L 280.113281 650.777344 L 263.292969 630.992188 Z M 280.789062 651.503906 L 291.941406 638.117188 L 304.925781 650.878906 L 299.640625 669.335938 Z M 305.746094 651.566406 L 318.910156 661.882812 L 319.367188 685.03125 L 300.449219 670.0625 Z M 319.910156 662.582031 L 332.984375 671.40625 L 339.054688 697.871094 L 320.367188 685.796875 Z M 334.101562 671.945312 L 345.96875 677.046875 L 357.363281 706.195312 L 340.214844 698.59375 Z M 347.171875 677.410156 L 357.738281 680.203125 L 373.515625 709.773438 L 358.621094 706.703125 Z M 358.875 680.234375 L 367.648438 679.808594 L 387.183594 709.207031 L 374.730469 709.957031 Z M 368.652344 679.535156 L 375.011719 676.984375 L 396.855469 704.40625 L 388.230469 709.003906 Z M 375.804688 676.402344 L 380.167969 671.445312 L 403.765625 696.386719 L 397.613281 703.78125 Z M 404.96875 696.226562 L 407.761719 685.742188 L 433.648438 708.769531 L 430.746094 723.476562 Z M 487.09375 729.097656 L 499.179688 700.882812 L 502.9375 725.550781 L 490.648438 756.632812 Z M 499.910156 699.175781 L 512.507812 669.78125 L 516.214844 691.976562 L 503.660156 723.730469 Z M 513.21875 668.117188 L 525.972656 638.351562 L 530.113281 656.820312 L 516.910156 690.210938 Z M 526.632812 636.8125 L 540.125 605.324219 L 543.980469 621.753906 L 530.757812 655.191406 Z M 540.773438 603.808594 L 554.59375 571.554688 L 558.445312 585.171875 L 544.613281 620.152344 Z M 555.207031 570.121094 L 569.527344 536.703125 L 573.175781 547.90625 L 559.035156 583.671875 Z M 570.113281 535.335938 L 584.789062 501.085938 L 588.179688 509.960938 L 573.742188 546.480469 Z M 585.34375 499.789062 L 617.054688 425.769531 L 619.582031 430.542969 L 588.714844 508.609375 Z M 617.554688 424.609375 L 634.109375 386.003906 L 636.0625 388.859375 L 620.058594 429.339844 Z M 634.566406 384.933594 L 651.683594 345.019531 L 652.878906 346.492188 L 636.5 387.757812 Z M 652.121094 343.996094 L 669.78125 302.742188 L 670.054688 303.003906 L 653.296875 345.445312 Z M 670.195312 301.777344 L 674.644531 291.390625 L 670.445312 302.015625 Z M 598.167969 290.101562 L 597.390625 289.523438 L 636.613281 276.644531 Z M 596.246094 289.898438 L 597.042969 290.492188 L 555.503906 304.996094 L 553.632812 303.890625 Z M 552.382812 304.300781 L 554.289062 305.417969 L 513.863281 319.53125 L 510.695312 317.988281 Z M 509.351562 318.429688 L 512.554688 319.988281 L 435.632812 346.839844 L 429.519531 344.644531 Z M 434.15625 347.355469 L 398.753906 359.714844 L 390.339844 357.511719 L 427.996094 345.144531 Z M 397.097656 360.292969 L 363.011719 372.191406 L 353.082031 369.746094 L 388.617188 358.074219 Z M 363.023438 373.234375 L 376.523438 378.671875 L 345.730469 390.90625 L 330.042969 384.75 Z M 295.367188 395.808594 L 280.765625 393.492188 L 314.613281 382.375 L 326.792969 384.839844 Z M 293.414062 396.488281 L 263.125 407.0625 L 245.984375 404.910156 L 278.714844 394.164062 Z M 261.050781 407.789062 L 231.800781 418 L 212.21875 416 L 243.804688 405.628906 Z M 229.625 418.761719 L 201.542969 428.5625 L 179.109375 426.871094 L 209.933594 416.75 Z M 198.851562 455.894531 L 220.953125 483.636719 L 208.414062 488.460938 L 181.933594 460.46875 Z M 233.308594 516.210938 L 226.679688 523.363281 L 198.773438 498.542969 L 208.261719 489.730469 Z M 226.148438 524.207031 L 222.886719 534.429688 L 193.464844 512.789062 L 198.261719 499.402344 Z M 222.65625 535.484375 L 222.917969 549.398438 L 192.875 531.964844 L 193.347656 513.925781 Z M 222.996094 550.585938 L 226.957031 567.460938 L 197.882812 555.527344 L 193.089844 533.234375 Z M 227.273438 568.652344 L 235.242188 587.34375 L 208.050781 581.589844 L 198.324219 556.773438 Z M 235.738281 588.457031 L 246.816406 608.640625 L 222.566406 609.929688 L 208.597656 582.714844 Z M 247.371094 609.597656 L 261.761719 630.613281 L 243.074219 639.152344 L 223.183594 610.882812 Z M 262.367188 631.421875 L 279.476562 651.546875 L 266.742188 666.949219 L 243.703125 639.949219 Z M 280.160156 652.261719 L 299.335938 670.398438 L 292.882812 692.921875 L 267.414062 667.683594 Z M 300.15625 671.085938 L 319.390625 686.304688 L 319.929688 713.382812 L 293.6875 693.667969 Z M 320.390625 686.984375 L 339.367188 699.242188 L 346.417969 729.996094 L 320.929688 714.113281 Z M 340.492188 699.789062 L 357.875 707.5 L 370.804688 740.578125 L 347.578125 730.691406 Z M 359.050781 707.796875 L 374.121094 710.902344 L 392.199219 744.785156 L 372.050781 741.054688 Z M 375.242188 710.914062 L 387.816406 710.15625 L 409.792969 743.226562 L 393.394531 744.929688 Z M 388.78125 709.828125 L 397.480469 705.191406 L 422.273438 736.316406 L 410.808594 742.976562 Z M 398.242188 704.570312 L 404.445312 697.109375 L 430.417969 724.5625 L 422.976562 735.621094 Z M 361.3125 372.785156 L 328.601562 384.207031 L 316.507812 381.753906 L 351.292969 370.332031 Z M 180.976562 460.894531 L 207.582031 489.015625 L 198.035156 497.882812 L 168.6875 471.78125 Z M 168.109375 472.585938 L 197.464844 498.695312 L 192.636719 512.179688 L 160.570312 488.59375 Z M 160.378906 489.675781 L 192.378906 513.214844 L 191.902344 531.402344 L 158.808594 512.199219 Z M 158.960938 513.429688 L 191.9375 532.5625 L 196.785156 555.078125 L 163.863281 541.570312 Z M 164.265625 542.796875 L 197.074219 556.261719 L 206.898438 581.347656 L 176.128906 574.839844 Z M 176.664062 575.960938 L 207.355469 582.453125 L 221.492188 609.988281 L 194.664062 611.414062 Z M 195.273438 612.371094 L 222.023438 610.945312 L 242.164062 639.570312 L 220.832031 649.3125 Z M 221.457031 650.113281 L 242.773438 640.375 L 266.105469 667.71875 L 251.332031 685.59375 Z M 252 686.328125 L 266.785156 668.445312 L 292.574219 693.996094 L 285.371094 719.136719 Z M 286.179688 719.886719 L 293.398438 694.675781 L 319.953125 714.632812 L 320.582031 746.386719 Z M 321.582031 747.125 L 320.953125 715.285156 L 346.726562 731.34375 L 354.882812 766.917969 Z M 356.039062 767.570312 L 347.851562 731.871094 L 371.308594 741.863281 L 385.957031 779.339844 Z M 387.183594 779.769531 L 372.472656 742.136719 L 392.792969 745.898438 L 413.050781 783.871094 Z M 414.222656 783.96875 L 393.894531 745.871094 L 410.410156 744.15625 L 434.714844 780.730469 Z M 435.679688 780.398438 L 411.355469 743.796875 L 422.894531 737.09375 L 449.515625 770.519531 Z M 435.679688 780.398438 " fill-opacity="1" fill-rule="nonzero"/><path fill="#000000" d="M 478.847656 806.300781 C 491.65625 779.667969 483.699219 798.804688 511.699219 725.222656 C 511.734375 725.167969 511.757812 725.105469 511.765625 725.042969 C 518.429688 707.527344 681.664062 277 688.308594 259.476562 C 688.3125 259.46875 688.3125 259.445312 688.316406 259.4375 C 688.320312 259.417969 688.335938 259.332031 688.335938 259.324219 C 688.335938 259.316406 688.335938 259.3125 688.335938 259.304688 C 688.335938 259.300781 688.339844 259.300781 688.339844 259.285156 C 688.339844 259.277344 688.335938 259.273438 688.335938 259.265625 C 688.332031 259.214844 688.332031 259.199219 688.3125 259.148438 C 688.3125 259.144531 688.3125 259.140625 688.3125 259.140625 C 688.3125 259.136719 688.3125 259.136719 688.308594 259.136719 C 688.277344 259.03125 688.28125 259.058594 688.21875 258.984375 C 688.21875 258.980469 688.214844 258.972656 688.210938 258.972656 C 688.210938 258.96875 688.152344 258.917969 688.144531 258.910156 C 688.144531 258.910156 688.140625 258.910156 688.140625 258.90625 C 687.988281 258.792969 687.867188 258.800781 687.75 258.824219 L 595.171875 288.808594 L 154.148438 431.726562 L 137.148438 444.28125 C 136.953125 444.4375 125.472656 464.234375 125.757812 463.691406 L 121.949219 491.636719 L 126.609375 527.167969 L 140.898438 568.203125 L 163.746094 613.804688 L 195.308594 661.65625 C 195.378906 661.726562 233.699219 707.417969 233.796875 707.515625 L 233.800781 707.515625 L 277.066406 749.257812 L 321.550781 783.347656 L 364.460938 808.136719 C 364.472656 808.144531 364.546875 808.1875 364.578125 808.203125 L 403.144531 822.589844 L 436.0625 826.492188 L 461.4375 820.285156 C 461.640625 820.21875 479.023438 806.175781 478.769531 806.402344 C 478.800781 806.375 478.824219 806.339844 478.847656 806.300781 Z M 462.453125 818.253906 L 478.625 778.242188 L 492.804688 767.160156 L 478.03125 805.742188 Z M 436.953125 825.289062 L 455.992188 782.421875 L 477.425781 778.578125 L 460.925781 819.402344 Z M 403.960938 821.695312 L 426.460938 777.207031 L 454.945312 782.355469 L 435.789062 825.472656 Z M 365.46875 807.492188 L 391.558594 763.207031 L 425.507812 776.910156 L 402.964844 821.484375 Z M 127.6875 527.261719 L 170.703125 506.726562 L 184.550781 543.007812 L 141.609375 567.265625 Z M 122.976562 491.976562 L 164.710938 474.824219 L 170.425781 505.765625 L 127.476562 526.269531 Z M 126.640625 464.28125 L 166.316406 449.824219 L 164.613281 473.796875 L 123.039062 490.882812 Z M 137.789062 445.070312 L 175.066406 432.515625 L 166.515625 448.703125 L 127.308594 462.988281 Z M 261.929688 397.816406 L 299.089844 385.777344 L 294.132812 391.375 L 256.074219 404.191406 Z M 378.863281 359.929688 L 376.757812 363.550781 L 336.429688 377.128906 L 339.949219 372.539062 Z M 419.59375 346.734375 L 419.121094 349.28125 L 378.175781 363.070312 L 380.269531 359.476562 Z M 462.117188 332.957031 L 461.511719 335.007812 L 420.191406 348.921875 L 420.664062 346.386719 Z M 505.808594 318.800781 L 505.277344 320.265625 L 462.652344 334.621094 L 463.253906 332.585938 Z M 550.011719 304.476562 L 549.894531 305.238281 L 506.472656 319.863281 L 506.996094 318.414062 Z M 595.0625 289.882812 L 595.113281 290.011719 L 550.945312 304.886719 L 551.0625 304.136719 Z M 571.828125 563.902344 L 571.566406 564.0625 L 587.386719 522.660156 L 587.480469 522.621094 Z M 556.429688 604.519531 L 556.066406 604.78125 L 570.988281 565.570312 L 571.257812 565.40625 Z M 526.21875 683.523438 L 525.632812 684.195312 L 539.453125 647.9375 L 540.125 647.492188 Z M 207.234375 434.917969 L 207.519531 456.164062 L 165.632812 473.378906 L 167.332031 449.457031 Z M 248.535156 419.871094 L 249.84375 438.773438 L 208.5 455.761719 L 208.214844 434.5625 Z M 290.585938 404.554688 L 292.902344 421.078125 L 250.804688 438.378906 L 249.496094 419.523438 Z M 376.527344 364.667969 L 375.808594 372.457031 L 333.925781 387.714844 L 335.492188 378.488281 Z M 419.082031 350.335938 L 419.265625 356.625 L 376.832031 372.082031 L 377.550781 364.324219 Z M 461.535156 336.039062 L 462.488281 340.875 L 420.242188 356.269531 L 420.058594 350.007812 Z M 505.34375 321.285156 L 506.46875 324.855469 L 463.429688 340.535156 L 462.476562 335.722656 Z M 550.058594 306.226562 L 551.054688 308.609375 L 507.390625 324.519531 L 506.277344 320.972656 Z M 570.238281 564.777344 L 564.6875 565.320312 L 581.890625 522.757812 L 586.289062 522.777344 Z M 554.652344 605.726562 L 547.5 607.835938 L 564.269531 566.351562 L 569.84375 565.808594 Z M 538.667969 647.230469 L 530.28125 650.4375 L 547.03125 609 L 554.207031 606.886719 Z M 523.789062 686.265625 L 513.316406 692.414062 L 529.777344 651.683594 L 538.195312 648.46875 Z M 250.042969 439.757812 L 257.304688 464.289062 L 215.175781 484.402344 L 208.597656 456.789062 Z M 293.15625 422.039062 L 300.960938 443.449219 L 258.203125 463.863281 L 250.960938 439.378906 Z M 375.941406 373.457031 L 379.386719 385.535156 L 337.003906 402.953125 L 333.875 388.78125 Z M 419.460938 357.601562 L 422.761719 367.710938 L 380.296875 385.160156 L 376.867188 373.117188 Z M 636.25 392.558594 L 619.917969 435.28125 L 617.347656 435.035156 L 634.585938 392.386719 Z M 603.039062 479.285156 L 599.609375 478.921875 L 616.960938 435.992188 L 619.550781 436.238281 Z M 563.625 565.320312 L 553.441406 563.070312 L 572.46875 520.234375 L 580.894531 522.589844 Z M 546.347656 608.058594 L 534.152344 606.488281 L 553.03125 563.988281 L 563.25 566.246094 Z M 529.074219 650.792969 L 514.730469 650.203125 L 533.734375 607.429688 L 545.96875 609.003906 Z M 511.976562 693.101562 L 495.222656 694.113281 L 514.300781 651.171875 L 528.683594 651.765625 Z M 668.300781 302.164062 L 649.296875 344.867188 L 646.34375 342.507812 L 667.226562 301.164062 Z M 645.632812 280 L 647.238281 281.671875 L 607.3125 304.222656 L 603.582031 300.101562 Z M 641.050781 337.765625 L 636.523438 333.59375 L 662.375 296.609375 L 664.246094 298.386719 Z M 645.113281 342.757812 L 624.152344 384.144531 L 617.921875 378.96875 L 641.285156 339.3125 Z M 629.433594 389.570312 L 610.390625 432.066406 L 603.386719 427.382812 L 624.484375 385.675781 Z M 656.546875 289.503906 L 654.324219 287.3125 L 680.0625 266.292969 Z M 658.832031 293.136719 L 630.1875 327.417969 L 624.78125 322.246094 L 656.550781 290.886719 Z M 623.699219 385.046875 L 602.578125 426.804688 L 593.664062 420.140625 L 617.414062 379.828125 Z M 612.246094 311.03125 L 617.328125 316.273438 L 582.460938 344.753906 L 574.703125 336.429688 Z M 635.230469 333.726562 L 609.066406 371.375 L 600.980469 363.671875 L 630.261719 328.863281 Z M 582.363281 346.089844 L 590.527344 354.675781 L 558.007812 386.777344 L 546.785156 375.148438 Z M 608.496094 372.191406 L 581.984375 409.871094 L 570.914062 399.53125 L 600.34375 364.429688 Z M 558 388.167969 L 569.566406 399.601562 L 539.6875 435.238281 L 525.023438 420.71875 Z M 570.28125 400.285156 L 581.414062 410.6875 L 554.804688 448.75 L 540.40625 435.917969 Z M 599.636719 363.742188 L 570.203125 398.84375 L 558.699219 387.476562 L 591.21875 355.378906 Z M 546.019531 375.777344 L 557.304688 387.46875 L 524.335938 420.015625 L 510.222656 405.019531 Z M 509.457031 405.644531 L 523.632812 420.707031 L 490.113281 453.796875 L 472.746094 435.636719 Z M 524.320312 421.414062 L 539.050781 435.996094 L 508.699219 472.199219 L 490.804688 454.5 Z M 539.773438 436.671875 L 554.234375 449.566406 L 526.953125 488.695312 L 509.414062 472.878906 Z M 555.554688 449.398438 L 582.152344 411.351562 L 592.386719 420.367188 L 568.804688 460.398438 Z M 582.722656 410.539062 L 609.234375 372.855469 L 616.648438 379.183594 L 592.894531 419.503906 Z M 629.554688 328.175781 L 600.273438 362.984375 L 591.917969 354.6875 L 624.078125 322.9375 Z M 591.230469 353.980469 L 583.128906 345.464844 L 618.019531 316.96875 L 623.371094 322.253906 Z M 573.875 336.988281 L 581.695312 345.378906 L 546.121094 374.441406 L 535.652344 362.84375 Z M 534.828125 363.398438 L 545.355469 375.066406 L 509.5625 404.304688 L 496.191406 389.535156 Z M 495.371094 390.089844 L 508.796875 404.929688 L 472.097656 434.910156 L 456.632812 416.292969 Z M 455.8125 416.847656 L 471.335938 435.535156 L 434.460938 465.65625 L 416.144531 443.679688 Z M 471.980469 436.261719 L 489.410156 454.488281 L 455.175781 488.28125 L 435.105469 466.386719 Z M 490.101562 455.191406 L 508.0625 472.957031 L 476.746094 510.308594 L 455.855469 488.996094 Z M 508.78125 473.632812 L 526.382812 489.511719 L 498.871094 528.761719 L 477.464844 510.980469 Z M 499.644531 529.375 L 527.140625 490.148438 L 543.617188 503.152344 L 519.46875 544.140625 Z M 527.707031 489.339844 L 554.988281 450.210938 L 568.296875 461.257812 L 544.121094 502.296875 Z M 593.164062 420.992188 L 602.128906 427.699219 L 581.144531 469.585938 L 569.585938 461.015625 Z M 609.804688 372.042969 L 635.957031 334.410156 L 640.539062 338.632812 L 617.15625 378.320312 Z M 630.898438 328.105469 L 659.539062 293.832031 L 661.65625 295.914062 L 635.800781 332.90625 Z M 624.074219 321.558594 L 618.785156 316.339844 L 653.558594 287.941406 L 655.847656 290.195312 Z M 618.09375 315.644531 L 613.078125 310.472656 L 650.664062 285.046875 L 652.859375 287.246094 Z M 612.390625 309.746094 L 607.992188 304.96875 L 647.953125 282.398438 L 649.945312 284.339844 Z M 607.113281 305.46875 L 611.5625 310.304688 L 574.035156 335.691406 L 567.28125 327.964844 Z M 566.402344 328.460938 L 573.210938 336.246094 L 534.992188 362.097656 L 525.777344 351.410156 Z M 524.902344 351.902344 L 534.171875 362.652344 L 495.550781 388.777344 L 484.273438 374.585938 Z M 483.402344 375.078125 L 494.730469 389.332031 L 456.015625 415.519531 L 442.828125 398.257812 Z M 441.960938 398.75 L 455.199219 416.074219 L 415.539062 442.898438 L 400.539062 422.144531 Z M 399.675781 422.632812 L 414.722656 443.453125 L 375.222656 470.171875 L 358.285156 446.011719 Z M 415.324219 444.234375 L 433.699219 466.277344 L 396.0625 497.023438 L 375.808594 470.964844 Z M 434.339844 467.011719 L 454.476562 488.972656 L 419.347656 523.648438 L 396.683594 497.777344 Z M 455.152344 489.691406 L 476.109375 511.066406 L 444.910156 548.277344 L 420.027344 524.363281 Z M 476.835938 511.734375 L 498.304688 529.574219 L 470.335938 569.578125 L 445.640625 548.9375 Z M 499.078125 530.183594 L 518.96875 544.996094 L 494.015625 587.347656 L 471.109375 570.191406 Z M 519.78125 545.554688 L 536.984375 556.496094 L 515.238281 599.492188 L 494.835938 587.894531 Z M 520.28125 544.703125 L 544.417969 503.730469 L 558.808594 513.347656 L 537.429688 555.613281 Z M 544.917969 502.882812 L 569.082031 461.871094 L 580.691406 470.476562 L 559.257812 512.464844 Z M 581.960938 470.152344 L 602.941406 428.269531 L 609.984375 432.972656 L 591.089844 475.882812 Z M 660.171875 293.074219 L 681.003906 268.230469 L 662.226562 295.097656 Z M 659.46875 292.378906 L 657.25 290.195312 L 680.746094 267.003906 Z M 653.625 286.621094 L 651.496094 284.484375 L 679.082031 265.824219 Z M 650.78125 283.777344 L 648.847656 281.894531 L 677.4375 265.746094 Z M 602.652344 300.546875 L 606.433594 304.71875 L 566.628906 327.203125 L 560.988281 320.410156 Z M 560.070312 320.847656 L 565.753906 327.695312 L 525.148438 350.632812 L 517.941406 340.960938 Z M 524.28125 351.117188 L 483.667969 373.796875 L 474.808594 361.550781 L 517.039062 341.390625 Z M 473.902344 361.980469 L 482.804688 374.28125 L 442.246094 397.453125 L 431.816406 382.074219 Z M 430.917969 382.503906 L 441.386719 397.941406 L 399.984375 421.328125 L 388.3125 402.84375 Z M 387.417969 403.269531 L 399.125 421.8125 L 357.761719 445.175781 L 345.46875 423.296875 Z M 357.425781 446.5 L 374.40625 470.722656 L 333.882812 498.132812 L 315.601562 470.121094 Z M 374.988281 471.515625 L 395.296875 497.648438 L 357.433594 528.578125 L 334.457031 498.933594 Z M 395.917969 498.402344 L 418.644531 524.34375 L 383.691406 558.847656 L 358.054688 529.335938 Z M 419.324219 525.058594 L 444.273438 549.035156 L 412.625 586.78125 L 384.367188 559.5625 Z M 445.007812 549.691406 L 469.769531 570.386719 L 441.351562 611.039062 L 413.355469 587.445312 Z M 470.546875 571 L 493.515625 588.199219 L 468.742188 630.25 L 442.132812 611.644531 Z M 494.339844 588.738281 L 514.796875 600.367188 L 493.019531 643.425781 L 469.578125 630.773438 Z M 515.6875 600.792969 L 532.769531 607.171875 L 513.714844 650.066406 L 493.929688 643.8125 Z M 516.132812 599.910156 L 537.847656 556.972656 L 552.097656 563.660156 L 533.167969 606.269531 Z M 538.292969 556.09375 L 559.660156 513.847656 L 571.554688 519.867188 L 552.5 562.761719 Z M 560.105469 512.96875 L 581.515625 471.035156 L 590.6875 476.796875 L 571.949219 518.972656 Z M 591.976562 476.320312 L 610.851562 433.449219 L 616.007812 435.722656 L 598.628906 478.71875 Z M 611.25 432.554688 L 630.265625 390.125 L 633.648438 392.070312 L 616.375 434.808594 Z M 624.9375 384.78125 L 645.890625 343.40625 L 648.882812 345.796875 L 629.847656 388.648438 Z M 645.574219 341.847656 L 641.792969 338.445312 L 664.984375 299.078125 L 666.484375 300.472656 Z M 665.507812 298.191406 L 680.472656 272.792969 L 666.953125 299.546875 Z M 664.769531 297.5 L 662.945312 295.789062 L 680.980469 269.988281 Z M 648.125 281.171875 L 646.570312 279.550781 L 675.113281 265.925781 Z M 645.867188 278.804688 L 644.753906 277.582031 L 671.386719 266.613281 Z M 644.9375 279.25 L 602.910156 299.332031 L 600.078125 295.847656 L 643.785156 277.980469 Z M 599.125 296.238281 L 601.992188 299.765625 L 560.347656 319.621094 L 555.933594 314.046875 Z M 554.984375 314.433594 L 559.433594 320.058594 L 517.339844 340.152344 L 511.496094 332.308594 Z M 510.5625 332.691406 L 516.4375 340.582031 L 474.253906 360.722656 L 467.929688 350.210938 Z M 467.011719 350.589844 L 473.363281 361.148438 L 431.292969 381.230469 L 424.054688 368.242188 Z M 423.144531 368.617188 L 430.402344 381.65625 L 387.84375 401.972656 L 380.632812 386.089844 Z M 379.722656 386.460938 L 386.957031 402.394531 L 345.035156 422.410156 L 337.285156 403.902344 Z M 344.578125 423.71875 L 356.902344 445.660156 L 315.109375 469.269531 L 302.238281 443.933594 Z M 301.351562 444.355469 L 314.253906 469.75 L 271.941406 493.648438 L 258.539062 464.792969 Z M 314.742188 470.605469 L 333.070312 498.683594 L 292.378906 526.207031 L 272.40625 494.519531 Z M 333.640625 499.488281 L 356.667969 529.203125 L 317.839844 560.925781 L 292.933594 527.023438 Z M 357.289062 529.960938 L 382.988281 559.539062 L 347.308594 594.761719 L 318.453125 561.691406 Z M 383.667969 560.253906 L 411.992188 587.539062 L 379.667969 626.089844 L 347.984375 595.476562 Z M 412.722656 588.199219 L 440.785156 611.847656 L 412.265625 652.644531 L 380.402344 626.746094 Z M 441.566406 612.449219 L 468.242188 631.101562 L 443.28125 673.46875 L 413.058594 653.234375 Z M 469.078125 631.621094 L 492.578125 644.296875 L 471.082031 686.800781 L 444.136719 673.957031 Z M 493.480469 644.695312 L 513.3125 650.96875 L 494.171875 694.054688 L 472.003906 687.160156 Z M 572.867188 519.332031 L 591.574219 477.226562 L 598.257812 479.632812 L 581.265625 521.671875 Z M 630.667969 389.222656 L 649.707031 346.371094 L 651.632812 347.582031 L 634.023438 391.148438 Z M 650.109375 345.464844 L 669.074219 302.847656 L 669.546875 303.257812 L 652.003906 346.660156 Z M 669.492188 301.910156 L 676.292969 286.566406 L 669.9375 302.296875 Z M 668.722656 301.207031 L 667.691406 300.242188 L 679.542969 276.8125 Z M 644.046875 276.804688 L 643.347656 276.039062 L 665.570312 267.941406 Z M 642.671875 275.242188 L 642.550781 275.074219 L 649.871094 272.609375 Z M 642.347656 276.402344 L 643.078125 277.203125 L 599.449219 295.042969 L 597.734375 292.699219 Z M 596.773438 293.050781 L 598.511719 295.425781 L 555.320312 313.230469 L 552.480469 309.144531 Z M 551.523438 309.492188 L 554.386719 313.613281 L 510.953125 331.464844 L 507.769531 325.429688 Z M 506.839844 325.769531 L 510.042969 331.839844 L 467.460938 349.339844 L 463.734375 341.472656 Z M 462.800781 341.8125 L 466.550781 349.714844 L 423.667969 367.335938 L 420.386719 357.265625 Z M 336.382812 404.273438 L 344.148438 422.832031 L 301.851562 443.023438 L 294.066406 421.664062 Z M 257.65625 465.214844 L 271.082031 494.132812 L 228.808594 518.011719 L 215.46875 485.355469 Z M 271.550781 495.003906 L 291.5625 526.757812 L 250.261719 554.695312 L 229.238281 518.902344 Z M 292.113281 527.574219 L 317.078125 561.546875 L 277.621094 593.78125 L 250.792969 555.527344 Z M 317.6875 562.3125 L 346.605469 595.453125 L 310.5625 631.03125 L 278.226562 594.554688 Z M 347.285156 596.167969 L 379.03125 626.847656 L 346.0625 666.167969 L 311.238281 631.75 Z M 379.769531 627.5 L 411.699219 653.453125 L 382.347656 695.441406 L 346.796875 666.828125 Z M 412.492188 654.039062 L 442.78125 674.3125 L 417.320312 717.53125 L 383.148438 696.019531 Z M 443.636719 674.808594 L 470.640625 687.675781 L 448.359375 731.726562 L 418.1875 718 Z M 471.554688 688.046875 L 493.769531 694.960938 L 474.808594 737.644531 L 449.3125 732.027344 Z M 494.773438 695.128906 L 511.566406 694.113281 L 494.796875 735.601562 L 475.890625 737.632812 Z M 582.289062 521.773438 L 599.222656 479.871094 L 602.671875 480.238281 L 586.664062 521.789062 Z M 636.617188 391.605469 L 634.96875 391.433594 L 652.515625 348.027344 L 653.226562 348.308594 Z M 652.882812 347.121094 L 668.183594 309.265625 L 653.582031 347.390625 Z M 641.570312 275.40625 L 641.710938 275.59375 L 597.179688 291.855469 L 596.472656 290.59375 Z M 595.527344 290.914062 L 596.246094 292.195312 L 551.984375 308.273438 L 550.996094 305.910156 Z M 332.941406 389.121094 L 336.082031 403.332031 L 293.84375 420.691406 L 291.53125 404.207031 Z M 207.671875 457.167969 L 214.273438 484.835938 L 171.339844 505.332031 L 165.640625 474.441406 Z M 214.582031 485.78125 L 227.949219 518.496094 L 185.417969 542.523438 L 171.585938 506.304688 Z M 228.386719 519.382812 L 249.445312 555.25 L 207.484375 583.628906 L 185.820312 543.425781 Z M 249.976562 556.078125 L 276.855469 594.402344 L 237.433594 626.609375 L 207.996094 584.472656 Z M 277.464844 595.175781 L 309.863281 631.726562 L 272.574219 668.535156 L 238.03125 627.390625 Z M 310.539062 632.441406 L 345.429688 666.925781 L 311.964844 706.835938 L 273.242188 669.257812 Z M 346.164062 667.582031 L 381.78125 696.25 L 352.191406 738.582031 L 312.707031 707.484375 Z M 382.582031 696.824219 L 416.824219 718.378906 L 391.175781 761.914062 L 353 739.144531 Z M 417.6875 718.851562 L 447.914062 732.609375 L 425.953125 776.027344 L 392.058594 762.351562 Z M 448.851562 732.9375 L 474.398438 738.5625 L 455.355469 781.429688 L 426.925781 776.289062 Z M 475.429688 738.671875 L 494.378906 736.640625 L 477.863281 777.496094 L 456.476562 781.335938 Z M 495.53125 736.414062 L 506.84375 730.378906 L 493.492188 765.375 L 479.363281 776.414062 Z M 496.105469 734.988281 L 512.707031 693.914062 L 523.222656 687.742188 L 507.382812 728.972656 Z M 540.0625 646.351562 L 555.433594 606.445312 L 555.796875 606.183594 L 540.738281 645.90625 Z M 587.875 521.386719 L 592.453125 509.511719 L 587.960938 521.351562 Z M 596.046875 289.699219 L 596 289.578125 L 606.605469 286.140625 Z M 334.429688 378.84375 L 332.863281 388.101562 L 291.726562 403.085938 L 294.816406 392.183594 Z M 290.582031 403.503906 L 249.835938 418.347656 L 254.789062 405.664062 L 293.683594 392.566406 Z M 253.574219 406.074219 L 248.601562 418.796875 L 208.605469 433.371094 L 214.464844 419.246094 Z M 213.222656 419.664062 L 207.347656 433.828125 L 167.894531 448.199219 L 176.421875 432.058594 Z M 184.964844 543.910156 L 206.664062 584.183594 L 164.34375 612.808594 L 141.988281 568.183594 Z M 207.179688 585.023438 L 236.667969 627.234375 L 195.800781 660.617188 L 164.832031 613.671875 Z M 237.265625 628.015625 L 271.871094 669.226562 L 234.175781 706.4375 L 196.386719 661.410156 Z M 272.542969 669.949219 L 311.332031 707.589844 L 277.328125 748.144531 L 234.847656 707.160156 Z M 312.074219 708.238281 L 351.625 739.386719 L 321.6875 782.214844 L 278.074219 748.789062 Z M 352.4375 739.949219 L 390.679688 762.757812 L 364.574219 807.070312 L 322.503906 782.765625 Z M 483.207031 794.976562 L 494.335938 765.925781 L 495.738281 764.152344 C 486.453125 789.167969 489.242188 782.410156 483.207031 794.976562 Z M 496.851562 761.15625 L 495.507812 762.855469 L 508.207031 729.570312 L 509.6875 727.734375 C 499.535156 754.414062 502.363281 747.0625 496.851562 761.15625 Z M 510.820312 724.761719 L 509.359375 726.570312 L 524.617188 686.863281 L 525.253906 686.132812 C 514.445312 715.375 517.695312 706.695312 510.820312 724.761719 Z M 338.289062 373.082031 L 334.753906 377.695312 L 296.007812 390.742188 L 300.933594 385.179688 C 313.042969 381.464844 305.058594 384.027344 338.289062 373.082031 Z M 260.035156 398.425781 L 254.136719 404.84375 L 216.195312 417.621094 L 224.871094 409.808594 C 240.875 404.539062 233.023438 407.085938 260.035156 398.425781 Z M 222.550781 410.574219 L 213.84375 418.414062 L 178.183594 430.421875 L 187.710938 421.863281 C 206.371094 415.953125 198.523438 418.488281 222.550781 410.574219 Z M 154.667969 432.570312 L 185.40625 422.609375 L 175.824219 431.21875 L 140.277344 443.1875 Z M 154.667969 432.570312 " fill-opacity="1" fill-rule="nonzero"/></g></svg>