<svg xmlns="http://www.w3.org/2000/svg" xmlns:xlink="http://www.w3.org/1999/xlink" width="1080" zoomAndPan="magnify" viewBox="0 0 810 1012.49997" height="1350" preserveAspectRatio="xMidYMid meet" version="1.0"><defs><clipPath id="646eb5b01d"><path d="M 151.21875 237.09375 L 658 237.09375 L 658 774.578125 L 151.21875 774.578125 Z M 151.21875 237.09375 " clip-rule="nonzero"/></clipPath></defs><g clip-path="url(#646eb5b01d)"><path fill="#000000" d="M 657.515625 312.484375 L 371.601562 237.339844 C 371.03125 237.191406 151.539062 337.453125 151.582031 337.433594 C 151.394531 337.570312 151.277344 337.746094 151.214844 337.953125 L 173.945312 646.101562 C 174.015625 647.015625 173.730469 646.578125 456.929688 774.4375 C 457.050781 774.46875 457.160156 774.46875 457.121094 774.46875 C 457.835938 774.507812 622.984375 602.894531 623.050781 602.351562 C 658.113281 312.566406 658.726562 312.871094 657.515625 312.484375 Z M 623.730469 580.191406 L 614.34375 589.722656 L 616.566406 570.777344 L 626.019531 561.398438 Z M 240.828125 674.675781 L 239.875 653.796875 L 260.457031 662.90625 L 261.210938 683.882812 Z M 218.804688 664.734375 L 217.652344 643.964844 L 237.824219 652.890625 L 238.78125 673.753906 Z M 197.164062 654.960938 L 195.828125 634.308594 L 215.597656 643.054688 L 216.746094 663.804688 Z M 172.660156 601.539062 L 192.242188 610.023438 L 193.613281 631.136719 L 174.214844 622.554688 Z M 173.867188 329.445312 L 194.847656 336.183594 L 176.066406 345.023438 L 154.921875 338.082031 Z M 194.789062 319.90625 L 215.550781 326.4375 L 197.503906 334.933594 L 176.574219 328.210938 Z M 215.03125 310.675781 L 235.574219 317.011719 L 218.222656 325.179688 L 197.515625 318.664062 Z M 234.628906 301.742188 L 254.957031 307.886719 L 238.265625 315.742188 L 217.773438 309.425781 Z M 253.609375 293.089844 L 273.722656 299.050781 L 257.664062 306.613281 L 237.390625 300.484375 Z M 272.003906 284.703125 L 291.902344 290.492188 L 276.445312 297.769531 L 256.386719 291.824219 Z M 289.839844 276.570312 L 309.523438 282.199219 L 294.640625 289.203125 L 274.796875 283.429688 Z M 323.925781 261.03125 L 343.191406 266.347656 L 329.382812 272.851562 L 309.960938 267.398438 Z M 340.226562 253.601562 L 359.285156 258.773438 L 345.972656 265.039062 L 326.765625 259.738281 Z M 356.054688 246.382812 L 374.910156 251.417969 L 362.082031 257.457031 L 343.078125 252.300781 Z M 412.167969 250.074219 L 399.929688 256.027344 L 380.722656 250.894531 L 393.109375 245.0625 Z M 434.613281 255.972656 L 422.519531 262.058594 L 402.886719 256.816406 L 415.140625 250.855469 Z M 457.4375 261.96875 L 445.492188 268.191406 L 425.429688 262.835938 L 437.539062 256.742188 Z M 480.648438 268.070312 L 468.863281 274.433594 L 448.359375 268.957031 L 460.316406 262.726562 Z M 504.257812 274.273438 L 492.640625 280.78125 L 471.683594 275.1875 L 483.484375 268.816406 Z M 528.28125 280.585938 L 516.835938 287.242188 L 495.417969 281.523438 L 507.050781 275.007812 Z M 552.71875 287.011719 L 541.460938 293.820312 L 519.566406 287.972656 L 531.023438 281.308594 Z M 577.589844 293.546875 L 566.527344 300.511719 L 544.148438 294.535156 L 555.417969 287.71875 Z M 602.902344 300.199219 L 592.046875 307.328125 L 569.167969 301.21875 L 580.242188 294.242188 Z M 628.667969 306.96875 L 618.03125 314.265625 L 594.640625 308.019531 L 605.507812 300.882812 Z M 654.898438 313.863281 L 644.492188 321.332031 L 620.578125 314.945312 L 631.226562 307.644531 Z M 653.007812 339.699219 L 642.773438 347.355469 L 645.632812 322.976562 L 655.945312 315.582031 Z M 587.667969 616.8125 L 577.175781 627.464844 L 579.199219 607.839844 L 589.765625 597.355469 Z M 534.328125 670.976562 L 522.125 683.367188 L 523.785156 662.800781 L 536.09375 650.59375 Z M 431.238281 736.285156 L 407.402344 725.738281 L 408.0625 703.523438 L 432.167969 713.964844 Z M 239.769531 651.5625 L 238.792969 630.191406 L 259.605469 639.207031 L 260.378906 660.679688 Z M 217.527344 641.722656 L 216.351562 620.46875 L 236.746094 629.304688 L 237.722656 650.65625 Z M 195.679688 632.054688 L 194.308594 610.917969 L 214.292969 619.578125 L 215.472656 640.8125 Z M 192.617188 584.808594 L 191.179688 562.667969 L 211.605469 571.125 L 212.839844 593.378906 Z M 186.089844 484.164062 L 184.511719 459.808594 L 205.875 467.78125 L 207.234375 492.277344 Z M 178.972656 374.378906 L 177.230469 347.511719 L 199.613281 354.855469 L 201.113281 381.902344 Z M 197.640625 337.082031 L 219.125 343.980469 L 200.503906 353.042969 L 178.839844 345.933594 Z M 276.609375 299.90625 L 297.183594 306.007812 L 281.273438 313.75 L 260.527344 307.476562 Z M 294.808594 291.339844 L 315.160156 297.261719 L 299.851562 304.710938 L 279.328125 298.625 Z M 346.15625 267.167969 L 365.851562 272.601562 L 352.183594 279.253906 L 332.328125 273.675781 Z M 362.265625 259.582031 L 381.746094 264.871094 L 368.578125 271.277344 L 348.9375 265.855469 Z M 377.910156 252.21875 L 397.179688 257.363281 L 384.484375 263.539062 L 365.0625 258.265625 Z M 422.738281 264.1875 L 442.859375 269.5625 L 430.464844 276.019531 L 410.171875 270.511719 Z M 517.125 289.394531 L 539.085938 295.257812 L 527.394531 302.328125 L 505.226562 296.3125 Z M 618.402344 316.4375 L 642.386719 322.84375 L 631.566406 330.605469 L 607.335938 324.027344 Z M 640.5625 349.011719 L 629.921875 356.976562 L 632.707031 332.25 L 643.433594 324.558594 Z M 615.417969 485.671875 L 617.867188 463.921875 L 628.121094 455.0625 L 625.59375 476.605469 Z M 612.691406 509.859375 L 615.082031 488.65625 L 625.242188 479.601562 L 622.777344 500.605469 Z M 604.832031 579.59375 L 607.046875 559.933594 L 616.941406 550.359375 L 614.65625 569.847656 Z M 238.6875 627.964844 L 237.6875 606.082031 L 258.738281 615.003906 L 259.527344 636.992188 Z M 216.226562 618.230469 L 215.019531 596.476562 L 235.640625 605.214844 L 236.644531 627.078125 Z M 221.882812 344.867188 L 243.890625 351.933594 L 225.433594 361.222656 L 203.238281 353.9375 Z M 242.40625 334.882812 L 264.171875 341.730469 L 246.441406 350.652344 L 224.488281 343.601562 Z M 300.027344 306.851562 L 321.082031 313.09375 L 305.332031 321.019531 L 284.097656 314.601562 Z M 318.027344 298.097656 L 338.847656 304.15625 L 323.695312 311.78125 L 302.695312 305.554688 Z M 368.773438 273.410156 L 388.910156 278.96875 L 375.390625 285.769531 L 355.085938 280.070312 Z M 384.6875 265.667969 L 404.597656 271.074219 L 391.574219 277.625 L 371.496094 272.085938 Z M 430.695312 278.15625 L 451.5 283.804688 L 438.800781 290.660156 L 417.8125 284.867188 Z M 527.695312 304.488281 L 550.421875 310.65625 L 538.480469 318.175781 L 515.535156 311.84375 Z M 621.71875 411.863281 L 610.851562 420.644531 L 613.421875 396.835938 L 624.375 388.308594 Z M 608.644531 422.425781 L 597.339844 431.558594 L 599.824219 407.421875 L 611.21875 398.550781 Z M 579.675781 583.632812 L 568.578125 594.371094 L 570.621094 573.460938 L 581.808594 562.914062 Z M 260.695312 613.65625 L 259.882812 591.117188 L 281.625 600.121094 L 282.207031 622.773438 Z M 237.585938 603.863281 L 236.558594 581.457031 L 257.847656 590.273438 L 258.65625 612.792969 Z M 236.457031 579.25 L 235.40625 556.300781 L 256.941406 565.003906 L 257.769531 588.074219 Z M 231.691406 475.277344 L 230.535156 449.980469 L 253.101562 458.15625 L 254.015625 483.605469 Z M 286.539062 332.71875 L 308.574219 339.511719 L 291.714844 348.292969 L 269.480469 341.300781 Z M 375.59375 287.90625 L 396.417969 293.753906 L 382.539062 300.984375 L 361.539062 294.980469 Z M 391.785156 279.761719 L 412.371094 285.445312 L 399.011719 292.402344 L 378.25 286.574219 Z M 415.207031 286.226562 L 436.253906 292.035156 L 423.0625 299.15625 L 401.828125 293.195312 Z M 513.175781 313.269531 L 536.1875 319.621094 L 523.773438 327.4375 L 500.535156 320.914062 Z M 611.519531 395.777344 L 600.109375 404.660156 L 602.660156 379.882812 L 614.164062 371.273438 Z M 600.371094 499.078125 L 589.382812 508.867188 L 591.683594 486.546875 L 602.757812 476.976562 Z M 434.367188 661.199219 L 409.617188 650.953125 L 410.328125 627.003906 L 435.371094 637.125 Z M 383.421875 640.105469 L 383.847656 616.300781 L 408.347656 626.203125 L 407.636719 650.132812 Z M 306.699219 608.335938 L 284.636719 599.199219 L 301.429688 586.902344 L 323.296875 595.773438 Z M 282.472656 598.300781 L 260.882812 589.363281 L 277.847656 577.332031 L 299.25 586.015625 Z M 259.761719 587.703125 L 258.941406 564.832031 L 276.074219 553.054688 L 276.699219 575.691406 Z M 256.980469 510.285156 L 256.125 486.53125 L 274.390625 493.347656 L 274.578125 498.980469 Z M 253 399.535156 L 252.015625 372.050781 L 275.953125 379.90625 L 276.664062 407.574219 Z M 271.832031 360.910156 L 294.925781 368.328125 L 276.839844 378.089844 L 253.53125 370.441406 Z M 577.378906 344.574219 L 602.332031 351.578125 L 590.144531 360.320312 L 564.929688 353.113281 Z M 544.175781 562.683594 L 532.21875 558.34375 L 533.398438 543.691406 L 556.175781 551.8125 Z M 435.457031 635 L 410.390625 624.867188 L 411.117188 600.300781 L 436.488281 610.296875 Z M 383.886719 614.15625 L 384.324219 589.742188 L 409.136719 599.519531 L 408.410156 624.066406 Z M 355.882812 606.910156 L 351.742188 605.175781 L 355.914062 601.90625 Z M 325.15625 594.367188 L 303.328125 585.511719 L 319.519531 573.652344 L 341.15625 582.257812 Z M 301.148438 584.625 L 279.785156 575.957031 L 296.144531 564.355469 L 317.324219 572.78125 Z M 277.269531 523.796875 L 276.613281 500.054688 L 282.402344 496.335938 L 293.777344 500.578125 L 294.011719 512.660156 Z M 276.539062 497.71875 L 276.421875 494.105469 L 280.058594 495.460938 Z M 278.6875 408.261719 L 277.976562 380.570312 L 302.464844 388.605469 L 302.890625 416.488281 Z M 297.570312 369.175781 L 321.230469 376.773438 L 303.347656 386.789062 L 279.460938 378.953125 Z M 377.894531 345.042969 L 362.070312 353.90625 L 339.019531 346.800781 L 355.058594 338.140625 Z M 482.707031 331.695312 L 506.304688 338.441406 L 492.875 346.898438 L 469.042969 339.964844 Z M 562.785156 354.582031 L 588.070312 361.8125 L 575.382812 370.914062 L 549.824219 363.472656 Z M 586.59375 389.40625 L 574.109375 398.75 L 576.527344 372.558594 L 589.125 363.519531 Z M 570.308594 480.832031 L 589.644531 486.765625 L 587.253906 509.980469 L 563.640625 501.980469 L 565.1875 485.113281 Z M 356.015625 586.011719 L 345.199219 581.710938 L 356.097656 573.460938 Z M 343.023438 580.84375 L 321.429688 572.257812 L 337.046875 560.820312 L 356.132812 568.261719 L 356.113281 570.9375 Z M 319.230469 571.382812 L 298.089844 562.972656 L 313.875 551.777344 L 334.835938 559.957031 Z M 323.835938 377.613281 L 348.082031 385.398438 L 330.417969 395.671875 L 305.933594 387.636719 Z M 343.40625 366.652344 L 367.355469 374.1875 L 350.414062 384.042969 L 326.222656 376.273438 Z M 403.933594 352.914062 L 388.316406 361.996094 L 364.714844 354.71875 L 380.554688 345.847656 Z M 450.175781 351.375 L 474.378906 358.546875 L 459.824219 367.714844 L 435.378906 360.324219 Z M 466.714844 341.371094 L 490.609375 348.324219 L 476.632812 357.128906 L 452.496094 349.972656 Z M 566.789062 456.238281 L 554.050781 466.527344 L 556.230469 441.363281 L 569.085938 431.351562 Z M 559.425781 525.9375 L 535.503906 517.644531 L 536.167969 509.382812 L 548.585938 498.996094 L 561.5 503.371094 Z M 385.347656 532.609375 L 385.816406 506.238281 L 411.621094 515.585938 L 410.835938 542.121094 Z M 356.269531 547.089844 L 354.410156 546.375 L 356.285156 545.007812 Z M 336.75 558.554688 L 315.832031 550.390625 L 331.066406 539.585938 L 351.808594 547.527344 Z M 351.976562 522.296875 L 347.453125 525.507812 L 331.839844 519.640625 L 331.816406 514.910156 L 331.945312 514.824219 Z M 314.714844 548.726562 L 314.449219 526.675781 L 329.820312 516.109375 L 329.921875 537.941406 Z M 331.847656 521.78125 L 345.480469 526.90625 L 331.917969 536.527344 Z M 346.589844 528.574219 L 346.535156 543.363281 L 333.03125 538.191406 Z M 314.421875 524.265625 L 314.230469 508.210938 L 329.492188 513.90625 Z M 352.179688 545.523438 L 348.535156 544.128906 L 348.597656 527.148438 L 354.246094 523.144531 L 356.421875 523.953125 L 356.300781 542.511719 Z M 332.0625 512.730469 L 331.945312 486.71875 L 356.605469 495.652344 L 356.433594 521.820312 Z M 388.566406 364.167969 L 412.800781 371.640625 L 396.765625 381.339844 L 372.285156 373.636719 Z M 430.492188 360.941406 L 415.097656 370.25 L 390.921875 362.796875 L 406.554688 353.707031 Z M 476.933594 359.304688 L 501.710938 366.652344 L 487.402344 376.046875 L 462.367188 368.480469 Z M 554.3125 440.320312 L 540.902344 450.757812 L 543.019531 424.519531 L 556.558594 414.386719 Z M 534.238281 508.386719 L 520.570312 519.820312 L 522.445312 494.636719 L 536.25 483.484375 Z M 438.890625 552.589844 L 412.816406 542.859375 L 413.605469 516.304688 L 440.003906 525.867188 Z M 385.855469 504.121094 L 386.339844 477.046875 L 412.488281 486.230469 L 411.683594 513.476562 Z M 378.023438 395.015625 L 403.488281 403.195312 L 386.308594 414.011719 L 360.574219 405.570312 Z M 415.367188 372.429688 L 440.1875 380.082031 L 424.394531 390.027344 L 399.3125 382.140625 Z M 460.121094 369.894531 L 485.21875 377.480469 L 470.3125 387.269531 L 444.945312 379.453125 Z M 515.882812 386.75 L 542.214844 394.707031 L 527.859375 405.007812 L 501.230469 396.800781 Z M 543.234375 421.855469 L 545.414062 394.878906 L 559.097656 385.058594 L 556.789062 411.710938 Z M 520.511719 493.625 L 506.101562 505.265625 L 507.890625 479 L 522.445312 467.667969 Z M 405.976562 403.992188 L 432.082031 412.378906 L 415.171875 423.484375 L 388.78125 414.824219 Z M 442.710938 380.859375 L 468.140625 388.695312 L 452.601562 398.902344 L 426.898438 390.816406 Z M 499.121094 398.246094 L 525.8125 406.472656 L 510.835938 417.21875 L 483.839844 408.726562 Z M 524.832031 435.628906 L 510.089844 446.664062 L 511.980469 418.863281 L 526.878906 408.175781 Z M 415.425781 454.726562 L 416.277344 425.957031 L 443.792969 434.984375 L 442.585938 463.957031 Z M 434.53125 413.164062 L 461.292969 421.757812 L 444.667969 433.164062 L 417.601562 424.28125 Z M 452.90625 401.097656 L 479.3125 409.402344 L 463.382812 420.328125 L 436.683594 411.753906 Z M 444.5625 464.628906 L 445.769531 435.632812 L 473.960938 444.878906 L 472.359375 474.074219 Z M 447.0625 433.949219 L 463.707031 422.535156 L 491.144531 431.347656 L 474.820312 443.058594 Z M 475.976562 444.703125 L 492.125 433.039062 L 490.574219 461.34375 L 474.40625 473.363281 Z M 494.226562 431.53125 L 509.871094 420.378906 L 507.972656 448.246094 L 492.675781 459.769531 Z M 493.171875 429.894531 L 465.796875 421.101562 L 481.738281 410.167969 L 508.800781 418.679688 Z M 443.300781 494.929688 L 444.476562 466.710938 L 472.269531 476.152344 L 470.710938 504.558594 Z M 472.757812 503.804688 L 474.285156 475.972656 L 490.234375 463.957031 L 488.726562 491.453125 Z M 492.339844 462.378906 L 507.792969 450.882812 L 505.953125 477.96875 L 490.835938 489.8125 Z M 481.410156 407.964844 L 455.070312 399.679688 L 470.625 389.460938 L 496.675781 397.492188 Z M 450.441406 400.320312 L 434.234375 410.964844 L 408.191406 402.601562 L 424.675781 392.21875 Z M 414.292969 425.304688 L 413.441406 454.050781 L 386.910156 445.039062 L 387.421875 416.484375 Z M 386.378906 474.9375 L 386.875 447.140625 L 413.378906 456.148438 L 412.550781 484.128906 Z M 414.535156 484.828125 L 415.363281 456.820312 L 442.5 466.039062 L 441.324219 494.234375 Z M 442.070312 524.484375 L 443.214844 497.019531 L 470.617188 506.640625 L 469.105469 534.28125 Z M 471.152344 533.488281 L 472.636719 506.457031 L 488.390625 494.109375 L 486.925781 520.832031 Z M 490.5 492.46875 L 505.769531 480.648438 L 503.976562 506.980469 L 489.039062 519.125 Z M 508.074219 476.320312 L 509.910156 449.300781 L 524.636719 438.277344 L 522.648438 464.972656 Z M 526.765625 436.6875 L 540.878906 426.121094 L 538.757812 452.429688 L 524.78125 463.3125 Z M 541.09375 423.457031 L 526.960938 434.035156 L 529.003906 406.652344 L 543.277344 396.410156 Z M 498.785156 396.046875 L 472.796875 388.035156 L 487.71875 378.238281 L 513.425781 386.007812 Z M 397.027344 383.519531 L 422.171875 391.429688 L 405.703125 401.800781 L 380.292969 393.640625 Z M 385.429688 415.832031 L 384.921875 444.359375 L 359 435.554688 L 359.183594 407.21875 Z M 358.804688 465.257812 L 358.984375 437.664062 L 384.882812 446.464844 L 384.386719 474.238281 Z M 414.472656 486.929688 L 441.238281 496.328125 L 440.09375 523.769531 L 413.667969 514.195312 Z M 440.867188 553.324219 L 441.980469 526.585938 L 469.007812 536.375 L 467.535156 563.28125 Z M 469.585938 562.449219 L 471.027344 536.183594 L 486.589844 523.53125 L 485.167969 549.5 Z M 488.703125 521.824219 L 503.792969 509.707031 L 502.050781 535.304688 L 487.28125 547.730469 Z M 505.917969 507.988281 L 520.308594 496.363281 L 518.425781 521.609375 L 504.179688 533.523438 Z M 536.472656 480.730469 L 522.648438 491.898438 L 524.578125 466.007812 L 538.539062 455.136719 Z M 544.269531 393.234375 L 518.003906 385.296875 L 532.0625 375.652344 L 558.039062 383.355469 Z M 515.542969 384.554688 L 489.902344 376.804688 L 504.222656 367.398438 L 529.589844 374.917969 Z M 442.421875 378.671875 L 417.660156 371.039062 L 433.070312 361.71875 L 457.582031 369.128906 Z M 369.941406 375 L 394.480469 382.71875 L 377.765625 392.828125 L 352.980469 384.867188 Z M 350.648438 386.222656 L 375.496094 394.203125 L 358.066406 404.746094 L 332.964844 396.507812 Z M 357.183594 406.5625 L 357 434.875 L 331.667969 426.265625 L 331.542969 398.148438 Z M 356.988281 436.984375 L 356.808594 464.554688 L 331.804688 455.773438 L 331.679688 428.382812 Z M 356.792969 466.671875 L 356.617188 493.527344 L 331.933594 484.585938 L 331.8125 457.898438 Z M 358.617188 494.253906 L 358.792969 467.375 L 384.347656 476.347656 L 383.863281 503.398438 Z M 411.988281 570.84375 L 412.753906 544.972656 L 438.804688 554.695312 L 437.71875 580.71875 Z M 439.695312 581.476562 L 440.777344 555.429688 L 467.441406 565.375 L 466.003906 591.574219 Z M 469.457031 565.183594 L 484.835938 552.242188 L 483.453125 577.488281 L 468.058594 590.703125 Z M 486.949219 550.472656 L 501.863281 538.074219 L 500.167969 562.96875 L 485.570312 575.65625 Z M 503.992188 536.292969 L 518.21875 524.394531 L 516.386719 548.957031 L 502.300781 561.125 Z M 520.359375 522.605469 L 534.015625 511.1875 L 532.058594 535.414062 L 518.535156 547.097656 Z M 561.6875 501.320312 L 550.386719 497.492188 L 563.011719 486.933594 Z M 536.394531 506.582031 L 538.398438 481.746094 L 551.648438 471.042969 L 549.519531 495.605469 Z M 551.890625 468.277344 L 538.621094 478.992188 L 540.683594 453.46875 L 554.074219 443.039062 Z M 556.46875 438.640625 L 558.707031 412.777344 L 571.699219 403.054688 L 569.339844 428.617188 Z M 571.949219 400.367188 L 558.941406 410.101562 L 561.242188 383.523438 L 574.371094 374.101562 Z M 560.097656 381.878906 L 534.191406 374.195312 L 547.6875 364.9375 L 573.3125 372.394531 Z M 531.71875 373.460938 L 506.414062 365.960938 L 520.167969 356.929688 L 545.199219 364.214844 Z M 503.902344 365.214844 L 479.1875 357.886719 L 493.179688 349.074219 L 517.636719 356.191406 Z M 432.796875 359.542969 L 422.429688 356.410156 L 422.476562 354.867188 L 434.535156 358.492188 Z M 420.492188 354.269531 L 420.445312 355.8125 L 398.902344 349.300781 L 398.933594 347.78125 Z M 396.921875 348.191406 L 396.910156 348.699219 L 396.335938 348.523438 Z M 362.300781 356.070312 L 385.960938 363.367188 L 369.699219 372.824219 L 345.804688 365.308594 Z M 329.535156 397.492188 L 329.664062 425.585938 L 304.90625 417.171875 L 304.476562 389.269531 Z M 329.671875 427.703125 L 329.796875 455.070312 L 305.355469 446.484375 L 304.9375 419.296875 Z M 329.808594 457.195312 L 329.929688 483.859375 L 305.792969 475.113281 L 305.386719 448.617188 Z M 329.9375 485.992188 L 330.054688 511.980469 L 306.21875 503.085938 L 305.824219 477.257812 Z M 305.5625 504.980469 L 295.992188 511.34375 L 295.792969 501.332031 Z M 307.882812 505.84375 L 312.21875 507.460938 L 312.433594 525.632812 L 296.488281 536.59375 L 296.039062 513.71875 Z M 312.464844 528.042969 L 312.726562 550.136719 L 296.972656 561.3125 L 296.535156 538.992188 Z M 338.964844 559.414062 L 354.035156 548.378906 L 356.257812 549.226562 L 356.144531 566.117188 Z M 358.433594 522.566406 L 358.605469 496.378906 L 383.828125 505.515625 L 383.355469 531.867188 Z M 410.773438 544.234375 L 410.007812 570.082031 L 384.847656 560.429688 L 385.308594 534.734375 Z M 384.363281 587.605469 L 384.808594 562.5625 L 409.945312 572.203125 L 409.199219 597.390625 Z M 411.179688 598.171875 L 411.925781 572.964844 L 437.632812 582.828125 L 436.574219 608.179688 Z M 438.546875 608.957031 L 439.605469 583.585938 L 465.910156 593.675781 L 464.511719 619.191406 Z M 466.566406 618.285156 L 467.925781 593.484375 L 483.121094 580.273438 L 481.773438 604.816406 Z M 485.238281 578.441406 L 499.976562 565.78125 L 498.328125 589.992188 L 483.898438 602.925781 Z M 502.109375 563.9375 L 516.175781 551.785156 L 514.394531 575.679688 L 500.46875 588.089844 Z M 518.324219 549.929688 L 531.828125 538.261719 L 529.925781 561.84375 L 516.546875 573.761719 Z M 533.566406 541.625 L 535.335938 519.707031 L 559.238281 527.992188 L 557.210938 550.050781 Z M 551.691406 493.792969 L 553.8125 469.296875 L 566.535156 459.019531 L 564.296875 483.246094 Z M 547.335938 362.75 L 522.367188 355.484375 L 535.578125 346.808594 L 560.285156 353.871094 Z M 519.839844 354.746094 L 495.445312 347.648438 L 508.890625 339.179688 L 533.035156 346.082031 Z M 446.890625 351.019531 L 447.523438 335.527344 L 464.390625 340.433594 Z M 445.542969 334.949219 L 444.835938 352.261719 L 436.84375 357.097656 L 422.542969 352.792969 L 423.300781 328.480469 Z M 421.3125 327.902344 L 420.558594 352.195312 L 398.980469 345.703125 L 399.507812 321.558594 Z M 397.496094 321.941406 L 396.972656 345.855469 L 393.695312 347.726562 L 382.984375 344.488281 L 383.21875 329.738281 Z M 381.195312 330.84375 L 380.992188 343.886719 L 366.386719 339.472656 L 366.390625 338.929688 Z M 336.550781 348.132812 L 359.65625 355.257812 L 343.179688 364.484375 L 319.855469 357.144531 Z M 340.78125 365.828125 L 323.617188 375.4375 L 300.015625 367.855469 L 317.398438 358.472656 Z M 302.921875 418.613281 L 303.339844 445.777344 L 279.4375 437.382812 L 278.742188 410.398438 Z M 303.371094 447.910156 L 303.777344 474.386719 L 280.171875 465.832031 L 279.492188 439.527344 Z M 303.808594 476.527344 L 304.203125 502.332031 L 280.886719 493.632812 L 280.226562 467.984375 Z M 294.058594 515.035156 L 294.511719 537.953125 L 277.972656 549.320312 L 277.335938 526.160156 Z M 294.558594 540.351562 L 294.996094 562.714844 L 278.664062 574.296875 L 278.039062 551.703125 Z M 343.332031 583.125 L 356.003906 588.164062 L 355.929688 599.351562 L 349.617188 604.292969 L 327.316406 595.242188 Z M 358.417969 524.699219 L 383.316406 533.992188 L 382.371094 586.820312 L 358.078125 577.246094 Z M 437.429688 635.796875 L 438.460938 611.074219 L 464.414062 621.300781 L 463.050781 646.15625 Z M 465.109375 645.210938 L 466.429688 621.105469 L 481.445312 607.644531 L 480.136719 631.511719 Z M 483.570312 605.753906 L 498.136719 592.847656 L 496.53125 616.398438 L 482.265625 629.558594 Z M 500.273438 590.945312 L 514.183594 578.550781 L 512.449219 601.800781 L 498.675781 614.433594 Z M 516.335938 576.632812 L 529.691406 564.734375 L 527.839844 587.6875 L 514.605469 599.824219 Z M 532.050781 560.414062 L 542.496094 564.203125 L 530.894531 574.714844 Z M 561.1875 528.667969 L 584.496094 536.773438 L 582.214844 558.96875 L 559.15625 550.746094 Z M 561.375 526.613281 L 563.449219 504.03125 L 587.046875 512.023438 L 584.707031 534.726562 Z M 589.855469 484.734375 L 572.140625 479.300781 L 592.132812 462.578125 Z M 566.476562 481.425781 L 568.707031 457.265625 L 580.925781 447.390625 L 578.59375 471.292969 Z M 581.199219 444.597656 L 568.964844 454.480469 L 571.253906 429.664062 L 583.597656 420.054688 Z M 571.507812 426.929688 L 573.859375 401.4375 L 586.332031 392.105469 L 583.867188 417.308594 Z M 588.503906 390.476562 L 600.476562 381.515625 L 597.921875 406.367188 L 586.046875 415.609375 Z M 600.757812 378.804688 L 588.765625 387.777344 L 591.289062 361.964844 L 603.382812 353.289062 Z M 562.429688 352.398438 L 537.789062 345.355469 L 550.480469 337.019531 L 574.867188 343.867188 Z M 535.246094 344.628906 L 511.164062 337.746094 L 524.089844 329.609375 L 547.925781 336.300781 Z M 508.582031 337.007812 L 485.046875 330.28125 L 498.1875 322.335938 L 521.488281 328.878906 Z M 472.4375 335.578125 L 473.542969 315.417969 L 495.542969 321.59375 Z M 470.359375 336.835938 L 466.722656 339.027344 L 447.605469 333.464844 L 448.628906 308.417969 L 471.566406 314.863281 Z M 446.644531 307.859375 L 445.625 332.890625 L 423.363281 326.410156 L 424.140625 301.542969 Z M 422.15625 300.984375 L 421.378906 325.835938 L 399.554688 319.484375 L 400.09375 294.789062 Z M 397.546875 319.628906 L 383.253906 327.4375 L 383.640625 302.667969 L 398.082031 295.144531 Z M 381.621094 303.722656 L 381.230469 328.542969 L 366.414062 336.636719 L 366.640625 311.523438 Z M 364.628906 312.570312 L 364.398438 337.738281 L 363.0625 338.46875 L 349.335938 334.320312 L 349.101562 320.660156 Z M 347.320312 333.710938 L 332.59375 329.257812 L 347.117188 321.695312 Z M 330.050781 330.582031 L 352.355469 337.324219 L 336.335938 345.972656 L 313.828125 339.035156 Z M 311.300781 340.351562 L 333.863281 347.308594 L 317.191406 356.308594 L 294.417969 349.144531 Z M 291.90625 350.453125 L 314.734375 357.636719 L 297.371094 367.007812 L 274.332031 359.609375 Z M 276.71875 409.710938 L 277.414062 436.671875 L 254.039062 428.464844 L 253.078125 401.675781 Z M 277.46875 438.816406 L 278.148438 465.101562 L 255.054688 456.734375 L 254.117188 430.613281 Z M 278.203125 467.25 L 278.863281 492.878906 L 256.050781 484.367188 L 255.132812 458.894531 Z M 274.644531 501.316406 L 275.300781 525.105469 L 257.925781 536.660156 L 257.0625 512.609375 Z M 275.367188 527.46875 L 276.007812 550.671875 L 258.855469 562.460938 L 258.011719 539.011719 Z M 325.457031 596.648438 L 347.800781 605.714844 L 331.390625 618.558594 L 308.84375 609.222656 Z M 349.933594 606.589844 L 355.867188 609.074219 L 355.738281 628.640625 L 333.515625 619.441406 Z M 358.0625 579.394531 L 382.335938 588.957031 L 381.898438 613.351562 L 357.90625 603.65625 Z M 436.335938 662.015625 L 437.339844 637.921875 L 462.953125 648.273438 L 461.628906 672.492188 Z M 463.6875 671.511719 L 464.972656 648.074219 L 479.8125 634.382812 L 478.539062 657.59375 Z M 481.9375 632.429688 L 496.335938 619.296875 L 494.777344 642.210938 L 480.667969 655.582031 Z M 498.476562 617.332031 L 512.230469 604.71875 L 510.546875 627.34375 L 496.921875 640.1875 Z M 514.390625 602.738281 L 527.601562 590.621094 L 525.796875 612.964844 L 512.707031 625.304688 Z M 529.183594 595.945312 L 539.667969 599.886719 L 527.972656 610.914062 Z M 541.292969 598.359375 L 529.351562 593.871094 L 530.644531 577.820312 L 553.953125 586.421875 Z M 555.578125 584.886719 L 532.183594 576.25 L 544.628906 564.976562 L 567.789062 573.378906 Z M 569.421875 571.839844 L 546.308594 563.453125 L 558.316406 552.574219 L 581.203125 560.734375 Z M 591.980469 483.640625 L 594.339844 460.734375 L 605.519531 451.382812 L 603.070312 474.058594 Z M 592.429688 459.722656 L 580.785156 469.460938 L 583.113281 445.625 L 594.855469 436.140625 Z M 595.144531 433.332031 L 583.386719 442.832031 L 585.777344 418.359375 L 597.636719 409.125 Z M 614.457031 368.550781 L 602.9375 377.171875 L 605.558594 351.730469 L 617.171875 343.398438 Z M 604.414062 350.085938 L 579.53125 343.097656 L 591.5 334.890625 L 616.121094 341.683594 Z M 577.019531 342.390625 L 552.703125 335.5625 L 564.90625 327.546875 L 588.976562 334.191406 Z M 550.144531 334.84375 L 526.375 328.167969 L 538.800781 320.34375 L 562.335938 326.839844 Z M 497.894531 320.171875 L 475.175781 313.792969 L 488.015625 306.324219 L 510.519531 312.535156 Z M 472.488281 313.039062 L 450.28125 306.800781 L 463.308594 299.503906 L 485.316406 305.578125 Z M 447.550781 306.035156 L 425.835938 299.9375 L 439.042969 292.804688 L 460.5625 298.746094 Z M 358.898438 296.308594 L 379.957031 302.328125 L 365.539062 309.839844 L 344.296875 303.65625 Z M 341.667969 304.976562 L 362.972656 311.175781 L 347.984375 318.984375 L 326.5 312.613281 Z M 323.886719 313.925781 L 345.429688 320.3125 L 329.851562 328.429688 L 308.117188 321.859375 Z M 305.519531 323.167969 L 327.308594 329.753906 L 311.105469 338.195312 L 289.121094 331.417969 Z M 266.914062 342.59375 L 289.203125 349.605469 L 271.648438 358.746094 L 249.160156 351.523438 Z M 246.609375 352.808594 L 269.152344 360.046875 L 250.871094 369.570312 L 228.128906 362.105469 Z M 249.984375 371.386719 L 250.972656 398.84375 L 227.832031 390.980469 L 226.582031 363.707031 Z M 251.046875 400.984375 L 252.011719 427.753906 L 229.148438 419.722656 L 227.929688 393.128906 Z M 252.089844 429.902344 L 253.023438 456 L 230.433594 447.816406 L 229.246094 421.878906 Z M 254.09375 485.773438 L 254.988281 510.597656 L 232.921875 502.132812 L 231.792969 477.453125 Z M 255.066406 512.773438 L 255.933594 536.996094 L 234.128906 528.402344 L 233.023438 504.316406 Z M 256.011719 539.179688 L 256.863281 562.8125 L 235.304688 554.101562 L 234.226562 530.59375 Z M 284.234375 623.632812 L 283.652344 600.957031 L 305.855469 610.152344 L 306.203125 632.941406 Z M 308.21875 633.796875 L 307.871094 610.988281 L 330.550781 620.378906 L 330.652344 643.304688 Z M 332.660156 644.152344 L 332.558594 621.210938 L 355.726562 630.804688 L 355.574219 653.863281 Z M 357.738281 629.46875 L 357.890625 605.808594 L 381.859375 615.496094 L 381.433594 639.28125 Z M 381.394531 641.433594 L 380.980469 664.628906 L 357.574219 654.710938 L 357.722656 631.632812 Z M 382.96875 665.472656 L 383.382812 642.257812 L 407.574219 652.273438 L 406.882812 675.605469 Z M 408.863281 676.445312 L 409.554688 653.09375 L 434.277344 663.332031 L 433.300781 686.800781 Z M 435.269531 687.636719 L 436.25 664.148438 L 461.527344 674.613281 L 460.234375 698.21875 Z M 462.296875 697.203125 L 463.546875 674.414062 L 478.214844 660.503906 L 476.976562 683.082031 Z M 480.34375 658.496094 L 494.578125 645.152344 L 493.058594 667.445312 L 479.109375 681.015625 Z M 496.722656 643.128906 L 510.324219 630.304688 L 508.683594 652.324219 L 495.210938 665.363281 Z M 512.488281 628.265625 L 525.558594 615.945312 L 523.800781 637.695312 L 510.847656 650.230469 Z M 527.734375 613.894531 L 540.300781 602.046875 L 538.4375 623.535156 L 525.980469 635.585938 Z M 542.488281 599.980469 L 554.574219 588.589844 L 552.617188 609.816406 L 540.632812 621.410156 Z M 556.777344 586.511719 L 568.402344 575.550781 L 566.355469 596.523438 L 554.824219 607.679688 Z M 584.039062 560.8125 L 594.804688 550.660156 L 592.597656 571.128906 L 581.910156 581.46875 Z M 595.136719 547.597656 L 584.351562 557.765625 L 586.53125 536.570312 L 597.402344 526.601562 Z M 597.726562 523.585938 L 586.839844 533.566406 L 589.082031 511.820312 L 600.050781 502.042969 Z M 602.28125 500.058594 L 612.839844 490.652344 L 610.441406 511.921875 L 599.964844 521.53125 Z M 613.175781 487.667969 L 602.601562 497.089844 L 604.980469 475.058594 L 615.632812 465.851562 Z M 594.632812 457.878906 L 597.050781 434.367188 L 608.339844 425.246094 L 605.828125 448.515625 Z M 613.71875 394.066406 L 616.355469 369.632812 L 627.410156 361.355469 L 624.6875 385.527344 Z M 627.71875 358.625 L 616.648438 366.910156 L 619.355469 341.828125 L 630.515625 333.824219 Z M 618.214844 340.183594 L 593.660156 333.40625 L 605.167969 325.515625 L 629.464844 332.109375 Z M 591.136719 332.710938 L 567.132812 326.085938 L 578.871094 318.378906 L 602.632812 324.828125 Z M 564.5625 325.375 L 541.09375 318.898438 L 553.050781 311.367188 L 576.289062 317.675781 Z M 512.878906 311.109375 L 490.4375 304.914062 L 502.796875 297.726562 L 525.023438 303.761719 Z M 487.738281 304.167969 L 465.792969 298.113281 L 478.335938 291.089844 L 500.078125 296.992188 Z M 463.046875 297.355469 L 441.589844 291.429688 L 454.308594 284.566406 L 475.574219 290.339844 Z M 414.980469 284.085938 L 394.453125 278.421875 L 407.492188 271.859375 L 427.847656 277.382812 Z M 352.375 281.386719 L 372.734375 287.105469 L 358.695312 294.167969 L 338.164062 288.300781 Z M 335.464844 289.613281 L 356.054688 295.496094 L 341.472656 302.835938 L 320.707031 296.792969 Z M 281.445312 315.890625 L 302.734375 322.328125 L 286.355469 330.566406 L 264.886719 323.949219 Z M 262.246094 325.230469 L 283.773438 331.867188 L 266.738281 340.4375 L 245.027344 333.609375 Z M 224.542969 363.039062 L 225.792969 390.289062 L 203.160156 382.597656 L 201.65625 355.527344 Z M 225.890625 392.4375 L 227.109375 419.007812 L 204.742188 411.152344 L 203.277344 384.753906 Z M 227.207031 421.164062 L 228.394531 447.074219 L 206.289062 439.066406 L 204.863281 413.316406 Z M 228.496094 449.242188 L 229.652344 474.515625 L 207.804688 466.363281 L 206.410156 441.242188 Z M 229.753906 476.691406 L 230.882812 501.347656 L 209.285156 493.0625 L 207.925781 468.546875 Z M 230.980469 503.53125 L 232.085938 527.59375 L 210.734375 519.183594 L 209.40625 495.253906 Z M 232.183594 529.789062 L 233.261719 553.273438 L 212.152344 544.742188 L 210.855469 521.382812 Z M 233.363281 555.472656 L 234.414062 578.402344 L 213.539062 569.757812 L 212.273438 546.949219 Z M 234.515625 580.609375 L 235.539062 602.996094 L 214.894531 594.25 L 213.660156 571.976562 Z M 261.5625 637.875 L 260.773438 615.867188 L 282.265625 624.972656 L 282.835938 647.089844 Z M 284.859375 647.964844 L 284.292969 625.832031 L 306.234375 635.128906 L 306.578125 657.375 Z M 308.59375 658.25 L 308.253906 635.984375 L 330.664062 645.484375 L 330.765625 667.851562 Z M 332.773438 668.722656 L 332.671875 646.332031 L 355.5625 656.035156 L 355.414062 678.53125 Z M 357.414062 679.398438 L 357.558594 656.878906 L 380.941406 666.789062 L 380.539062 689.414062 Z M 382.527344 690.277344 L 382.929688 667.632812 L 406.820312 677.753906 L 406.144531 700.511719 Z M 408.125 701.367188 L 408.800781 678.59375 L 433.210938 688.9375 L 432.257812 711.824219 Z M 434.226562 712.675781 L 435.179688 689.773438 L 460.136719 700.34375 L 458.875 723.355469 Z M 460.9375 722.304688 L 462.152344 700.144531 L 476.652344 686.035156 L 475.449219 707.996094 Z M 478.785156 683.972656 L 492.855469 670.425781 L 491.378906 692.121094 L 477.585938 705.875 Z M 495.007812 668.347656 L 508.460938 655.328125 L 506.863281 676.765625 L 493.535156 689.984375 Z M 510.625 653.234375 L 523.558594 640.71875 L 521.847656 661.898438 L 509.03125 674.613281 Z M 525.738281 638.609375 L 538.175781 626.578125 L 536.363281 647.503906 L 524.035156 659.734375 Z M 540.371094 624.453125 L 552.332031 612.878906 L 550.425781 633.558594 L 538.5625 645.324219 Z M 554.542969 610.738281 L 566.054688 599.601562 L 564.054688 620.035156 L 552.636719 631.359375 Z M 568.277344 597.449219 L 579.355469 586.730469 L 577.277344 606.921875 L 566.285156 617.824219 Z M 581.59375 584.566406 L 592.261719 574.242188 L 590.105469 594.195312 L 579.519531 604.695312 Z M 594.511719 572.066406 L 604.785156 562.125 L 602.5625 581.84375 L 592.363281 591.957031 Z M 605.136719 558.996094 L 594.847656 568.953125 L 597.046875 548.546875 L 607.414062 538.773438 Z M 607.761719 535.695312 L 597.378906 545.484375 L 599.636719 524.550781 L 610.101562 514.953125 Z M 615.964844 462.917969 L 605.292969 472.140625 L 607.734375 449.53125 L 618.488281 440.539062 Z M 618.8125 437.65625 L 608.042969 446.660156 L 610.546875 423.464844 L 621.398438 414.695312 Z M 604.800781 323.339844 L 581.105469 316.910156 L 592.398438 309.492188 L 615.855469 315.757812 Z M 578.523438 316.207031 L 555.351562 309.917969 L 566.855469 302.671875 L 589.804688 308.800781 Z M 552.726562 309.207031 L 530.066406 303.054688 L 541.769531 295.972656 L 564.21875 301.96875 Z M 502.511719 295.574219 L 480.832031 289.691406 L 492.910156 282.925781 L 514.394531 288.664062 Z M 478.070312 288.941406 L 456.863281 283.183594 L 469.113281 276.574219 L 490.132812 282.1875 Z M 454.058594 282.421875 L 433.316406 276.792969 L 445.726562 270.328125 L 466.292969 275.820312 Z M 407.277344 269.726562 L 387.425781 264.335938 L 400.136719 258.152344 L 419.828125 263.410156 Z M 329.558594 274.980469 L 349.472656 280.574219 L 335.28125 287.476562 L 315.203125 281.738281 Z M 312.449219 283.035156 L 332.582031 288.789062 L 317.84375 295.957031 L 297.546875 290.050781 Z M 257.820312 308.75 L 278.621094 315.039062 L 262.082031 323.085938 L 241.109375 316.621094 Z M 238.417969 317.886719 L 259.445312 324.367188 L 242.246094 332.734375 L 221.042969 326.066406 Z M 239.625 334.007812 L 221.730469 342.714844 L 200.296875 335.832031 L 218.367188 327.324219 Z M 201.234375 384.058594 L 202.695312 410.433594 L 180.8125 402.75 L 179.113281 376.542969 Z M 202.816406 412.597656 L 204.242188 438.324219 L 182.609375 430.488281 L 180.953125 404.921875 Z M 204.363281 440.5 L 205.753906 465.597656 L 184.371094 457.621094 L 182.75 432.671875 Z M 207.355469 494.46875 L 208.683594 518.375 L 187.773438 510.132812 L 186.234375 486.363281 Z M 208.804688 520.574219 L 210.097656 543.910156 L 189.421875 535.554688 L 187.917969 512.34375 Z M 210.21875 546.121094 L 211.484375 568.90625 L 191.035156 560.441406 L 189.566406 537.773438 Z M 212.964844 595.605469 L 214.171875 617.339844 L 194.164062 608.675781 L 192.761719 587.042969 Z M 262.414062 661.582031 L 261.644531 640.089844 L 282.890625 649.296875 L 283.449219 670.890625 Z M 285.476562 671.785156 L 284.917969 650.171875 L 306.609375 659.570312 L 306.941406 681.285156 Z M 308.960938 682.179688 L 308.628906 660.445312 L 330.777344 670.039062 L 330.875 691.875 Z M 332.882812 692.765625 L 332.785156 670.910156 L 355.402344 680.707031 L 355.257812 702.664062 Z M 357.253906 703.546875 L 357.398438 681.574219 L 380.5 691.582031 L 380.105469 713.660156 Z M 382.09375 714.539062 L 382.488281 692.441406 L 406.082031 702.664062 L 405.425781 724.863281 Z M 433.207031 737.15625 L 434.136719 714.820312 L 458.777344 725.492188 L 457.546875 747.929688 Z M 459.613281 746.84375 L 460.792969 725.289062 L 475.125 710.992188 L 473.953125 732.359375 Z M 477.261719 708.871094 L 491.175781 695.144531 L 489.738281 716.257812 L 476.09375 730.1875 Z M 493.328125 693.011719 L 506.636719 679.8125 L 505.082031 700.679688 L 491.894531 714.066406 Z M 508.804688 677.660156 L 521.601562 664.96875 L 519.9375 685.59375 L 507.253906 698.46875 Z M 538.292969 648.410156 L 550.136719 636.664062 L 548.277344 656.8125 L 536.53125 668.738281 Z M 552.351562 634.464844 L 563.75 623.160156 L 561.804688 643.074219 L 550.496094 654.558594 Z M 565.980469 620.949219 L 576.953125 610.0625 L 574.929688 629.746094 L 564.039062 640.804688 Z M 592.023438 595.117188 L 602.203125 585.019531 L 600.035156 604.25 L 589.929688 614.515625 Z M 604.472656 582.769531 L 614.28125 573.039062 L 612.050781 592.050781 L 602.3125 601.9375 Z M 617.3125 547.214844 L 607.398438 556.804688 L 609.671875 536.648438 L 619.65625 527.234375 Z M 620.019531 524.140625 L 610.019531 533.566406 L 612.347656 512.890625 L 622.421875 503.652344 Z M 628.46875 452.117188 L 618.199219 460.988281 L 620.714844 438.675781 L 631.058594 430.023438 Z M 631.398438 427.128906 L 621.039062 435.792969 L 623.617188 412.90625 L 634.058594 404.472656 Z M 634.390625 401.625 L 623.9375 410.070312 L 626.585938 386.585938 L 637.117188 378.386719 Z M 626.898438 383.804688 L 629.613281 359.707031 L 640.242188 351.753906 L 637.445312 375.59375 Z M 307.136719 268.683594 L 326.613281 274.152344 L 312.277344 280.902344 L 292.648438 275.292969 Z M 175.179688 346.839844 L 176.917969 373.679688 L 155.257812 366.320312 L 153.28125 339.652344 Z M 177.058594 375.84375 L 178.757812 402.027344 L 157.339844 394.507812 L 155.417969 368.488281 Z M 178.898438 404.199219 L 180.554688 429.742188 L 159.382812 422.074219 L 157.503906 396.6875 Z M 180.695312 431.925781 L 182.3125 456.851562 L 161.375 449.039062 L 159.542969 424.261719 Z M 182.453125 459.042969 L 184.03125 483.371094 L 163.328125 475.425781 L 161.539062 451.238281 Z M 184.175781 485.570312 L 185.714844 509.320312 L 165.238281 501.253906 L 163.492188 477.636719 Z M 185.859375 511.53125 L 187.363281 534.722656 L 167.109375 526.535156 L 165.402344 503.46875 Z M 187.503906 536.9375 L 188.972656 559.585938 L 168.941406 551.289062 L 167.273438 528.761719 Z M 189.117188 561.8125 L 190.550781 583.933594 L 170.734375 575.535156 L 169.105469 553.527344 Z M 190.695312 586.167969 L 192.097656 607.777344 L 172.492188 599.285156 L 170.902344 577.78125 Z M 262.496094 663.808594 L 283.503906 673.105469 L 284.046875 694.191406 L 263.25 684.800781 Z M 285.53125 674 L 306.976562 683.492188 L 307.300781 704.691406 L 286.074219 695.109375 Z M 308.992188 684.382812 L 330.886719 694.070312 L 330.980469 715.386719 L 309.316406 705.605469 Z M 332.894531 694.957031 L 355.242188 704.847656 L 355.105469 726.277344 L 332.992188 716.292969 Z M 357.242188 705.734375 L 380.066406 715.832031 L 379.679688 737.375 L 357.101562 727.179688 Z M 382.054688 716.710938 L 405.363281 727.023438 L 404.71875 748.683594 L 381.667969 738.273438 Z M 407.339844 727.898438 L 431.148438 738.433594 L 430.242188 760.207031 L 406.699219 749.574219 Z M 433.117188 739.304688 L 457.445312 750.070312 L 456.246094 771.953125 L 432.210938 761.09375 Z M 459.460938 749.867188 L 473.632812 735.398438 L 472.492188 756.1875 L 458.3125 770.832031 Z M 475.773438 733.222656 L 489.53125 719.324219 L 488.132812 739.875 L 474.636719 753.960938 Z M 491.6875 717.132812 L 504.851562 703.765625 L 503.335938 724.082031 L 490.292969 737.628906 Z M 507.023438 701.558594 L 519.683594 688.703125 L 518.0625 708.789062 L 505.515625 721.820312 Z M 521.875 686.476562 L 534.058594 674.109375 L 532.335938 693.964844 L 520.257812 706.511719 Z M 536.261719 671.867188 L 547.988281 659.960938 L 546.175781 679.59375 L 534.546875 691.671875 Z M 550.207031 657.707031 L 561.496094 646.246094 L 559.597656 665.652344 L 548.398438 677.285156 Z M 563.730469 643.972656 L 574.601562 632.9375 L 572.625 652.125 L 561.839844 663.328125 Z M 576.847656 630.652344 L 587.320312 620.019531 L 585.273438 638.988281 L 574.878906 649.78125 Z M 589.582031 617.71875 L 599.671875 607.476562 L 597.558594 626.230469 L 587.542969 636.632812 Z M 601.949219 605.164062 L 611.671875 595.289062 L 609.496094 613.832031 L 599.84375 623.859375 Z M 626.410156 558.191406 L 616.941406 567.582031 L 619.21875 548.15625 L 628.753906 538.929688 Z M 629.136719 535.773438 L 619.585938 545.011719 L 621.921875 525.097656 L 631.539062 516.03125 Z M 631.917969 512.917969 L 622.285156 522 L 624.683594 501.578125 L 634.382812 492.679688 Z M 634.753906 489.621094 L 625.039062 498.535156 L 627.496094 477.59375 L 637.28125 468.875 Z M 637.648438 465.867188 L 627.847656 474.597656 L 630.367188 453.121094 L 640.238281 444.59375 Z M 640.597656 441.636719 L 630.710938 450.175781 L 633.296875 428.152344 L 643.253906 419.828125 Z M 643.605469 416.917969 L 633.636719 425.257812 L 636.285156 402.671875 L 646.328125 394.558594 Z M 646.675781 391.703125 L 636.617188 399.828125 L 639.335938 376.660156 L 649.46875 368.769531 Z M 649.808594 365.96875 L 639.664062 373.867188 L 642.453125 350.101562 L 652.671875 342.449219 Z M 371.4375 239.367188 L 390.089844 244.269531 L 377.71875 250.09375 L 358.921875 245.074219 Z M 174.382812 624.820312 L 193.757812 633.394531 L 195.097656 654.027344 L 175.902344 645.359375 Z M 611.792969 611.445312 L 613.960938 592.964844 L 623.332031 583.449219 L 621.101562 601.78125 Z M 611.792969 611.445312 " fill-opacity="1" fill-rule="nonzero"/></g></svg>