<svg xmlns="http://www.w3.org/2000/svg" xmlns:xlink="http://www.w3.org/1999/xlink" width="1080" zoomAndPan="magnify" viewBox="0 0 810 1012.49997" height="1350" preserveAspectRatio="xMidYMid meet" version="1.0"><defs><clipPath id="222a85787e"><path d="M 31.878906 351.464844 L 777.761719 351.464844 L 777.761719 556 L 31.878906 556 Z M 31.878906 351.464844 " clip-rule="nonzero"/></clipPath><clipPath id="c420d7402a"><path d="M 404 453 L 777.761719 453 L 777.761719 654 L 404 654 Z M 404 453 " clip-rule="nonzero"/></clipPath><clipPath id="fce1d826a5"><path d="M 404 351.464844 L 406 351.464844 L 406 653 L 404 653 Z M 404 351.464844 " clip-rule="nonzero"/></clipPath></defs><g clip-path="url(#222a85787e)"><path fill="#383838" d="M 387.121094 555.632812 C 304.769531 555.632812 219.921875 554.933594 141.355469 533.101562 C 100.574219 521.9375 32.078125 496.519531 31.980469 453.554688 C 31.878906 415.875 95.488281 400.027344 129.589844 391.554688 C 134.074219 390.457031 138.0625 389.460938 141.355469 388.5625 C 231.683594 363.941406 320.421875 351.480469 404.871094 351.480469 C 489.121094 351.480469 577.855469 363.941406 668.386719 388.5625 C 671.675781 389.460938 675.566406 390.457031 680.050781 391.554688 C 714.148438 400.027344 777.761719 415.875 777.761719 453.65625 L 777.261719 453.65625 L 777.761719 453.65625 C 777.761719 473.09375 763.601562 491.035156 735.585938 506.886719 C 713.152344 519.644531 686.632812 528.21875 668.386719 533.300781 C 586.332031 555.832031 497.792969 555.832031 412.148438 555.730469 L 396.097656 555.730469 C 393.203125 555.632812 390.113281 555.632812 387.121094 555.632812 Z M 404.871094 352.476562 C 320.421875 352.476562 231.882812 364.9375 141.652344 389.460938 C 138.261719 390.359375 134.375 391.355469 129.886719 392.449219 C 95.988281 400.925781 32.976562 416.675781 32.976562 453.554688 C 33.074219 495.921875 101.074219 521.042969 141.652344 532.207031 C 223.011719 554.734375 311.050781 554.632812 396.195312 554.632812 L 412.246094 554.632812 C 497.792969 554.632812 586.230469 554.632812 668.1875 532.207031 C 700.890625 523.234375 776.863281 497.617188 776.863281 453.554688 C 776.863281 416.574219 713.851562 400.925781 679.953125 392.449219 C 675.464844 391.355469 671.578125 390.359375 668.1875 389.460938 C 577.65625 364.9375 489.121094 352.476562 404.871094 352.476562 Z M 404.871094 352.476562 " fill-opacity="1" fill-rule="nonzero"/></g><path fill="#383838" d="M 339.761719 552.640625 C 276.949219 552.640625 213.339844 550.449219 153.917969 534 C 136.269531 529.117188 110.644531 520.542969 89.109375 507.683594 C 62.988281 492.132812 49.726562 474.390625 49.726562 454.851562 C 49.625 421.457031 109.449219 407.003906 141.652344 399.328125 C 146.4375 398.132812 150.527344 397.136719 153.917969 396.238281 C 248.933594 370.421875 330.988281 357.859375 404.871094 357.859375 C 478.550781 357.859375 560.605469 370.421875 655.824219 396.238281 C 659.214844 397.136719 663.300781 398.132812 668.085938 399.328125 C 700.191406 407.105469 759.914062 421.457031 760.113281 454.953125 C 760.3125 500.507812 687.328125 525.425781 655.921875 534.101562 C 585.632812 553.4375 509.457031 552.941406 435.878906 552.539062 C 425.707031 552.441406 415.140625 552.441406 404.96875 552.441406 C 394.5 552.441406 383.734375 552.539062 373.265625 552.539062 C 362.097656 552.640625 350.929688 552.640625 339.761719 552.640625 Z M 404.871094 358.859375 C 331.089844 358.859375 249.035156 371.417969 154.117188 397.136719 C 150.726562 398.035156 146.636719 399.03125 141.851562 400.226562 C 109.945312 407.902344 50.625 422.15625 50.722656 454.953125 C 50.824219 499.609375 123.109375 524.53125 154.214844 533.101562 C 224.007812 552.441406 299.882812 551.941406 373.265625 551.542969 C 383.734375 551.445312 394.5 551.445312 404.96875 551.445312 C 415.140625 551.445312 425.707031 551.542969 435.878906 551.542969 C 509.457031 551.941406 585.53125 552.441406 655.625 533.101562 C 686.832031 524.53125 759.214844 499.808594 759.117188 454.953125 C 759.015625 422.257812 699.691406 407.902344 667.886719 400.226562 C 663.101562 399.03125 659.015625 398.132812 655.625 397.136719 C 560.507812 371.417969 478.449219 358.859375 404.871094 358.859375 Z M 404.871094 358.859375 " fill-opacity="1" fill-rule="nonzero"/><path fill="#383838" d="M 322.414062 552.242188 C 269.472656 552.242188 216.230469 549.847656 166.378906 535.992188 C 136.566406 527.71875 67.375 503.695312 67.375 458.839844 C 67.375 428.636719 124.105469 415.179688 154.515625 408 C 159.199219 406.90625 163.1875 405.90625 166.378906 405.109375 C 262.792969 378.894531 338.566406 366.632812 404.871094 366.632812 C 471.074219 366.632812 546.746094 378.792969 643.359375 404.910156 C 646.550781 405.808594 650.539062 406.707031 655.226562 407.800781 C 685.636719 414.980469 742.066406 428.4375 742.367188 458.640625 C 742.464844 477.578125 730.101562 494.824219 705.574219 510.078125 C 683.441406 523.734375 657.121094 532.105469 643.359375 535.894531 C 579.847656 553.339844 510.753906 552.539062 444.054688 551.742188 C 430.492188 551.542969 417.730469 551.445312 404.96875 551.445312 C 392.007812 551.445312 379.046875 551.644531 365.386719 551.742188 C 351.03125 552.042969 336.773438 552.242188 322.414062 552.242188 Z M 404.871094 367.628906 C 338.566406 367.628906 262.890625 379.792969 166.679688 405.910156 C 163.488281 406.804688 159.5 407.703125 154.8125 408.800781 C 124.703125 415.976562 68.46875 429.332031 68.46875 458.738281 C 68.46875 502.898438 137.167969 526.722656 166.777344 534.996094 C 229.890625 552.539062 298.785156 551.644531 365.289062 550.847656 C 379.046875 550.648438 392.007812 550.546875 404.96875 550.546875 C 417.730469 550.546875 430.59375 550.746094 444.152344 550.847656 C 510.855469 551.644531 579.75 552.441406 643.160156 534.996094 C 666.292969 528.617188 741.769531 504.292969 741.46875 458.738281 C 741.269531 429.332031 685.234375 415.976562 655.125 408.800781 C 650.441406 407.703125 646.351562 406.707031 643.160156 405.910156 C 546.648438 379.792969 470.972656 367.628906 404.871094 367.628906 Z M 404.871094 367.628906 " fill-opacity="1" fill-rule="nonzero"/><path fill="#383838" d="M 490.613281 553.738281 C 475.660156 553.738281 460.703125 553.539062 445.847656 553.238281 C 431.589844 553.039062 418.230469 552.839844 404.871094 552.839844 C 391.609375 552.839844 378.148438 553.039062 363.890625 553.238281 C 301.875 554.234375 237.765625 555.230469 178.941406 538.984375 C 156.808594 532.902344 84.621094 509.378906 85.121094 464.820312 C 85.421875 437.109375 138.960938 424.449219 167.773438 417.570312 C 172.160156 416.472656 176.050781 415.578125 179.042969 414.78125 C 242.953125 397.433594 326.402344 377.597656 404.871094 377.597656 C 483.335938 377.597656 566.789062 397.433594 630.699219 414.78125 C 633.6875 415.578125 637.476562 416.472656 641.964844 417.570312 C 670.679688 424.347656 724.21875 437.007812 724.617188 464.820312 C 725.21875 509.378906 652.933594 532.902344 630.796875 538.984375 C 586.03125 551.34375 538.171875 553.738281 490.613281 553.738281 Z M 404.871094 551.742188 C 418.230469 551.742188 431.589844 551.941406 445.847656 552.140625 C 507.765625 553.140625 571.875 554.136719 630.5 537.886719 C 652.433594 531.808594 724.121094 508.582031 723.621094 464.722656 C 723.324219 437.707031 670.28125 425.246094 641.765625 418.46875 C 637.277344 417.371094 633.488281 416.472656 630.5 415.675781 C 566.589844 398.433594 483.238281 378.59375 404.871094 378.59375 C 326.503906 378.59375 243.152344 398.433594 179.242188 415.675781 C 176.25 416.472656 172.460938 417.371094 167.972656 418.46875 C 139.460938 425.246094 86.417969 437.804688 86.117188 464.722656 C 85.621094 508.582031 157.207031 531.808594 179.242188 537.886719 C 237.964844 554.136719 301.976562 553.140625 363.890625 552.140625 C 378.148438 552.042969 391.609375 551.742188 404.871094 551.742188 Z M 404.871094 551.742188 " fill-opacity="1" fill-rule="nonzero"/><path fill="#383838" d="M 486.824219 556.828125 C 472.46875 556.828125 458.210938 556.628906 443.953125 556.328125 C 430.394531 556.128906 417.53125 555.929688 404.871094 555.929688 C 392.207031 555.929688 379.445312 556.128906 365.886719 556.328125 C 307.460938 557.324219 247.039062 558.222656 191.503906 542.871094 C 170.566406 537.089844 102.171875 514.859375 102.867188 472.597656 C 103.265625 446.679688 153.917969 434.617188 181.035156 428.136719 C 185.125 427.140625 188.710938 426.34375 191.503906 425.546875 C 252.125 409.199219 331.089844 390.359375 404.871094 390.359375 C 478.550781 390.359375 557.617188 409.199219 618.234375 425.546875 C 621.027344 426.34375 624.617188 427.140625 628.703125 428.136719 C 655.921875 434.617188 706.472656 446.578125 706.871094 472.597656 C 707.46875 514.859375 639.171875 537.089844 618.234375 542.871094 C 576.261719 554.535156 531.492188 556.828125 486.824219 556.828125 Z M 404.871094 554.933594 C 417.53125 554.933594 430.394531 555.132812 443.953125 555.332031 C 502.28125 556.328125 562.699219 557.226562 618.035156 541.976562 C 638.773438 536.191406 706.574219 514.164062 705.875 472.695312 C 705.476562 447.476562 655.425781 435.613281 628.503906 429.234375 C 624.316406 428.238281 620.726562 427.441406 617.9375 426.640625 C 557.417969 410.195312 478.449219 391.453125 404.871094 391.453125 C 331.289062 391.453125 252.324219 410.195312 191.804688 426.640625 C 189.011719 427.441406 185.421875 428.238281 181.335938 429.234375 C 154.414062 435.613281 104.363281 447.574219 103.863281 472.695312 C 103.167969 514.164062 170.964844 536.191406 191.703125 541.976562 C 247.039062 557.324219 307.359375 556.328125 365.785156 555.332031 C 379.445312 555.132812 392.207031 554.933594 404.871094 554.933594 Z M 404.871094 554.933594 " fill-opacity="1" fill-rule="nonzero"/><path fill="#383838" d="M 476.457031 561.414062 C 463.894531 561.414062 451.628906 561.214844 439.667969 561.113281 C 427.601562 560.914062 416.234375 560.816406 404.871094 560.816406 C 393.601562 560.816406 382.136719 561.015625 370.074219 561.113281 C 317.03125 561.910156 256.910156 562.707031 204.066406 548.054688 C 178.742188 541.078125 120.015625 520.542969 120.617188 482.265625 C 121.015625 457.644531 168.871094 446.082031 194.59375 439.898438 C 198.382812 439.003906 201.574219 438.207031 204.167969 437.507812 C 286.523438 415.277344 350.230469 404.910156 404.871094 404.910156 C 459.507812 404.910156 523.316406 415.277344 605.671875 437.507812 C 608.265625 438.207031 611.554688 439.003906 615.246094 439.898438 C 640.867188 446.082031 688.625 457.542969 689.125 482.164062 C 689.421875 498.214844 679.152344 512.867188 658.515625 525.726562 C 639.871094 537.390625 617.4375 544.667969 605.671875 547.855469 C 564.792969 559.320312 519.429688 561.414062 476.457031 561.414062 Z M 404.871094 559.71875 C 416.136719 559.71875 427.601562 559.917969 439.667969 560.015625 C 495.203125 560.816406 552.628906 561.613281 605.472656 546.957031 C 625.015625 541.476562 688.925781 520.84375 688.128906 482.164062 C 687.730469 458.339844 640.371094 446.878906 615.042969 440.796875 C 611.257812 439.898438 607.964844 439.101562 605.375 438.40625 C 523.117188 416.273438 459.40625 405.910156 404.871094 405.910156 C 350.332031 405.910156 286.621094 416.273438 204.367188 438.503906 C 201.773438 439.203125 198.582031 440 194.792969 440.898438 C 169.371094 446.976562 122.011719 458.441406 121.613281 482.265625 C 121.3125 498.015625 131.484375 512.367188 151.722656 525.027344 C 170.167969 536.59375 192.601562 543.769531 204.265625 547.058594 C 257.007812 561.710938 314.4375 560.914062 370.074219 560.117188 C 382.136719 559.917969 393.601562 559.71875 404.871094 559.71875 Z M 404.871094 559.71875 " fill-opacity="1" fill-rule="nonzero"/><path fill="#383838" d="M 345.445312 567.292969 C 301.875 567.292969 257.90625 565.5 216.628906 554.035156 C 193 547.457031 138.0625 528.417969 138.363281 493.230469 C 138.5625 469.605469 184.027344 458.441406 208.453125 452.460938 C 211.644531 451.664062 214.4375 450.964844 216.628906 450.367188 C 290.410156 430.429688 352.027344 420.761719 404.871094 420.761719 C 457.710938 420.761719 519.230469 430.429688 593.109375 450.367188 C 595.402344 450.964844 598.195312 451.664062 601.484375 452.460938 C 625.8125 458.441406 671.179688 469.503906 671.476562 493.230469 C 671.875 528.417969 616.839844 547.457031 593.210938 554.035156 C 542.160156 568.191406 486.925781 567.691406 433.484375 567.09375 C 413.742188 566.894531 396.195312 566.894531 376.453125 567.09375 C 366.085938 567.195312 355.816406 567.292969 345.445312 567.292969 Z M 404.871094 421.757812 C 352.125 421.757812 290.609375 431.425781 216.929688 451.363281 C 214.734375 451.960938 211.945312 452.660156 208.753906 453.457031 C 184.625 459.339844 139.660156 470.402344 139.359375 493.230469 C 139.058594 527.71875 193.398438 546.558594 216.828125 553.039062 C 267.679688 567.195312 322.914062 566.597656 376.253906 566.097656 C 395.996094 565.898438 413.542969 565.898438 433.386719 566.097656 C 486.726562 566.597656 541.960938 567.195312 592.910156 553.039062 C 616.339844 546.558594 670.777344 527.71875 670.378906 493.230469 C 670.179688 470.304688 625.3125 459.339844 601.1875 453.457031 C 597.894531 452.660156 595.105469 451.960938 592.8125 451.363281 C 519.128906 431.425781 457.613281 421.757812 404.871094 421.757812 Z M 404.871094 421.757812 " fill-opacity="1" fill-rule="nonzero"/><path fill="#383838" d="M 445.75 574.371094 C 438.667969 574.371094 431.691406 574.371094 424.609375 574.273438 C 411.25 574.171875 398.390625 574.171875 385.027344 574.273438 C 332.984375 574.570312 279.144531 574.769531 229.191406 560.914062 C 201.675781 553.238281 155.511719 535.894531 156.109375 505.292969 C 156.609375 482.265625 199.082031 471.699219 221.914062 466.015625 C 224.707031 465.320312 227.199219 464.722656 229.191406 464.121094 C 294.199219 446.679688 353.222656 437.804688 404.871094 437.804688 C 456.515625 437.804688 515.640625 446.679688 580.546875 464.222656 C 582.640625 464.820312 585.035156 465.417969 587.824219 466.117188 C 610.65625 471.796875 653.132812 482.363281 653.628906 505.390625 C 654.226562 535.894531 608.066406 553.339844 580.546875 561.015625 C 537.375 572.976562 491.214844 574.371094 445.75 574.371094 Z M 404.871094 573.273438 C 411.351562 573.273438 418.03125 573.273438 424.710938 573.375 C 476.65625 573.574219 530.496094 573.773438 580.347656 560.015625 C 607.667969 552.441406 653.332031 535.296875 652.734375 505.390625 C 652.332031 483.0625 610.257812 472.695312 587.726562 467.011719 C 584.933594 466.316406 582.441406 465.71875 580.347656 465.121094 C 515.539062 447.574219 456.515625 438.703125 404.96875 438.703125 C 353.421875 438.703125 294.296875 447.675781 229.492188 465.121094 C 227.398438 465.71875 225.003906 466.316406 222.113281 467.011719 C 199.582031 472.597656 157.503906 483.0625 157.105469 505.390625 C 156.507812 535.195312 202.171875 552.441406 229.492188 560.015625 C 279.34375 573.871094 333.082031 573.574219 385.128906 573.375 C 391.808594 573.273438 398.390625 573.273438 404.871094 573.273438 Z M 404.871094 573.273438 " fill-opacity="1" fill-rule="nonzero"/><path fill="#383838" d="M 388.019531 582.445312 C 339.066406 582.445312 288.816406 581.746094 241.753906 568.691406 C 210.449219 560.015625 173.359375 544.265625 173.855469 518.449219 C 174.253906 496.019531 214.335938 485.851562 235.871094 480.371094 C 238.066406 479.773438 240.058594 479.273438 241.753906 478.875 C 297.789062 463.722656 354.21875 455.75 404.871094 455.75 C 455.519531 455.75 511.953125 463.722656 567.984375 478.875 C 569.578125 479.273438 571.472656 479.773438 573.667969 480.371094 C 595.304688 485.851562 635.484375 496.121094 635.882812 518.550781 C 636.382812 544.367188 599.191406 560.117188 567.984375 568.789062 C 518.234375 582.644531 464.792969 582.546875 413.046875 582.546875 L 396.496094 582.546875 C 393.804688 582.445312 390.910156 582.445312 388.019531 582.445312 Z M 404.871094 456.648438 C 354.320312 456.648438 297.988281 464.621094 241.953125 479.773438 C 240.257812 480.269531 238.265625 480.769531 236.070312 481.269531 C 214.835938 486.652344 175.253906 496.71875 174.753906 518.449219 C 174.253906 543.667969 211.046875 559.121094 241.953125 567.792969 C 291.605469 581.546875 344.949219 581.546875 396.59375 581.546875 L 413.144531 581.546875 C 464.792969 581.546875 518.132812 581.648438 567.785156 567.792969 C 593.109375 560.714844 635.484375 544.964844 634.984375 518.449219 C 634.585938 496.820312 593.308594 486.351562 573.46875 481.269531 C 571.375 480.769531 569.480469 480.269531 567.785156 479.773438 C 511.753906 464.621094 455.417969 456.648438 404.871094 456.648438 Z M 404.871094 456.648438 " fill-opacity="1" fill-rule="nonzero"/><path fill="#383838" d="M 404.871094 591.21875 C 350.230469 591.21875 301.277344 590.121094 254.316406 577.0625 C 212.34375 565.398438 191.304688 550.25 191.605469 532.007812 C 192.003906 510.277344 231.1875 500.007812 250.03125 495.125 C 251.625 494.726562 253.023438 494.328125 254.316406 494.027344 C 302.574219 480.96875 354.621094 474.089844 404.871094 474.089844 C 455.121094 474.089844 507.164062 480.96875 555.421875 494.027344 C 556.71875 494.425781 558.214844 494.824219 559.910156 495.222656 C 580.148438 500.507812 617.738281 510.375 618.234375 532.105469 C 618.535156 550.347656 597.496094 565.5 555.523438 577.164062 C 508.5625 590.222656 459.507812 591.21875 404.871094 591.21875 Z M 404.871094 475.085938 C 354.71875 475.085938 302.671875 481.964844 254.515625 495.023438 C 253.222656 495.324219 251.824219 495.722656 250.230469 496.121094 C 231.585938 501.003906 192.898438 511.074219 192.5 532.105469 C 192.300781 544.265625 202.871094 561.8125 254.515625 576.164062 C 301.378906 589.222656 350.332031 590.222656 404.871094 590.222656 C 459.40625 590.222656 508.363281 589.125 555.222656 576.164062 C 596.699219 564.601562 617.539062 549.847656 617.238281 532.105469 C 616.839844 511.171875 579.648438 501.402344 559.710938 496.21875 C 558.113281 495.820312 556.617188 495.421875 555.222656 495.023438 C 507.066406 481.964844 455.121094 475.085938 404.871094 475.085938 Z M 404.871094 475.085938 " fill-opacity="1" fill-rule="nonzero"/><path fill="#383838" d="M 404.871094 600.386719 C 359.902344 600.386719 312.144531 598.695312 266.78125 586.035156 C 252.523438 582.046875 209.152344 569.984375 209.25 546.160156 C 209.25 525.226562 244.546875 515.757812 263.589844 510.675781 C 264.6875 510.375 265.785156 510.078125 266.78125 509.777344 C 307.859375 498.613281 354.320312 493.03125 404.871094 493.03125 C 455.121094 493.03125 501.582031 498.710938 542.960938 509.875 C 543.855469 510.175781 544.953125 510.375 546.050781 510.675781 C 563.699219 515.359375 600.386719 525.128906 600.488281 546.160156 C 600.488281 567.59375 567.6875 579.15625 542.960938 586.035156 C 497.695312 598.695312 449.835938 600.386719 404.871094 600.386719 Z M 404.871094 494.027344 C 354.417969 494.027344 307.957031 499.710938 266.980469 510.875 C 265.984375 511.171875 264.984375 511.472656 263.789062 511.769531 C 246.441406 516.457031 210.25 526.125 210.25 546.261719 C 210.25 569.386719 253.023438 581.347656 267.078125 585.238281 C 312.34375 597.695312 360.003906 599.390625 404.871094 599.390625 C 449.738281 599.390625 497.496094 597.695312 542.660156 585.039062 C 556.71875 581.148438 599.492188 569.1875 599.492188 546.0625 C 599.492188 525.726562 563.199219 516.15625 545.851562 511.570312 C 544.753906 511.273438 543.757812 510.972656 542.761719 510.773438 C 501.484375 499.609375 455.121094 494.027344 404.871094 494.027344 Z M 404.871094 494.027344 " fill-opacity="1" fill-rule="nonzero"/><path fill="#383838" d="M 404.871094 609.757812 C 353.820312 609.757812 313.941406 605.171875 279.34375 595.503906 C 263.691406 591.117188 227.199219 580.851562 227.097656 560.414062 C 227 540.378906 261.496094 531.007812 278.046875 526.425781 L 279.34375 526.027344 C 314.4375 516.457031 354.320312 511.96875 404.871094 511.96875 C 455.121094 511.96875 495 516.457031 530.398438 526.027344 L 531.292969 526.226562 C 548.042969 530.710938 582.742188 540.179688 582.640625 560.316406 C 582.542969 580.851562 544.652344 591.417969 530.398438 595.40625 C 495.402344 605.171875 455.519531 609.757812 404.871094 609.757812 Z M 404.871094 512.96875 C 354.320312 512.96875 314.539062 517.453125 279.542969 527.023438 L 278.246094 527.421875 C 261.894531 531.90625 227.894531 541.175781 227.996094 560.414062 C 228.09375 580.054688 264.1875 590.222656 279.542969 594.507812 C 314.039062 604.277344 353.921875 608.761719 404.871094 608.761719 C 455.417969 608.761719 495.203125 604.277344 530.195312 594.507812 C 544.253906 590.621094 581.644531 580.152344 581.742188 560.414062 C 581.84375 541.078125 547.546875 531.808594 531.09375 527.320312 L 530.195312 527.121094 C 494.902344 517.453125 455.121094 512.96875 404.871094 512.96875 Z M 404.871094 512.96875 " fill-opacity="1" fill-rule="nonzero"/><path fill="#383838" d="M 404.871094 618.828125 C 363.59375 618.828125 324.507812 614.046875 291.804688 604.875 C 277.949219 600.988281 245.34375 591.816406 244.746094 574.371094 C 244.046875 555.332031 280.042969 545.5625 291.804688 542.273438 C 328.996094 532.105469 368.078125 530.710938 404.871094 530.710938 C 441.5625 530.710938 480.746094 532.105469 517.933594 542.273438 C 530.996094 545.863281 565.492188 555.234375 564.992188 574.371094 C 564.496094 591.816406 531.890625 600.988281 517.933594 604.875 C 485.332031 614.046875 446.246094 618.828125 404.871094 618.828125 Z M 404.871094 531.808594 C 368.179688 531.808594 329.195312 533.203125 292.105469 543.371094 C 280.441406 546.558594 245.046875 556.230469 245.742188 574.472656 C 246.339844 591.21875 278.445312 600.1875 292.105469 604.078125 C 324.609375 613.148438 363.691406 618.03125 404.871094 618.03125 C 446.046875 618.03125 485.132812 613.246094 517.632812 604.078125 C 531.394531 600.1875 563.5 591.21875 563.996094 574.472656 L 564.496094 574.472656 L 563.996094 574.472656 C 564.496094 556.230469 530.496094 546.859375 517.632812 543.371094 C 480.542969 533.203125 441.5625 531.808594 404.871094 531.808594 Z M 404.871094 531.808594 " fill-opacity="1" fill-rule="nonzero"/><path fill="#383838" d="M 404.871094 627.601562 C 370.671875 627.601562 334.976562 622.917969 304.367188 614.246094 L 304.070312 614.144531 C 291.804688 610.65625 262.890625 602.582031 262.492188 587.929688 C 262.09375 576.066406 276.152344 566.199219 304.367188 558.421875 C 335.976562 549.75 369.972656 549.050781 404.871094 549.050781 C 439.765625 549.050781 473.765625 549.75 505.371094 558.421875 C 524.914062 563.804688 548.042969 573.273438 547.246094 587.929688 C 546.449219 602.679688 517.632812 610.753906 505.371094 614.144531 C 474.761719 622.917969 439.066406 627.601562 404.871094 627.601562 Z M 404.871094 550.25 C 369.972656 550.25 336.175781 550.945312 304.667969 559.617188 C 276.949219 567.195312 263.089844 576.765625 263.492188 588.128906 C 263.988281 601.984375 292.304688 609.957031 304.367188 613.347656 L 304.667969 613.445312 C 335.175781 622.019531 370.769531 626.703125 404.871094 626.703125 C 438.96875 626.703125 474.5625 622.019531 505.070312 613.445312 C 517.136719 610.058594 545.453125 602.082031 546.25 588.128906 C 547.046875 574.171875 524.316406 564.902344 505.070312 559.71875 C 473.664062 550.945312 439.765625 550.25 404.871094 550.25 Z M 404.871094 550.25 " fill-opacity="1" fill-rule="nonzero"/><path fill="#383838" d="M 404.871094 635.777344 C 376.15625 635.777344 344.949219 631.390625 316.929688 623.515625 L 316.132812 623.316406 C 303.96875 619.828125 281.238281 613.445312 280.242188 601.1875 C 279.839844 596.699219 281.335938 592.613281 284.726562 589.023438 C 297.6875 574.871094 340.363281 567.09375 404.871094 567.09375 C 469.378906 567.09375 512.050781 574.871094 525.011719 589.023438 C 528.402344 592.613281 529.898438 596.800781 529.5 601.1875 C 528.503906 613.445312 505.769531 619.828125 493.605469 623.316406 L 492.808594 623.515625 C 464.890625 631.390625 433.585938 635.777344 404.871094 635.777344 Z M 404.871094 567.992188 C 340.660156 567.992188 298.285156 575.667969 285.425781 589.621094 C 282.234375 593.011719 280.839844 596.898438 281.238281 601.085938 C 282.234375 612.648438 304.46875 618.929688 316.332031 622.320312 L 317.128906 622.519531 C 345.046875 630.394531 376.15625 634.777344 404.769531 634.777344 C 433.386719 634.777344 464.59375 630.394531 492.410156 622.519531 L 493.207031 622.320312 C 505.171875 618.929688 527.40625 612.648438 528.402344 601.085938 C 528.703125 596.898438 527.304688 593.113281 524.214844 589.621094 C 511.550781 575.667969 469.078125 567.992188 404.871094 567.992188 Z M 404.871094 567.992188 " fill-opacity="1" fill-rule="nonzero"/><path fill="#383838" d="M 404.871094 642.953125 C 387.722656 642.953125 299.980469 637.769531 297.988281 613.246094 C 297.6875 609.359375 298.984375 605.769531 301.875 602.679688 C 313.242188 590.421875 348.835938 583.941406 404.871094 583.941406 L 405.566406 583.941406 C 405.566406 583.941406 405.667969 583.941406 405.765625 583.941406 C 461.898438 583.941406 496.199219 590.121094 507.664062 602.382812 C 510.65625 605.570312 512.050781 609.261719 511.851562 613.246094 C 511.253906 623.316406 491.015625 628.996094 481.242188 631.6875 L 480.246094 631.988281 C 454.921875 639.066406 428.199219 642.953125 404.871094 642.953125 Z M 405.765625 584.839844 C 405.667969 584.839844 405.667969 584.839844 405.566406 584.839844 L 404.871094 584.839844 C 349.933594 584.839844 313.542969 591.417969 302.574219 603.28125 C 299.882812 606.171875 298.6875 609.558594 298.886719 613.046875 C 300.78125 636.574219 388.71875 641.855469 404.769531 641.855469 C 428 641.855469 454.621094 637.96875 479.746094 630.890625 L 480.746094 630.59375 C 490.214844 627.902344 510.058594 622.417969 510.65625 613.046875 C 510.855469 609.359375 509.558594 605.972656 506.765625 602.878906 C 495.601562 591.019531 461.601562 584.839844 405.765625 584.839844 Z M 405.765625 584.839844 " fill-opacity="1" fill-rule="nonzero"/><path fill="#383838" d="M 404.871094 649.035156 C 394.003906 649.035156 317.429688 644.148438 315.734375 624.210938 C 315.4375 621.121094 316.53125 618.230469 318.925781 615.640625 C 332.1875 601.1875 383.535156 599.691406 404.96875 599.691406 C 421.71875 599.691406 477.453125 600.886719 491.113281 615.839844 C 493.40625 618.332031 494.402344 621.222656 494.105469 624.210938 L 493.605469 624.210938 L 494.105469 624.210938 C 492.210938 644.347656 416.335938 649.035156 404.871094 649.035156 Z M 404.871094 600.589844 C 383.535156 600.589844 332.585938 602.082031 319.625 616.238281 C 317.429688 618.628906 316.53125 621.222656 316.730469 624.011719 C 318.226562 641.65625 387.421875 647.9375 404.871094 647.9375 C 423.117188 647.9375 491.414062 641.957031 493.007812 624.011719 C 493.308594 621.222656 492.308594 618.730469 490.214844 616.335938 C 476.957031 601.785156 421.519531 600.589844 404.871094 600.589844 Z M 404.871094 600.589844 " fill-opacity="1" fill-rule="nonzero"/><path fill="#383838" d="M 404.871094 653.617188 C 390.8125 653.617188 335.175781 648.433594 333.480469 633.683594 C 333.183594 631.488281 333.882812 629.394531 335.574219 627.503906 C 347.539062 614.046875 404.273438 613.84375 404.871094 613.84375 C 405.46875 613.84375 462.398438 614.046875 474.164062 627.402344 C 475.859375 629.296875 476.558594 631.390625 476.257812 633.683594 C 474.460938 648.835938 420.125 653.617188 404.871094 653.617188 Z M 404.871094 614.941406 C 389.117188 614.941406 345.945312 617.335938 336.273438 628.199219 C 334.777344 629.894531 334.179688 631.6875 334.378906 633.582031 C 335.976562 646.941406 388.417969 652.621094 404.871094 652.621094 C 424.210938 652.621094 473.664062 646.941406 475.359375 633.582031 C 475.558594 631.589844 474.960938 629.792969 473.464844 628.101562 C 464.292969 617.734375 424.609375 614.941406 404.871094 614.941406 Z M 404.871094 614.941406 " fill-opacity="1" fill-rule="nonzero"/><path fill="#383838" d="M 404.871094 656.609375 C 394.203125 656.609375 352.226562 651.925781 351.128906 641.558594 C 351.03125 640.160156 351.527344 638.765625 352.625 637.46875 C 360.101562 629.195312 394.003906 626.503906 404.769531 626.503906 C 416.035156 626.503906 449.4375 629.097656 456.914062 637.371094 C 458.113281 638.667969 458.609375 640.0625 458.511719 641.558594 L 458.011719 641.558594 L 458.511719 641.558594 C 457.613281 651.925781 415.636719 656.609375 404.871094 656.609375 Z M 404.871094 627.601562 C 394.101562 627.601562 360.703125 630.195312 353.421875 638.167969 C 352.425781 639.265625 352.027344 640.359375 352.125 641.457031 C 353.023438 650.429688 392.507812 655.613281 404.871094 655.613281 C 417.234375 655.613281 456.714844 650.429688 457.613281 641.457031 C 457.710938 640.261719 457.3125 639.164062 456.316406 638.070312 C 449.136719 630.195312 415.636719 627.601562 404.871094 627.601562 Z M 404.871094 627.601562 " fill-opacity="1" fill-rule="nonzero"/><path fill="#383838" d="M 404.871094 657.707031 C 397.390625 657.707031 369.476562 654.019531 368.875 647.539062 C 368.777344 646.640625 369.175781 645.84375 369.875 645.046875 C 374.757812 639.761719 397.191406 637.371094 404.871094 637.371094 C 413.144531 637.371094 435.179688 640.0625 439.867188 645.246094 C 440.5625 646.042969 440.863281 646.742188 440.761719 647.636719 C 440.363281 654.019531 413.644531 657.707031 404.871094 657.707031 Z M 404.871094 638.269531 C 396.695312 638.269531 375.058594 640.761719 370.671875 645.644531 C 370.171875 646.242188 369.875 646.839844 369.972656 647.339844 C 370.371094 652.421875 395.597656 656.609375 404.96875 656.609375 C 414.839844 656.609375 439.46875 652.621094 439.964844 647.339844 C 439.964844 646.839844 439.765625 646.242188 439.265625 645.742188 C 434.980469 641.257812 414.339844 638.269531 404.871094 638.269531 Z M 404.871094 638.269531 " fill-opacity="1" fill-rule="nonzero"/><path fill="#383838" d="M 404.871094 656.507812 C 396.097656 656.507812 386.625 654.316406 386.625 651.125 C 386.625 647.4375 396.097656 645.84375 404.871094 645.84375 C 413.644531 645.84375 423.117188 647.539062 423.117188 651.125 C 423.117188 654.417969 413.742188 656.507812 404.871094 656.507812 Z M 404.871094 646.839844 C 394.203125 646.839844 387.621094 649.132812 387.621094 651.125 C 387.621094 652.820312 394.5 655.511719 404.871094 655.511719 C 415.238281 655.511719 422.117188 652.921875 422.117188 651.125 C 422.117188 649.132812 415.539062 646.839844 404.871094 646.839844 Z M 404.871094 646.839844 " fill-opacity="1" fill-rule="nonzero"/><path fill="#383838" d="M 404.371094 551.144531 L 405.367188 551.144531 L 405.367188 657.207031 L 404.371094 657.207031 Z M 404.371094 551.144531 " fill-opacity="1" fill-rule="nonzero"/><path fill="#383838" d="M 414.640625 656.910156 C 411.152344 656.910156 407.761719 655.613281 404.570312 652.921875 L 405.167969 652.125 C 408.957031 655.214844 412.746094 656.410156 416.734375 655.710938 C 430.195312 653.519531 443.953125 631.289062 458.511719 607.664062 C 477.652344 576.664062 497.496094 544.566406 520.128906 551.742188 L 519.828125 552.742188 C 497.992188 545.863281 478.351562 577.5625 459.40625 608.261719 C 444.75 631.988281 430.890625 654.417969 416.933594 656.710938 C 416.234375 656.808594 415.4375 656.910156 414.640625 656.910156 Z M 414.640625 656.910156 " fill-opacity="1" fill-rule="nonzero"/><path fill="#383838" d="M 418.230469 654.515625 C 413.84375 654.515625 409.355469 654.019531 404.769531 653.019531 L 404.96875 652.023438 C 441.660156 660.199219 472.367188 632.484375 499.390625 607.964844 C 504.472656 603.378906 509.257812 599.09375 513.945312 595.003906 C 544.652344 568.890625 578.453125 543.269531 623.71875 541.773438 L 623.71875 542.773438 C 578.851562 544.265625 545.152344 569.785156 514.542969 595.804688 C 509.859375 599.789062 505.070312 604.175781 499.988281 608.664062 C 476.257812 630.292969 449.535156 654.515625 418.230469 654.515625 Z M 418.230469 654.515625 " fill-opacity="1" fill-rule="nonzero"/><path fill="#383838" d="M 416.136719 653.617188 C 412.449219 653.617188 408.660156 653.417969 404.871094 653.019531 L 404.96875 652.023438 C 453.625 657.507812 496.597656 626.105469 534.484375 598.496094 C 541.664062 593.3125 548.441406 588.328125 555.222656 583.640625 C 599.09375 553.238281 647.847656 524.332031 706.074219 519.246094 L 706.171875 520.242188 C 648.046875 525.328125 599.589844 554.136719 555.722656 584.539062 C 548.941406 589.222656 542.160156 594.207031 534.984375 599.390625 C 499.988281 624.910156 460.503906 653.617188 416.136719 653.617188 Z M 416.136719 653.617188 " fill-opacity="1" fill-rule="nonzero"/><path fill="#383838" d="M 408.757812 653.019531 C 407.460938 653.019531 406.164062 653.019531 404.871094 652.921875 L 404.871094 651.925781 C 464.394531 653.617188 516.539062 615.738281 562.601562 582.445312 C 568.882812 577.859375 575.363281 573.175781 581.742188 568.691406 C 640.269531 527.421875 693.910156 492.632812 759.117188 486.152344 L 759.214844 487.148438 C 694.308594 493.628906 640.769531 528.21875 582.34375 569.488281 C 576.0625 573.972656 569.578125 578.65625 563.199219 583.242188 C 518.035156 616.039062 466.886719 653.019531 408.757812 653.019531 Z M 408.757812 653.019531 " fill-opacity="1" fill-rule="nonzero"/><g clip-path="url(#c420d7402a)"><path fill="#383838" d="M 404.96875 653.019531 L 404.96875 652.023438 C 479.25 648.433594 536.179688 599.691406 591.214844 552.640625 C 646.253906 505.589844 703.082031 456.945312 777.460938 453.058594 L 777.5625 454.054688 C 703.582031 457.941406 646.851562 506.488281 591.914062 553.4375 C 536.578125 600.589844 479.546875 649.332031 404.96875 653.019531 Z M 404.96875 653.019531 " fill-opacity="1" fill-rule="nonzero"/></g><path fill="#383838" d="M 404.96875 653.019531 L 404.871094 652.023438 C 465.488281 643.152344 515.738281 597.398438 560.007812 557.027344 C 567.484375 550.148438 574.566406 543.769531 581.742188 537.390625 C 631.894531 493.03125 688.726562 442.789062 758.917969 423.550781 L 759.214844 424.546875 C 689.222656 443.6875 632.394531 493.929688 582.34375 538.1875 C 575.164062 544.464844 568.085938 550.945312 560.605469 557.722656 C 516.238281 598.195312 465.886719 644.148438 404.96875 653.019531 Z M 404.96875 653.019531 " fill-opacity="1" fill-rule="nonzero"/><path fill="#383838" d="M 404.96875 653.019531 L 404.769531 652.023438 C 454.921875 641.058594 495.203125 593.710938 530.796875 551.941406 C 539.269531 541.976562 547.347656 532.503906 555.222656 523.933594 C 598.09375 477.179688 645.054688 429.035156 705.972656 399.726562 L 706.375 400.625 C 645.554688 429.832031 598.695312 477.878906 555.921875 524.628906 C 548.042969 533.203125 540.066406 542.574219 531.59375 552.539062 C 495.898438 594.507812 455.519531 641.957031 404.96875 653.019531 Z M 404.96875 653.019531 " fill-opacity="1" fill-rule="nonzero"/><path fill="#383838" d="M 405.070312 653.019531 L 404.671875 652.125 C 429.894531 641.957031 448.042969 615.242188 462.699219 593.710938 L 464.992188 590.421875 C 477.652344 571.878906 489.617188 552.441406 501.183594 533.601562 C 505.371094 526.824219 509.660156 519.945312 513.847656 513.066406 L 515.738281 510.078125 C 545.949219 461.53125 577.257812 411.390625 623.417969 377.597656 L 624.019531 378.394531 C 578.054688 412.089844 546.746094 462.128906 516.539062 510.574219 L 514.644531 513.566406 C 510.355469 520.34375 506.070312 527.320312 501.980469 534.101562 C 490.414062 552.941406 478.449219 572.378906 465.789062 590.917969 L 463.496094 594.207031 C 448.839844 615.839844 430.59375 642.753906 405.070312 653.019531 Z M 405.070312 653.019531 " fill-opacity="1" fill-rule="nonzero"/><path fill="#383838" d="M 405.269531 652.921875 L 404.570312 652.222656 C 418.929688 638.964844 426.105469 617.433594 432.488281 598.394531 C 433.484375 595.503906 434.382812 592.714844 435.378906 589.921875 C 443.355469 566.996094 450.433594 543.46875 457.414062 520.644531 C 458.910156 515.558594 460.503906 510.574219 462 505.492188 C 464.59375 497.019531 467.085938 488.34375 469.675781 479.273438 C 481.839844 436.808594 494.503906 392.851562 519.628906 358.757812 L 520.425781 359.355469 C 495.402344 393.347656 482.839844 437.207031 470.675781 479.574219 C 468.082031 488.644531 465.589844 497.316406 462.996094 505.789062 C 461.5 510.875 459.90625 515.859375 458.410156 520.941406 C 451.53125 543.769531 444.351562 567.394531 436.375 590.222656 C 435.378906 592.914062 434.480469 595.804688 433.484375 598.59375 C 427.003906 617.734375 419.726562 639.464844 405.269531 652.921875 Z M 405.269531 652.921875 " fill-opacity="1" fill-rule="nonzero"/><g clip-path="url(#fce1d826a5)"><path fill="#383838" d="M 404.371094 351.980469 L 405.367188 351.980469 L 405.367188 652.523438 L 404.371094 652.523438 Z M 404.371094 351.980469 " fill-opacity="1" fill-rule="nonzero"/></g><path fill="#383838" d="M 404.570312 652.921875 C 390.015625 639.464844 382.734375 617.832031 376.355469 598.695312 C 375.359375 595.804688 374.460938 593.011719 373.464844 590.222656 C 365.488281 567.292969 358.308594 543.667969 351.429688 520.84375 C 349.933594 515.757812 348.339844 510.773438 346.84375 505.691406 C 344.25 497.117188 341.757812 488.542969 339.164062 479.472656 C 327 437.109375 314.4375 393.25 289.414062 359.257812 L 290.210938 358.660156 C 315.335938 392.75 327.898438 436.710938 340.164062 479.175781 C 342.753906 488.246094 345.246094 496.917969 347.839844 505.390625 C 349.335938 510.375 350.929688 515.460938 352.425781 520.542969 C 359.304688 543.371094 366.484375 566.996094 374.460938 589.921875 C 375.457031 592.613281 376.355469 595.503906 377.351562 598.394531 C 383.734375 617.433594 390.910156 638.964844 405.269531 652.222656 Z M 404.570312 652.921875 " fill-opacity="1" fill-rule="nonzero"/><path fill="#383838" d="M 404.671875 653.019531 C 379.144531 642.753906 360.902344 615.839844 346.144531 594.207031 L 343.851562 590.917969 C 331.1875 572.378906 319.222656 552.839844 307.660156 534.101562 C 303.472656 527.320312 299.183594 520.441406 294.996094 513.566406 L 293.101562 510.574219 C 262.890625 462.128906 231.683594 412.089844 185.621094 378.394531 L 186.21875 377.597656 C 232.382812 411.390625 263.691406 461.53125 293.898438 510.078125 L 295.792969 513.066406 C 300.082031 519.84375 304.367188 526.824219 308.457031 533.601562 C 320.023438 552.441406 331.988281 571.878906 344.648438 590.421875 L 346.941406 593.710938 C 361.597656 615.242188 379.746094 642.054688 404.96875 652.125 Z M 404.671875 653.019531 " fill-opacity="1" fill-rule="nonzero"/><path fill="#383838" d="M 404.769531 653.019531 C 371.269531 646.742188 342.457031 618.230469 321.417969 597.398438 C 303.871094 580.054688 287.121094 561.414062 270.867188 543.46875 C 265.285156 537.289062 259.503906 530.910156 253.820312 524.730469 C 211.046875 478.078125 164.285156 430.03125 103.367188 400.726562 L 103.765625 399.828125 C 164.882812 429.132812 211.746094 477.28125 254.515625 524.03125 C 260.199219 530.3125 265.984375 536.59375 271.566406 542.773438 C 287.816406 560.714844 304.566406 579.355469 322.117188 596.699219 C 343.054688 617.433594 371.769531 645.84375 404.96875 652.125 Z M 404.769531 653.019531 " fill-opacity="1" fill-rule="nonzero"/><path fill="#383838" d="M 404.871094 653.019531 C 343.851562 644.148438 293.5 598.195312 249.132812 557.722656 C 241.65625 550.945312 234.675781 544.566406 227.597656 538.285156 C 177.445312 493.929688 120.714844 443.6875 50.523438 424.449219 L 50.824219 423.453125 C 121.113281 442.789062 177.945312 493.03125 228.09375 537.390625 C 235.175781 543.667969 242.253906 550.050781 249.730469 556.925781 C 294.097656 597.398438 344.351562 643.152344 404.96875 652.023438 Z M 404.871094 653.019531 " fill-opacity="1" fill-rule="nonzero"/><path fill="#383838" d="M 404.871094 653.019531 C 330.292969 649.332031 273.261719 600.589844 218.027344 553.4375 C 163.1875 506.488281 106.359375 457.941406 32.378906 454.054688 L 32.476562 453.058594 C 106.757812 456.945312 163.6875 505.589844 218.722656 552.640625 C 273.761719 599.691406 330.691406 648.335938 404.96875 652.023438 Z M 404.871094 653.019531 " fill-opacity="1" fill-rule="nonzero"/><path fill="#383838" d="M 401.082031 653.019531 C 342.855469 653.019531 291.707031 615.9375 246.441406 583.144531 C 239.960938 578.457031 233.777344 573.972656 227.496094 569.585938 C 169.171875 528.316406 115.628906 493.726562 50.625 487.25 L 50.722656 486.253906 C 115.929688 492.730469 169.667969 527.421875 228.09375 568.789062 C 234.378906 573.175781 240.757812 577.859375 247.039062 582.347656 C 293.203125 615.738281 345.445312 653.617188 404.96875 652.023438 L 404.96875 653.019531 C 403.671875 653.019531 402.378906 653.019531 401.082031 653.019531 Z M 401.082031 653.019531 " fill-opacity="1" fill-rule="nonzero"/><path fill="#383838" d="M 393.601562 653.617188 C 349.234375 653.617188 309.851562 624.910156 274.757812 599.390625 C 267.578125 594.109375 260.796875 589.222656 253.917969 584.4375 C 210.148438 554.136719 161.59375 525.328125 103.464844 520.144531 L 103.566406 519.148438 C 161.890625 524.332031 210.546875 553.140625 254.417969 583.542969 C 261.296875 588.328125 268.078125 593.210938 275.253906 598.496094 C 313.144531 626.105469 356.015625 657.40625 404.671875 651.925781 L 404.769531 652.921875 C 401.179688 653.417969 397.390625 653.617188 393.601562 653.617188 Z M 393.601562 653.617188 " fill-opacity="1" fill-rule="nonzero"/><path fill="#383838" d="M 391.507812 654.515625 C 360.203125 654.515625 333.582031 630.394531 309.753906 608.863281 C 304.667969 604.277344 299.882812 599.890625 295.097656 595.902344 C 264.488281 569.886719 230.886719 544.367188 185.921875 542.871094 L 185.921875 541.875 C 231.1875 543.371094 264.984375 568.988281 295.695312 595.105469 C 300.480469 599.191406 305.265625 603.480469 310.351562 608.164062 C 337.371094 632.585938 367.980469 660.296875 404.671875 652.125 L 404.871094 653.121094 C 400.382812 654.019531 395.898438 654.515625 391.507812 654.515625 Z M 391.507812 654.515625 " fill-opacity="1" fill-rule="nonzero"/><path fill="#383838" d="M 395.097656 656.910156 C 394.300781 656.910156 393.601562 656.808594 392.804688 656.710938 C 378.945312 654.417969 365.089844 631.988281 350.332031 608.261719 C 331.386719 577.5625 311.746094 545.761719 289.910156 552.742188 L 289.613281 551.742188 C 312.144531 544.566406 331.988281 576.664062 351.230469 607.664062 C 365.785156 631.191406 379.546875 653.519531 393.003906 655.710938 C 397.09375 656.410156 400.882812 655.214844 404.570312 652.125 L 405.167969 652.921875 C 401.976562 655.511719 398.589844 656.910156 395.097656 656.910156 Z M 395.097656 656.910156 " fill-opacity="1" fill-rule="nonzero"/></svg>